<?xml version="1.0" encoding="utf-8"?>
<!-- Generator: Adobe Illustrator 16.0.0, SVG Export Plug-In . SVG Version: 6.00 Build 0)  -->
<!DOCTYPE svg PUBLIC "-//W3C//DTD SVG 1.1//EN" "http://www.w3.org/Graphics/SVG/1.1/DTD/svg11.dtd">
<svg version="1.1" id="Layer_1" xmlns="http://www.w3.org/2000/svg" xmlns:xlink="http://www.w3.org/1999/xlink" x="0px" y="0px"
	 width="270.523px" height="156.927px" viewBox="10.562 4.582 270.523 156.927"
	 enable-background="new 10.562 4.582 270.523 156.927" xml:space="preserve">
<g>
	<path fill="#FDDFEB" d="M23.487,25.719l-1.269,12l18.744,1.979l-0.824,7.794l-18.744-1.981l-1.739,16.455l-9.093-0.961
		l4.654-44.043l29.383,3.105l-0.824,7.794L23.487,25.719z"/>
	<path fill="#FDDFEB" d="M80.351,25.659c2.938,2.188,5.062,5.092,6.367,8.711c1.306,3.62,1.709,7.802,1.208,12.544
		c-0.501,4.743-1.769,8.748-3.803,12.014c-2.034,3.268-4.717,5.663-8.047,7.188c-3.331,1.524-7.141,2.061-11.429,1.607
		c-4.29-0.453-7.902-1.774-10.841-3.96c-2.938-2.187-5.061-5.09-6.366-8.711c-1.307-3.62-1.71-7.801-1.208-12.544
		c0.501-4.742,1.77-8.747,3.805-12.014c2.032-3.267,4.715-5.663,8.046-7.188c3.33-1.524,7.14-2.06,11.429-1.606
		C73.799,22.153,77.412,23.473,80.351,25.659z M59.857,32.846c-2.322,2.444-3.729,5.997-4.223,10.656
		c-0.493,4.661,0.141,8.428,1.902,11.304c1.76,2.876,4.414,4.5,7.96,4.875s6.48-0.66,8.803-3.104
		c2.322-2.444,3.729-5.996,4.223-10.657c0.492-4.66-0.142-8.428-1.901-11.303c-1.761-2.876-4.414-4.501-7.96-4.876
		C65.115,29.366,62.179,30.402,59.857,32.846z"/>
	<path fill="#FDDFEB" d="M125.605,31.881c2.411,2.424,3.408,5.636,2.985,9.636c-0.283,2.682-1.248,4.894-2.891,6.637
		c-1.646,1.745-3.74,2.837-6.29,3.277l-0.014,0.123c1.507,0.744,2.65,1.75,3.435,3.022c0.782,1.271,1.543,3.343,2.283,6.215
		l3.104,12.65l-9.896-1.046L115.9,61.568c-0.572-2.479-1.355-4.24-2.35-5.283c-0.995-1.044-2.565-1.679-4.709-1.906l-5.01-0.529
		l-1.778,16.826l-9.094-0.961l4.653-44.043l16.208,1.713C119.263,27.959,123.191,29.458,125.605,31.881z M104.595,46.612l6.433,0.68
		c5.072,0.536,7.839-1.361,8.297-5.691c0.432-4.083-2.056-6.41-7.457-6.98l-5.938-0.628L104.595,46.612z"/>
	<path fill="#FDDFEB" d="M147.08,38.78l-1.053,9.959l19.919,2.105l-0.816,7.732l-19.919-2.105l-1.137,10.764l21.897,2.314
		l-0.824,7.794l-30.991-3.275l4.654-44.043l30.438,3.216l-0.824,7.794L147.08,38.78z"/>
	<path fill="#FDDFEB" d="M173.313,78.206l4.654-44.042l9.094,0.961l-4.653,44.042L173.313,78.206z"/>
	<path fill="#FDDFEB" d="M227.887,42.408c2.939,2.959,4.393,6.751,4.363,11.376l-9.773-1.033c-0.183-2.23-0.934-3.987-2.257-5.274
		s-3.202-2.059-5.634-2.316c-3.549-0.375-6.496,0.681-8.843,3.163c-2.349,2.483-3.77,6.076-4.267,10.777
		c-0.51,4.825,0.099,8.727,1.827,11.703c1.729,2.977,4.347,4.649,7.854,5.021c3.176,0.336,5.701-0.304,7.58-1.919
		c1.885-1.615,3.021-4.111,3.423-7.488l-10.456-1.105l0.784-7.423l18.931,2l-2.558,24.188l-7.67-0.812l0.503-4.763l-0.124-0.014
		c-1.468,1.639-3.354,2.836-5.665,3.592c-2.311,0.758-4.91,0.982-7.798,0.678c-3.752-0.396-6.915-1.658-9.481-3.785
		c-2.57-2.127-4.426-4.971-5.571-8.533c-1.147-3.561-1.472-7.671-0.979-12.332c0.501-4.742,1.781-8.776,3.844-12.103
		c2.061-3.327,4.766-5.752,8.116-7.275c3.353-1.522,7.151-2.058,11.399-1.609C220.796,37.687,224.947,39.45,227.887,42.408z"/>
	<path fill="#FDDFEB" d="M263.503,87.737l-6.647-18.78c-2.434-6.971-4.473-13.316-6.119-19.036l-0.124-0.013
		c-0.39,6.839-0.896,13.229-1.524,19.167l-1.791,16.95l-8.723-0.922l4.653-44.043l12.929,1.366l6.646,18.779
		c2.434,6.972,4.473,13.318,6.121,19.038l0.124,0.012c0.39-6.84,0.896-13.229,1.525-19.167l1.79-16.949l8.722,0.922l-4.654,44.043
		L263.503,87.737z"/>
	<path fill="#FDDFEB" d="M34.124,149.896l-2.808,11.021l-9.562,0.592l12.597-45.156l12.292-0.762l18.074,43.257l-9.561,0.592
		l-4.083-10.592L34.124,149.896z M46.993,138.317c-2.43-6.331-4.461-11.979-6.099-16.947l-0.124,0.008
		c-1.173,5.89-2.473,11.744-3.896,17.566l-0.75,2.977l11.981-0.742L46.993,138.317z"/>
	<path fill="#FDDFEB" d="M75.627,121.647l0.747,12.045l18.812-1.165l0.484,7.822l-18.812,1.166l1.023,16.515l-9.126,0.566
		l-2.739-44.207l29.49-1.827l0.485,7.823L75.627,121.647z"/>
	<path fill="#FDDFEB" d="M111.884,119.401l0.746,12.045l18.811-1.166l0.485,7.823l-18.811,1.166l1.022,16.515l-9.127,0.565
		l-2.739-44.206l29.491-1.827l0.485,7.823L111.884,119.401z"/>
	<path fill="#FDDFEB" d="M145.506,142.995l-2.81,11.02l-9.561,0.593l12.597-45.155l12.293-0.763l18.075,43.256l-9.563,0.593
		l-4.082-10.593L145.506,142.995z M158.374,131.415c-2.429-6.33-4.461-11.979-6.098-16.947l-0.125,0.008
		c-1.173,5.891-2.472,11.746-3.899,17.566l-0.747,2.978l11.982-0.743L158.374,131.415z"/>
	<path fill="#FDDFEB" d="M180.136,151.695l-2.739-44.206l9.127-0.564l2.739,44.205L180.136,151.695z"/>
	<path fill="#FDDFEB" d="M225.34,107.76c2.782,1.988,4.3,4.99,4.548,9.004c0.167,2.691-0.416,5.031-1.748,7.025
		c-1.331,1.994-3.215,3.42-5.653,4.277l0.009,0.123c1.606,0.482,2.902,1.285,3.887,2.408s2.081,3.039,3.286,5.747l5.167,11.96
		l-9.935,0.615l-4.189-10.272c-0.979-2.351-2.042-3.957-3.195-4.821c-1.154-0.861-2.81-1.229-4.962-1.096l-5.027,0.312l1.048,16.89
		l-9.128,0.565l-2.738-44.207l16.266-1.008C218.435,104.946,222.559,105.771,225.34,107.76z M207.076,125.781l6.456-0.399
		c5.09-0.314,7.501-2.646,7.23-6.991c-0.254-4.101-3.093-5.979-8.514-5.646l-5.959,0.369L207.076,125.781z"/>
	<path fill="#FDDFEB" d="M264.328,104.815c2.986,2.286,4.63,5.811,4.925,10.571l-9.252,0.573c-0.145-2.318-0.915-4.068-2.319-5.248
		c-1.403-1.182-3.346-1.694-5.829-1.541c-2.028,0.125-3.635,0.672-4.82,1.64c-1.187,0.968-1.734,2.176-1.646,3.622
		c0.069,1.117,0.436,2.01,1.099,2.674c0.666,0.667,1.678,1.217,3.032,1.65c1.355,0.438,3.316,0.888,5.88,1.351
		c3.488,0.655,6.317,1.364,8.483,2.124c2.164,0.759,3.977,1.986,5.432,3.684c1.453,1.696,2.276,4.057,2.464,7.075
		c0.173,2.774-0.401,5.263-1.72,7.462c-1.316,2.2-3.244,3.961-5.78,5.28c-2.533,1.319-5.501,2.087-8.895,2.297
		c-5.587,0.347-10.047-0.728-13.381-3.222c-3.333-2.494-5.153-6.227-5.461-11.191l9.438-0.585c0.166,2.69,1.017,4.675,2.551,5.951
		c1.53,1.272,3.705,1.825,6.521,1.651c2.317-0.146,4.139-0.766,5.462-1.865c1.322-1.102,1.932-2.52,1.824-4.258
		c-0.077-1.241-0.448-2.205-1.113-2.893c-0.666-0.685-1.593-1.199-2.776-1.541c-1.186-0.343-3.059-0.767-5.624-1.272
		c-3.656-0.685-6.569-1.4-8.732-2.14c-2.165-0.738-3.997-1.943-5.492-3.617c-1.497-1.672-2.335-4.02-2.521-7.041
		c-0.159-2.566,0.383-4.887,1.626-6.955c1.24-2.072,3.069-3.731,5.486-4.983c2.414-1.251,5.214-1.975,8.403-2.172
		C257.092,101.554,261.339,102.527,264.328,104.815z"/>
</g>
<g>
	<path fill="#FDDFEB" d="M90.044,7.47v2.124h-0.623V4.638h1.876c0.956,0,1.473,0.552,1.473,1.416S92.253,7.47,91.297,7.47H90.044z
		 M92.125,6.054c0-0.545-0.297-0.821-0.843-0.821h-1.238v1.643h1.238C91.828,6.875,92.125,6.599,92.125,6.054z"/>
	<path fill="#FDDFEB" d="M96.476,7.159c-0.05-0.411-0.263-0.651-0.688-0.651c-0.623,0-1.21,0.588-1.21,1.798v1.289h-0.595V6.026
		h0.595v0.658c0.275-0.432,0.722-0.715,1.316-0.715c0.708,0,1.133,0.425,1.176,1.189H96.476z"/>
	<path fill="#FDDFEB" d="M98.418,6.026h1.686V9.07h1.316v0.524h-3.144V9.07h1.232V6.55h-1.091V6.026z M99.764,4.582
		c0.275,0,0.488,0.22,0.488,0.496c0,0.269-0.213,0.481-0.488,0.481c-0.27,0-0.489-0.212-0.489-0.481
		C99.275,4.801,99.494,4.582,99.764,4.582z"/>
	<path fill="#FDDFEB" d="M105.593,9.594h-0.595V7.237c0-0.496-0.233-0.729-0.658-0.729c-0.56,0-1.048,0.609-1.048,1.649v1.438
		h-0.595V6.026h0.595v0.658c0.255-0.41,0.701-0.715,1.211-0.715c0.743,0,1.09,0.453,1.09,1.14V9.594z"/>
	<path fill="#FDDFEB" d="M106.757,6.026h0.949V4.957l0.595-0.375v1.444h1.741v0.538h-1.741v1.827c0,0.496,0.22,0.722,0.616,0.722
		c0.312,0,0.566-0.099,0.878-0.425l0.219,0.503c-0.325,0.325-0.651,0.46-1.097,0.46c-0.779,0-1.211-0.411-1.211-1.239V6.564h-0.949
		V6.026z"/>
	<path fill="#FDDFEB" d="M111.15,6.026h0.949V4.957l0.595-0.375v1.444h1.741v0.538h-1.741v1.827c0,0.496,0.22,0.722,0.616,0.722
		c0.312,0,0.566-0.099,0.878-0.425l0.22,0.503c-0.326,0.325-0.652,0.46-1.098,0.46c-0.779,0-1.211-0.411-1.211-1.239V6.564h-0.949
		V6.026z"/>
	<path fill="#FDDFEB" d="M119.012,7.938h-2.79c0.036,0.708,0.468,1.175,1.098,1.175c0.538,0,0.906-0.262,1.147-0.708l0.474,0.248
		c-0.389,0.75-0.955,0.998-1.621,0.998c-1.041,0-1.706-0.8-1.706-1.841c0-1.005,0.638-1.841,1.706-1.841
		c1.104,0,1.692,0.786,1.692,1.721V7.938z M116.265,7.399h2.117c-0.106-0.566-0.481-0.892-1.062-0.892
		C116.746,6.507,116.385,6.861,116.265,7.399z"/>
	<path fill="#FDDFEB" d="M121.599,5.969c0.496,0,0.893,0.241,1.091,0.51V4.582h0.595v5.013h-0.595V9.12
		c-0.198,0.276-0.603,0.531-1.091,0.531c-1.048,0-1.635-0.75-1.635-1.841S120.551,5.969,121.599,5.969z M121.656,9.113
		c0.68,0,1.084-0.538,1.084-1.303s-0.404-1.303-1.084-1.303s-1.083,0.538-1.083,1.303S120.976,9.113,121.656,9.113z"/>
	<path fill="#FDDFEB" d="M132.416,9.594h-0.595V7.06c0-0.389-0.113-0.545-0.39-0.545c-0.34,0-0.63,0.404-0.63,1.402v1.678h-0.595
		V7.06c0-0.389-0.113-0.545-0.39-0.545c-0.34,0-0.63,0.404-0.63,1.402v1.678h-0.595V6.026h0.595v0.453
		c0.185-0.297,0.468-0.51,0.835-0.51c0.404,0,0.638,0.227,0.736,0.581c0.185-0.34,0.503-0.581,0.879-0.581
		c0.438,0,0.778,0.283,0.778,0.963V9.594z"/>
	<path fill="#FDDFEB" d="M136.363,9.594h-0.481l-0.085-0.503c-0.227,0.326-0.729,0.56-1.26,0.56c-0.595,0-1.104-0.354-1.104-1.083
		c0-0.793,0.637-1.168,1.614-1.168h0.722V7.244c0-0.552-0.39-0.736-0.821-0.736c-0.418,0-0.729,0.262-0.842,0.609l-0.524-0.142
		c0.163-0.623,0.715-1.005,1.366-1.005c0.836,0,1.416,0.39,1.416,1.374V9.594z M134.628,9.113c0.46,0,1.14-0.283,1.14-1.09V7.909
		h-0.778c-0.609,0-0.949,0.255-0.949,0.659C134.04,8.908,134.275,9.113,134.628,9.113z"/>
	<path fill="#FDDFEB" d="M137.505,6.026h0.948V4.957l0.595-0.375v1.444h1.742v0.538h-1.742v1.827c0,0.496,0.22,0.722,0.616,0.722
		c0.312,0,0.566-0.099,0.878-0.425l0.219,0.503c-0.325,0.325-0.65,0.46-1.097,0.46c-0.779,0-1.211-0.411-1.211-1.239V6.564h-0.948
		V6.026z"/>
	<path fill="#FDDFEB" d="M141.898,6.026h0.948V4.957l0.595-0.375v1.444h1.742v0.538h-1.742v1.827c0,0.496,0.22,0.722,0.616,0.722
		c0.312,0,0.566-0.099,0.878-0.425l0.219,0.503c-0.325,0.325-0.65,0.46-1.097,0.46c-0.779,0-1.211-0.411-1.211-1.239V6.564h-0.948
		V6.026z"/>
	<path fill="#FDDFEB" d="M149.759,7.938h-2.789c0.035,0.708,0.467,1.175,1.097,1.175c0.538,0,0.906-0.262,1.147-0.708l0.475,0.248
		c-0.39,0.75-0.956,0.998-1.622,0.998c-1.04,0-1.706-0.8-1.706-1.841c0-1.005,0.637-1.841,1.706-1.841
		c1.104,0,1.692,0.786,1.692,1.721V7.938z M147.012,7.399h2.117c-0.106-0.566-0.481-0.892-1.062-0.892
		C147.493,6.507,147.132,6.861,147.012,7.399z"/>
	<path fill="#FDDFEB" d="M153.578,7.159c-0.05-0.411-0.263-0.651-0.687-0.651c-0.623,0-1.211,0.588-1.211,1.798v1.289h-0.595V6.026
		h0.595v0.658c0.275-0.432,0.722-0.715,1.316-0.715c0.708,0,1.133,0.425,1.176,1.189H153.578z"/>
	<path fill="#FDDFEB" d="M162.364,7.159c-0.05-0.411-0.263-0.651-0.687-0.651c-0.623,0-1.211,0.588-1.211,1.798v1.289h-0.595V6.026
		h0.595v0.658c0.275-0.432,0.722-0.715,1.316-0.715c0.708,0,1.133,0.425,1.176,1.189H162.364z"/>
	<path fill="#FDDFEB" d="M167.329,7.938h-2.789c0.035,0.708,0.467,1.175,1.097,1.175c0.538,0,0.906-0.262,1.147-0.708l0.475,0.248
		c-0.39,0.75-0.956,0.998-1.622,0.998c-1.04,0-1.706-0.8-1.706-1.841c0-1.005,0.637-1.841,1.706-1.841
		c1.104,0,1.692,0.786,1.692,1.721V7.938z M164.582,7.399h2.117c-0.106-0.566-0.481-0.892-1.062-0.892
		C165.064,6.507,164.702,6.861,164.582,7.399z"/>
	<path fill="#FDDFEB" d="M168.224,5.176V4.638h1.579v3.611c0,0.587,0.263,0.864,0.751,0.864c0.425,0,0.736-0.262,0.828-0.864
		l0.538,0.106c-0.128,0.864-0.638,1.296-1.366,1.296c-0.821,0-1.346-0.503-1.346-1.402V5.176H168.224z"/>
	<path fill="#FDDFEB" d="M175.895,9.594h-0.481l-0.085-0.503c-0.227,0.326-0.729,0.56-1.26,0.56c-0.595,0-1.104-0.354-1.104-1.083
		c0-0.793,0.637-1.168,1.614-1.168h0.722V7.244c0-0.552-0.389-0.736-0.821-0.736c-0.417,0-0.729,0.262-0.843,0.609l-0.523-0.142
		c0.163-0.623,0.715-1.005,1.366-1.005c0.836,0,1.416,0.39,1.416,1.374V9.594z M174.16,9.113c0.46,0,1.14-0.283,1.14-1.09V7.909
		h-0.778c-0.609,0-0.949,0.255-0.949,0.659C173.573,8.908,173.806,9.113,174.16,9.113z"/>
	<path fill="#FDDFEB" d="M177.038,6.026h0.948V4.957l0.595-0.375v1.444h1.742v0.538h-1.742v1.827c0,0.496,0.22,0.722,0.616,0.722
		c0.312,0,0.566-0.099,0.878-0.425l0.219,0.503c-0.325,0.325-0.65,0.46-1.097,0.46c-0.779,0-1.211-0.411-1.211-1.239V6.564h-0.948
		V6.026z"/>
	<path fill="#FDDFEB" d="M184.9,7.938h-2.789c0.035,0.708,0.467,1.175,1.097,1.175c0.538,0,0.906-0.262,1.147-0.708l0.475,0.248
		c-0.39,0.75-0.956,0.998-1.622,0.998c-1.04,0-1.706-0.8-1.706-1.841c0-1.005,0.637-1.841,1.706-1.841
		c1.104,0,1.692,0.786,1.692,1.721V7.938z M182.153,7.399h2.117c-0.106-0.566-0.481-0.892-1.062-0.892
		C182.634,6.507,182.273,6.861,182.153,7.399z"/>
	<path fill="#FDDFEB" d="M187.487,5.969c0.496,0,0.893,0.241,1.091,0.51V4.582h0.595v5.013h-0.595V9.12
		c-0.198,0.276-0.602,0.531-1.091,0.531c-1.048,0-1.636-0.75-1.636-1.841S186.439,5.969,187.487,5.969z M187.543,9.113
		c0.68,0,1.083-0.538,1.083-1.303s-0.403-1.303-1.083-1.303s-1.083,0.538-1.083,1.303S186.864,9.113,187.543,9.113z"/>
	<path fill="#FDDFEB" d="M194.609,6.026h0.948V4.957l0.595-0.375v1.444h1.742v0.538h-1.742v1.827c0,0.496,0.22,0.722,0.616,0.722
		c0.312,0,0.566-0.099,0.878-0.425l0.219,0.503c-0.325,0.325-0.65,0.46-1.097,0.46c-0.779,0-1.211-0.411-1.211-1.239V6.564h-0.948
		V6.026z"/>
	<path fill="#FDDFEB" d="M200.728,5.969c1.091,0,1.756,0.856,1.756,1.841s-0.665,1.841-1.756,1.841c-1.09,0-1.756-0.856-1.756-1.841
		S199.638,5.969,200.728,5.969z M200.728,9.113c0.729,0,1.147-0.616,1.147-1.303s-0.418-1.303-1.147-1.303
		c-0.729,0-1.146,0.616-1.146,1.303S199.999,9.113,200.728,9.113z"/>
</g>
</svg>
