<?xml version="1.0" encoding="utf-8"?>
<!-- Generator: Adobe Illustrator 16.0.0, SVG Export Plug-In . SVG Version: 6.00 Build 0)  -->
<!DOCTYPE svg PUBLIC "-//W3C//DTD SVG 1.1//EN" "http://www.w3.org/Graphics/SVG/1.1/DTD/svg11.dtd">
<svg version="1.1" id="Layer_1" xmlns="http://www.w3.org/2000/svg" xmlns:xlink="http://www.w3.org/1999/xlink" x="0px" y="0px"
	 width="270.525px" height="163.819px" viewBox="0.33 -3.982 270.525 163.819" enable-background="new 0.33 -3.982 270.525 163.819"
	 xml:space="preserve">
<g>
	<g>
		<path fill="#FDDFEB" d="M13.255,24.047l-1.27,12l18.744,1.979l-0.823,7.794l-18.744-1.981L9.423,60.294L0.33,59.333L4.984,15.29
			l29.384,3.105l-0.824,7.794L13.255,24.047z"/>
	</g>
	<g>
		<path fill="#FDDFEB" d="M70.12,23.988c2.938,2.188,5.062,5.092,6.366,8.711c1.307,3.62,1.709,7.802,1.208,12.544
			c-0.501,4.743-1.771,8.748-3.804,12.014c-2.033,3.269-4.72,5.663-8.05,7.188c-3.328,1.524-7.141,2.061-11.429,1.607
			c-4.29-0.453-7.899-1.774-10.841-3.96c-2.938-2.188-5.062-5.091-6.366-8.712c-1.308-3.619-1.71-7.801-1.208-12.544
			c0.501-4.741,1.771-8.747,3.808-12.014c2.029-3.267,4.715-5.663,8.046-7.188c3.33-1.524,7.142-2.061,11.431-1.606
			C63.568,20.482,67.18,21.802,70.12,23.988z M49.625,31.175c-2.319,2.443-3.729,5.996-4.224,10.655
			c-0.492,4.661,0.142,8.429,1.898,11.305c1.764,2.876,4.414,4.5,7.963,4.875c3.546,0.375,6.479-0.66,8.804-3.104
			c2.321-2.444,3.729-5.996,4.224-10.657c0.492-4.66-0.143-8.428-1.898-11.303c-1.764-2.876-4.414-4.501-7.96-4.876
			C54.883,27.695,51.948,28.731,49.625,31.175z"/>
	</g>
	<g>
		<path fill="#FDDFEB" d="M115.374,30.209c2.411,2.425,3.408,5.637,2.984,9.637c-0.282,2.682-1.248,4.894-2.895,6.637
			c-1.646,1.745-3.737,2.837-6.29,3.277l-0.014,0.123c1.507,0.743,2.648,1.75,3.438,3.021c0.779,1.271,1.543,3.343,2.28,6.215
			l3.104,12.65l-9.896-1.046l-2.421-10.827c-0.569-2.479-1.354-4.24-2.351-5.283c-0.994-1.044-2.564-1.679-4.709-1.906l-5.011-0.528
			L91.82,69.004l-9.096-0.961L87.379,24l16.208,1.713C109.032,26.287,112.959,27.786,115.374,30.209z M94.365,44.941l6.433,0.68
			c5.072,0.536,7.842-1.36,8.3-5.69c0.433-4.083-2.059-6.41-7.457-6.98l-5.94-0.628L94.365,44.941z"/>
	</g>
	<g>
		<path fill="#FDDFEB" d="M136.847,37.109l-1.056,9.959l19.92,2.104l-0.813,7.732l-19.918-2.105l-1.141,10.765l21.898,2.313
			l-0.824,7.794l-30.992-3.274l4.654-44.043l30.438,3.216l-0.822,7.794L136.847,37.109z"/>
	</g>
	<g>
		<path fill="#FDDFEB" d="M163.082,76.534l4.654-44.042l9.094,0.961l-4.649,44.042L163.082,76.534z"/>
	</g>
	<g>
		<path fill="#FDDFEB" d="M217.656,40.737c2.938,2.959,4.393,6.751,4.361,11.376l-9.771-1.033c-0.184-2.229-0.936-3.986-2.256-5.273
			c-1.324-1.287-3.203-2.06-5.635-2.316c-3.551-0.375-6.496,0.681-8.844,3.163c-2.353,2.483-3.771,6.076-4.271,10.777
			c-0.51,4.824,0.1,8.727,1.828,11.703c1.728,2.976,4.346,4.648,7.854,5.021c3.179,0.336,5.701-0.304,7.58-1.919
			c1.888-1.615,3.021-4.111,3.425-7.488l-10.455-1.104l0.78-7.423l18.935,2l-2.562,24.187l-7.67-0.811l0.504-4.764l-0.125-0.014
			c-1.467,1.638-3.354,2.834-5.664,3.59c-2.311,0.758-4.907,0.982-7.799,0.678c-3.752-0.395-6.914-1.656-9.479-3.783
			c-2.568-2.127-4.429-4.972-5.57-8.533c-1.146-3.562-1.473-7.671-0.979-12.332c0.5-4.742,1.778-8.776,3.844-12.104
			c2.062-3.326,4.768-5.752,8.115-7.274c3.354-1.522,7.149-2.059,11.397-1.609C210.564,36.016,214.715,37.779,217.656,40.737z"/>
	</g>
	<g>
		<path fill="#FDDFEB" d="M253.271,86.066l-6.646-18.781c-2.434-6.971-4.473-13.315-6.119-19.036l-0.123-0.013
			c-0.391,6.839-0.896,13.229-1.521,19.167l-1.791,16.95l-8.728-0.922l4.654-44.042l12.928,1.365l6.646,18.779
			c2.436,6.972,4.475,13.318,6.121,19.038l0.125,0.012c0.391-6.839,0.895-13.229,1.521-19.167l1.791-16.948l8.726,0.922
			l-4.654,44.043L253.271,86.066z"/>
	</g>
	<g>
		<path fill="#FDDFEB" d="M23.892,148.224l-2.811,11.021l-9.562,0.592l12.598-45.154l12.292-0.764l18.073,43.258l-9.562,0.592
			l-4.083-10.592L23.892,148.224z M36.761,136.646c-2.433-6.332-4.464-11.98-6.102-16.947l-0.124,0.008
			c-1.173,5.894-2.474,11.744-3.896,17.566l-0.75,2.977l11.979-0.74L36.761,136.646z"/>
	</g>
	<g>
		<path fill="#FDDFEB" d="M65.395,119.976l0.747,12.045l18.812-1.166l0.483,7.822l-18.812,1.166l1.022,16.516l-9.126,0.566
			l-2.738-44.207l29.489-1.828l0.481,7.822L65.395,119.976z"/>
	</g>
	<g>
		<path fill="#FDDFEB" d="M101.653,117.73l0.746,12.045l18.812-1.166l0.484,7.822l-18.812,1.166l1.023,16.516l-9.128,0.564
			l-2.738-44.205l29.491-1.828l0.483,7.824L101.653,117.73z"/>
	</g>
	<g>
		<path fill="#FDDFEB" d="M135.275,141.324l-2.812,11.021l-9.562,0.592l12.598-45.154l12.292-0.764l18.076,43.256l-9.562,0.594
			l-4.082-10.594L135.275,141.324z M148.142,129.744c-2.433-6.33-4.461-11.979-6.101-16.947l-0.125,0.013
			c-1.174,5.894-2.473,11.746-3.897,17.562l-0.746,2.979l11.979-0.742L148.142,129.744z"/>
	</g>
	<g>
		<path fill="#FDDFEB" d="M169.906,150.023l-2.74-44.205l9.127-0.564l2.74,44.205L169.906,150.023z"/>
	</g>
	<g>
		<path fill="#FDDFEB" d="M215.109,106.087c2.781,1.988,4.301,4.99,4.549,9.006c0.166,2.689-0.416,5.029-1.748,7.023
			c-1.332,1.992-3.217,3.42-5.654,4.275l0.013,0.123c1.604,0.479,2.899,1.283,3.887,2.406c0.983,1.121,2.082,3.037,3.287,5.746
			l5.166,11.961l-9.938,0.613l-4.188-10.271c-0.98-2.353-2.043-3.957-3.195-4.82c-1.154-0.86-2.811-1.229-4.961-1.096l-5.027,0.312
			l1.05,16.895l-9.13,0.562l-2.735-44.207l16.268-1.009C208.205,103.275,212.328,104.099,215.109,106.087z M196.844,124.111
			l6.457-0.4c5.093-0.312,7.5-2.646,7.23-6.987c-0.256-4.104-3.096-5.979-8.516-5.646l-5.959,0.367L196.844,124.111z"/>
	</g>
	<g>
		<path fill="#FDDFEB" d="M254.095,103.144c2.983,2.285,4.631,5.811,4.926,10.568l-9.252,0.574
			c-0.146-2.316-0.916-4.066-2.318-5.248c-1.402-1.185-3.346-1.693-5.828-1.541c-2.029,0.125-3.637,0.672-4.817,1.641
			c-1.188,0.969-1.734,2.176-1.646,3.623c0.068,1.115,0.438,2.01,1.1,2.674c0.666,0.666,1.681,1.217,3.031,1.648
			c1.354,0.438,3.314,0.889,5.881,1.352c3.486,0.656,6.316,1.365,8.482,2.125c2.164,0.76,3.977,1.984,5.432,3.684
			c1.453,1.695,2.275,4.059,2.465,7.076c0.175,2.773-0.399,5.262-1.721,7.461c-1.314,2.199-3.244,3.961-5.779,5.279
			c-2.53,1.318-5.502,2.088-8.896,2.297c-5.586,0.348-10.047-0.729-13.381-3.221c-3.334-2.494-5.152-6.229-5.461-11.191l9.438-0.584
			c0.166,2.689,1.021,4.674,2.551,5.949c1.531,1.271,3.705,1.826,6.521,1.65c2.315-0.146,4.141-0.769,5.463-1.863
			c1.32-1.104,1.932-2.521,1.824-4.26c-0.078-1.24-0.447-2.203-1.113-2.896c-0.666-0.688-1.594-1.196-2.773-1.541
			c-1.188-0.344-3.061-0.771-5.625-1.271c-3.655-0.688-6.567-1.399-8.729-2.141c-2.166-0.738-3.998-1.941-5.492-3.617
			c-1.496-1.672-2.334-4.021-2.521-7.041c-0.158-2.563,0.385-4.889,1.627-6.955c1.238-2.069,3.065-3.729,5.483-4.981
			c2.414-1.25,5.215-1.978,8.402-2.172C246.861,99.882,251.107,100.855,254.095,103.144z"/>
	</g>
</g>
<g>
	<path fill="#FDDFEB" d="M55.276,9.177c0-0.033,0.021-0.051,0.062-0.051s0.136,0.006,0.284,0.016
		c0.147,0.011,0.245,0.016,0.291,0.016c0.083,0,0.137,0,0.164,0c0.026,0,0.076-0.009,0.151-0.026
		c0.075-0.019,0.127-0.044,0.155-0.078c0.028-0.033,0.069-0.087,0.121-0.162c0.052-0.074,0.089-0.166,0.113-0.274
		c0.023-0.108,0.044-0.246,0.062-0.413c0.018-0.168,0.027-0.362,0.027-0.584V0.625c0-0.505-0.03-0.887-0.091-1.145
		c-0.061-0.258-0.149-0.429-0.265-0.514c-0.116-0.085-0.29-0.128-0.522-0.128h-0.372c-0.053,0-0.079-0.027-0.079-0.082
		c0-0.036,0.012-0.058,0.036-0.063c0.023-0.007,0.088-0.01,0.193-0.01c0.042,0,0.247,0.011,0.615,0.031s0.58,0.031,0.638,0.031
		c0.127,0,0.34-0.016,0.64-0.047c0.402-0.021,0.773-0.031,1.113-0.031c0.546,0,1.043,0.065,1.489,0.194
		c0.447,0.13,0.81,0.293,1.087,0.489c0.278,0.197,0.513,0.424,0.705,0.681c0.191,0.256,0.327,0.505,0.406,0.746
		c0.08,0.24,0.119,0.473,0.119,0.695c0,0.657-0.284,1.24-0.851,1.748s-1.322,0.762-2.265,0.762c-0.197,0-0.446-0.026-0.746-0.078
		s-0.451-0.096-0.451-0.132c0-0.041,0.029-0.062,0.087-0.062c0.005,0,0.046,0.01,0.123,0.027c0.077,0.019,0.17,0.038,0.282,0.059
		c0.111,0.021,0.209,0.031,0.293,0.031c0.201,0,0.404-0.027,0.611-0.082c0.206-0.055,0.407-0.143,0.603-0.264
		c0.196-0.122,0.369-0.268,0.52-0.436s0.272-0.377,0.365-0.626c0.093-0.248,0.139-0.518,0.139-0.808
		c0-0.347-0.061-0.668-0.183-0.964c-0.122-0.295-0.279-0.54-0.471-0.734c-0.192-0.194-0.413-0.361-0.662-0.501
		c-0.25-0.14-0.496-0.241-0.74-0.303c-0.244-0.062-0.483-0.094-0.716-0.094c-0.13,0-0.288,0.011-0.475,0.031v8.87
		c0,0.485,0.081,0.813,0.241,0.984c0.161,0.17,0.387,0.255,0.678,0.255c0.042,0,0.146-0.005,0.312-0.016
		c0.166-0.01,0.28-0.016,0.343-0.016c0.067,0,0.102,0.018,0.102,0.051c0,0.046-0.015,0.079-0.043,0.103
		c-0.029,0.022-0.095,0.033-0.199,0.033c-0.192,0-0.532-0.01-1.021-0.03c-0.461-0.021-0.772-0.031-0.931-0.031
		c-0.143,0-0.413,0.01-0.811,0.031c-0.425,0.021-0.717,0.03-0.878,0.03c-0.197,0-0.312-0.006-0.346-0.019
		C55.293,9.281,55.276,9.243,55.276,9.177z"/>
	<path fill="#FDDFEB" d="M63.388,9.21c0-0.023,0.003-0.041,0.008-0.053c0.005-0.012,0.019-0.022,0.04-0.032s0.055-0.014,0.103-0.014
		c0.068,0,0.157,0.002,0.268,0.007c0.11,0.006,0.186,0.008,0.228,0.008c0.226,0,0.374-0.069,0.445-0.21
		c0.071-0.14,0.106-0.459,0.106-0.958V4.43c0-0.312-0.02-0.529-0.058-0.654c-0.039-0.124-0.126-0.187-0.26-0.187
		c-0.093,0-0.194,0.036-0.303,0.108C63.896,3.74,63.842,3.76,63.8,3.76s-0.062-0.021-0.062-0.062c0-0.021,0.02-0.042,0.059-0.065
		c0.039-0.023,0.093-0.054,0.163-0.09s0.118-0.062,0.144-0.078c0.75-0.467,1.244-0.797,1.484-0.989
		c-0.026,0.203-0.052,0.781-0.078,1.737c0.078-0.078,0.443-0.446,1.096-1.106c0.104-0.104,0.261-0.283,0.474-0.537l0.256,0.257
		c0.057,0.057,0.147,0.149,0.272,0.276c0.124,0.127,0.235,0.24,0.334,0.339c0.187,0.187,0.337,0.307,0.451,0.358
		s0.233,0.078,0.357,0.078c0.047,0,0.093-0.006,0.14-0.016c0.046-0.011,0.085-0.022,0.116-0.035
		c0.031-0.013,0.066-0.032,0.105-0.059c0.039-0.026,0.066-0.045,0.082-0.059c0.016-0.013,0.042-0.037,0.078-0.074
		c0.036-0.036,0.06-0.057,0.07-0.062c0.031-0.031,0.062-0.066,0.093-0.105c0.031-0.039,0.054-0.066,0.07-0.082
		s0.031-0.023,0.046-0.023c0.052,0,0.078,0.026,0.078,0.078c0,0.036-0.122,0.177-0.365,0.421l-1.126,1.176
		c-0.596-0.597-0.969-0.963-1.119-1.098c-0.021-0.016-0.061-0.053-0.12-0.109c-0.06-0.057-0.103-0.095-0.128-0.113
		c-0.026-0.018-0.065-0.039-0.117-0.062c-0.052-0.023-0.104-0.035-0.155-0.035c-0.176,0-0.505,0.282-0.987,0.849v3.279
		c0,0.571,0.06,0.948,0.179,1.133s0.329,0.276,0.629,0.276c0.052,0,0.165-0.009,0.338-0.027c0.174-0.018,0.299-0.024,0.377-0.019
		c0.016,0,0.032,0.012,0.051,0.035c0.018,0.024,0.027,0.041,0.027,0.049c0,0.058-0.127,0.087-0.381,0.087
		c-0.072,0-0.33-0.006-0.771-0.016c-0.441-0.01-0.739-0.015-0.892-0.015c-0.088,0-0.327,0.003-0.714,0.007
		c-0.388,0.005-0.633,0.008-0.737,0.008C63.464,9.267,63.388,9.248,63.388,9.21z"/>
	<path fill="#FDDFEB" d="M70.249,9.246c0-0.079,0.031-0.119,0.093-0.119c0.036,0,0.09,0.003,0.163,0.008
		c0.072,0.006,0.119,0.008,0.14,0.008c0.083,0,0.157-0.005,0.222-0.015c0.064-0.011,0.122-0.02,0.171-0.027s0.093-0.03,0.132-0.066
		c0.039-0.036,0.071-0.062,0.097-0.077s0.047-0.053,0.062-0.112s0.028-0.1,0.039-0.12s0.017-0.074,0.02-0.159
		s0.004-0.143,0.004-0.171s0-0.098,0-0.209s0-0.185,0-0.221V4.204c0-0.134-0.005-0.237-0.016-0.31s-0.038-0.137-0.082-0.193
		c-0.044-0.058-0.113-0.086-0.206-0.086c-0.057,0-0.168,0.042-0.334,0.124c-0.078,0.047-0.129,0.07-0.155,0.07
		c-0.016,0-0.027-0.013-0.035-0.039c-0.008-0.025-0.006-0.052,0.004-0.077c0.005-0.011,0.03-0.027,0.074-0.051
		s0.092-0.049,0.144-0.077s0.085-0.048,0.101-0.059c0.533-0.315,1.031-0.648,1.492-1c-0.042,0.455-0.062,0.876-0.062,1.264v4.287
		c0,0.165,0.005,0.299,0.016,0.399c0.01,0.101,0.035,0.21,0.074,0.329c0.039,0.119,0.104,0.208,0.194,0.268
		c0.09,0.06,0.208,0.089,0.354,0.089c0.057,0,0.135-0.005,0.233-0.016c0.099-0.01,0.168-0.015,0.21-0.015
		c0.057,0,0.085,0.033,0.085,0.1c0,0.058-0.127,0.086-0.381,0.086c-0.093,0-0.311-0.011-0.653-0.034
		c-0.072,0-0.151-0.001-0.237-0.004s-0.155-0.006-0.21-0.009c-0.054-0.003-0.086-0.005-0.097-0.005c-0.015,0-0.102,0.003-0.26,0.009
		s-0.289,0.009-0.392,0.009c-0.363,0.023-0.575,0.034-0.637,0.034C70.371,9.297,70.249,9.281,70.249,9.246z M71.22,0.657
		c0.036-0.047,0.154-0.173,0.354-0.381c0.199-0.207,0.31-0.323,0.33-0.35c0.062,0.052,0.311,0.28,0.746,0.684l-0.318,0.265
		c-0.213,0.182-0.35,0.332-0.412,0.451c-0.067-0.062-0.184-0.174-0.35-0.335C71.404,0.831,71.288,0.719,71.22,0.657z"/>
	<path fill="#FDDFEB" d="M74.235,3.633c0-0.042,0.14-0.122,0.42-0.241c0.642-0.279,0.966-0.422,0.971-0.428
		c0.362-0.191,0.606-0.35,0.73-0.474c-0.042,0.528-0.062,0.945-0.062,1.251c0.181-0.181,0.327-0.321,0.439-0.42
		c0.111-0.098,0.264-0.216,0.458-0.354c0.194-0.137,0.396-0.237,0.606-0.303c0.21-0.064,0.434-0.097,0.672-0.097
		c0.181,0,0.356,0.021,0.524,0.065c0.168,0.044,0.34,0.127,0.517,0.249s0.328,0.277,0.455,0.466c0.127,0.189,0.23,0.439,0.311,0.75
		c0.08,0.311,0.12,0.666,0.12,1.064v3.069c0,0.606,0.143,0.909,0.428,0.909c0.01,0,0.067-0.002,0.171-0.008
		c0.104-0.005,0.181-0.008,0.233-0.008c0.042,0,0.062,0.031,0.062,0.094c0,0.041-0.07,0.062-0.209,0.062
		c-0.052,0-0.227-0.006-0.525-0.016c-0.298-0.011-0.473-0.016-0.524-0.016c-0.067,0-0.274,0.005-0.622,0.016
		c-0.347,0.01-0.549,0.016-0.606,0.016c-0.047,0-0.079-0.002-0.097-0.004c-0.018-0.003-0.035-0.011-0.051-0.023
		c-0.015-0.013-0.023-0.035-0.023-0.066c0-0.041,0.031-0.062,0.093-0.062c0.057,0,0.114,0.003,0.171,0.008l0.085,0.008
		c0.187,0,0.314-0.08,0.385-0.24c0.07-0.161,0.104-0.469,0.104-0.925V5.289c0-1.274-0.567-1.912-1.702-1.912
		c-0.611,0-1.104,0.197-1.476,0.591V8.14c0,0.274,0.05,0.513,0.151,0.715s0.25,0.303,0.447,0.303l0.225-0.031
		c0.031,0,0.047,0.016,0.047,0.047c0,0.036-0.009,0.062-0.027,0.078S77.1,9.276,77.079,9.279c-0.021,0.002-0.055,0.004-0.101,0.004
		c-0.062,0-0.254-0.006-0.575-0.016c-0.321-0.011-0.508-0.016-0.559-0.016c-0.062,0-0.258,0.005-0.587,0.016
		c-0.329,0.01-0.52,0.016-0.571,0.016c-0.026,0-0.05-0.003-0.074-0.008c-0.023-0.006-0.045-0.019-0.066-0.039
		c-0.021-0.021-0.029-0.047-0.023-0.078c0-0.021,0.016-0.031,0.047-0.031c0.005,0,0.036,0.006,0.093,0.016
		c0.057,0.011,0.09,0.016,0.101,0.016c0.404,0,0.606-0.298,0.606-0.894V4.193c0-0.503-0.127-0.754-0.381-0.754
		c-0.078,0-0.218,0.044-0.419,0.132C74.409,3.643,74.31,3.68,74.274,3.68C74.248,3.68,74.235,3.665,74.235,3.633z"/>
	<path fill="#FDDFEB" d="M81.935,3.516l2.075-1.997v1.174h2.191c0.471,0,0.78-0.072,0.925-0.218c0.135-0.119,0.22-0.179,0.256-0.179
		c0.031,0,0.046,0.021,0.046,0.062c0,0.03-0.101,0.119-0.303,0.267l-1.002,0.877H84.01v3.167c0,0.197,0.001,0.353,0.004,0.467
		s0.013,0.249,0.031,0.405c0.018,0.155,0.044,0.277,0.078,0.365s0.083,0.183,0.148,0.284s0.145,0.178,0.238,0.229
		s0.209,0.095,0.348,0.129c0.138,0.033,0.298,0.05,0.48,0.05c0.37,0,0.667-0.06,0.894-0.179c0.227-0.12,0.381-0.249,0.465-0.386
		c0.12-0.209,0.208-0.313,0.266-0.313c0.047,0,0.07,0.034,0.07,0.102c0,0.041-0.035,0.117-0.105,0.229
		c-0.07,0.112-0.175,0.242-0.315,0.393c-0.14,0.15-0.296,0.296-0.47,0.436c-0.174,0.14-0.381,0.258-0.622,0.354
		c-0.241,0.096-0.481,0.144-0.719,0.144c-1.145,0-1.717-0.733-1.717-2.2V3.516H81.935z"/>
	<path fill="#FDDFEB" d="M87.865,5.96c0-0.638,0.168-1.223,0.505-1.754c0.337-0.532,0.754-0.938,1.251-1.218
		c0.498-0.28,1.005-0.42,1.523-0.42c0.062,0,0.125,0.001,0.187,0.004c0.062,0.002,0.172,0.02,0.33,0.05
		c0.158,0.031,0.307,0.072,0.447,0.124s0.302,0.134,0.485,0.245c0.184,0.11,0.353,0.242,0.505,0.396
		c0.152,0.152,0.304,0.352,0.454,0.597c0.15,0.245,0.274,0.521,0.373,0.826L88.532,5.8c0.052,0.369,0.152,0.705,0.299,1.01
		c0.147,0.304,0.324,0.56,0.528,0.768s0.434,0.384,0.688,0.526c0.253,0.143,0.51,0.247,0.769,0.312
		c0.259,0.065,0.521,0.098,0.785,0.098c0.7,0,1.22-0.122,1.562-0.367c0.223-0.156,0.4-0.314,0.532-0.474
		c0.132-0.158,0.215-0.277,0.249-0.355S94,7.2,94.011,7.2c0.067,0,0.101,0.016,0.101,0.047c0,0.011-0.003,0.021-0.008,0.031
		c-0.083,0.202-0.205,0.415-0.365,0.641c-0.161,0.226-0.363,0.451-0.606,0.676c-0.243,0.226-0.542,0.412-0.897,0.56
		c-0.354,0.147-0.729,0.222-1.123,0.222c-0.528,0-1.005-0.103-1.43-0.307c-0.425-0.204-0.767-0.474-1.026-0.807
		c-0.259-0.334-0.456-0.699-0.591-1.095S87.865,6.37,87.865,5.96z M88.502,5.513l4.188-0.769c-0.135-0.399-0.386-0.742-0.753-1.03
		c-0.368-0.287-0.813-0.431-1.337-0.431c-0.668,0-1.199,0.22-1.593,0.66c-0.342,0.378-0.516,0.821-0.521,1.329
		C88.486,5.35,88.491,5.431,88.502,5.513z"/>
	<path fill="#FDDFEB" d="M94.958,6.313c0-0.444,0.115-0.896,0.346-1.353c0.23-0.458,0.526-0.86,0.886-1.21
		c0.36-0.349,0.77-0.633,1.228-0.853s0.902-0.329,1.333-0.329c0.311,0,0.728,0.085,1.251,0.256V0.354
		c0-0.606-0.173-0.909-0.521-0.909c-0.197,0-0.373,0.039-0.528,0.116c-0.12,0.052-0.187,0.078-0.202,0.078
		c-0.01,0-0.016-0.016-0.016-0.047c0-0.016,0.018-0.037,0.054-0.066c0.037-0.028,0.084-0.059,0.144-0.093
		c0.06-0.033,0.117-0.066,0.171-0.097c0.054-0.031,0.113-0.062,0.175-0.094s0.104-0.052,0.125-0.062
		c0.409-0.202,0.71-0.355,0.902-0.462s0.425-0.255,0.698-0.447c-0.052,0.646-0.078,1.271-0.078,1.876v8.089
		c0,0.573,0.207,0.86,0.622,0.86c0.021,0,0.083-0.006,0.187-0.016c0.104-0.011,0.163-0.016,0.179-0.016
		c0.052,0,0.078,0.017,0.078,0.051c0,0.077-0.096,0.116-0.288,0.116c-0.062,0-0.168,0.003-0.318,0.01
		c-0.15,0.007-0.244,0.01-0.28,0.01h-1.088V8.694C99.83,8.826,99.67,8.93,99.535,9.007c-0.135,0.076-0.34,0.157-0.618,0.241
		c-0.277,0.085-0.568,0.127-0.874,0.127c-0.565,0-1.087-0.146-1.566-0.44c-0.479-0.293-0.852-0.675-1.119-1.146
		C95.092,7.32,94.958,6.828,94.958,6.313z M95.774,5.616c0,0.878,0.303,1.595,0.909,2.15c0.606,0.555,1.373,0.832,2.3,0.832
		c0.368,0,0.708-0.057,1.018-0.17V4.105c-0.508-0.506-1.171-0.76-1.989-0.76c-0.332,0-0.631,0.052-0.897,0.155
		c-0.267,0.104-0.48,0.236-0.641,0.399c-0.161,0.162-0.296,0.347-0.408,0.554c-0.112,0.206-0.188,0.406-0.229,0.601
		C95.795,5.248,95.774,5.435,95.774,5.616z"/>
	<path fill="#FDDFEB" d="M106.435,3.572c0-0.043,0.248-0.162,0.742-0.358c0.708-0.268,1.179-0.508,1.411-0.723
		c-0.031,0.354-0.047,0.661-0.047,0.924c0.426-0.338,0.744-0.562,0.957-0.676s0.469-0.17,0.764-0.17
		c0.369,0,0.711,0.113,1.023,0.341c0.314,0.228,0.578,0.522,0.791,0.887c0.188-0.182,0.33-0.319,0.432-0.413s0.23-0.202,0.387-0.326
		c0.154-0.123,0.289-0.215,0.404-0.272c0.113-0.059,0.248-0.108,0.4-0.151c0.154-0.043,0.311-0.064,0.473-0.064
		c0.549,0,1.014,0.185,1.393,0.555s0.568,0.9,0.568,1.59v3.442c0,0.378,0.029,0.632,0.088,0.762
		c0.061,0.129,0.215,0.194,0.463,0.194c0.025,0,0.064-0.003,0.117-0.008c0.051-0.006,0.094-0.008,0.123-0.008
		c0.053,0,0.078,0.037,0.078,0.112c0,0.039-0.09,0.059-0.271,0.059c-0.031,0-0.186-0.004-0.463-0.01
		c-0.277-0.007-0.498-0.01-0.664-0.01c-0.119,0-0.299,0.003-0.541,0.01c-0.24,0.006-0.41,0.01-0.51,0.01
		c-0.148,0-0.223-0.014-0.223-0.039c0-0.099,0.016-0.147,0.047-0.147c0.025,0,0.088,0.005,0.186,0.016
		c0.098,0.01,0.158,0.016,0.18,0.016c0.311,0,0.465-0.335,0.465-1.003V5.102c0-0.197-0.023-0.385-0.074-0.563
		c-0.049-0.179-0.127-0.353-0.232-0.521c-0.107-0.169-0.266-0.304-0.477-0.404c-0.209-0.102-0.461-0.151-0.752-0.151
		c-0.119,0-0.248,0.006-0.385,0.02c-0.139,0.013-0.326,0.06-0.564,0.14c-0.24,0.08-0.432,0.19-0.576,0.33
		c0.092,0.155,0.139,0.511,0.139,1.064V7.93c0,0.026,0,0.086-0.004,0.179c-0.002,0.094-0.002,0.161,0,0.202
		c0.004,0.041,0.008,0.106,0.012,0.194c0.006,0.088,0.016,0.157,0.027,0.206c0.014,0.05,0.033,0.108,0.059,0.178
		c0.025,0.068,0.057,0.119,0.094,0.152c0.037,0.032,0.082,0.062,0.137,0.091c0.055,0.027,0.117,0.041,0.191,0.041
		c0.01,0,0.055-0.011,0.135-0.031c0.082-0.021,0.143-0.03,0.184-0.03c0.031,0,0.047,0.025,0.047,0.077
		c0,0.072-0.061,0.108-0.18,0.108c-0.057,0-0.225-0.012-0.506-0.037c-0.066,0-0.178-0.003-0.33-0.009
		c-0.152-0.007-0.271-0.01-0.354-0.01c-0.062,0-0.168,0.003-0.316,0.01c-0.146,0.006-0.26,0.009-0.338,0.009
		c-0.281,0.025-0.447,0.037-0.498,0.037c-0.104,0-0.156-0.012-0.156-0.037c0-0.1,0.025-0.148,0.078-0.148
		c0.037,0,0.09,0.005,0.16,0.015c0.07,0.011,0.107,0.016,0.113,0.016c0.098,0,0.184-0.018,0.256-0.054s0.127-0.075,0.16-0.116
		s0.059-0.103,0.074-0.183s0.023-0.14,0.027-0.178c0.002-0.039,0.004-0.095,0.004-0.167v-3.1c0-0.724-0.146-1.237-0.438-1.542
		s-0.713-0.458-1.27-0.458c-0.16,0-0.32,0.017-0.479,0.048c-0.158,0.032-0.266,0.06-0.32,0.081c-0.055,0.022-0.16,0.065-0.314,0.129
		v4.39c0,0.036,0,0.093,0,0.171c0,0.15,0,0.26,0,0.33s0.008,0.154,0.023,0.253c0.016,0.098,0.039,0.168,0.07,0.209
		c0.029,0.042,0.074,0.078,0.131,0.109c0.059,0.031,0.131,0.047,0.219,0.047c0.025,0,0.08-0.003,0.164-0.008
		c0.082-0.006,0.135-0.008,0.156-0.008c0.051,0,0.076,0.037,0.076,0.112c0,0.039-0.057,0.059-0.17,0.059
		c-0.025,0-0.193-0.004-0.5-0.01s-0.514-0.01-0.621-0.01c-0.041,0-0.224,0.004-0.551,0.01c-0.327,0.006-0.544,0.01-0.653,0.01
		c-0.088,0-0.132-0.02-0.132-0.058c0-0.075,0.039-0.113,0.117-0.113c0.042,0,0.101,0.002,0.179,0.008
		c0.078,0.005,0.129,0.008,0.155,0.008c0.275,0,0.412-0.298,0.412-0.895V4.115c0-0.472-0.12-0.707-0.359-0.707
		c-0.127,0-0.303,0.055-0.526,0.164c-0.133,0.062-0.208,0.093-0.224,0.093C106.459,3.665,106.435,3.633,106.435,3.572z"/>
	<path fill="#FDDFEB" d="M118.021,7.563c0-0.25,0.073-0.464,0.22-0.642s0.399-0.337,0.759-0.478
		c0.665-0.225,1.163-0.408,1.492-0.552c0.33-0.144,0.731-0.351,1.204-0.622V4.886c0-0.172-0.02-0.334-0.059-0.485
		c-0.038-0.151-0.106-0.301-0.202-0.449c-0.096-0.149-0.239-0.268-0.429-0.356s-0.42-0.133-0.689-0.133
		c-0.345,0-0.638,0.039-0.88,0.118c-0.242,0.078-0.474,0.21-0.692,0.394c-0.165,0.137-0.295,0.294-0.39,0.473
		c-0.058,0.126-0.099,0.188-0.125,0.188c-0.03,0-0.046-0.016-0.046-0.047c0-0.118,0.067-0.288,0.203-0.509
		c0.136-0.22,0.31-0.443,0.521-0.672c0.212-0.228,0.472-0.425,0.781-0.591c0.309-0.165,0.614-0.248,0.916-0.248
		c0.598,0,1.083,0.2,1.456,0.601s0.56,0.952,0.56,1.654v3.475c0,0.026,0,0.061,0,0.103c0,0.149,0.003,0.256,0.008,0.318
		c0.006,0.062,0.024,0.129,0.057,0.199s0.087,0.117,0.164,0.142c0.077,0.023,0.186,0.036,0.324,0.036
		c0.059,0,0.133-0.006,0.221-0.016c0.088-0.011,0.146-0.016,0.172-0.016c0.054,0.027,0.083,0.057,0.089,0.089
		c0,0.02-0.129,0.041-0.385,0.063c-0.257,0.022-0.427,0.034-0.51,0.034h-1.064V8.463c-0.036,0.021-0.132,0.086-0.288,0.195
		s-0.256,0.178-0.3,0.203c-0.044,0.026-0.13,0.076-0.257,0.149c-0.128,0.074-0.224,0.122-0.289,0.146
		c-0.064,0.023-0.149,0.059-0.253,0.105c-0.104,0.047-0.199,0.078-0.284,0.092c-0.086,0.014-0.173,0.021-0.262,0.021
		c-0.295,0-0.56-0.061-0.794-0.182c-0.233-0.12-0.416-0.276-0.546-0.466c-0.131-0.19-0.23-0.386-0.3-0.586
		C118.055,7.941,118.021,7.749,118.021,7.563z M118.946,7.336c0,0.396,0.166,0.761,0.498,1.092c0.333,0.331,0.668,0.497,1.006,0.497
		c0.099,0,0.205-0.022,0.319-0.067c0.114-0.044,0.207-0.09,0.28-0.137c0.072-0.047,0.185-0.122,0.335-0.227s0.255-0.175,0.312-0.212
		V5.426c-0.488,0.313-1.041,0.593-1.659,0.838c-0.468,0.188-0.767,0.354-0.896,0.497S118.946,7.096,118.946,7.336z"/>
	<path fill="#FDDFEB" d="M124.291,3.516l2.074-1.997v1.174h2.191c0.472,0,0.779-0.072,0.925-0.218
		c0.135-0.119,0.22-0.179,0.256-0.179c0.031,0,0.047,0.021,0.047,0.062c0,0.03-0.101,0.119-0.303,0.267l-1.003,0.877h-2.113v3.167
		c0,0.197,0.001,0.353,0.004,0.467s0.013,0.249,0.031,0.405c0.019,0.155,0.044,0.277,0.078,0.365s0.083,0.183,0.148,0.284
		s0.145,0.178,0.238,0.229s0.21,0.095,0.348,0.129c0.138,0.033,0.298,0.05,0.48,0.05c0.369,0,0.668-0.06,0.895-0.179
		c0.226-0.12,0.381-0.249,0.465-0.386c0.119-0.209,0.208-0.313,0.265-0.313c0.047,0,0.07,0.034,0.07,0.102
		c0,0.041-0.034,0.117-0.104,0.229c-0.07,0.112-0.175,0.242-0.314,0.393s-0.297,0.296-0.471,0.436
		c-0.173,0.14-0.381,0.258-0.621,0.354c-0.241,0.096-0.48,0.144-0.719,0.144c-1.146,0-1.718-0.733-1.718-2.2V3.516H124.291z"/>
	<path fill="#FDDFEB" d="M129.902,3.516l2.074-1.997v1.174h2.191c0.472,0,0.779-0.072,0.925-0.218
		c0.135-0.119,0.22-0.179,0.256-0.179c0.031,0,0.047,0.021,0.047,0.062c0,0.03-0.101,0.119-0.303,0.267l-1.003,0.877h-2.113v3.167
		c0,0.197,0.001,0.353,0.004,0.467s0.013,0.249,0.031,0.405c0.019,0.155,0.044,0.277,0.078,0.365s0.083,0.183,0.148,0.284
		s0.145,0.178,0.238,0.229s0.21,0.095,0.348,0.129c0.138,0.033,0.298,0.05,0.48,0.05c0.369,0,0.668-0.06,0.895-0.179
		c0.226-0.12,0.381-0.249,0.465-0.386c0.119-0.209,0.208-0.313,0.265-0.313c0.047,0,0.07,0.034,0.07,0.102
		c0,0.041-0.034,0.117-0.104,0.229c-0.07,0.112-0.175,0.242-0.314,0.393s-0.297,0.296-0.471,0.436
		c-0.173,0.14-0.381,0.258-0.621,0.354c-0.241,0.096-0.48,0.144-0.719,0.144c-1.146,0-1.718-0.733-1.718-2.2V3.516H129.902z"/>
	<path fill="#FDDFEB" d="M135.831,5.96c0-0.638,0.168-1.223,0.504-1.754c0.338-0.532,0.754-0.938,1.252-1.218
		c0.496-0.28,1.004-0.42,1.523-0.42c0.061,0,0.123,0.001,0.186,0.004c0.062,0.002,0.172,0.02,0.33,0.05
		c0.158,0.031,0.307,0.072,0.447,0.124c0.139,0.052,0.301,0.134,0.484,0.245c0.184,0.11,0.354,0.242,0.506,0.396
		c0.152,0.152,0.305,0.352,0.455,0.597c0.148,0.245,0.273,0.521,0.371,0.826l-5.391,0.99c0.051,0.369,0.15,0.705,0.299,1.01
		c0.148,0.304,0.324,0.56,0.529,0.768c0.203,0.208,0.434,0.384,0.688,0.526s0.51,0.247,0.77,0.312
		c0.258,0.065,0.52,0.098,0.783,0.098c0.699,0,1.221-0.122,1.562-0.367c0.223-0.156,0.4-0.314,0.533-0.474
		c0.131-0.158,0.215-0.277,0.248-0.355s0.055-0.117,0.066-0.117c0.066,0,0.1,0.016,0.1,0.047c0,0.011-0.002,0.021-0.008,0.031
		c-0.082,0.202-0.203,0.415-0.365,0.641c-0.16,0.226-0.361,0.451-0.605,0.676c-0.244,0.226-0.543,0.412-0.896,0.56
		c-0.355,0.147-0.73,0.222-1.123,0.222c-0.529,0-1.006-0.103-1.43-0.307c-0.426-0.204-0.768-0.474-1.027-0.807
		c-0.258-0.334-0.455-0.699-0.59-1.095S135.831,6.37,135.831,5.96z M136.468,5.513l4.188-0.769c-0.135-0.399-0.385-0.742-0.754-1.03
		c-0.367-0.287-0.812-0.431-1.336-0.431c-0.668,0-1.199,0.22-1.592,0.66c-0.344,0.378-0.516,0.821-0.521,1.329
		C136.452,5.35,136.458,5.431,136.468,5.513z"/>
	<path fill="#FDDFEB" d="M142.606,9.21c0-0.023,0.002-0.041,0.008-0.053c0.004-0.012,0.018-0.022,0.039-0.032
		c0.02-0.01,0.055-0.014,0.102-0.014c0.068,0,0.158,0.002,0.268,0.007c0.111,0.006,0.188,0.008,0.229,0.008
		c0.227,0,0.375-0.069,0.445-0.21c0.07-0.14,0.105-0.459,0.105-0.958V4.43c0-0.312-0.02-0.529-0.059-0.654
		c-0.037-0.124-0.125-0.187-0.26-0.187c-0.094,0-0.193,0.036-0.303,0.108c-0.068,0.042-0.121,0.062-0.164,0.062
		c-0.041,0-0.061-0.021-0.061-0.062c0-0.021,0.02-0.042,0.057-0.065c0.039-0.023,0.094-0.054,0.164-0.09s0.117-0.062,0.145-0.078
		c0.748-0.467,1.242-0.797,1.484-0.989c-0.027,0.203-0.053,0.781-0.078,1.737c0.078-0.078,0.441-0.446,1.096-1.106
		c0.104-0.104,0.262-0.283,0.473-0.537l0.258,0.257c0.057,0.057,0.146,0.149,0.271,0.276s0.236,0.24,0.334,0.339
		c0.186,0.187,0.336,0.307,0.451,0.358c0.113,0.052,0.232,0.078,0.357,0.078c0.047,0,0.094-0.006,0.139-0.016
		c0.047-0.011,0.086-0.022,0.117-0.035s0.066-0.032,0.105-0.059s0.066-0.045,0.082-0.059c0.016-0.013,0.041-0.037,0.076-0.074
		c0.037-0.036,0.061-0.057,0.07-0.062c0.031-0.031,0.062-0.066,0.094-0.105s0.055-0.066,0.07-0.082s0.031-0.023,0.047-0.023
		c0.051,0,0.076,0.026,0.076,0.078c0,0.036-0.121,0.177-0.365,0.421l-1.127,1.176c-0.596-0.597-0.969-0.963-1.117-1.098
		c-0.021-0.016-0.062-0.053-0.121-0.109c-0.061-0.057-0.104-0.095-0.129-0.113c-0.025-0.018-0.064-0.039-0.115-0.062
		c-0.053-0.023-0.105-0.035-0.156-0.035c-0.176,0-0.506,0.282-0.986,0.849v3.279c0,0.571,0.059,0.948,0.178,1.133
		s0.33,0.276,0.629,0.276c0.053,0,0.166-0.009,0.34-0.027c0.172-0.018,0.299-0.024,0.377-0.019c0.014,0,0.031,0.012,0.049,0.035
		c0.02,0.024,0.027,0.041,0.027,0.049c0,0.058-0.127,0.087-0.381,0.087c-0.072,0-0.328-0.006-0.771-0.016
		c-0.441-0.01-0.738-0.015-0.891-0.015c-0.09,0-0.326,0.003-0.715,0.007c-0.387,0.005-0.633,0.008-0.738,0.008
		C142.68,9.267,142.606,9.248,142.606,9.21z"/>
	<path fill="#FDDFEB" d="M153.042,9.21c0-0.023,0.002-0.041,0.008-0.053c0.004-0.012,0.018-0.022,0.039-0.032
		c0.02-0.01,0.055-0.014,0.102-0.014c0.068,0,0.158,0.002,0.268,0.007c0.111,0.006,0.188,0.008,0.229,0.008
		c0.227,0,0.375-0.069,0.445-0.21c0.07-0.14,0.105-0.459,0.105-0.958V4.43c0-0.312-0.02-0.529-0.059-0.654
		c-0.037-0.124-0.125-0.187-0.26-0.187c-0.094,0-0.193,0.036-0.303,0.108c-0.068,0.042-0.121,0.062-0.164,0.062
		c-0.041,0-0.061-0.021-0.061-0.062c0-0.021,0.02-0.042,0.057-0.065c0.039-0.023,0.094-0.054,0.164-0.09s0.117-0.062,0.145-0.078
		c0.748-0.467,1.242-0.797,1.484-0.989c-0.027,0.203-0.053,0.781-0.078,1.737c0.078-0.078,0.441-0.446,1.096-1.106
		c0.104-0.104,0.262-0.283,0.473-0.537l0.258,0.257c0.057,0.057,0.146,0.149,0.271,0.276s0.236,0.24,0.334,0.339
		c0.186,0.187,0.336,0.307,0.451,0.358c0.113,0.052,0.232,0.078,0.357,0.078c0.047,0,0.094-0.006,0.139-0.016
		c0.047-0.011,0.086-0.022,0.117-0.035s0.066-0.032,0.105-0.059s0.066-0.045,0.082-0.059c0.016-0.013,0.041-0.037,0.076-0.074
		c0.037-0.036,0.061-0.057,0.07-0.062c0.031-0.031,0.062-0.066,0.094-0.105s0.055-0.066,0.07-0.082s0.031-0.023,0.047-0.023
		c0.051,0,0.076,0.026,0.076,0.078c0,0.036-0.121,0.177-0.365,0.421l-1.127,1.176c-0.596-0.597-0.969-0.963-1.117-1.098
		c-0.021-0.016-0.062-0.053-0.121-0.109c-0.061-0.057-0.104-0.095-0.129-0.113c-0.025-0.018-0.064-0.039-0.115-0.062
		c-0.053-0.023-0.105-0.035-0.156-0.035c-0.176,0-0.506,0.282-0.986,0.849v3.279c0,0.571,0.059,0.948,0.178,1.133
		s0.33,0.276,0.629,0.276c0.053,0,0.166-0.009,0.34-0.027c0.172-0.018,0.299-0.024,0.377-0.019c0.014,0,0.031,0.012,0.049,0.035
		c0.02,0.024,0.027,0.041,0.027,0.049c0,0.058-0.127,0.087-0.381,0.087c-0.072,0-0.328-0.006-0.771-0.016
		c-0.441-0.01-0.738-0.015-0.891-0.015c-0.09,0-0.326,0.003-0.715,0.007c-0.387,0.005-0.633,0.008-0.738,0.008
		C153.116,9.267,153.042,9.248,153.042,9.21z"/>
	<path fill="#FDDFEB" d="M159.995,5.96c0-0.638,0.168-1.223,0.506-1.754c0.336-0.532,0.754-0.938,1.25-1.218
		c0.498-0.28,1.006-0.42,1.523-0.42c0.062,0,0.125,0.001,0.188,0.004c0.061,0.002,0.172,0.02,0.33,0.05
		c0.156,0.031,0.307,0.072,0.445,0.124c0.141,0.052,0.303,0.134,0.486,0.245c0.184,0.11,0.352,0.242,0.504,0.396
		c0.154,0.152,0.305,0.352,0.455,0.597s0.275,0.521,0.373,0.826l-5.393,0.99c0.053,0.369,0.152,0.705,0.299,1.01
		c0.148,0.304,0.324,0.56,0.529,0.768s0.434,0.384,0.688,0.526s0.51,0.247,0.77,0.312c0.26,0.065,0.521,0.098,0.785,0.098
		c0.699,0,1.219-0.122,1.562-0.367c0.223-0.156,0.398-0.314,0.531-0.474c0.133-0.158,0.215-0.277,0.248-0.355
		c0.035-0.078,0.057-0.117,0.066-0.117c0.068,0,0.102,0.016,0.102,0.047c0,0.011-0.002,0.021-0.008,0.031
		c-0.084,0.202-0.205,0.415-0.365,0.641s-0.363,0.451-0.605,0.676c-0.244,0.226-0.543,0.412-0.898,0.56s-0.729,0.222-1.123,0.222
		c-0.527,0-1.004-0.103-1.43-0.307c-0.424-0.204-0.766-0.474-1.025-0.807c-0.26-0.334-0.455-0.699-0.59-1.095
		S159.995,6.37,159.995,5.96z M160.632,5.513l4.189-0.769c-0.135-0.399-0.387-0.742-0.754-1.03
		c-0.367-0.287-0.814-0.431-1.336-0.431c-0.67,0-1.199,0.22-1.594,0.66c-0.342,0.378-0.516,0.821-0.521,1.329
		C160.616,5.35,160.622,5.431,160.632,5.513z"/>
	<path fill="#FDDFEB" d="M167.01,9.236c0-0.042,0.002-0.064,0.004-0.07c0.004-0.005,0.018-0.008,0.043-0.008
		c0.021,0,0.092,0.006,0.211,0.016c0.119,0.011,0.186,0.016,0.201,0.016c0.295,0,0.482-0.08,0.564-0.241
		c0.08-0.16,0.119-0.484,0.119-0.971V0.321c0-0.782-0.131-1.173-0.396-1.173c-0.119,0-0.219,0.02-0.303,0.059
		c-0.082,0.04-0.135,0.06-0.154,0.06c-0.043,0-0.062-0.02-0.062-0.06c0-0.039,0.047-0.071,0.139-0.096
		c0.26-0.104,0.857-0.384,1.795-0.84c-0.061,0.534-0.092,1.161-0.092,1.881v7.763c0,0.519,0.043,0.857,0.131,1.019
		c0.088,0.16,0.227,0.24,0.412,0.24c0.062,0,0.146-0.005,0.254-0.016c0.105-0.01,0.18-0.016,0.221-0.016
		c0.088,0,0.133,0.021,0.133,0.062c0,0.042-0.023,0.067-0.066,0.078c-0.045,0.01-0.123,0.015-0.238,0.015
		c-0.041,0-0.232-0.01-0.574-0.03c-0.094,0-0.221-0.003-0.381-0.008c-0.16-0.006-0.268-0.008-0.318-0.008
		c-0.16,0-0.434,0.01-0.816,0.031l-0.535,0.03c-0.125,0-0.205-0.005-0.238-0.016C167.028,9.288,167.01,9.267,167.01,9.236z"/>
	<path fill="#FDDFEB" d="M171.27,7.563c0-0.25,0.072-0.464,0.219-0.642s0.4-0.337,0.76-0.478c0.664-0.225,1.162-0.408,1.492-0.552
		s0.73-0.351,1.203-0.622V4.886c0-0.172-0.02-0.334-0.059-0.485c-0.037-0.151-0.105-0.301-0.201-0.449
		c-0.096-0.149-0.24-0.268-0.43-0.356s-0.42-0.133-0.689-0.133c-0.344,0-0.637,0.039-0.879,0.118
		c-0.242,0.078-0.475,0.21-0.693,0.394c-0.164,0.137-0.295,0.294-0.389,0.473c-0.059,0.126-0.1,0.188-0.125,0.188
		c-0.031,0-0.047-0.016-0.047-0.047c0-0.118,0.068-0.288,0.203-0.509c0.137-0.22,0.311-0.443,0.521-0.672
		c0.211-0.228,0.471-0.425,0.781-0.591c0.309-0.165,0.613-0.248,0.916-0.248c0.598,0,1.082,0.2,1.455,0.601s0.561,0.952,0.561,1.654
		v3.475c0,0.026,0,0.061,0,0.103c0,0.149,0.002,0.256,0.008,0.318s0.023,0.129,0.057,0.199c0.031,0.07,0.086,0.117,0.164,0.142
		c0.076,0.023,0.186,0.036,0.324,0.036c0.059,0,0.133-0.006,0.221-0.016c0.088-0.011,0.145-0.016,0.172-0.016
		c0.053,0.027,0.082,0.057,0.088,0.089c0,0.02-0.129,0.041-0.385,0.063s-0.426,0.034-0.51,0.034h-1.064V8.463
		c-0.035,0.021-0.131,0.086-0.287,0.195s-0.256,0.178-0.301,0.203c-0.043,0.026-0.129,0.076-0.256,0.149
		c-0.129,0.074-0.225,0.122-0.289,0.146c-0.064,0.023-0.15,0.059-0.254,0.105s-0.199,0.078-0.283,0.092
		c-0.086,0.014-0.174,0.021-0.262,0.021c-0.295,0-0.561-0.061-0.795-0.182c-0.232-0.12-0.416-0.276-0.545-0.466
		c-0.131-0.19-0.23-0.386-0.301-0.586C171.303,7.941,171.27,7.749,171.27,7.563z M172.194,7.336c0,0.396,0.166,0.761,0.498,1.092
		c0.334,0.331,0.668,0.497,1.006,0.497c0.1,0,0.205-0.022,0.32-0.067c0.113-0.044,0.207-0.09,0.279-0.137s0.186-0.122,0.336-0.227
		s0.254-0.175,0.311-0.212V5.426c-0.488,0.313-1.041,0.593-1.658,0.838c-0.469,0.188-0.768,0.354-0.896,0.497
		C172.259,6.905,172.194,7.096,172.194,7.336z"/>
	<path fill="#FDDFEB" d="M177.54,3.516l2.074-1.997v1.174h2.191c0.473,0,0.779-0.072,0.926-0.218
		c0.135-0.119,0.219-0.179,0.256-0.179c0.031,0,0.047,0.021,0.047,0.062c0,0.03-0.102,0.119-0.303,0.267l-1.004,0.877h-2.113v3.167
		c0,0.197,0.002,0.353,0.004,0.467c0.004,0.114,0.014,0.249,0.031,0.405c0.02,0.155,0.045,0.277,0.078,0.365
		c0.035,0.088,0.084,0.183,0.148,0.284c0.066,0.102,0.145,0.178,0.238,0.229s0.211,0.095,0.348,0.129
		c0.139,0.033,0.299,0.05,0.48,0.05c0.369,0,0.668-0.06,0.895-0.179c0.227-0.12,0.381-0.249,0.465-0.386
		c0.119-0.209,0.209-0.313,0.266-0.313c0.047,0,0.07,0.034,0.07,0.102c0,0.041-0.035,0.117-0.105,0.229
		c-0.07,0.112-0.174,0.242-0.314,0.393c-0.139,0.15-0.297,0.296-0.471,0.436c-0.172,0.14-0.381,0.258-0.621,0.354
		s-0.48,0.144-0.719,0.144c-1.145,0-1.717-0.733-1.717-2.2V3.516H177.54z"/>
	<path fill="#FDDFEB" d="M183.469,5.96c0-0.638,0.168-1.223,0.504-1.754c0.338-0.532,0.754-0.938,1.252-1.218
		c0.496-0.28,1.004-0.42,1.523-0.42c0.061,0,0.123,0.001,0.186,0.004c0.062,0.002,0.172,0.02,0.33,0.05
		c0.158,0.031,0.307,0.072,0.447,0.124c0.139,0.052,0.301,0.134,0.484,0.245c0.184,0.11,0.354,0.242,0.506,0.396
		c0.152,0.152,0.305,0.352,0.455,0.597c0.148,0.245,0.273,0.521,0.371,0.826l-5.391,0.99c0.051,0.369,0.15,0.705,0.299,1.01
		c0.148,0.304,0.324,0.56,0.529,0.768c0.203,0.208,0.434,0.384,0.688,0.526s0.51,0.247,0.77,0.312
		c0.258,0.065,0.52,0.098,0.783,0.098c0.699,0,1.221-0.122,1.562-0.367c0.223-0.156,0.4-0.314,0.533-0.474
		c0.131-0.158,0.215-0.277,0.248-0.355s0.055-0.117,0.066-0.117c0.066,0,0.1,0.016,0.1,0.047c0,0.011-0.002,0.021-0.008,0.031
		c-0.082,0.202-0.203,0.415-0.365,0.641c-0.16,0.226-0.361,0.451-0.605,0.676c-0.244,0.226-0.543,0.412-0.896,0.56
		c-0.355,0.147-0.73,0.222-1.123,0.222c-0.529,0-1.006-0.103-1.43-0.307c-0.426-0.204-0.768-0.474-1.027-0.807
		c-0.258-0.334-0.455-0.699-0.59-1.095S183.469,6.37,183.469,5.96z M184.106,5.513l4.188-0.769c-0.135-0.399-0.385-0.742-0.754-1.03
		c-0.367-0.287-0.812-0.431-1.336-0.431c-0.668,0-1.199,0.22-1.592,0.66c-0.344,0.378-0.516,0.821-0.521,1.329
		C184.091,5.35,184.096,5.431,184.106,5.513z"/>
	<path fill="#FDDFEB" d="M190.563,6.313c0-0.444,0.115-0.896,0.346-1.353c0.23-0.458,0.525-0.86,0.885-1.21
		c0.361-0.349,0.77-0.633,1.229-0.853s0.902-0.329,1.332-0.329c0.311,0,0.729,0.085,1.252,0.256V0.354
		c0-0.606-0.174-0.909-0.521-0.909c-0.197,0-0.373,0.039-0.527,0.116c-0.119,0.052-0.188,0.078-0.203,0.078
		c-0.01,0-0.016-0.016-0.016-0.047c0-0.016,0.02-0.037,0.055-0.066c0.037-0.028,0.084-0.059,0.145-0.093
		c0.059-0.033,0.115-0.066,0.17-0.097c0.055-0.031,0.113-0.062,0.176-0.094s0.104-0.052,0.123-0.062
		c0.41-0.202,0.711-0.355,0.904-0.462c0.191-0.106,0.424-0.255,0.697-0.447c-0.053,0.646-0.078,1.271-0.078,1.876v8.089
		c0,0.573,0.207,0.86,0.623,0.86c0.02,0,0.082-0.006,0.186-0.016c0.104-0.011,0.164-0.016,0.178-0.016
		c0.053,0,0.078,0.017,0.078,0.051c0,0.077-0.096,0.116-0.287,0.116c-0.062,0-0.168,0.003-0.318,0.01s-0.244,0.01-0.279,0.01h-1.088
		V8.694c-0.188,0.132-0.348,0.236-0.482,0.313c-0.135,0.076-0.34,0.157-0.617,0.241c-0.277,0.085-0.568,0.127-0.875,0.127
		c-0.564,0-1.086-0.146-1.564-0.44c-0.48-0.293-0.854-0.675-1.119-1.146C190.696,7.32,190.563,6.828,190.563,6.313z M191.378,5.616
		c0,0.878,0.305,1.595,0.91,2.15c0.605,0.555,1.373,0.832,2.301,0.832c0.367,0,0.707-0.057,1.018-0.17V4.105
		c-0.508-0.506-1.172-0.76-1.99-0.76c-0.332,0-0.631,0.052-0.896,0.155c-0.268,0.104-0.48,0.236-0.641,0.399
		c-0.162,0.162-0.297,0.347-0.408,0.554c-0.111,0.206-0.189,0.406-0.23,0.601C191.399,5.248,191.378,5.435,191.378,5.616z"/>
	<path fill="#FDDFEB" d="M202.009,3.516l2.074-1.997v1.174h2.191c0.473,0,0.779-0.072,0.926-0.218
		c0.135-0.119,0.219-0.179,0.256-0.179c0.031,0,0.047,0.021,0.047,0.062c0,0.03-0.102,0.119-0.303,0.267l-1.004,0.877h-2.113v3.167
		c0,0.197,0.002,0.353,0.004,0.467c0.004,0.114,0.014,0.249,0.031,0.405c0.02,0.155,0.045,0.277,0.078,0.365
		c0.035,0.088,0.084,0.183,0.148,0.284c0.066,0.102,0.145,0.178,0.238,0.229s0.211,0.095,0.348,0.129
		c0.139,0.033,0.299,0.05,0.48,0.05c0.369,0,0.668-0.06,0.895-0.179c0.227-0.12,0.381-0.249,0.465-0.386
		c0.119-0.209,0.209-0.313,0.266-0.313c0.047,0,0.07,0.034,0.07,0.102c0,0.041-0.035,0.117-0.105,0.229
		c-0.07,0.112-0.174,0.242-0.314,0.393c-0.139,0.15-0.297,0.296-0.471,0.436c-0.172,0.14-0.381,0.258-0.621,0.354
		s-0.48,0.144-0.719,0.144c-1.145,0-1.717-0.733-1.717-2.2V3.516H202.009z"/>
	<path fill="#FDDFEB" d="M207.907,6.322c0-0.436,0.111-0.882,0.338-1.341c0.225-0.458,0.516-0.862,0.869-1.212
		c0.355-0.35,0.766-0.637,1.229-0.862s0.92-0.338,1.371-0.338c0.83,0,1.545,0.295,2.148,0.886s0.906,1.303,0.906,2.137
		c0,0.42-0.107,0.856-0.318,1.31c-0.213,0.453-0.49,0.861-0.832,1.224s-0.75,0.662-1.225,0.897
		c-0.473,0.235-0.951,0.354-1.434,0.354c-0.555,0-1.068-0.146-1.541-0.439c-0.475-0.292-0.846-0.673-1.111-1.142
		C208.04,7.326,207.907,6.834,207.907,6.322z M208.721,5.591c0,0.591,0.145,1.119,0.432,1.585c0.289,0.467,0.66,0.82,1.119,1.061
		c0.459,0.241,0.949,0.361,1.473,0.361c0.592,0,1.105-0.199,1.547-0.598c0.439-0.399,0.66-0.948,0.66-1.647
		c0-0.86-0.291-1.576-0.871-2.148s-1.291-0.859-2.137-0.859c-0.367,0-0.691,0.059-0.975,0.175c-0.283,0.117-0.5,0.258-0.652,0.424
		s-0.275,0.358-0.369,0.579c-0.094,0.22-0.154,0.414-0.184,0.583C208.737,5.274,208.721,5.436,208.721,5.591z"/>
</g>
</svg>
