<?xml version="1.0" encoding="utf-8"?>
<!-- Generator: Adobe Illustrator 16.0.0, SVG Export Plug-In . SVG Version: 6.00 Build 0)  -->
<!DOCTYPE svg PUBLIC "-//W3C//DTD SVG 1.1//EN" "http://www.w3.org/Graphics/SVG/1.1/DTD/svg11.dtd">
<svg version="1.1" id="Layer_1" xmlns="http://www.w3.org/2000/svg" xmlns:xlink="http://www.w3.org/1999/xlink" x="0px" y="0px"
	 width="270.525px" height="159.372px" viewBox="0.33 0.466 270.525 159.372" enable-background="new 0.33 0.466 270.525 159.372"
	 xml:space="preserve">
<g>
	<g>
		<path fill="#FDDFEB" d="M13.255,24.047l-1.27,12l18.744,1.979l-0.823,7.794l-18.744-1.981L9.423,60.294L0.33,59.333L4.984,15.29
			l29.384,3.105l-0.824,7.794L13.255,24.047z"/>
	</g>
	<g>
		<path fill="#FDDFEB" d="M70.12,23.988c2.938,2.188,5.062,5.092,6.366,8.711c1.307,3.62,1.709,7.802,1.208,12.544
			c-0.501,4.743-1.771,8.748-3.804,12.014c-2.033,3.269-4.72,5.663-8.05,7.188c-3.328,1.524-7.141,2.061-11.429,1.607
			c-4.29-0.453-7.899-1.774-10.841-3.96c-2.938-2.188-5.062-5.091-6.366-8.712c-1.308-3.619-1.71-7.801-1.208-12.544
			c0.501-4.741,1.771-8.747,3.808-12.014c2.029-3.267,4.715-5.663,8.046-7.188c3.33-1.524,7.142-2.061,11.431-1.606
			C63.568,20.482,67.18,21.802,70.12,23.988z M49.625,31.175c-2.319,2.443-3.729,5.996-4.224,10.655
			c-0.492,4.661,0.142,8.429,1.898,11.305c1.764,2.876,4.414,4.5,7.963,4.875c3.546,0.375,6.479-0.66,8.804-3.104
			c2.321-2.444,3.729-5.996,4.224-10.657c0.492-4.66-0.143-8.428-1.898-11.303c-1.764-2.876-4.414-4.501-7.96-4.876
			C54.883,27.695,51.948,28.731,49.625,31.175z"/>
	</g>
	<g>
		<path fill="#FDDFEB" d="M115.374,30.209c2.411,2.425,3.408,5.637,2.984,9.637c-0.282,2.682-1.248,4.894-2.895,6.637
			c-1.646,1.745-3.737,2.837-6.29,3.277l-0.014,0.123c1.507,0.743,2.648,1.75,3.438,3.021c0.779,1.271,1.543,3.343,2.28,6.215
			l3.104,12.65l-9.896-1.046l-2.421-10.827c-0.569-2.479-1.354-4.24-2.351-5.283c-0.994-1.044-2.564-1.679-4.709-1.906l-5.011-0.528
			L91.82,69.004l-9.096-0.961L87.379,24l16.208,1.713C109.032,26.287,112.959,27.786,115.374,30.209z M94.365,44.941l6.433,0.68
			c5.072,0.536,7.842-1.36,8.3-5.69c0.433-4.083-2.059-6.41-7.457-6.98l-5.94-0.628L94.365,44.941z"/>
	</g>
	<g>
		<path fill="#FDDFEB" d="M136.847,37.109l-1.056,9.959l19.92,2.104l-0.813,7.732l-19.918-2.105l-1.141,10.765l21.898,2.313
			l-0.824,7.794l-30.992-3.274l4.654-44.043l30.438,3.216l-0.822,7.794L136.847,37.109z"/>
	</g>
	<g>
		<path fill="#FDDFEB" d="M163.082,76.534l4.654-44.042l9.094,0.961l-4.649,44.042L163.082,76.534z"/>
	</g>
	<g>
		<path fill="#FDDFEB" d="M217.656,40.737c2.938,2.959,4.393,6.751,4.361,11.376l-9.771-1.033c-0.184-2.229-0.936-3.986-2.256-5.273
			c-1.324-1.287-3.203-2.06-5.635-2.316c-3.551-0.375-6.496,0.681-8.844,3.163c-2.353,2.483-3.771,6.076-4.271,10.777
			c-0.51,4.824,0.1,8.727,1.828,11.703c1.728,2.976,4.346,4.648,7.854,5.021c3.179,0.336,5.701-0.304,7.58-1.919
			c1.888-1.615,3.021-4.111,3.425-7.488l-10.455-1.104l0.78-7.423l18.935,2l-2.562,24.187l-7.67-0.811l0.504-4.764l-0.125-0.014
			c-1.467,1.638-3.354,2.834-5.664,3.59c-2.311,0.758-4.907,0.982-7.799,0.678c-3.752-0.395-6.914-1.656-9.479-3.783
			c-2.568-2.127-4.429-4.972-5.57-8.533c-1.146-3.562-1.473-7.671-0.979-12.332c0.5-4.742,1.778-8.776,3.844-12.104
			c2.062-3.326,4.768-5.752,8.115-7.274c3.354-1.522,7.149-2.059,11.397-1.609C210.564,36.016,214.715,37.779,217.656,40.737z"/>
	</g>
	<g>
		<path fill="#FDDFEB" d="M253.271,86.066l-6.646-18.781c-2.434-6.971-4.473-13.315-6.119-19.036l-0.123-0.013
			c-0.391,6.839-0.896,13.229-1.521,19.167l-1.791,16.95l-8.728-0.922l4.654-44.042l12.928,1.365l6.646,18.779
			c2.436,6.972,4.475,13.318,6.121,19.038l0.125,0.012c0.391-6.839,0.895-13.229,1.521-19.167l1.791-16.948l8.726,0.922
			l-4.654,44.043L253.271,86.066z"/>
	</g>
	<g>
		<path fill="#FDDFEB" d="M23.892,148.224l-2.811,11.021l-9.562,0.592l12.598-45.154l12.292-0.764l18.073,43.258l-9.562,0.592
			l-4.083-10.592L23.892,148.224z M36.761,136.646c-2.433-6.332-4.464-11.98-6.102-16.947l-0.124,0.008
			c-1.173,5.894-2.474,11.744-3.896,17.566l-0.75,2.977l11.979-0.74L36.761,136.646z"/>
	</g>
	<g>
		<path fill="#FDDFEB" d="M65.395,119.976l0.747,12.045l18.812-1.166l0.483,7.822l-18.812,1.166l1.022,16.516l-9.126,0.566
			l-2.738-44.207l29.489-1.828l0.481,7.822L65.395,119.976z"/>
	</g>
	<g>
		<path fill="#FDDFEB" d="M101.653,117.73l0.746,12.045l18.812-1.166l0.484,7.822l-18.812,1.166l1.023,16.516l-9.128,0.564
			l-2.738-44.205l29.491-1.828l0.483,7.824L101.653,117.73z"/>
	</g>
	<g>
		<path fill="#FDDFEB" d="M135.275,141.324l-2.812,11.021l-9.562,0.592l12.598-45.154l12.292-0.764l18.076,43.256l-9.562,0.594
			l-4.082-10.594L135.275,141.324z M148.142,129.744c-2.433-6.33-4.461-11.979-6.101-16.947l-0.125,0.013
			c-1.174,5.894-2.473,11.746-3.897,17.562l-0.746,2.979l11.979-0.742L148.142,129.744z"/>
	</g>
	<g>
		<path fill="#FDDFEB" d="M169.906,150.023l-2.74-44.205l9.127-0.564l2.74,44.205L169.906,150.023z"/>
	</g>
	<g>
		<path fill="#FDDFEB" d="M215.109,106.087c2.781,1.988,4.301,4.99,4.549,9.006c0.166,2.689-0.416,5.029-1.748,7.023
			c-1.332,1.992-3.217,3.42-5.654,4.275l0.013,0.123c1.604,0.479,2.899,1.283,3.887,2.406c0.983,1.121,2.082,3.037,3.287,5.746
			l5.166,11.961l-9.938,0.613l-4.188-10.271c-0.98-2.353-2.043-3.957-3.195-4.82c-1.154-0.86-2.811-1.229-4.961-1.096l-5.027,0.312
			l1.05,16.895l-9.13,0.562l-2.735-44.207l16.268-1.009C208.205,103.275,212.328,104.099,215.109,106.087z M196.844,124.111
			l6.457-0.4c5.093-0.312,7.5-2.646,7.23-6.987c-0.256-4.104-3.096-5.979-8.516-5.646l-5.959,0.367L196.844,124.111z"/>
	</g>
	<g>
		<path fill="#FDDFEB" d="M254.095,103.144c2.983,2.285,4.631,5.811,4.926,10.568l-9.252,0.574
			c-0.146-2.316-0.916-4.066-2.318-5.248c-1.402-1.185-3.346-1.693-5.828-1.541c-2.029,0.125-3.637,0.672-4.817,1.641
			c-1.188,0.969-1.734,2.176-1.646,3.623c0.068,1.115,0.438,2.01,1.1,2.674c0.666,0.666,1.681,1.217,3.031,1.648
			c1.354,0.438,3.314,0.889,5.881,1.352c3.486,0.656,6.316,1.365,8.482,2.125c2.164,0.76,3.977,1.984,5.432,3.684
			c1.453,1.695,2.275,4.059,2.465,7.076c0.175,2.773-0.399,5.262-1.721,7.461c-1.314,2.199-3.244,3.961-5.779,5.279
			c-2.53,1.318-5.502,2.088-8.896,2.297c-5.586,0.348-10.047-0.729-13.381-3.221c-3.334-2.494-5.152-6.229-5.461-11.191l9.438-0.584
			c0.166,2.689,1.021,4.674,2.551,5.949c1.531,1.271,3.705,1.826,6.521,1.65c2.315-0.146,4.141-0.769,5.463-1.863
			c1.32-1.104,1.932-2.521,1.824-4.26c-0.078-1.24-0.447-2.203-1.113-2.896c-0.666-0.688-1.594-1.196-2.773-1.541
			c-1.188-0.344-3.061-0.771-5.625-1.271c-3.655-0.688-6.567-1.399-8.729-2.141c-2.166-0.738-3.998-1.941-5.492-3.617
			c-1.496-1.672-2.334-4.021-2.521-7.041c-0.158-2.563,0.385-4.889,1.627-6.955c1.238-2.069,3.065-3.729,5.483-4.981
			c2.414-1.25,5.215-1.978,8.402-2.172C246.861,99.882,251.107,100.855,254.095,103.144z"/>
	</g>
</g>
<g>
	<path fill="#FDDFEB" stroke="#FDDFEB" stroke-width="0.25" stroke-miterlimit="10" d="M78.01,8.945
		c0-0.025,0.016-0.038,0.047-0.038s0.103,0.004,0.214,0.012s0.185,0.012,0.22,0.012c0.062,0,0.104,0,0.123,0
		s0.058-0.007,0.114-0.021s0.096-0.033,0.117-0.058s0.052-0.066,0.091-0.123c0.039-0.056,0.067-0.125,0.085-0.207
		c0.018-0.082,0.033-0.185,0.047-0.312s0.021-0.273,0.021-0.44V2.495c0-0.38-0.023-0.668-0.068-0.862
		c-0.046-0.194-0.112-0.324-0.2-0.388c-0.087-0.064-0.219-0.096-0.394-0.096h-0.28c-0.04,0-0.06-0.021-0.06-0.062
		c0-0.027,0.009-0.043,0.027-0.048c0.018-0.004,0.066-0.007,0.146-0.007c0.032,0,0.186,0.008,0.463,0.023s0.438,0.023,0.481,0.023
		c0.096,0,0.257-0.012,0.483-0.035c0.303-0.016,0.583-0.023,0.839-0.023c0.412,0,0.786,0.049,1.123,0.146
		c0.336,0.098,0.61,0.221,0.82,0.369S82.855,1.855,83,2.048s0.246,0.381,0.306,0.562c0.06,0.182,0.089,0.356,0.089,0.524
		c0,0.496-0.214,0.936-0.642,1.318s-0.997,0.574-1.708,0.574c-0.148,0-0.336-0.02-0.562-0.059s-0.34-0.072-0.34-0.1
		c0-0.031,0.022-0.047,0.066-0.047c0.004,0,0.035,0.007,0.093,0.021c0.058,0.014,0.128,0.028,0.212,0.044
		c0.083,0.016,0.157,0.023,0.221,0.023c0.151,0,0.305-0.021,0.46-0.062c0.156-0.041,0.307-0.107,0.455-0.199
		c0.148-0.092,0.278-0.201,0.392-0.328s0.206-0.284,0.275-0.472c0.069-0.188,0.104-0.391,0.104-0.609
		c0-0.262-0.046-0.504-0.138-0.727c-0.092-0.223-0.21-0.407-0.355-0.554c-0.145-0.146-0.312-0.272-0.5-0.378
		s-0.374-0.182-0.558-0.229s-0.364-0.07-0.54-0.07c-0.098,0-0.217,0.008-0.358,0.023v6.688c0,0.366,0.061,0.613,0.182,0.742
		c0.122,0.129,0.292,0.193,0.511,0.193c0.032,0,0.11-0.004,0.235-0.012c0.125-0.008,0.211-0.012,0.259-0.012
		c0.051,0,0.076,0.013,0.076,0.038c0,0.034-0.011,0.06-0.032,0.077c-0.021,0.017-0.071,0.025-0.15,0.025
		c-0.145,0-0.401-0.008-0.769-0.023C79.937,9.008,79.702,9,79.583,9c-0.107,0-0.311,0.008-0.611,0.023
		c-0.32,0.016-0.541,0.023-0.662,0.023c-0.148,0-0.235-0.005-0.261-0.015S78.01,8.994,78.01,8.945z"/>
	<path fill="#FDDFEB" stroke="#FDDFEB" stroke-width="0.25" stroke-miterlimit="10" d="M83.887,8.97c0-0.018,0.002-0.031,0.006-0.04
		s0.014-0.017,0.03-0.024C83.939,8.898,83.965,8.895,84,8.895c0.051,0,0.119,0.002,0.202,0.006s0.141,0.006,0.172,0.006
		c0.17,0,0.282-0.053,0.335-0.159c0.053-0.105,0.08-0.346,0.08-0.722V5.365c0-0.235-0.015-0.399-0.044-0.493
		c-0.029-0.094-0.095-0.141-0.196-0.141c-0.07,0-0.146,0.027-0.229,0.082C84.27,4.845,84.229,4.86,84.198,4.86
		s-0.047-0.016-0.047-0.047c0-0.016,0.015-0.032,0.044-0.05s0.07-0.04,0.123-0.067s0.089-0.047,0.108-0.059
		c0.565-0.353,0.938-0.601,1.119-0.746c-0.02,0.153-0.039,0.589-0.059,1.31c0.059-0.059,0.334-0.336,0.826-0.834
		c0.078-0.078,0.197-0.213,0.357-0.405l0.193,0.194c0.043,0.043,0.111,0.113,0.205,0.208c0.094,0.096,0.178,0.181,0.252,0.255
		c0.141,0.141,0.254,0.231,0.34,0.271c0.086,0.039,0.176,0.059,0.27,0.059c0.035,0,0.07-0.004,0.105-0.012S88.1,4.92,88.124,4.91
		s0.05-0.024,0.079-0.044c0.029-0.02,0.05-0.034,0.062-0.044s0.031-0.028,0.059-0.056s0.045-0.043,0.053-0.047
		c0.023-0.023,0.047-0.05,0.07-0.08c0.023-0.029,0.041-0.05,0.053-0.062s0.023-0.018,0.035-0.018c0.039,0,0.059,0.02,0.059,0.059
		c0,0.027-0.092,0.133-0.275,0.317l-0.85,0.887c-0.449-0.45-0.73-0.726-0.844-0.828c-0.016-0.012-0.046-0.039-0.091-0.082
		s-0.077-0.071-0.097-0.085c-0.02-0.014-0.049-0.029-0.088-0.047s-0.078-0.026-0.117-0.026c-0.133,0-0.381,0.213-0.744,0.64v2.473
		c0,0.431,0.045,0.715,0.135,0.854S85.87,8.93,86.096,8.93c0.039,0,0.124-0.007,0.255-0.021s0.226-0.019,0.284-0.015
		c0.012,0,0.024,0.009,0.038,0.027s0.021,0.03,0.021,0.037c0,0.043-0.096,0.065-0.287,0.065c-0.055,0-0.249-0.004-0.582-0.011
		c-0.333-0.007-0.558-0.011-0.673-0.011c-0.066,0-0.246,0.002-0.538,0.005c-0.292,0.003-0.478,0.005-0.556,0.005
		C83.944,9.012,83.887,8.998,83.887,8.97z"/>
	<path fill="#FDDFEB" stroke="#FDDFEB" stroke-width="0.25" stroke-miterlimit="10" d="M88.821,8.997c0-0.06,0.023-0.09,0.07-0.09
		c0.027,0,0.068,0.002,0.123,0.006s0.09,0.006,0.105,0.006c0.062,0,0.118-0.004,0.167-0.012s0.092-0.015,0.129-0.021
		s0.07-0.022,0.1-0.05s0.054-0.046,0.073-0.058s0.035-0.04,0.047-0.085s0.021-0.075,0.029-0.09c0.008-0.016,0.013-0.056,0.015-0.12
		c0.002-0.064,0.003-0.107,0.003-0.128s0-0.074,0-0.158c0-0.084,0-0.14,0-0.167V5.195c0-0.102-0.004-0.179-0.012-0.234
		s-0.028-0.104-0.062-0.146c-0.033-0.043-0.085-0.064-0.155-0.064c-0.043,0-0.127,0.031-0.252,0.094
		c-0.059,0.035-0.098,0.052-0.117,0.052c-0.012,0-0.021-0.01-0.026-0.029c-0.006-0.02-0.005-0.039,0.003-0.059
		c0.004-0.008,0.022-0.021,0.056-0.038s0.069-0.037,0.108-0.059s0.064-0.036,0.076-0.044c0.402-0.237,0.777-0.489,1.125-0.754
		c-0.031,0.343-0.047,0.661-0.047,0.953V8.1c0,0.125,0.004,0.225,0.012,0.301c0.008,0.076,0.026,0.159,0.056,0.249
		c0.029,0.09,0.078,0.157,0.146,0.202s0.157,0.067,0.267,0.067c0.043,0,0.102-0.004,0.176-0.012s0.127-0.012,0.158-0.012
		c0.043,0,0.064,0.025,0.064,0.076c0,0.043-0.096,0.065-0.287,0.065c-0.07,0-0.234-0.009-0.492-0.026
		c-0.055,0-0.114-0.001-0.179-0.003S90.183,9.002,90.142,9c-0.041-0.002-0.065-0.003-0.073-0.003c-0.012,0-0.077,0.002-0.196,0.006
		S89.655,9.01,89.577,9.01c-0.273,0.017-0.434,0.026-0.48,0.026C88.913,9.036,88.821,9.022,88.821,8.997z M89.553,2.52
		c0.027-0.035,0.116-0.131,0.267-0.287s0.233-0.244,0.249-0.264c0.047,0.039,0.234,0.211,0.562,0.516l-0.24,0.199
		c-0.16,0.137-0.264,0.25-0.311,0.34c-0.051-0.047-0.139-0.131-0.264-0.252S89.604,2.567,89.553,2.52z"/>
	<path fill="#FDDFEB" stroke="#FDDFEB" stroke-width="0.25" stroke-miterlimit="10" d="M91.587,4.764
		c0-0.031,0.105-0.092,0.316-0.182c0.484-0.211,0.729-0.318,0.732-0.322c0.273-0.145,0.457-0.264,0.551-0.357
		c-0.031,0.398-0.047,0.713-0.047,0.943c0.137-0.137,0.247-0.242,0.331-0.316s0.199-0.163,0.346-0.267s0.299-0.18,0.457-0.229
		S94.6,3.961,94.78,3.961c0.137,0,0.269,0.017,0.396,0.05s0.257,0.096,0.39,0.188s0.247,0.209,0.343,0.352s0.174,0.331,0.234,0.565
		s0.091,0.502,0.091,0.803v2.314c0,0.457,0.107,0.686,0.322,0.686c0.008,0,0.051-0.002,0.129-0.006s0.137-0.006,0.176-0.006
		c0.031,0,0.047,0.023,0.047,0.07c0,0.031-0.053,0.047-0.158,0.047c-0.039,0-0.171-0.004-0.396-0.012S95.997,9,95.958,9
		c-0.051,0-0.207,0.004-0.469,0.012s-0.414,0.012-0.457,0.012c-0.035,0-0.06-0.001-0.073-0.003s-0.026-0.008-0.038-0.018
		s-0.018-0.026-0.018-0.05c0-0.031,0.023-0.047,0.07-0.047c0.043,0,0.086,0.002,0.129,0.006l0.064,0.006
		c0.141,0,0.237-0.061,0.29-0.182s0.079-0.354,0.079-0.697V6.012c0-0.961-0.428-1.441-1.283-1.441c-0.461,0-0.832,0.148-1.113,0.445
		v3.146c0,0.207,0.038,0.387,0.114,0.539s0.188,0.229,0.337,0.229l0.17-0.023c0.023,0,0.035,0.012,0.035,0.035
		c0,0.027-0.007,0.047-0.021,0.059s-0.028,0.019-0.044,0.021s-0.041,0.003-0.076,0.003c-0.047,0-0.191-0.004-0.434-0.012
		S92.839,9,92.8,9c-0.047,0-0.194,0.004-0.442,0.012s-0.392,0.012-0.431,0.012c-0.02,0-0.038-0.002-0.056-0.006
		s-0.034-0.014-0.05-0.029S91.8,8.954,91.803,8.93c0-0.016,0.012-0.023,0.035-0.023c0.004,0,0.027,0.004,0.07,0.012
		s0.068,0.012,0.076,0.012c0.305,0,0.457-0.225,0.457-0.674v-3.07c0-0.379-0.096-0.568-0.287-0.568c-0.059,0-0.164,0.033-0.316,0.1
		c-0.121,0.055-0.195,0.082-0.223,0.082C91.596,4.799,91.587,4.788,91.587,4.764z"/>
	<path fill="#FDDFEB" stroke="#FDDFEB" stroke-width="0.25" stroke-miterlimit="10" d="M97.153,4.676l1.564-1.506v0.885h1.652
		c0.355,0,0.588-0.055,0.697-0.164c0.102-0.09,0.166-0.135,0.193-0.135c0.023,0,0.035,0.016,0.035,0.046
		c0,0.023-0.076,0.09-0.229,0.201l-0.756,0.661h-1.594v2.389c0,0.148,0.001,0.266,0.003,0.352c0.002,0.086,0.01,0.188,0.023,0.305
		c0.014,0.117,0.034,0.209,0.059,0.275c0.025,0.067,0.063,0.138,0.112,0.214c0.049,0.076,0.109,0.134,0.18,0.173
		s0.158,0.071,0.262,0.097s0.225,0.038,0.362,0.038c0.279,0,0.504-0.045,0.675-0.135c0.17-0.09,0.288-0.187,0.35-0.291
		c0.09-0.157,0.157-0.236,0.2-0.236c0.036,0,0.053,0.025,0.053,0.076c0,0.031-0.026,0.089-0.079,0.173s-0.132,0.183-0.237,0.296
		s-0.224,0.223-0.354,0.328s-0.287,0.194-0.469,0.267s-0.362,0.108-0.542,0.108c-0.863,0-1.295-0.553-1.295-1.659V4.676H97.153z"/>
	<path fill="#FDDFEB" stroke="#FDDFEB" stroke-width="0.25" stroke-miterlimit="10" d="M101.384,6.519
		c0-0.481,0.127-0.922,0.381-1.323s0.568-0.707,0.943-0.918c0.375-0.211,0.758-0.317,1.148-0.317c0.047,0,0.094,0.001,0.141,0.003
		s0.13,0.015,0.249,0.038s0.231,0.055,0.336,0.093c0.105,0.039,0.228,0.101,0.366,0.185s0.266,0.183,0.381,0.298
		c0.115,0.115,0.229,0.265,0.343,0.45s0.207,0.393,0.281,0.623l-4.066,0.747c0.039,0.278,0.114,0.532,0.226,0.761
		c0.111,0.229,0.244,0.422,0.398,0.579c0.154,0.156,0.327,0.289,0.519,0.396s0.385,0.186,0.58,0.235
		c0.195,0.049,0.393,0.073,0.592,0.073c0.527,0,0.92-0.092,1.178-0.277c0.168-0.118,0.302-0.237,0.401-0.357
		c0.1-0.12,0.162-0.209,0.188-0.268s0.042-0.088,0.05-0.088c0.051,0,0.076,0.012,0.076,0.035c0,0.008-0.002,0.016-0.006,0.023
		c-0.062,0.152-0.154,0.313-0.275,0.483s-0.273,0.34-0.457,0.51s-0.409,0.311-0.677,0.422s-0.55,0.167-0.847,0.167
		c-0.398,0-0.758-0.077-1.078-0.231c-0.32-0.154-0.578-0.357-0.773-0.609c-0.195-0.251-0.344-0.527-0.445-0.825
		S101.384,6.828,101.384,6.519z M101.864,6.182l3.158-0.58c-0.102-0.301-0.291-0.56-0.568-0.776S103.841,4.5,103.446,4.5
		c-0.504,0-0.904,0.166-1.201,0.498c-0.258,0.285-0.389,0.619-0.393,1.002C101.852,6.059,101.856,6.12,101.864,6.182z"/>
	<path fill="#FDDFEB" stroke="#FDDFEB" stroke-width="0.25" stroke-miterlimit="10" d="M106.493,6.785
		c0-0.335,0.087-0.675,0.261-1.02c0.174-0.345,0.396-0.648,0.668-0.912s0.58-0.478,0.926-0.643s0.681-0.249,1.005-0.249
		c0.234,0,0.549,0.064,0.943,0.193V2.292c0-0.457-0.131-0.686-0.393-0.686c-0.148,0-0.281,0.029-0.398,0.088
		c-0.09,0.039-0.141,0.059-0.152,0.059c-0.008,0-0.012-0.012-0.012-0.035c0-0.012,0.014-0.028,0.041-0.05s0.063-0.045,0.108-0.07
		s0.088-0.05,0.129-0.073s0.085-0.047,0.132-0.07s0.078-0.039,0.094-0.047c0.309-0.152,0.536-0.269,0.681-0.349
		s0.32-0.192,0.526-0.337c-0.039,0.487-0.059,0.958-0.059,1.414v6.1c0,0.432,0.156,0.648,0.469,0.648
		c0.016,0,0.062-0.004,0.141-0.012s0.123-0.012,0.135-0.012c0.039,0,0.059,0.013,0.059,0.038c0,0.059-0.072,0.088-0.217,0.088
		c-0.047,0-0.127,0.002-0.24,0.007S111.155,9,111.128,9h-0.82V8.58c-0.141,0.1-0.262,0.178-0.363,0.236
		c-0.102,0.058-0.257,0.119-0.466,0.182c-0.209,0.064-0.429,0.096-0.659,0.096c-0.426,0-0.819-0.11-1.181-0.332
		c-0.361-0.221-0.643-0.509-0.844-0.864S106.493,7.173,106.493,6.785z M107.108,6.259c0,0.662,0.229,1.202,0.686,1.621
		c0.457,0.418,1.035,0.628,1.734,0.628c0.277,0,0.533-0.043,0.768-0.128V5.12c-0.383-0.382-0.883-0.573-1.5-0.573
		c-0.25,0-0.476,0.039-0.677,0.117c-0.201,0.078-0.362,0.178-0.483,0.301c-0.121,0.123-0.224,0.262-0.308,0.417
		s-0.142,0.307-0.173,0.453S107.108,6.123,107.108,6.259z"/>
	<path fill="#FDDFEB" stroke="#FDDFEB" stroke-width="0.25" stroke-miterlimit="10" d="M114.667,4.718
		c0-0.032,0.187-0.122,0.56-0.27c0.534-0.202,0.889-0.383,1.063-0.545c-0.023,0.267-0.035,0.499-0.035,0.696
		c0.321-0.254,0.562-0.424,0.723-0.51c0.161-0.085,0.353-0.128,0.576-0.128c0.278,0,0.535,0.086,0.772,0.257
		s0.436,0.394,0.596,0.668c0.141-0.137,0.25-0.241,0.326-0.312c0.076-0.07,0.173-0.152,0.291-0.246s0.219-0.162,0.305-0.206
		c0.086-0.044,0.187-0.082,0.303-0.114c0.115-0.033,0.234-0.049,0.355-0.049c0.415,0,0.765,0.14,1.05,0.419
		c0.286,0.279,0.428,0.678,0.428,1.198v2.596c0,0.285,0.022,0.477,0.067,0.574s0.161,0.146,0.349,0.146
		c0.02,0,0.049-0.002,0.088-0.006s0.07-0.006,0.094-0.006c0.039,0,0.059,0.028,0.059,0.085c0,0.029-0.068,0.044-0.205,0.044
		c-0.023,0-0.14-0.002-0.349-0.007s-0.376-0.007-0.501-0.007c-0.09,0-0.226,0.002-0.408,0.007c-0.182,0.005-0.31,0.007-0.385,0.007
		c-0.112,0-0.168-0.01-0.168-0.029c0-0.074,0.012-0.111,0.035-0.111c0.02,0,0.066,0.004,0.141,0.012s0.119,0.012,0.135,0.012
		c0.234,0,0.352-0.252,0.352-0.756V5.872c0-0.148-0.019-0.29-0.056-0.425s-0.096-0.266-0.176-0.393
		c-0.081-0.127-0.2-0.229-0.358-0.305s-0.348-0.114-0.567-0.114c-0.09,0-0.187,0.005-0.291,0.015
		c-0.104,0.01-0.246,0.045-0.426,0.105s-0.325,0.144-0.435,0.249c0.07,0.117,0.105,0.385,0.105,0.803v2.197
		c0,0.02-0.001,0.064-0.003,0.135s-0.002,0.121,0,0.152s0.005,0.08,0.009,0.146s0.011,0.118,0.021,0.156
		c0.01,0.037,0.024,0.082,0.044,0.133s0.043,0.09,0.071,0.115c0.027,0.025,0.062,0.047,0.103,0.068
		c0.042,0.021,0.089,0.031,0.144,0.031c0.008,0,0.042-0.007,0.103-0.023c0.061-0.016,0.106-0.023,0.138-0.023
		c0.023,0,0.036,0.02,0.036,0.058c0,0.055-0.045,0.083-0.135,0.083c-0.043,0-0.17-0.009-0.381-0.028
		c-0.051,0-0.134-0.002-0.25-0.007c-0.116-0.005-0.205-0.007-0.267-0.007c-0.047,0-0.126,0.002-0.238,0.007
		c-0.111,0.005-0.196,0.007-0.255,0.007c-0.211,0.019-0.337,0.028-0.376,0.028c-0.079,0-0.118-0.009-0.118-0.028
		c0-0.075,0.02-0.112,0.059-0.112c0.027,0,0.067,0.004,0.12,0.012c0.053,0.008,0.082,0.012,0.085,0.012
		c0.074,0,0.139-0.014,0.194-0.041c0.055-0.027,0.095-0.057,0.12-0.087c0.026-0.031,0.044-0.077,0.056-0.137
		c0.012-0.061,0.019-0.105,0.021-0.135s0.003-0.071,0.003-0.125V6.055c0-0.545-0.11-0.933-0.329-1.163
		c-0.219-0.229-0.539-0.345-0.958-0.345c-0.122,0-0.242,0.012-0.361,0.036c-0.12,0.024-0.2,0.044-0.241,0.061
		c-0.041,0.017-0.12,0.049-0.238,0.097v3.31c0,0.027,0,0.07,0,0.129c0,0.113,0,0.196,0,0.249s0.006,0.116,0.018,0.19
		s0.029,0.127,0.053,0.158s0.057,0.059,0.1,0.082s0.098,0.035,0.165,0.035c0.02,0,0.061-0.002,0.124-0.006
		c0.062-0.004,0.102-0.006,0.117-0.006c0.039,0,0.059,0.028,0.059,0.085c0,0.029-0.043,0.044-0.129,0.044
		c-0.02,0-0.145-0.002-0.376-0.007c-0.231-0.004-0.388-0.007-0.469-0.007c-0.03,0-0.168,0.002-0.415,0.007
		c-0.247,0.005-0.411,0.007-0.493,0.007c-0.066,0-0.1-0.014-0.1-0.043c0-0.057,0.029-0.086,0.088-0.086
		c0.031,0,0.076,0.002,0.135,0.006s0.098,0.006,0.117,0.006c0.207,0,0.311-0.225,0.311-0.674V5.127c0-0.355-0.09-0.533-0.271-0.533
		c-0.096,0-0.229,0.041-0.397,0.124c-0.101,0.046-0.156,0.07-0.168,0.07C114.685,4.788,114.667,4.764,114.667,4.718z"/>
	<path fill="#FDDFEB" stroke="#FDDFEB" stroke-width="0.25" stroke-miterlimit="10" d="M123.163,7.728
		c0-0.189,0.055-0.35,0.166-0.484c0.11-0.134,0.301-0.254,0.572-0.36c0.501-0.169,0.876-0.308,1.125-0.416
		c0.249-0.108,0.551-0.265,0.908-0.469V5.709c0-0.13-0.015-0.252-0.044-0.366c-0.03-0.114-0.081-0.227-0.153-0.339
		c-0.073-0.112-0.18-0.201-0.323-0.268s-0.316-0.101-0.52-0.101c-0.26,0-0.481,0.03-0.664,0.089
		c-0.183,0.06-0.357,0.159-0.522,0.297c-0.124,0.103-0.222,0.222-0.293,0.356c-0.043,0.095-0.074,0.143-0.094,0.143
		c-0.023,0-0.035-0.012-0.035-0.035c0-0.09,0.051-0.218,0.153-0.384c0.103-0.166,0.233-0.335,0.393-0.507s0.355-0.32,0.589-0.445
		c0.233-0.125,0.463-0.188,0.691-0.188c0.451,0,0.817,0.151,1.098,0.453c0.281,0.302,0.422,0.718,0.422,1.248v2.62
		c0,0.02,0,0.045,0,0.077c0,0.113,0.002,0.193,0.006,0.24c0.004,0.047,0.019,0.098,0.042,0.15s0.065,0.088,0.124,0.106
		c0.059,0.018,0.14,0.027,0.245,0.027c0.044,0,0.1-0.004,0.166-0.012s0.11-0.012,0.13-0.012c0.04,0.021,0.062,0.043,0.066,0.067
		c0,0.015-0.097,0.031-0.29,0.048S126.8,9,126.737,9h-0.803V8.406c-0.027,0.016-0.1,0.065-0.217,0.147
		c-0.118,0.083-0.193,0.134-0.227,0.153c-0.033,0.02-0.098,0.057-0.194,0.113c-0.096,0.056-0.168,0.092-0.217,0.11
		s-0.113,0.044-0.191,0.08c-0.079,0.036-0.15,0.059-0.214,0.069c-0.065,0.01-0.13,0.016-0.197,0.016
		c-0.223,0-0.422-0.045-0.599-0.137c-0.177-0.091-0.314-0.208-0.412-0.352c-0.099-0.144-0.174-0.291-0.226-0.442
		C123.189,8.013,123.163,7.867,123.163,7.728z M123.86,7.557c0,0.299,0.125,0.573,0.376,0.823c0.25,0.25,0.503,0.375,0.758,0.375
		c0.074,0,0.154-0.017,0.241-0.05c0.086-0.033,0.157-0.068,0.211-0.103c0.055-0.036,0.139-0.092,0.252-0.171
		c0.114-0.079,0.192-0.131,0.235-0.159V6.117c-0.368,0.236-0.786,0.446-1.251,0.631c-0.353,0.142-0.578,0.267-0.676,0.375
		C123.909,7.231,123.86,7.375,123.86,7.557z"/>
	<path fill="#FDDFEB" stroke="#FDDFEB" stroke-width="0.25" stroke-miterlimit="10" d="M127.651,4.676l1.564-1.506v0.885h1.652
		c0.355,0,0.588-0.055,0.697-0.164c0.102-0.09,0.166-0.135,0.193-0.135c0.023,0,0.035,0.016,0.035,0.046
		c0,0.023-0.076,0.09-0.229,0.201l-0.756,0.661h-1.594v2.389c0,0.148,0.001,0.266,0.003,0.352c0.002,0.086,0.01,0.188,0.023,0.305
		c0.014,0.117,0.034,0.209,0.059,0.275c0.025,0.067,0.063,0.138,0.112,0.214c0.049,0.076,0.109,0.134,0.18,0.173
		s0.158,0.071,0.262,0.097s0.225,0.038,0.362,0.038c0.279,0,0.504-0.045,0.675-0.135s0.288-0.187,0.351-0.291
		c0.09-0.157,0.156-0.236,0.199-0.236c0.036,0,0.054,0.025,0.054,0.076c0,0.031-0.026,0.089-0.079,0.173s-0.132,0.183-0.237,0.296
		s-0.224,0.223-0.354,0.328s-0.287,0.194-0.469,0.267s-0.362,0.108-0.542,0.108c-0.863,0-1.295-0.553-1.295-1.659V4.676H127.651z"/>
	<path fill="#FDDFEB" stroke="#FDDFEB" stroke-width="0.25" stroke-miterlimit="10" d="M131.641,4.676l1.564-1.506v0.885h1.652
		c0.355,0,0.588-0.055,0.697-0.164c0.102-0.09,0.166-0.135,0.193-0.135c0.023,0,0.035,0.016,0.035,0.046
		c0,0.023-0.076,0.09-0.229,0.201L134.8,4.665h-1.594v2.389c0,0.148,0.001,0.266,0.003,0.352c0.002,0.086,0.01,0.188,0.023,0.305
		c0.014,0.117,0.033,0.209,0.059,0.275c0.025,0.067,0.063,0.138,0.112,0.214c0.05,0.076,0.108,0.134,0.18,0.173
		s0.158,0.071,0.263,0.097c0.104,0.025,0.225,0.038,0.361,0.038c0.279,0,0.504-0.045,0.675-0.135s0.288-0.187,0.351-0.291
		c0.09-0.157,0.156-0.236,0.199-0.236c0.036,0,0.054,0.025,0.054,0.076c0,0.031-0.026,0.089-0.079,0.173s-0.132,0.183-0.237,0.296
		s-0.224,0.223-0.354,0.328s-0.287,0.194-0.469,0.267s-0.362,0.108-0.542,0.108c-0.863,0-1.295-0.553-1.295-1.659V4.676H131.641z"/>
	<path fill="#FDDFEB" stroke="#FDDFEB" stroke-width="0.25" stroke-miterlimit="10" d="M135.872,6.519
		c0-0.481,0.127-0.922,0.381-1.323s0.568-0.707,0.943-0.918c0.375-0.211,0.758-0.317,1.148-0.317c0.047,0,0.094,0.001,0.141,0.003
		s0.13,0.015,0.249,0.038s0.23,0.055,0.336,0.093c0.105,0.039,0.229,0.101,0.367,0.185s0.266,0.183,0.381,0.298
		c0.115,0.115,0.229,0.265,0.342,0.45s0.207,0.393,0.281,0.623l-4.065,0.747c0.039,0.278,0.114,0.532,0.226,0.761
		c0.111,0.229,0.244,0.422,0.398,0.579c0.154,0.156,0.327,0.289,0.519,0.396s0.385,0.186,0.58,0.235
		c0.195,0.049,0.393,0.073,0.592,0.073c0.527,0,0.92-0.092,1.178-0.277c0.168-0.118,0.302-0.237,0.401-0.357
		c0.1-0.12,0.162-0.209,0.188-0.268s0.042-0.088,0.05-0.088c0.051,0,0.076,0.012,0.076,0.035c0,0.008-0.002,0.016-0.006,0.023
		c-0.062,0.152-0.154,0.313-0.275,0.483s-0.273,0.34-0.457,0.51s-0.409,0.311-0.677,0.422s-0.55,0.167-0.847,0.167
		c-0.398,0-0.758-0.077-1.078-0.231c-0.32-0.154-0.578-0.357-0.773-0.609c-0.195-0.251-0.344-0.527-0.445-0.825
		S135.872,6.828,135.872,6.519z M136.352,6.182l3.158-0.58c-0.102-0.301-0.291-0.56-0.568-0.776S138.329,4.5,137.934,4.5
		c-0.504,0-0.904,0.166-1.201,0.498c-0.258,0.285-0.389,0.619-0.393,1.002C136.341,6.059,136.344,6.12,136.352,6.182z"/>
	<path fill="#FDDFEB" stroke="#FDDFEB" stroke-width="0.25" stroke-miterlimit="10" d="M140.741,8.97
		c0-0.018,0.002-0.031,0.006-0.04s0.014-0.017,0.03-0.024c0.016-0.007,0.041-0.011,0.076-0.011c0.052,0,0.119,0.002,0.202,0.006
		s0.141,0.006,0.173,0.006c0.17,0,0.281-0.053,0.335-0.159c0.054-0.105,0.08-0.346,0.08-0.722V5.365
		c0-0.235-0.015-0.399-0.044-0.493c-0.029-0.094-0.095-0.141-0.196-0.141c-0.07,0-0.146,0.027-0.229,0.082
		c-0.051,0.032-0.092,0.047-0.123,0.047s-0.047-0.016-0.047-0.047c0-0.016,0.015-0.032,0.044-0.05s0.07-0.04,0.123-0.067
		s0.089-0.047,0.108-0.059c0.565-0.353,0.938-0.601,1.119-0.746c-0.02,0.153-0.039,0.589-0.059,1.31
		c0.059-0.059,0.334-0.336,0.826-0.834c0.078-0.078,0.197-0.213,0.357-0.405l0.193,0.194c0.043,0.043,0.111,0.113,0.205,0.208
		c0.094,0.096,0.178,0.181,0.252,0.255c0.141,0.141,0.254,0.231,0.34,0.271c0.086,0.039,0.176,0.059,0.27,0.059
		c0.035,0,0.07-0.004,0.105-0.012s0.064-0.017,0.088-0.026s0.05-0.024,0.079-0.044c0.029-0.02,0.05-0.034,0.062-0.044
		s0.031-0.028,0.059-0.056s0.045-0.043,0.053-0.047c0.023-0.023,0.047-0.05,0.07-0.08c0.023-0.029,0.041-0.05,0.053-0.062
		s0.023-0.018,0.035-0.018c0.039,0,0.059,0.02,0.059,0.059c0,0.027-0.092,0.133-0.275,0.317l-0.85,0.887
		c-0.449-0.45-0.73-0.726-0.844-0.828c-0.016-0.012-0.046-0.039-0.091-0.082s-0.077-0.071-0.097-0.085
		c-0.02-0.014-0.049-0.029-0.088-0.047s-0.078-0.026-0.117-0.026c-0.133,0-0.381,0.213-0.744,0.64v2.473
		c0,0.431,0.045,0.715,0.135,0.854s0.248,0.208,0.475,0.208c0.039,0,0.124-0.007,0.255-0.021s0.226-0.019,0.284-0.015
		c0.012,0,0.024,0.009,0.038,0.027s0.021,0.03,0.021,0.037c0,0.043-0.096,0.065-0.287,0.065c-0.055,0-0.249-0.004-0.581-0.011
		c-0.334-0.007-0.559-0.011-0.674-0.011c-0.066,0-0.246,0.002-0.537,0.005c-0.293,0.003-0.479,0.005-0.557,0.005
		C140.798,9.012,140.741,8.998,140.741,8.97z"/>
	<path fill="#FDDFEB" stroke="#FDDFEB" stroke-width="0.25" stroke-miterlimit="10" d="M148.13,8.97c0-0.018,0.002-0.031,0.006-0.04
		s0.014-0.017,0.03-0.024c0.016-0.007,0.041-0.011,0.076-0.011c0.052,0,0.119,0.002,0.202,0.006s0.141,0.006,0.173,0.006
		c0.17,0,0.281-0.053,0.335-0.159c0.054-0.105,0.08-0.346,0.08-0.722V5.365c0-0.235-0.015-0.399-0.044-0.493
		c-0.029-0.094-0.095-0.141-0.196-0.141c-0.07,0-0.146,0.027-0.229,0.082c-0.051,0.032-0.092,0.047-0.123,0.047
		s-0.047-0.016-0.047-0.047c0-0.016,0.015-0.032,0.044-0.05s0.07-0.04,0.123-0.067s0.089-0.047,0.108-0.059
		c0.565-0.353,0.938-0.601,1.119-0.746c-0.02,0.153-0.039,0.589-0.059,1.31c0.059-0.059,0.334-0.336,0.826-0.834
		c0.078-0.078,0.197-0.213,0.357-0.405l0.193,0.194c0.043,0.043,0.111,0.113,0.205,0.208c0.094,0.096,0.178,0.181,0.252,0.255
		c0.141,0.141,0.254,0.231,0.34,0.271c0.086,0.039,0.176,0.059,0.27,0.059c0.035,0,0.07-0.004,0.105-0.012s0.064-0.017,0.088-0.026
		s0.05-0.024,0.079-0.044c0.029-0.02,0.05-0.034,0.062-0.044s0.031-0.028,0.059-0.056s0.045-0.043,0.053-0.047
		c0.023-0.023,0.047-0.05,0.07-0.08c0.023-0.029,0.041-0.05,0.053-0.062s0.023-0.018,0.035-0.018c0.039,0,0.059,0.02,0.059,0.059
		c0,0.027-0.092,0.133-0.275,0.317l-0.85,0.887c-0.449-0.45-0.73-0.726-0.844-0.828c-0.016-0.012-0.046-0.039-0.091-0.082
		s-0.077-0.071-0.097-0.085c-0.02-0.014-0.049-0.029-0.088-0.047s-0.078-0.026-0.117-0.026c-0.133,0-0.381,0.213-0.744,0.64v2.473
		c0,0.431,0.045,0.715,0.135,0.854s0.248,0.208,0.475,0.208c0.039,0,0.124-0.007,0.255-0.021s0.226-0.019,0.284-0.015
		c0.012,0,0.024,0.009,0.038,0.027s0.021,0.03,0.021,0.037c0,0.043-0.096,0.065-0.287,0.065c-0.055,0-0.249-0.004-0.581-0.011
		c-0.334-0.007-0.559-0.011-0.674-0.011c-0.066,0-0.246,0.002-0.537,0.005c-0.293,0.003-0.479,0.005-0.557,0.005
		C148.186,9.012,148.13,8.998,148.13,8.97z"/>
	<path fill="#FDDFEB" stroke="#FDDFEB" stroke-width="0.25" stroke-miterlimit="10" d="M153.134,6.519
		c0-0.481,0.127-0.922,0.381-1.323s0.568-0.707,0.943-0.918c0.375-0.211,0.758-0.317,1.148-0.317c0.047,0,0.094,0.001,0.141,0.003
		s0.13,0.015,0.249,0.038s0.231,0.055,0.337,0.093c0.105,0.039,0.228,0.101,0.366,0.185s0.266,0.183,0.381,0.298
		c0.114,0.115,0.229,0.265,0.342,0.45s0.207,0.393,0.281,0.623l-4.065,0.747c0.039,0.278,0.114,0.532,0.226,0.761
		c0.111,0.229,0.244,0.422,0.398,0.579c0.154,0.156,0.327,0.289,0.519,0.396s0.385,0.186,0.58,0.235
		c0.195,0.049,0.393,0.073,0.592,0.073c0.527,0,0.92-0.092,1.178-0.277c0.168-0.118,0.302-0.237,0.401-0.357
		c0.1-0.12,0.162-0.209,0.188-0.268s0.042-0.088,0.05-0.088c0.051,0,0.076,0.012,0.076,0.035c0,0.008-0.002,0.016-0.006,0.023
		c-0.062,0.152-0.154,0.313-0.275,0.483s-0.273,0.34-0.457,0.51s-0.409,0.311-0.677,0.422s-0.55,0.167-0.847,0.167
		c-0.398,0-0.758-0.077-1.078-0.231c-0.32-0.154-0.578-0.357-0.773-0.609c-0.195-0.251-0.344-0.527-0.445-0.825
		S153.134,6.828,153.134,6.519z M153.614,6.182l3.158-0.58c-0.102-0.301-0.291-0.56-0.568-0.776S155.591,4.5,155.196,4.5
		c-0.504,0-0.904,0.166-1.201,0.498c-0.258,0.285-0.389,0.619-0.393,1.002C153.602,6.059,153.606,6.12,153.614,6.182z"/>
	<path fill="#FDDFEB" stroke="#FDDFEB" stroke-width="0.25" stroke-miterlimit="10" d="M158.184,8.989
		c0-0.031,0.001-0.049,0.003-0.053s0.013-0.006,0.032-0.006c0.016,0,0.068,0.004,0.158,0.012s0.141,0.012,0.152,0.012
		c0.223,0,0.364-0.061,0.425-0.182s0.091-0.365,0.091-0.732V2.267c0-0.59-0.1-0.885-0.299-0.885c-0.09,0-0.166,0.015-0.229,0.045
		s-0.102,0.044-0.117,0.044c-0.031,0-0.047-0.015-0.047-0.044s0.035-0.054,0.105-0.073c0.195-0.078,0.646-0.289,1.354-0.633
		c-0.047,0.402-0.07,0.875-0.07,1.418v5.854c0,0.391,0.033,0.646,0.1,0.768s0.17,0.182,0.311,0.182c0.047,0,0.11-0.004,0.19-0.012
		s0.136-0.012,0.167-0.012c0.066,0,0.1,0.016,0.1,0.047s-0.017,0.051-0.05,0.059s-0.093,0.012-0.179,0.012
		c-0.031,0-0.176-0.008-0.434-0.023c-0.07,0-0.166-0.002-0.287-0.006S159.46,9,159.421,9c-0.121,0-0.326,0.008-0.615,0.023
		l-0.404,0.023c-0.094,0-0.153-0.004-0.179-0.012S158.184,9.012,158.184,8.989z"/>
	<path fill="#FDDFEB" stroke="#FDDFEB" stroke-width="0.25" stroke-miterlimit="10" d="M161.155,7.728
		c0-0.189,0.056-0.35,0.166-0.484s0.301-0.254,0.572-0.36c0.501-0.169,0.877-0.308,1.125-0.416c0.249-0.108,0.552-0.265,0.908-0.469
		V5.709c0-0.13-0.015-0.252-0.044-0.366c-0.029-0.114-0.08-0.227-0.153-0.339c-0.072-0.112-0.18-0.201-0.322-0.268
		c-0.144-0.067-0.316-0.101-0.521-0.101c-0.26,0-0.481,0.03-0.663,0.089c-0.183,0.06-0.357,0.159-0.522,0.297
		c-0.125,0.103-0.223,0.222-0.294,0.356c-0.043,0.095-0.074,0.143-0.094,0.143c-0.023,0-0.035-0.012-0.035-0.035
		c0-0.09,0.051-0.218,0.153-0.384s0.233-0.335,0.393-0.507s0.355-0.32,0.589-0.445s0.464-0.188,0.691-0.188
		c0.45,0,0.816,0.151,1.098,0.453c0.281,0.302,0.422,0.718,0.422,1.248v2.62c0,0.02,0,0.045,0,0.077c0,0.113,0.002,0.193,0.006,0.24
		s0.019,0.098,0.043,0.15c0.023,0.053,0.064,0.088,0.123,0.106s0.141,0.027,0.245,0.027c0.044,0,0.1-0.004,0.166-0.012
		s0.109-0.012,0.13-0.012c0.04,0.021,0.062,0.043,0.066,0.067c0,0.015-0.097,0.031-0.29,0.048S164.792,9,164.729,9h-0.803V8.406
		c-0.027,0.016-0.1,0.065-0.218,0.147c-0.117,0.083-0.192,0.134-0.226,0.153c-0.033,0.02-0.099,0.057-0.194,0.113
		s-0.168,0.092-0.218,0.11c-0.049,0.018-0.112,0.044-0.19,0.08s-0.149,0.059-0.215,0.069c-0.064,0.01-0.13,0.016-0.196,0.016
		c-0.223,0-0.423-0.045-0.599-0.137c-0.177-0.091-0.314-0.208-0.412-0.352c-0.099-0.144-0.174-0.291-0.226-0.442
		C161.181,8.013,161.155,7.867,161.155,7.728z M161.852,7.557c0,0.299,0.125,0.573,0.376,0.823c0.251,0.25,0.503,0.375,0.758,0.375
		c0.074,0,0.155-0.017,0.241-0.05c0.086-0.033,0.156-0.068,0.211-0.103c0.056-0.036,0.14-0.092,0.253-0.171
		c0.114-0.079,0.192-0.131,0.235-0.159V6.117c-0.368,0.236-0.785,0.446-1.252,0.631c-0.353,0.142-0.577,0.267-0.676,0.375
		C161.901,7.231,161.852,7.375,161.852,7.557z"/>
	<path fill="#FDDFEB" stroke="#FDDFEB" stroke-width="0.25" stroke-miterlimit="10" d="M165.643,4.676l1.564-1.506v0.885h1.652
		c0.355,0,0.588-0.055,0.697-0.164c0.102-0.09,0.166-0.135,0.193-0.135c0.023,0,0.035,0.016,0.035,0.046
		c0,0.023-0.076,0.09-0.229,0.201l-0.756,0.661h-1.594v2.389c0,0.148,0.001,0.266,0.003,0.352c0.002,0.086,0.01,0.188,0.023,0.305
		c0.014,0.117,0.033,0.209,0.059,0.275c0.026,0.067,0.063,0.138,0.112,0.214s0.109,0.134,0.18,0.173s0.158,0.071,0.262,0.097
		c0.104,0.025,0.226,0.038,0.362,0.038c0.279,0,0.504-0.045,0.675-0.135s0.287-0.187,0.351-0.291c0.09-0.157,0.156-0.236,0.2-0.236
		c0.035,0,0.053,0.025,0.053,0.076c0,0.031-0.026,0.089-0.079,0.173s-0.132,0.183-0.237,0.296s-0.224,0.223-0.354,0.328
		s-0.287,0.194-0.469,0.267s-0.362,0.108-0.542,0.108c-0.863,0-1.295-0.553-1.295-1.659V4.676H165.643z"/>
	<path fill="#FDDFEB" stroke="#FDDFEB" stroke-width="0.25" stroke-miterlimit="10" d="M169.874,6.519
		c0-0.481,0.127-0.922,0.381-1.323s0.568-0.707,0.943-0.918c0.375-0.211,0.758-0.317,1.148-0.317c0.047,0,0.094,0.001,0.141,0.003
		s0.13,0.015,0.249,0.038s0.231,0.055,0.337,0.093c0.105,0.039,0.228,0.101,0.366,0.185s0.266,0.183,0.381,0.298
		c0.114,0.115,0.229,0.265,0.342,0.45s0.207,0.393,0.281,0.623l-4.065,0.747c0.039,0.278,0.114,0.532,0.226,0.761
		c0.111,0.229,0.244,0.422,0.398,0.579c0.154,0.156,0.327,0.289,0.519,0.396s0.385,0.186,0.58,0.235
		c0.195,0.049,0.393,0.073,0.592,0.073c0.527,0,0.92-0.092,1.178-0.277c0.168-0.118,0.302-0.237,0.401-0.357
		c0.1-0.12,0.162-0.209,0.188-0.268s0.042-0.088,0.05-0.088c0.051,0,0.076,0.012,0.076,0.035c0,0.008-0.002,0.016-0.006,0.023
		c-0.062,0.152-0.154,0.313-0.275,0.483s-0.273,0.34-0.457,0.51s-0.409,0.311-0.677,0.422s-0.55,0.167-0.847,0.167
		c-0.398,0-0.758-0.077-1.078-0.231c-0.32-0.154-0.578-0.357-0.773-0.609c-0.195-0.251-0.344-0.527-0.445-0.825
		S169.874,6.828,169.874,6.519z M170.354,6.182l3.158-0.58c-0.102-0.301-0.291-0.56-0.568-0.776S172.331,4.5,171.936,4.5
		c-0.504,0-0.904,0.166-1.201,0.498c-0.258,0.285-0.389,0.619-0.393,1.002C170.343,6.059,170.346,6.12,170.354,6.182z"/>
	<path fill="#FDDFEB" stroke="#FDDFEB" stroke-width="0.25" stroke-miterlimit="10" d="M174.983,6.785
		c0-0.335,0.087-0.675,0.261-1.02c0.174-0.345,0.396-0.648,0.668-0.912s0.58-0.478,0.926-0.643s0.681-0.249,1.005-0.249
		c0.234,0,0.549,0.064,0.943,0.193V2.292c0-0.457-0.131-0.686-0.393-0.686c-0.148,0-0.281,0.029-0.398,0.088
		c-0.09,0.039-0.141,0.059-0.152,0.059c-0.008,0-0.012-0.012-0.012-0.035c0-0.012,0.014-0.028,0.041-0.05s0.063-0.045,0.108-0.07
		s0.088-0.05,0.129-0.073s0.085-0.047,0.132-0.07s0.078-0.039,0.094-0.047c0.309-0.152,0.535-0.269,0.681-0.349
		c0.145-0.08,0.32-0.192,0.526-0.337c-0.039,0.487-0.059,0.958-0.059,1.414v6.1c0,0.432,0.156,0.648,0.469,0.648
		c0.016,0,0.062-0.004,0.141-0.012s0.123-0.012,0.135-0.012c0.039,0,0.059,0.013,0.059,0.038c0,0.059-0.072,0.088-0.217,0.088
		c-0.047,0-0.127,0.002-0.24,0.007S179.645,9,179.618,9h-0.82V8.58c-0.141,0.1-0.262,0.178-0.363,0.236
		c-0.102,0.058-0.257,0.119-0.466,0.182c-0.209,0.064-0.429,0.096-0.659,0.096c-0.426,0-0.819-0.11-1.181-0.332
		c-0.361-0.221-0.643-0.509-0.844-0.864S174.983,7.173,174.983,6.785z M175.598,6.259c0,0.662,0.229,1.202,0.686,1.621
		c0.457,0.418,1.035,0.628,1.734,0.628c0.277,0,0.533-0.043,0.768-0.128V5.12c-0.383-0.382-0.883-0.573-1.5-0.573
		c-0.25,0-0.476,0.039-0.677,0.117c-0.201,0.078-0.362,0.178-0.483,0.301c-0.121,0.123-0.224,0.262-0.308,0.417
		s-0.142,0.307-0.173,0.453S175.598,6.123,175.598,6.259z"/>
	<path fill="#FDDFEB" stroke="#FDDFEB" stroke-width="0.25" stroke-miterlimit="10" d="M183.134,4.676l1.564-1.506v0.885h1.652
		c0.355,0,0.588-0.055,0.697-0.164c0.102-0.09,0.166-0.135,0.193-0.135c0.023,0,0.035,0.016,0.035,0.046
		c0,0.023-0.076,0.09-0.229,0.201l-0.756,0.661h-1.594v2.389c0,0.148,0.001,0.266,0.003,0.352c0.002,0.086,0.01,0.188,0.023,0.305
		c0.014,0.117,0.033,0.209,0.059,0.275c0.026,0.067,0.063,0.138,0.112,0.214s0.109,0.134,0.18,0.173s0.158,0.071,0.262,0.097
		c0.104,0.025,0.226,0.038,0.362,0.038c0.279,0,0.504-0.045,0.675-0.135s0.287-0.187,0.351-0.291c0.09-0.157,0.156-0.236,0.2-0.236
		c0.035,0,0.053,0.025,0.053,0.076c0,0.031-0.026,0.089-0.079,0.173s-0.132,0.183-0.237,0.296s-0.224,0.223-0.354,0.328
		s-0.287,0.194-0.469,0.267s-0.362,0.108-0.542,0.108c-0.863,0-1.295-0.553-1.295-1.659V4.676H183.134z"/>
	<path fill="#FDDFEB" stroke="#FDDFEB" stroke-width="0.25" stroke-miterlimit="10" d="M187.341,6.792
		c0-0.328,0.085-0.665,0.255-1.011s0.389-0.65,0.656-0.914s0.576-0.48,0.926-0.65s0.694-0.255,1.034-0.255
		c0.625,0,1.165,0.223,1.62,0.668s0.683,0.982,0.683,1.611c0,0.316-0.08,0.646-0.24,0.987s-0.369,0.649-0.627,0.923
		s-0.565,0.499-0.923,0.677s-0.718,0.267-1.081,0.267c-0.418,0-0.806-0.11-1.163-0.331s-0.637-0.508-0.838-0.861
		S187.341,7.178,187.341,6.792z M187.956,6.241c0,0.445,0.108,0.844,0.325,1.195s0.498,0.618,0.844,0.8s0.716,0.272,1.11,0.272
		c0.445,0,0.834-0.15,1.166-0.451s0.498-0.715,0.498-1.242c0-0.648-0.219-1.188-0.656-1.62s-0.975-0.647-1.611-0.647
		c-0.277,0-0.522,0.044-0.735,0.132s-0.377,0.194-0.492,0.319s-0.208,0.271-0.278,0.437s-0.116,0.312-0.138,0.439
		S187.956,6.124,187.956,6.241z"/>
</g>
</svg>
