<?xml version="1.0" encoding="utf-8"?>
<!-- Generator: Adobe Illustrator 16.0.0, SVG Export Plug-In . SVG Version: 6.00 Build 0)  -->
<!DOCTYPE svg PUBLIC "-//W3C//DTD SVG 1.1//EN" "http://www.w3.org/Graphics/SVG/1.1/DTD/svg11.dtd">
<svg version="1.1" id="Layer_1" xmlns="http://www.w3.org/2000/svg" xmlns:xlink="http://www.w3.org/1999/xlink" x="0px" y="0px"
	 width="298.234px" height="189.098px" viewBox="0.214 0 298.234 189.098" enable-background="new 0.214 0 298.234 189.098"
	 xml:space="preserve">
<g>
	<path fill="#FDDFEB" d="M42.531,50.384l-4.67-19.956c-1.747-7.406-3.209-14.6-4.388-21.583h-0.14
		c-1.18,6.982-2.643,14.177-4.388,21.583l-4.67,19.956H10.758L0.214,0h10.19l3.609,18.328c1.509,7.643,2.735,14.909,3.68,21.795
		h0.142c1.274-7.123,2.806-14.389,4.6-21.795L26.822,0h13.163l4.387,18.328c1.792,7.407,3.326,14.673,4.599,21.795h0.142
		c0.943-6.887,2.17-14.153,3.68-21.795L56.401,0h10.19L56.048,50.384H42.531z"/>
	<path fill="#FDDFEB" d="M91.711,43.131c1.274-0.919,2.028-2.134,2.265-3.645h10.12c-0.472,2.218-1.475,4.246-3.007,6.085
		c-1.533,1.84-3.515,3.291-5.945,4.353c-2.43,1.061-5.178,1.592-8.244,1.592c-3.727,0-6.935-0.813-9.624-2.44
		c-2.689-1.628-4.741-3.903-6.157-6.829c-1.416-2.925-2.123-6.298-2.123-10.12c0-3.585,0.708-6.793,2.123-9.624
		c1.416-2.831,3.467-5.071,6.157-6.723c2.689-1.651,5.873-2.477,9.553-2.477c4.104,0,7.618,1.073,10.543,3.219
		c2.925,2.148,4.954,5.06,6.085,8.739c0.754,2.406,1.132,5.474,1.132,9.199H78.762c0.142,3.492,0.956,6.04,2.441,7.643
		c1.486,1.605,3.385,2.406,5.696,2.406C88.834,44.511,90.438,44.051,91.711,43.131z M81.627,22.291
		c-1.392,1.321-2.276,3.303-2.654,5.944h15.71c-0.283-2.595-1.145-4.564-2.583-5.909s-3.196-2.017-5.271-2.017
		C84.752,20.31,83.019,20.97,81.627,22.291z"/>
	<path fill="#FDDFEB" d="M154.054,50.384v-4.741h-0.141c-1.085,1.793-2.548,3.185-4.387,4.175c-1.84,0.991-3.822,1.486-5.946,1.486
		c-2.971,0-5.589-0.779-7.854-2.335c-2.265-1.557-4.011-3.761-5.237-6.616c-1.227-2.854-1.84-6.168-1.84-9.943
		c0-3.773,0.603-7.086,1.805-9.942c1.204-2.854,2.925-5.06,5.166-6.616c2.24-1.557,4.848-2.336,7.82-2.336
		c2.076,0,4.021,0.459,5.839,1.38c1.815,0.92,3.265,2.205,4.352,3.856h0.142V0h9.906v50.385L154.054,50.384L154.054,50.384z
		 M141.104,24.167c-1.415,2.052-2.123,4.801-2.123,8.244c0,3.444,0.708,6.193,2.123,8.245c1.415,2.052,3.302,3.078,5.661,3.078
		c2.265,0,4.08-1.001,5.448-3.007c1.368-2.004,2.053-4.776,2.053-8.315c0-3.538-0.685-6.309-2.053-8.315
		c-1.369-2.004-3.184-3.007-5.448-3.007C144.406,21.088,142.519,22.114,141.104,24.167z"/>
	<path fill="#FDDFEB" d="M200.51,15.639c2.762,1.557,4.894,3.775,6.405,6.652c1.509,2.877,2.265,6.251,2.265,10.119
		c0,3.869-0.756,7.242-2.265,10.12c-1.512,2.878-3.645,5.096-6.405,6.651c-2.759,1.558-6.003,2.335-9.729,2.335
		s-6.973-0.778-9.73-2.335c-2.76-1.557-4.894-3.773-6.403-6.651c-1.511-2.876-2.265-6.25-2.265-10.12
		c0-3.867,0.754-7.24,2.265-10.119c1.51-2.877,3.645-5.095,6.403-6.652c2.759-1.557,6.005-2.335,9.73-2.335
		S197.751,14.082,200.51,15.639z M184.942,24.06c-1.438,2.077-2.158,4.859-2.158,8.35c0,3.492,0.72,6.275,2.158,8.351
		c1.439,2.076,3.385,3.114,5.84,3.114c2.452,0,4.398-1.038,5.838-3.114c1.438-2.076,2.158-4.858,2.158-8.351
		c0-3.491-0.72-6.273-2.158-8.35c-1.439-2.075-3.386-3.114-5.838-3.114C188.326,20.946,186.381,21.985,184.942,24.06z"/>
	<path fill="#FDDFEB" d="M247.532,17.374c2.361,2.524,3.539,6.169,3.539,10.933v22.078h-9.907V29.296
		c0-2.641-0.555-4.624-1.663-5.944c-1.109-1.32-2.653-1.981-4.635-1.981c-2.123,0-3.834,0.838-5.131,2.511
		c-1.297,1.675-1.945,4.094-1.945,7.253v19.249h-9.908V14.437h9.271v4.528h0.142c1.228-1.65,2.735-2.96,4.527-3.927
		c1.793-0.967,3.798-1.451,6.017-1.451C241.943,13.587,245.174,14.85,247.532,17.374z"/>
	<path fill="#FDDFEB" d="M263.951,20.381h-5.024l3.326-10.332h-3.114V0.001h9.27v10.048L263.951,20.381z"/>
	<path fill="#FDDFEB" d="M297.705,42.6v7.572c-1.511,0.471-3.254,0.708-5.235,0.708c-4.153,0-7.172-0.908-9.06-2.725
		c-1.887-1.815-2.831-4.8-2.831-8.951V21.795h-5.802v-7.36h5.802v-9.34h9.907v9.34h6.865v7.36h-6.865v15.639
		c0,1.98,0.354,3.396,1.062,4.246c0.709,0.848,1.912,1.273,3.609,1.273C296.147,42.954,296.997,42.837,297.705,42.6z"/>
	<path fill="#FDDFEB" d="M98.222,86.162c2.359,2.525,3.539,6.168,3.539,10.932v22.08h-9.908V98.085c0-2.641-0.555-4.622-1.663-5.943
		c-1.109-1.32-2.654-1.981-4.635-1.981c-2.123,0-3.833,0.838-5.13,2.513c-1.298,1.674-1.947,4.093-1.947,7.252v19.248h-9.907V83.225
		h9.27v4.529h0.142c1.226-1.651,2.736-2.96,4.529-3.927c1.793-0.967,3.797-1.451,6.015-1.451
		C92.632,82.376,95.863,83.639,98.222,86.162z"/>
	<path fill="#FDDFEB" d="M132.825,111.921c1.273-0.92,2.028-2.134,2.264-3.646h10.119c-0.472,2.219-1.475,4.245-3.007,6.086
		c-1.533,1.841-3.515,3.29-5.944,4.351c-2.431,1.063-5.178,1.594-8.244,1.594c-3.728,0-6.935-0.812-9.624-2.44
		c-2.689-1.627-4.741-3.902-6.157-6.828c-1.415-2.926-2.123-6.298-2.123-10.121c0-3.583,0.708-6.793,2.123-9.624
		c1.416-2.83,3.468-5.071,6.157-6.723c2.689-1.65,5.874-2.476,9.553-2.476c4.104,0,7.619,1.073,10.544,3.219
		c2.926,2.148,4.954,5.06,6.085,8.74c0.753,2.407,1.132,5.474,1.132,9.2h-25.828c0.141,3.493,0.956,6.039,2.441,7.643
		c1.485,1.605,3.385,2.405,5.696,2.405C129.948,113.3,131.551,112.84,132.825,111.921z M122.741,91.08
		c-1.393,1.321-2.277,3.303-2.654,5.944h15.71c-0.283-2.594-1.145-4.564-2.583-5.909c-1.439-1.344-3.198-2.017-5.272-2.017
		C125.867,89.099,124.132,89.76,122.741,91.08z"/>
	<path fill="#FDDFEB" d="M175.497,111.921c1.272-0.92,2.026-2.134,2.263-3.646h10.12c-0.472,2.219-1.475,4.245-3.008,6.086
		s-3.515,3.29-5.942,4.351c-2.432,1.063-5.181,1.594-8.246,1.594c-3.728,0-6.935-0.812-9.624-2.44
		c-2.689-1.627-4.741-3.902-6.158-6.828c-1.414-2.926-2.122-6.298-2.122-10.121c0-3.583,0.708-6.793,2.122-9.624
		c1.417-2.83,3.469-5.071,6.158-6.723c2.689-1.65,5.873-2.476,9.552-2.476c4.105,0,7.62,1.073,10.544,3.219
		c2.926,2.148,4.954,5.06,6.087,8.74c0.753,2.407,1.132,5.474,1.132,9.2h-25.828c0.14,3.493,0.955,6.039,2.44,7.643
		c1.487,1.605,3.386,2.405,5.696,2.405C172.617,113.3,174.221,112.84,175.497,111.921z M165.412,91.08
		c-1.393,1.321-2.277,3.303-2.655,5.944h15.71c-0.283-2.594-1.146-4.564-2.583-5.909c-1.438-1.344-3.197-2.017-5.272-2.017
		C168.537,89.099,166.801,89.76,165.412,91.08z"/>
	<path fill="#FDDFEB" d="M220.854,119.174v-4.742h-0.141c-1.085,1.794-2.548,3.185-4.387,4.176c-1.841,0.99-3.822,1.485-5.946,1.485
		c-2.972,0-5.589-0.778-7.854-2.335c-2.265-1.556-4.011-3.761-5.236-6.616c-1.228-2.854-1.839-6.167-1.839-9.943
		c0-3.772,0.601-7.087,1.803-9.941c1.203-2.854,2.924-5.06,5.166-6.617c2.24-1.557,4.848-2.335,7.82-2.335
		c2.075,0,4.021,0.46,5.839,1.38c1.815,0.919,3.266,2.206,4.352,3.855h0.143V68.79h9.906v50.384H220.854z M207.904,92.956
		c-1.414,2.052-2.122,4.801-2.122,8.244c0,3.444,0.708,6.192,2.122,8.244c1.415,2.052,3.303,3.079,5.661,3.079
		c2.265,0,4.08-1.001,5.449-3.009c1.368-2.004,2.053-4.775,2.053-8.314c0-3.537-0.685-6.309-2.053-8.315
		c-1.369-2.004-3.185-3.008-5.449-3.008C211.207,89.877,209.319,90.903,207.904,92.956z"/>
	<path fill="#FDDFEB" d="M12.35,146.496v13.728h21.442v8.917H12.35v18.824H1.948v-50.386H35.56v8.917H12.35z"/>
	<path fill="#FDDFEB" d="M66.06,151.874v8.561c-1.274-0.233-2.312-0.352-3.114-0.352c-3.019,0-5.332,0.933-6.935,2.795
		c-1.604,1.863-2.405,4.564-2.405,8.103v16.984h-9.907v-35.95h9.129v5.096h0.142c1.178-1.935,2.583-3.361,4.21-4.28
		c1.627-0.922,3.502-1.381,5.625-1.381C63.983,151.449,65.069,151.59,66.06,151.874z"/>
	<path fill="#FDDFEB" d="M92.385,180.712c1.275-0.921,2.028-2.137,2.265-3.646h10.119c-0.472,2.218-1.476,4.246-3.008,6.085
		c-1.533,1.843-3.515,3.292-5.944,4.353c-2.431,1.062-5.178,1.594-8.244,1.594c-3.727,0-6.935-0.815-9.624-2.441
		c-2.689-1.628-4.741-3.903-6.156-6.829s-2.123-6.298-2.123-10.122c0-3.582,0.708-6.793,2.123-9.62
		c1.415-2.834,3.468-5.072,6.156-6.725c2.689-1.65,5.873-2.476,9.553-2.476c4.104,0,7.619,1.074,10.544,3.219
		c2.925,2.146,4.953,5.061,6.085,8.74c0.753,2.405,1.132,5.473,1.132,9.198H79.436c0.142,3.492,0.956,6.041,2.441,7.643
		c1.486,1.605,3.385,2.405,5.697,2.405C89.507,182.09,91.111,181.63,92.385,180.712z M82.3,159.87
		c-1.392,1.322-2.276,3.304-2.654,5.944h15.71c-0.283-2.593-1.144-4.564-2.583-5.908c-1.439-1.345-3.197-2.018-5.272-2.018
		C85.426,157.889,83.691,158.55,82.3,159.87z"/>
	<path fill="#FDDFEB" d="M135.054,180.712c1.275-0.921,2.029-2.137,2.265-3.646h10.121c-0.473,2.218-1.477,4.246-3.009,6.085
		c-1.534,1.843-3.515,3.292-5.944,4.353c-2.43,1.062-5.178,1.594-8.244,1.594c-3.727,0-6.935-0.815-9.624-2.441
		c-2.689-1.628-4.741-3.903-6.156-6.829c-1.416-2.926-2.123-6.298-2.123-10.122c0-3.582,0.708-6.793,2.123-9.62
		c1.416-2.834,3.468-5.072,6.156-6.725c2.69-1.65,5.874-2.476,9.554-2.476c4.104,0,7.618,1.074,10.544,3.219
		c2.923,2.146,4.952,5.061,6.084,8.74c0.754,2.405,1.133,5.473,1.133,9.198h-25.83c0.142,3.492,0.955,6.041,2.441,7.643
		c1.486,1.605,3.386,2.405,5.697,2.405C132.176,182.09,133.781,181.63,135.054,180.712z M124.971,159.87
		c-1.392,1.322-2.276,3.304-2.654,5.944h15.709c-0.282-2.593-1.144-4.564-2.583-5.908c-1.44-1.345-3.197-2.018-5.272-2.018
		S126.362,158.55,124.971,159.87z"/>
	<path fill="#FDDFEB" d="M180.414,187.965v-4.743h-0.141c-1.087,1.795-2.548,3.184-4.389,4.175
		c-1.839,0.992-3.821,1.486-5.944,1.486c-2.971,0-5.589-0.777-7.855-2.335c-2.262-1.556-4.01-3.762-5.235-6.617
		c-1.228-2.853-1.841-6.166-1.841-9.94c0-3.775,0.602-7.088,1.805-9.943c1.204-2.854,2.926-5.061,5.167-6.616
		c2.239-1.557,4.847-2.337,7.819-2.337c2.075,0,4.021,0.462,5.84,1.381c1.814,0.919,3.265,2.206,4.351,3.856h0.141v-18.752h9.908
		v50.386H180.414z M167.464,161.745c-1.415,2.052-2.124,4.801-2.124,8.245s0.709,6.191,2.124,8.243
		c1.415,2.053,3.302,3.079,5.662,3.079c2.265,0,4.079-1.003,5.449-3.008c1.366-2.004,2.053-4.775,2.053-8.314
		s-0.687-6.311-2.053-8.315c-1.37-2.004-3.185-3.009-5.449-3.009C170.766,158.666,168.879,159.693,167.464,161.745z"/>
	<path fill="#FDDFEB" d="M226.871,153.218c2.76,1.558,4.895,3.776,6.404,6.652c1.51,2.878,2.265,6.252,2.265,10.12
		c0,3.867-0.755,7.241-2.265,10.118c-1.51,2.88-3.645,5.095-6.404,6.652c-2.759,1.558-6.003,2.335-9.729,2.335
		c-3.728,0-6.972-0.779-9.73-2.335c-2.762-1.558-4.894-3.772-6.404-6.652c-1.51-2.876-2.264-6.25-2.264-10.118
		s0.754-7.241,2.264-10.12c1.511-2.876,3.645-5.095,6.404-6.652c2.761-1.556,6.003-2.335,9.73-2.335
		C220.868,150.883,224.113,151.662,226.871,153.218z M211.302,161.641c-1.439,2.075-2.156,4.857-2.156,8.35s0.717,6.274,2.156,8.35
		c1.44,2.076,3.386,3.115,5.84,3.115c2.452,0,4.398-1.039,5.838-3.115c1.438-2.075,2.157-4.857,2.157-8.35s-0.72-6.274-2.157-8.35
		c-1.439-2.076-3.386-3.115-5.838-3.115C214.688,158.525,212.743,159.564,211.302,161.641z"/>
	<path fill="#FDDFEB" d="M295.087,154.918c2.239,2.5,3.36,6.155,3.36,10.969v22.078h-9.907v-21.09c0-2.641-0.494-4.622-1.485-5.944
		c-0.99-1.318-2.382-1.981-4.174-1.981c-2.124,0-3.754,0.91-4.884,2.726c-1.133,1.818-1.698,4.423-1.698,7.821v18.469h-9.907V166.24
		c0-2.312-0.485-4.104-1.451-5.38c-0.967-1.272-2.37-1.909-4.212-1.909c-2.12,0-3.749,0.908-4.881,2.725
		c-1.134,1.817-1.7,4.422-1.7,7.82v18.47h-9.907v-35.95h9.341v4.105h0.143c1.32-1.697,2.783-2.947,4.386-3.75
		c1.604-0.802,3.468-1.203,5.59-1.203c2.501,0,4.659,0.521,6.477,1.558c1.813,1.038,3.218,2.571,4.209,4.598
		c1.415-2.026,3.021-3.561,4.812-4.598c1.793-1.037,4.012-1.558,6.652-1.558C289.768,151.166,292.845,152.416,295.087,154.918z"/>
</g>
</svg>
