<?xml version="1.0" encoding="utf-8"?>
<!-- Generator: Adobe Illustrator 16.0.0, SVG Export Plug-In . SVG Version: 6.00 Build 0)  -->
<!DOCTYPE svg PUBLIC "-//W3C//DTD SVG 1.1//EN" "http://www.w3.org/Graphics/SVG/1.1/DTD/svg11.dtd">
<svg version="1.1" id="Layer_1" xmlns="http://www.w3.org/2000/svg" xmlns:xlink="http://www.w3.org/1999/xlink" x="0px" y="0px"
	 width="270.524px" height="156.798px" viewBox="-1 0.466 270.524 156.798" enable-background="new -1 0.466 270.524 156.798"
	 xml:space="preserve">
<g>
	<g>
		<path fill="#FDDFEB" d="M11.925,21.473l-1.271,12l18.745,1.98l-0.822,7.794L9.832,41.265L8.093,57.72L-1,56.76l4.652-44.043
			l29.385,3.105l-0.824,7.794L11.925,21.473z"/>
	</g>
	<g>
		<path fill="#FDDFEB" d="M68.79,21.414c2.938,2.188,5.062,5.092,6.365,8.711c1.308,3.62,1.71,7.802,1.208,12.544
			c-0.501,4.743-1.771,8.748-3.804,12.014c-2.033,3.271-4.718,5.663-8.047,7.188c-3.331,1.522-7.142,2.061-11.43,1.605
			c-4.29-0.453-7.901-1.772-10.841-3.96c-2.938-2.188-5.062-5.091-6.366-8.712c-1.309-3.619-1.71-7.801-1.208-12.544
			c0.501-4.741,1.771-8.747,3.806-12.014c2.031-3.269,4.715-5.663,8.046-7.188c3.33-1.522,7.143-2.061,11.432-1.604
			C62.238,17.908,65.85,19.228,68.79,21.414z M48.295,28.601c-2.321,2.443-3.729,5.996-4.225,10.655
			c-0.491,4.661,0.143,8.429,1.901,11.305c1.761,2.876,4.413,4.5,7.96,4.875c3.546,0.375,6.479-0.66,8.804-3.104
			c2.321-2.444,3.729-5.996,4.225-10.657c0.492-4.66-0.144-8.428-1.9-11.303c-1.762-2.876-4.414-4.501-7.96-4.876
			S50.618,26.157,48.295,28.601z"/>
	</g>
	<g>
		<path fill="#FDDFEB" d="M114.044,27.635c2.411,2.425,3.408,5.637,2.983,9.637c-0.281,2.684-1.248,4.896-2.893,6.639
			c-1.646,1.743-3.739,2.837-6.289,3.275l-0.015,0.123c1.507,0.743,2.647,1.75,3.436,3.021c0.781,1.271,1.543,3.343,2.282,6.215
			l3.104,12.648l-9.896-1.046l-2.421-10.825c-0.571-2.479-1.354-4.24-2.352-5.283c-0.993-1.044-2.563-1.681-4.709-1.906
			l-5.011-0.528L90.491,66.43l-9.097-0.961l4.652-44.043l16.208,1.713C107.702,23.714,111.629,25.213,114.044,27.635z
			 M93.034,42.367l6.433,0.68c5.072,0.536,7.84-1.36,8.298-5.69c0.433-4.083-2.057-6.408-7.457-6.979l-5.938-0.628L93.034,42.367z"
			/>
	</g>
	<g>
		<path fill="#FDDFEB" d="M135.518,34.535l-1.054,9.959l19.919,2.104l-0.814,7.732l-19.919-2.105l-1.138,10.767l21.896,2.312
			l-0.824,7.794l-30.99-3.272l4.653-44.043l30.438,3.216l-0.823,7.794L135.518,34.535z"/>
	</g>
	<g>
		<path fill="#FDDFEB" d="M161.752,73.961l4.652-44.042l9.096,0.961l-4.652,44.042L161.752,73.961z"/>
	</g>
	<g>
		<path fill="#FDDFEB" d="M216.326,38.163c2.938,2.959,4.394,6.751,4.36,11.376l-9.771-1.033c-0.186-2.229-0.937-3.986-2.257-5.273
			c-1.323-1.287-3.202-2.06-5.636-2.314c-3.55-0.375-6.496,0.681-8.844,3.163c-2.35,2.481-3.771,6.076-4.268,10.775
			c-0.512,4.824,0.099,8.729,1.827,11.703c1.728,2.978,4.347,4.648,7.854,5.021c3.177,0.336,5.701-0.306,7.58-1.919
			c1.886-1.615,3.021-4.111,3.424-7.488l-10.456-1.104l0.783-7.423l18.933,2l-2.56,24.188l-7.67-0.812l0.503-4.764l-0.124-0.014
			c-1.468,1.638-3.354,2.835-5.665,3.591c-2.311,0.758-4.909,0.98-7.798,0.678c-3.752-0.396-6.915-1.656-9.48-3.783
			c-2.567-2.127-4.426-4.972-5.568-8.531c-1.146-3.562-1.475-7.673-0.979-12.332c0.501-4.742,1.78-8.776,3.845-12.104
			c2.062-3.326,4.768-5.752,8.115-7.272c3.354-1.522,7.15-2.061,11.398-1.609C209.235,33.442,213.385,35.205,216.326,38.163z"/>
	</g>
	<g>
		<path fill="#FDDFEB" d="M251.942,83.492l-6.646-18.78c-2.436-6.971-4.475-13.315-6.119-19.036l-0.123-0.013
			c-0.391,6.839-0.896,13.229-1.523,19.167l-1.79,16.95l-8.725-0.924l4.652-44.043l12.93,1.365l6.646,18.779
			c2.436,6.972,4.474,13.316,6.121,19.038l0.123,0.012c0.392-6.839,0.896-13.229,1.523-19.167l1.79-16.948l8.724,0.922
			l-4.652,44.043L251.942,83.492z"/>
	</g>
	<g>
		<path fill="#FDDFEB" d="M22.562,145.651l-2.809,11.021l-9.562,0.592L22.79,112.11l12.292-0.764l18.072,43.259l-9.562,0.592
			l-4.083-10.592L22.562,145.651z M35.431,134.073c-2.431-6.331-4.461-11.979-6.1-16.947l-0.124,0.008
			c-1.173,5.892-2.475,11.744-3.896,17.566l-0.75,2.977l11.98-0.74L35.431,134.073z"/>
	</g>
	<g>
		<path fill="#FDDFEB" d="M64.065,117.402l0.747,12.047l18.812-1.165l0.482,7.82l-18.812,1.166l1.021,16.517l-9.126,0.564
			l-2.737-44.207l29.488-1.827l0.483,7.822L64.065,117.402z"/>
	</g>
	<g>
		<path fill="#FDDFEB" d="M100.323,115.156l0.745,12.045l18.812-1.166l0.484,7.821l-18.812,1.166l1.023,16.517l-9.128,0.563
			l-2.738-44.206l29.491-1.827l0.482,7.823L100.323,115.156z"/>
	</g>
	<g>
		<path fill="#FDDFEB" d="M133.945,138.75l-2.812,11.021l-9.562,0.595l12.599-45.154l12.293-0.766l18.075,43.258l-9.562,0.594
			l-4.082-10.594L133.945,138.75z M146.812,127.17c-2.43-6.33-4.461-11.979-6.099-16.947l-0.125,0.01
			c-1.173,5.894-2.472,11.746-3.898,17.564l-0.746,2.979l11.98-0.741L146.812,127.17z"/>
	</g>
	<g>
		<path fill="#FDDFEB" d="M168.575,147.45l-2.739-44.206l9.127-0.564l2.739,44.205L168.575,147.45z"/>
	</g>
	<g>
		<path fill="#FDDFEB" d="M213.779,103.514c2.781,1.988,4.302,4.99,4.55,9.005c0.167,2.69-0.416,5.03-1.748,7.024
			c-1.331,1.994-3.217,3.42-5.652,4.274l0.009,0.123c1.605,0.48,2.901,1.285,3.889,2.408c0.983,1.121,2.08,3.037,3.285,5.746
			l5.167,11.961l-9.937,0.613l-4.188-10.271c-0.979-2.353-2.042-3.957-3.193-4.818c-1.153-0.861-2.812-1.229-4.962-1.099
			l-5.026,0.312l1.048,16.892l-9.128,0.563l-2.737-44.207l16.268-1.008C206.874,100.701,210.998,101.526,213.779,103.514z
			 M195.514,121.537l6.456-0.4c5.09-0.312,7.501-2.646,7.229-6.989c-0.256-4.103-3.096-5.979-8.517-5.646l-5.959,0.369
			L195.514,121.537z"/>
	</g>
	<g>
		<path fill="#FDDFEB" d="M252.766,100.57c2.985,2.286,4.63,5.812,4.926,10.569l-9.253,0.574c-0.146-2.317-0.915-4.067-2.316-5.248
			c-1.402-1.183-3.348-1.693-5.829-1.541c-2.027,0.125-3.636,0.672-4.819,1.641c-1.188,0.97-1.732,2.178-1.646,3.622
			c0.066,1.116,0.437,2.01,1.1,2.674c0.665,0.667,1.678,1.219,3.031,1.649c1.354,0.438,3.313,0.889,5.88,1.352
			c3.487,0.655,6.315,1.364,8.481,2.124c2.164,0.762,3.979,1.985,5.434,3.686c1.453,1.696,2.274,4.059,2.464,7.076
			c0.174,2.771-0.4,5.262-1.72,7.461c-1.315,2.2-3.244,3.961-5.78,5.278c-2.532,1.318-5.501,2.089-8.896,2.299
			c-5.587,0.347-10.048-0.729-13.382-3.224c-3.333-2.494-5.15-6.228-5.461-11.189l9.438-0.584c0.166,2.688,1.018,4.674,2.551,5.948
			c1.53,1.271,3.705,1.825,6.521,1.65c2.316-0.146,4.141-0.766,5.463-1.864c1.32-1.103,1.933-2.521,1.823-4.259
			c-0.076-1.24-0.446-2.204-1.111-2.893c-0.666-0.688-1.595-1.199-2.775-1.541c-1.188-0.346-3.06-0.77-5.624-1.271
			c-3.656-0.686-6.568-1.398-8.73-2.141c-2.165-0.738-3.997-1.942-5.491-3.617c-1.497-1.672-2.335-4.021-2.521-7.041
			c-0.158-2.565,0.384-4.887,1.626-6.955c1.24-2.071,3.068-3.729,5.485-4.98c2.414-1.251,5.215-1.979,8.402-2.174
			C245.531,97.309,249.778,98.282,252.766,100.57z"/>
	</g>
</g>
<g>
	<path fill="#FDDFEB" stroke="#FDDFEB" stroke-width="0.25" stroke-miterlimit="10" d="M78.502,5.169
		c0-0.429,0.062-0.847,0.185-1.255s0.309-0.788,0.557-1.141s0.542-0.663,0.882-0.93c0.34-0.268,0.742-0.477,1.207-0.629
		c0.465-0.152,0.961-0.228,1.488-0.228c0.359,0,0.736,0.03,1.131,0.091s0.686,0.114,0.873,0.161s0.471,0.123,0.85,0.229
		c-0.016,0.398-0.023,0.643-0.023,0.732c0,0.07,0.004,0.288,0.012,0.653s0.012,0.579,0.012,0.642c0,0.055-0.016,0.082-0.047,0.082
		s-0.047-0.02-0.047-0.059c0-0.016,0-0.052,0-0.109c0-0.057,0-0.095,0-0.115s-0.001-0.055-0.003-0.106
		c-0.002-0.051-0.006-0.09-0.012-0.118c-0.006-0.027-0.014-0.064-0.023-0.112s-0.021-0.088-0.035-0.124
		c-0.014-0.036-0.031-0.076-0.053-0.121c-0.021-0.045-0.047-0.089-0.076-0.132c-0.029-0.043-0.062-0.088-0.097-0.136
		c-0.238-0.298-0.584-0.536-1.037-0.713s-0.943-0.265-1.471-0.265c-0.406,0-0.803,0.078-1.189,0.235
		c-0.387,0.156-0.738,0.378-1.055,0.666s-0.571,0.663-0.765,1.127c-0.193,0.463-0.29,0.977-0.29,1.541
		c0,0.493,0.072,0.948,0.217,1.364c0.145,0.417,0.329,0.761,0.554,1.033s0.479,0.504,0.762,0.695
		c0.283,0.192,0.561,0.33,0.832,0.414s0.53,0.126,0.776,0.126c0.594,0,1.144-0.106,1.649-0.32s0.884-0.439,1.134-0.678
		c0.051-0.051,0.1-0.138,0.146-0.261s0.07-0.222,0.07-0.296l-0.012-0.118c0-0.031,0.016-0.047,0.047-0.047s0.047,0.036,0.047,0.106
		c0,0.082-0.016,0.28-0.047,0.593c-0.016,0.168-0.023,0.436-0.023,0.804c-0.488,0.157-0.852,0.27-1.09,0.34
		s-0.546,0.139-0.923,0.205s-0.737,0.1-1.081,0.1c-0.543,0-1.062-0.098-1.556-0.293c-0.494-0.195-0.923-0.463-1.286-0.804
		s-0.652-0.756-0.867-1.247C78.61,6.26,78.502,5.732,78.502,5.169z"/>
	<path fill="#FDDFEB" stroke="#FDDFEB" stroke-width="0.25" stroke-miterlimit="10" d="M86.489,6.792
		c0-0.328,0.085-0.665,0.255-1.011s0.389-0.65,0.656-0.914s0.576-0.48,0.926-0.65s0.694-0.255,1.034-0.255
		c0.625,0,1.165,0.223,1.62,0.668s0.683,0.982,0.683,1.611c0,0.316-0.08,0.646-0.24,0.987s-0.369,0.649-0.627,0.923
		S90.23,8.65,89.872,8.828s-0.718,0.267-1.081,0.267c-0.418,0-0.806-0.11-1.163-0.331s-0.637-0.508-0.838-0.861
		S86.489,7.178,86.489,6.792z M87.104,6.241c0,0.445,0.108,0.844,0.325,1.195s0.498,0.618,0.844,0.8s0.716,0.272,1.11,0.272
		c0.445,0,0.834-0.15,1.166-0.451s0.498-0.715,0.498-1.242c0-0.648-0.219-1.188-0.656-1.62s-0.975-0.647-1.611-0.647
		c-0.277,0-0.522,0.044-0.735,0.132s-0.377,0.194-0.492,0.319s-0.208,0.271-0.278,0.437s-0.116,0.312-0.138,0.439
		S87.104,6.124,87.104,6.241z"/>
	<path fill="#FDDFEB" stroke="#FDDFEB" stroke-width="0.25" stroke-miterlimit="10" d="M92.073,4.764
		c0-0.031,0.105-0.092,0.316-0.182c0.484-0.211,0.729-0.318,0.732-0.322c0.273-0.145,0.457-0.264,0.551-0.357
		c-0.031,0.398-0.047,0.713-0.047,0.943c0.137-0.137,0.247-0.242,0.331-0.316s0.199-0.163,0.346-0.267s0.299-0.18,0.457-0.229
		s0.327-0.073,0.507-0.073c0.137,0,0.269,0.017,0.396,0.05s0.257,0.096,0.39,0.188s0.247,0.209,0.343,0.352s0.174,0.331,0.234,0.565
		s0.091,0.502,0.091,0.803v2.314c0,0.457,0.107,0.686,0.322,0.686c0.008,0,0.051-0.002,0.129-0.006s0.137-0.006,0.176-0.006
		c0.031,0,0.047,0.023,0.047,0.07c0,0.031-0.053,0.047-0.158,0.047c-0.039,0-0.171-0.004-0.396-0.012s-0.356-0.012-0.396-0.012
		c-0.051,0-0.207,0.004-0.469,0.012s-0.414,0.012-0.457,0.012c-0.035,0-0.06-0.001-0.073-0.003s-0.026-0.008-0.038-0.018
		s-0.018-0.026-0.018-0.05c0-0.031,0.023-0.047,0.07-0.047c0.043,0,0.086,0.002,0.129,0.006l0.064,0.006
		c0.141,0,0.237-0.061,0.29-0.182s0.079-0.354,0.079-0.697V6.012c0-0.961-0.428-1.441-1.283-1.441c-0.461,0-0.832,0.148-1.113,0.445
		v3.146c0,0.207,0.038,0.387,0.114,0.539s0.188,0.229,0.337,0.229l0.17-0.023c0.023,0,0.035,0.012,0.035,0.035
		c0,0.027-0.007,0.047-0.021,0.059s-0.028,0.019-0.044,0.021s-0.041,0.003-0.076,0.003c-0.047,0-0.191-0.004-0.434-0.012
		s-0.383-0.012-0.422-0.012c-0.047,0-0.194,0.004-0.442,0.012s-0.392,0.012-0.431,0.012c-0.02,0-0.038-0.002-0.056-0.006
		s-0.034-0.014-0.05-0.029s-0.021-0.035-0.018-0.059c0-0.016,0.012-0.023,0.035-0.023c0.004,0,0.027,0.004,0.07,0.012
		s0.068,0.012,0.076,0.012c0.305,0,0.457-0.225,0.457-0.674v-3.07c0-0.379-0.096-0.568-0.287-0.568c-0.059,0-0.164,0.033-0.316,0.1
		C92.203,4.772,92.129,4.8,92.102,4.8C92.082,4.8,92.073,4.788,92.073,4.764z"/>
	<path fill="#FDDFEB" stroke="#FDDFEB" stroke-width="0.25" stroke-miterlimit="10" d="M97.639,4.079
		c0-0.039,0.061-0.059,0.182-0.059c0.055,0,0.213,0.007,0.475,0.022s0.416,0.022,0.463,0.022c0.012,0,0.08-0.002,0.205-0.007
		s0.232-0.007,0.322-0.007c0.152-0.01,0.324-0.015,0.516-0.015c0.164,0,0.265,0.006,0.302,0.019s0.056,0.04,0.056,0.084
		c0,0.02-0.012,0.029-0.035,0.029c-0.035,0-0.102-0.002-0.199-0.006s-0.15-0.006-0.158-0.006c-0.133,0-0.239,0.021-0.319,0.061
		c-0.08,0.041-0.129,0.08-0.146,0.117c-0.018,0.037-0.026,0.073-0.026,0.108c0,0.055,0.039,0.173,0.117,0.356l1.248,2.975
		l1.283-2.829c0.113-0.249,0.17-0.416,0.17-0.501c0-0.046-0.002-0.083-0.006-0.108s-0.016-0.055-0.035-0.09
		s-0.054-0.061-0.103-0.079s-0.112-0.026-0.19-0.026c-0.004,0-0.036,0.003-0.097,0.009s-0.112,0.009-0.155,0.009
		s-0.064-0.025-0.064-0.076c0-0.039,0.068-0.059,0.205-0.059c0.074,0,0.208,0.007,0.401,0.022s0.319,0.022,0.378,0.022
		c0.055,0,0.171-0.007,0.349-0.022s0.302-0.022,0.372-0.022c0.211,0,0.316,0.024,0.316,0.073s-0.037,0.073-0.111,0.073
		c-0.02,0-0.06-0.005-0.12-0.015s-0.116-0.015-0.167-0.015c-0.059,0-0.109,0.005-0.152,0.015s-0.077,0.02-0.103,0.029
		s-0.051,0.031-0.076,0.064c-0.025,0.033-0.043,0.059-0.053,0.076c-0.01,0.017-0.029,0.056-0.059,0.117
		c-0.029,0.06-0.05,0.104-0.062,0.131l-1.658,3.575c-0.098,0.222-0.254,0.595-0.469,1.12c-0.195-0.509-0.395-1.007-0.598-1.493
		l-1.271-3.033c-0.168-0.4-0.373-0.601-0.615-0.601c-0.012,0-0.048,0.003-0.108,0.009s-0.108,0.009-0.144,0.009
		C97.658,4.155,97.639,4.13,97.639,4.079z"/>
	<path fill="#FDDFEB" stroke="#FDDFEB" stroke-width="0.25" stroke-miterlimit="10" d="M103.756,6.519
		c0-0.481,0.127-0.922,0.381-1.323s0.568-0.707,0.943-0.918c0.375-0.211,0.758-0.317,1.148-0.317c0.047,0,0.094,0.001,0.141,0.003
		s0.13,0.015,0.249,0.038s0.231,0.055,0.336,0.093c0.105,0.039,0.228,0.101,0.366,0.185s0.266,0.183,0.381,0.298
		c0.115,0.115,0.229,0.265,0.343,0.45s0.207,0.393,0.281,0.623l-4.066,0.747c0.039,0.278,0.114,0.532,0.226,0.761
		c0.111,0.229,0.244,0.422,0.398,0.579c0.154,0.156,0.327,0.289,0.519,0.396s0.385,0.186,0.58,0.235
		c0.195,0.049,0.393,0.073,0.592,0.073c0.527,0,0.92-0.092,1.178-0.277c0.168-0.118,0.302-0.237,0.401-0.357
		c0.1-0.12,0.162-0.209,0.188-0.268s0.042-0.088,0.05-0.088c0.051,0,0.076,0.012,0.076,0.035c0,0.008-0.002,0.016-0.006,0.023
		c-0.062,0.152-0.154,0.313-0.275,0.483s-0.273,0.34-0.457,0.51s-0.409,0.311-0.677,0.422s-0.55,0.167-0.847,0.167
		c-0.398,0-0.758-0.077-1.078-0.231c-0.32-0.154-0.578-0.357-0.773-0.609c-0.195-0.251-0.344-0.527-0.445-0.825
		S103.756,6.828,103.756,6.519z M104.237,6.182l3.158-0.58c-0.102-0.301-0.291-0.56-0.568-0.776s-0.613-0.325-1.008-0.325
		c-0.504,0-0.904,0.166-1.201,0.498c-0.258,0.285-0.389,0.619-0.393,1.002C104.225,6.059,104.229,6.12,104.237,6.182z"/>
	<path fill="#FDDFEB" stroke="#FDDFEB" stroke-width="0.25" stroke-miterlimit="10" d="M108.625,8.97
		c0-0.018,0.002-0.031,0.006-0.04s0.014-0.017,0.03-0.024c0.016-0.007,0.042-0.011,0.077-0.011c0.051,0,0.119,0.002,0.202,0.006
		s0.141,0.006,0.172,0.006c0.17,0,0.282-0.053,0.335-0.159c0.053-0.105,0.08-0.346,0.08-0.722V5.365
		c0-0.235-0.015-0.399-0.044-0.493c-0.029-0.094-0.095-0.141-0.196-0.141c-0.07,0-0.146,0.027-0.229,0.082
		c-0.051,0.032-0.092,0.047-0.123,0.047s-0.047-0.016-0.047-0.047c0-0.016,0.015-0.032,0.044-0.05s0.07-0.04,0.123-0.067
		s0.089-0.047,0.108-0.059c0.565-0.353,0.938-0.601,1.119-0.746c-0.02,0.153-0.039,0.589-0.059,1.31
		c0.059-0.059,0.334-0.336,0.826-0.834c0.078-0.078,0.197-0.213,0.357-0.405l0.193,0.194c0.043,0.043,0.111,0.113,0.205,0.208
		c0.094,0.096,0.178,0.181,0.252,0.255c0.141,0.141,0.254,0.231,0.34,0.271c0.086,0.039,0.176,0.059,0.27,0.059
		c0.035,0,0.07-0.004,0.105-0.012s0.064-0.017,0.088-0.026s0.05-0.024,0.079-0.044c0.029-0.02,0.05-0.034,0.062-0.044
		s0.031-0.028,0.059-0.056s0.045-0.043,0.053-0.047c0.023-0.023,0.047-0.05,0.07-0.08c0.023-0.029,0.041-0.05,0.053-0.062
		s0.023-0.018,0.035-0.018c0.039,0,0.059,0.02,0.059,0.059c0,0.027-0.092,0.133-0.275,0.317l-0.85,0.887
		c-0.449-0.45-0.73-0.726-0.844-0.828c-0.016-0.012-0.046-0.039-0.091-0.082s-0.077-0.071-0.097-0.085
		c-0.02-0.014-0.049-0.029-0.088-0.047s-0.078-0.026-0.117-0.026c-0.133,0-0.381,0.213-0.744,0.64v2.473
		c0,0.431,0.045,0.715,0.135,0.854s0.248,0.208,0.475,0.208c0.039,0,0.124-0.007,0.255-0.021s0.226-0.019,0.284-0.015
		c0.012,0,0.024,0.009,0.038,0.027s0.021,0.03,0.021,0.037c0,0.043-0.096,0.065-0.287,0.065c-0.055,0-0.249-0.004-0.582-0.011
		c-0.333-0.007-0.558-0.011-0.673-0.011c-0.066,0-0.246,0.002-0.538,0.005c-0.292,0.003-0.478,0.005-0.556,0.005
		C108.682,9.012,108.625,8.998,108.625,8.97z"/>
	<path fill="#FDDFEB" stroke="#FDDFEB" stroke-width="0.25" stroke-miterlimit="10" d="M113.74,8.315
		c0-0.059,0.004-0.236,0.012-0.533s0.012-0.475,0.012-0.533c0-0.113,0.016-0.17,0.047-0.17c0.027,0,0.044,0.01,0.05,0.029
		s0.009,0.066,0.009,0.14c0,0.343,0.068,0.582,0.205,0.718c0.129,0.128,0.354,0.24,0.674,0.335s0.668,0.143,1.043,0.143
		c0.332,0,0.611-0.065,0.838-0.195c0.227-0.13,0.34-0.288,0.34-0.475c0-0.167-0.106-0.325-0.319-0.475s-0.587-0.31-1.122-0.48
		c-0.207-0.066-0.361-0.116-0.463-0.151c-0.102-0.035-0.229-0.082-0.381-0.14s-0.265-0.109-0.337-0.151
		c-0.072-0.043-0.153-0.097-0.243-0.163s-0.154-0.133-0.193-0.201c-0.039-0.068-0.073-0.147-0.103-0.239
		c-0.029-0.091-0.044-0.191-0.044-0.3c0-0.382,0.173-0.729,0.519-1.042s0.78-0.47,1.304-0.47c0.258,0,0.521,0.044,0.788,0.132
		s0.478,0.181,0.63,0.278s0.229,0.172,0.229,0.223c0,0.113,0.006,0.334,0.018,0.662s0.018,0.568,0.018,0.721v0.047
		c0,0.074-0.02,0.111-0.059,0.111c-0.035,0-0.053-0.033-0.053-0.099l0.012-0.272c-0.004-0.212-0.04-0.375-0.108-0.49
		c-0.068-0.114-0.163-0.211-0.284-0.292c-0.164-0.112-0.396-0.202-0.694-0.269c-0.299-0.068-0.601-0.102-0.905-0.102
		c-0.348,0-0.622,0.065-0.823,0.195c-0.201,0.13-0.302,0.288-0.302,0.475c0,0.167,0.104,0.3,0.313,0.399s0.677,0.261,1.403,0.486
		c0.617,0.187,1.043,0.373,1.277,0.56c0.234,0.186,0.352,0.444,0.352,0.774c0,0.188-0.037,0.371-0.111,0.551s-0.188,0.35-0.343,0.51
		s-0.37,0.289-0.647,0.387s-0.598,0.146-0.961,0.146c-0.594,0-1.055-0.111-1.383-0.334C113.811,8.655,113.74,8.507,113.74,8.315z"/>
	<path fill="#FDDFEB" stroke="#FDDFEB" stroke-width="0.25" stroke-miterlimit="10" d="M118.03,7.728
		c0-0.189,0.055-0.35,0.166-0.484c0.11-0.134,0.301-0.254,0.572-0.36c0.501-0.169,0.876-0.308,1.125-0.416
		c0.249-0.108,0.551-0.265,0.908-0.469V5.71c0-0.13-0.015-0.252-0.044-0.366c-0.03-0.114-0.081-0.227-0.153-0.339
		c-0.073-0.112-0.18-0.201-0.323-0.268s-0.316-0.101-0.52-0.101c-0.26,0-0.481,0.03-0.664,0.089
		c-0.183,0.06-0.357,0.159-0.522,0.297c-0.124,0.103-0.222,0.222-0.293,0.356c-0.043,0.095-0.074,0.143-0.094,0.143
		c-0.023,0-0.035-0.012-0.035-0.035c0-0.09,0.051-0.218,0.153-0.384c0.103-0.166,0.233-0.335,0.393-0.507s0.355-0.32,0.589-0.445
		c0.233-0.125,0.463-0.188,0.691-0.188c0.451,0,0.817,0.151,1.098,0.453c0.281,0.302,0.422,0.718,0.422,1.248v2.62
		c0,0.02,0,0.045,0,0.077c0,0.113,0.002,0.193,0.006,0.24c0.004,0.047,0.019,0.098,0.042,0.15s0.065,0.088,0.124,0.106
		c0.059,0.018,0.14,0.027,0.245,0.027c0.044,0,0.1-0.004,0.166-0.012s0.11-0.012,0.13-0.012c0.04,0.021,0.062,0.043,0.066,0.067
		c0,0.015-0.097,0.031-0.29,0.048s-0.321,0.025-0.384,0.025h-0.803V8.406c-0.027,0.016-0.1,0.065-0.217,0.147
		c-0.118,0.083-0.193,0.134-0.227,0.153c-0.033,0.02-0.098,0.057-0.194,0.113c-0.096,0.056-0.168,0.092-0.217,0.11
		s-0.113,0.044-0.191,0.08c-0.079,0.036-0.15,0.059-0.214,0.069c-0.065,0.01-0.13,0.016-0.197,0.016
		c-0.223,0-0.422-0.045-0.599-0.137c-0.177-0.091-0.314-0.208-0.412-0.352c-0.099-0.144-0.174-0.291-0.226-0.442
		C118.055,8.013,118.03,7.867,118.03,7.728z M118.727,7.557c0,0.299,0.125,0.573,0.376,0.823c0.25,0.25,0.503,0.375,0.758,0.375
		c0.074,0,0.154-0.017,0.241-0.05c0.086-0.033,0.157-0.068,0.211-0.103c0.055-0.036,0.139-0.092,0.252-0.171
		c0.114-0.079,0.192-0.131,0.235-0.159V6.117c-0.368,0.236-0.786,0.446-1.251,0.631c-0.353,0.142-0.578,0.267-0.676,0.375
		C118.776,7.231,118.727,7.376,118.727,7.557z"/>
	<path fill="#FDDFEB" stroke="#FDDFEB" stroke-width="0.25" stroke-miterlimit="10" d="M122.518,4.677l1.564-1.506v0.885h1.652
		c0.355,0,0.588-0.055,0.697-0.164c0.102-0.09,0.166-0.135,0.193-0.135c0.023,0,0.035,0.016,0.035,0.046
		c0,0.023-0.076,0.09-0.229,0.201l-0.756,0.661h-1.594v2.389c0,0.148,0.001,0.266,0.003,0.352c0.002,0.086,0.01,0.188,0.023,0.305
		c0.014,0.117,0.034,0.209,0.059,0.275c0.025,0.067,0.063,0.138,0.112,0.214c0.049,0.076,0.109,0.134,0.18,0.173
		s0.158,0.071,0.262,0.097s0.225,0.038,0.362,0.038c0.279,0,0.504-0.045,0.675-0.135c0.17-0.09,0.288-0.187,0.35-0.291
		c0.09-0.157,0.157-0.236,0.2-0.236c0.036,0,0.053,0.025,0.053,0.076c0,0.031-0.026,0.089-0.079,0.173s-0.132,0.183-0.237,0.296
		s-0.224,0.223-0.354,0.328s-0.287,0.194-0.469,0.267s-0.362,0.108-0.542,0.108c-0.863,0-1.295-0.553-1.295-1.659V4.677H122.518z"/>
	<path fill="#FDDFEB" stroke="#FDDFEB" stroke-width="0.25" stroke-miterlimit="10" d="M126.678,8.997c0-0.06,0.023-0.09,0.07-0.09
		c0.027,0,0.068,0.002,0.123,0.006s0.09,0.006,0.105,0.006c0.062,0,0.118-0.004,0.167-0.012s0.092-0.015,0.129-0.021
		s0.07-0.022,0.1-0.05s0.054-0.046,0.073-0.058s0.035-0.04,0.047-0.085s0.021-0.075,0.029-0.09c0.008-0.016,0.013-0.056,0.015-0.12
		c0.002-0.064,0.003-0.107,0.003-0.128s0-0.074,0-0.158c0-0.084,0-0.14,0-0.167V5.195c0-0.102-0.004-0.179-0.012-0.234
		s-0.028-0.104-0.062-0.146c-0.033-0.043-0.085-0.064-0.155-0.064c-0.043,0-0.127,0.031-0.252,0.094
		c-0.059,0.035-0.098,0.052-0.117,0.052c-0.012,0-0.021-0.01-0.026-0.029c-0.006-0.02-0.005-0.039,0.003-0.059
		c0.004-0.008,0.022-0.021,0.056-0.038s0.069-0.037,0.108-0.059s0.064-0.036,0.076-0.044c0.402-0.237,0.777-0.489,1.125-0.754
		c-0.031,0.343-0.047,0.661-0.047,0.953V8.1c0,0.125,0.004,0.225,0.012,0.301c0.008,0.076,0.026,0.159,0.056,0.249
		c0.029,0.09,0.078,0.157,0.146,0.202s0.157,0.067,0.267,0.067c0.043,0,0.102-0.004,0.176-0.012s0.127-0.012,0.158-0.012
		c0.043,0,0.064,0.025,0.064,0.076c0,0.043-0.096,0.065-0.287,0.065c-0.07,0-0.234-0.009-0.492-0.026
		c-0.055,0-0.114-0.001-0.179-0.003S128.04,9.002,127.999,9c-0.041-0.002-0.065-0.003-0.073-0.003c-0.012,0-0.077,0.002-0.196,0.006
		s-0.218,0.007-0.296,0.007c-0.273,0.017-0.434,0.026-0.48,0.026C126.77,9.036,126.678,9.023,126.678,8.997z M127.41,2.52
		c0.027-0.035,0.116-0.131,0.267-0.287s0.233-0.244,0.249-0.264c0.047,0.039,0.234,0.211,0.562,0.516l-0.24,0.199
		c-0.16,0.137-0.264,0.25-0.311,0.34c-0.051-0.047-0.139-0.131-0.264-0.252S127.461,2.567,127.41,2.52z"/>
	<path fill="#FDDFEB" stroke="#FDDFEB" stroke-width="0.25" stroke-miterlimit="10" d="M129.602,6.792
		c0-0.328,0.085-0.665,0.255-1.011s0.389-0.65,0.656-0.914s0.576-0.48,0.926-0.65s0.694-0.255,1.034-0.255
		c0.625,0,1.165,0.223,1.62,0.668s0.683,0.982,0.683,1.611c0,0.316-0.08,0.646-0.24,0.987s-0.369,0.649-0.627,0.923
		s-0.565,0.499-0.923,0.677s-0.718,0.267-1.081,0.267c-0.418,0-0.806-0.11-1.163-0.331s-0.637-0.508-0.838-0.861
		S129.602,7.178,129.602,6.792z M130.217,6.241c0,0.445,0.108,0.844,0.325,1.195s0.498,0.618,0.844,0.8s0.716,0.272,1.11,0.272
		c0.445,0,0.834-0.15,1.166-0.451s0.498-0.715,0.498-1.242c0-0.648-0.219-1.188-0.656-1.62s-0.975-0.647-1.611-0.647
		c-0.277,0-0.522,0.044-0.735,0.132s-0.377,0.194-0.492,0.319s-0.208,0.271-0.278,0.437s-0.116,0.312-0.138,0.439
		S130.217,6.124,130.217,6.241z"/>
	<path fill="#FDDFEB" stroke="#FDDFEB" stroke-width="0.25" stroke-miterlimit="10" d="M135.186,4.764
		c0-0.031,0.105-0.092,0.316-0.182c0.484-0.211,0.728-0.318,0.732-0.322c0.273-0.145,0.457-0.264,0.551-0.357
		c-0.031,0.398-0.047,0.713-0.047,0.943c0.137-0.137,0.248-0.242,0.332-0.316s0.199-0.163,0.346-0.267s0.299-0.18,0.457-0.229
		s0.326-0.073,0.506-0.073c0.137,0,0.27,0.017,0.396,0.05s0.256,0.096,0.389,0.188s0.248,0.209,0.344,0.352s0.174,0.331,0.234,0.565
		s0.09,0.502,0.09,0.803v2.314c0,0.457,0.107,0.686,0.322,0.686c0.008,0,0.051-0.002,0.129-0.006s0.137-0.006,0.176-0.006
		c0.031,0,0.047,0.023,0.047,0.07c0,0.031-0.053,0.047-0.158,0.047c-0.039,0-0.17-0.004-0.395-0.012s-0.357-0.012-0.396-0.012
		c-0.051,0-0.207,0.004-0.469,0.012s-0.414,0.012-0.457,0.012c-0.035,0-0.059-0.001-0.072-0.003s-0.027-0.008-0.039-0.018
		s-0.018-0.026-0.018-0.05c0-0.031,0.023-0.047,0.07-0.047c0.043,0,0.086,0.002,0.129,0.006l0.064,0.006
		c0.141,0,0.238-0.061,0.291-0.182s0.078-0.354,0.078-0.697V6.012c0-0.961-0.428-1.441-1.283-1.441
		c-0.461,0-0.832,0.148-1.113,0.445v3.146c0,0.207,0.039,0.387,0.115,0.539s0.188,0.229,0.336,0.229l0.17-0.023
		c0.023,0,0.035,0.012,0.035,0.035c0,0.027-0.006,0.047-0.02,0.059s-0.029,0.019-0.045,0.021s-0.041,0.003-0.076,0.003
		c-0.047,0-0.191-0.004-0.434-0.012s-0.383-0.012-0.422-0.012c-0.047,0-0.193,0.004-0.441,0.012
		c-0.249,0.008-0.392,0.012-0.431,0.012c-0.02,0-0.038-0.002-0.056-0.006s-0.034-0.014-0.05-0.029s-0.021-0.035-0.018-0.059
		c0-0.016,0.012-0.023,0.035-0.023c0.004,0,0.027,0.004,0.07,0.012s0.068,0.012,0.076,0.012c0.304,0,0.457-0.225,0.457-0.674v-3.07
		c0-0.379-0.096-0.568-0.287-0.568c-0.059,0-0.164,0.033-0.316,0.1c-0.121,0.055-0.195,0.082-0.223,0.082
		C135.196,4.8,135.186,4.788,135.186,4.764z"/>
	<path fill="#FDDFEB" stroke="#FDDFEB" stroke-width="0.25" stroke-miterlimit="10" d="M141.103,8.315
		c0-0.059,0.004-0.236,0.012-0.533s0.012-0.475,0.012-0.533c0-0.113,0.016-0.17,0.047-0.17c0.027,0,0.045,0.01,0.051,0.029
		s0.008,0.066,0.008,0.14c0,0.343,0.068,0.582,0.205,0.718c0.129,0.128,0.354,0.24,0.674,0.335s0.668,0.143,1.043,0.143
		c0.332,0,0.611-0.065,0.838-0.195c0.227-0.13,0.34-0.288,0.34-0.475c0-0.167-0.105-0.325-0.318-0.475s-0.588-0.31-1.123-0.48
		c-0.207-0.066-0.361-0.116-0.463-0.151c-0.102-0.035-0.229-0.082-0.381-0.14s-0.264-0.109-0.336-0.151
		c-0.072-0.043-0.154-0.097-0.244-0.163s-0.154-0.133-0.193-0.201c-0.039-0.068-0.072-0.147-0.102-0.239
		c-0.029-0.091-0.045-0.191-0.045-0.3c0-0.382,0.174-0.729,0.52-1.042s0.779-0.47,1.303-0.47c0.258,0,0.521,0.044,0.789,0.132
		s0.477,0.181,0.629,0.278s0.229,0.172,0.229,0.223c0,0.113,0.006,0.334,0.018,0.662s0.018,0.568,0.018,0.721v0.047
		c0,0.074-0.02,0.111-0.059,0.111c-0.035,0-0.053-0.033-0.053-0.099l0.012-0.272c-0.004-0.212-0.039-0.375-0.107-0.49
		c-0.068-0.114-0.164-0.211-0.285-0.292c-0.164-0.112-0.395-0.202-0.693-0.269c-0.299-0.068-0.602-0.102-0.906-0.102
		c-0.348,0-0.621,0.065-0.822,0.195c-0.201,0.13-0.303,0.288-0.303,0.475c0,0.167,0.105,0.3,0.314,0.399s0.676,0.261,1.402,0.486
		c0.617,0.187,1.043,0.373,1.277,0.56c0.234,0.186,0.352,0.444,0.352,0.774c0,0.188-0.037,0.371-0.111,0.551s-0.188,0.35-0.342,0.51
		s-0.371,0.289-0.648,0.387s-0.598,0.146-0.961,0.146c-0.594,0-1.055-0.111-1.383-0.334C141.174,8.655,141.103,8.507,141.103,8.315z
		"/>
	<path fill="#FDDFEB" stroke="#FDDFEB" stroke-width="0.25" stroke-miterlimit="10" d="M147.754,8.97
		c0-0.018,0.002-0.031,0.006-0.04s0.014-0.017,0.03-0.024c0.016-0.007,0.042-0.011,0.077-0.011c0.051,0,0.119,0.002,0.201,0.006
		c0.084,0.004,0.141,0.006,0.173,0.006c0.17,0,0.282-0.053,0.335-0.159c0.054-0.105,0.08-0.346,0.08-0.722V5.365
		c0-0.235-0.014-0.399-0.043-0.493c-0.029-0.094-0.096-0.141-0.197-0.141c-0.07,0-0.146,0.027-0.229,0.082
		c-0.051,0.032-0.092,0.047-0.123,0.047s-0.047-0.016-0.047-0.047c0-0.016,0.016-0.032,0.045-0.05s0.07-0.04,0.123-0.067
		s0.088-0.047,0.107-0.059c0.565-0.353,0.938-0.601,1.119-0.746c-0.02,0.153-0.039,0.589-0.059,1.31
		c0.059-0.059,0.334-0.336,0.826-0.834c0.078-0.078,0.197-0.213,0.357-0.405l0.193,0.194c0.043,0.043,0.111,0.113,0.205,0.208
		c0.094,0.096,0.178,0.181,0.252,0.255c0.141,0.141,0.254,0.231,0.34,0.271c0.086,0.039,0.176,0.059,0.27,0.059
		c0.035,0,0.07-0.004,0.105-0.012s0.064-0.017,0.088-0.026s0.051-0.024,0.08-0.044c0.029-0.02,0.049-0.034,0.061-0.044
		s0.031-0.028,0.059-0.056s0.045-0.043,0.053-0.047c0.023-0.023,0.047-0.05,0.07-0.08c0.023-0.029,0.041-0.05,0.053-0.062
		s0.023-0.018,0.035-0.018c0.039,0,0.059,0.02,0.059,0.059c0,0.027-0.092,0.133-0.275,0.317l-0.85,0.887
		c-0.449-0.45-0.73-0.726-0.844-0.828c-0.016-0.012-0.045-0.039-0.09-0.082s-0.078-0.071-0.098-0.085
		c-0.02-0.014-0.049-0.029-0.088-0.047s-0.078-0.026-0.117-0.026c-0.133,0-0.381,0.213-0.744,0.64v2.473
		c0,0.431,0.045,0.715,0.135,0.854s0.248,0.208,0.475,0.208c0.039,0,0.125-0.007,0.256-0.021s0.225-0.019,0.283-0.015
		c0.012,0,0.025,0.009,0.039,0.027s0.02,0.03,0.02,0.037c0,0.043-0.096,0.065-0.287,0.065c-0.055,0-0.248-0.004-0.581-0.011
		s-0.558-0.011-0.673-0.011c-0.066,0-0.246,0.002-0.538,0.005s-0.478,0.005-0.556,0.005C147.81,9.012,147.754,8.998,147.754,8.97z"
		/>
	<path fill="#FDDFEB" stroke="#FDDFEB" stroke-width="0.25" stroke-miterlimit="10" d="M152.758,6.519
		c0-0.481,0.127-0.922,0.381-1.323s0.568-0.707,0.943-0.918c0.375-0.211,0.758-0.317,1.148-0.317c0.047,0,0.094,0.001,0.141,0.003
		s0.131,0.015,0.25,0.038s0.23,0.055,0.336,0.093c0.105,0.039,0.229,0.101,0.367,0.185s0.266,0.183,0.381,0.298
		c0.113,0.115,0.229,0.265,0.342,0.45s0.207,0.393,0.281,0.623l-4.066,0.747c0.039,0.278,0.115,0.532,0.227,0.761
		c0.111,0.229,0.244,0.422,0.398,0.579c0.154,0.156,0.326,0.289,0.518,0.396s0.385,0.186,0.58,0.235
		c0.195,0.049,0.393,0.073,0.592,0.073c0.527,0,0.92-0.092,1.178-0.277c0.168-0.118,0.303-0.237,0.402-0.357
		c0.1-0.12,0.162-0.209,0.188-0.268s0.041-0.088,0.049-0.088c0.051,0,0.076,0.012,0.076,0.035c0,0.008-0.002,0.016-0.006,0.023
		c-0.062,0.152-0.154,0.313-0.275,0.483s-0.273,0.34-0.457,0.51s-0.408,0.311-0.676,0.422s-0.551,0.167-0.848,0.167
		c-0.398,0-0.758-0.077-1.078-0.231c-0.32-0.154-0.578-0.357-0.773-0.609c-0.195-0.251-0.344-0.527-0.445-0.825
		S152.758,6.828,152.758,6.519z M153.238,6.182l3.158-0.58c-0.102-0.301-0.291-0.56-0.568-0.776s-0.613-0.325-1.008-0.325
		c-0.504,0-0.904,0.166-1.201,0.498c-0.258,0.285-0.389,0.619-0.393,1.002C153.226,6.059,153.23,6.12,153.238,6.182z"/>
	<path fill="#FDDFEB" stroke="#FDDFEB" stroke-width="0.25" stroke-miterlimit="10" d="M157.808,8.989
		c0-0.031,0.002-0.049,0.004-0.053s0.012-0.006,0.031-0.006c0.016,0,0.068,0.004,0.158,0.012s0.141,0.012,0.152,0.012
		c0.223,0,0.365-0.061,0.426-0.182s0.09-0.365,0.09-0.732V2.267c0-0.59-0.1-0.885-0.299-0.885c-0.09,0-0.166,0.015-0.229,0.045
		s-0.102,0.044-0.117,0.044c-0.031,0-0.047-0.015-0.047-0.044s0.035-0.054,0.105-0.073c0.195-0.078,0.646-0.289,1.354-0.633
		c-0.047,0.402-0.07,0.875-0.07,1.418v5.854c0,0.391,0.033,0.646,0.1,0.768s0.17,0.182,0.311,0.182c0.047,0,0.111-0.004,0.191-0.012
		s0.135-0.012,0.166-0.012c0.066,0,0.1,0.016,0.1,0.047s-0.016,0.051-0.049,0.059s-0.094,0.012-0.18,0.012
		c-0.031,0-0.176-0.008-0.434-0.023c-0.07,0-0.166-0.002-0.287-0.006s-0.201-0.006-0.24-0.006c-0.121,0-0.326,0.008-0.615,0.023
		l-0.404,0.023c-0.094,0-0.152-0.004-0.178-0.012S157.808,9.012,157.808,8.989z"/>
	<path fill="#FDDFEB" stroke="#FDDFEB" stroke-width="0.25" stroke-miterlimit="10" d="M160.779,7.728
		c0-0.189,0.057-0.35,0.166-0.484c0.111-0.134,0.301-0.254,0.572-0.36c0.502-0.169,0.877-0.308,1.125-0.416
		c0.25-0.108,0.553-0.265,0.908-0.469V5.71c0-0.13-0.014-0.252-0.043-0.366c-0.029-0.114-0.08-0.227-0.154-0.339
		c-0.072-0.112-0.18-0.201-0.322-0.268s-0.316-0.101-0.52-0.101c-0.26,0-0.482,0.03-0.664,0.089
		c-0.182,0.06-0.357,0.159-0.521,0.297c-0.125,0.103-0.223,0.222-0.295,0.356c-0.043,0.095-0.074,0.143-0.094,0.143
		c-0.023,0-0.035-0.012-0.035-0.035c0-0.09,0.051-0.218,0.154-0.384c0.102-0.166,0.232-0.335,0.393-0.507
		c0.158-0.172,0.355-0.32,0.588-0.445c0.234-0.125,0.465-0.188,0.691-0.188c0.451,0,0.816,0.151,1.098,0.453
		c0.281,0.302,0.422,0.718,0.422,1.248v2.62c0,0.02,0,0.045,0,0.077c0,0.113,0.002,0.193,0.006,0.24s0.02,0.098,0.043,0.15
		s0.064,0.088,0.123,0.106s0.141,0.027,0.246,0.027c0.043,0,0.1-0.004,0.166-0.012s0.109-0.012,0.129-0.012
		c0.041,0.021,0.062,0.043,0.066,0.067c0,0.015-0.096,0.031-0.289,0.048s-0.322,0.025-0.385,0.025h-0.803V8.406
		c-0.027,0.016-0.1,0.065-0.217,0.147s-0.193,0.134-0.227,0.153c-0.033,0.02-0.098,0.057-0.193,0.113s-0.168,0.092-0.219,0.11
		c-0.049,0.018-0.111,0.044-0.189,0.08s-0.15,0.059-0.215,0.069s-0.131,0.016-0.197,0.016c-0.223,0-0.422-0.045-0.598-0.137
		c-0.178-0.091-0.314-0.208-0.412-0.352c-0.1-0.144-0.174-0.291-0.227-0.442C160.806,8.013,160.779,7.867,160.779,7.728z
		 M161.476,7.557c0,0.299,0.125,0.573,0.377,0.823c0.25,0.25,0.502,0.375,0.758,0.375c0.074,0,0.154-0.017,0.24-0.05
		c0.086-0.033,0.156-0.068,0.211-0.103c0.057-0.036,0.141-0.092,0.254-0.171c0.113-0.079,0.191-0.131,0.234-0.159V6.117
		c-0.367,0.236-0.785,0.446-1.252,0.631c-0.352,0.142-0.576,0.267-0.676,0.375C161.525,7.231,161.476,7.376,161.476,7.557z"/>
	<path fill="#FDDFEB" stroke="#FDDFEB" stroke-width="0.25" stroke-miterlimit="10" d="M165.267,4.677l1.564-1.506v0.885h1.652
		c0.355,0,0.588-0.055,0.697-0.164c0.102-0.09,0.166-0.135,0.193-0.135c0.023,0,0.035,0.016,0.035,0.046
		c0,0.023-0.076,0.09-0.229,0.201l-0.756,0.661h-1.594v2.389c0,0.148,0.002,0.266,0.004,0.352c0.002,0.086,0.01,0.188,0.023,0.305
		c0.014,0.117,0.033,0.209,0.059,0.275c0.025,0.067,0.062,0.138,0.111,0.214s0.109,0.134,0.18,0.173s0.158,0.071,0.262,0.097
		c0.105,0.025,0.227,0.038,0.363,0.038c0.279,0,0.504-0.045,0.674-0.135c0.172-0.09,0.287-0.187,0.352-0.291
		c0.09-0.157,0.156-0.236,0.199-0.236c0.035,0,0.053,0.025,0.053,0.076c0,0.031-0.025,0.089-0.078,0.173s-0.133,0.183-0.238,0.296
		s-0.223,0.223-0.354,0.328s-0.287,0.194-0.469,0.267s-0.363,0.108-0.543,0.108c-0.863,0-1.295-0.553-1.295-1.659V4.677H165.267z"/>
	<path fill="#FDDFEB" stroke="#FDDFEB" stroke-width="0.25" stroke-miterlimit="10" d="M169.498,6.519
		c0-0.481,0.127-0.922,0.381-1.323s0.568-0.707,0.943-0.918c0.375-0.211,0.758-0.317,1.148-0.317c0.047,0,0.094,0.001,0.141,0.003
		s0.131,0.015,0.25,0.038s0.23,0.055,0.336,0.093c0.105,0.039,0.229,0.101,0.367,0.185s0.266,0.183,0.381,0.298
		c0.113,0.115,0.229,0.265,0.342,0.45s0.207,0.393,0.281,0.623l-4.066,0.747c0.039,0.278,0.115,0.532,0.227,0.761
		c0.111,0.229,0.244,0.422,0.398,0.579c0.154,0.156,0.326,0.289,0.518,0.396s0.385,0.186,0.58,0.235
		c0.195,0.049,0.393,0.073,0.592,0.073c0.527,0,0.92-0.092,1.178-0.277c0.168-0.118,0.303-0.237,0.402-0.357
		c0.1-0.12,0.162-0.209,0.188-0.268s0.041-0.088,0.049-0.088c0.051,0,0.076,0.012,0.076,0.035c0,0.008-0.002,0.016-0.006,0.023
		c-0.062,0.152-0.154,0.313-0.275,0.483s-0.273,0.34-0.457,0.51s-0.408,0.311-0.676,0.422s-0.551,0.167-0.848,0.167
		c-0.398,0-0.758-0.077-1.078-0.231c-0.32-0.154-0.578-0.357-0.773-0.609c-0.195-0.251-0.344-0.527-0.445-0.825
		S169.498,6.828,169.498,6.519z M169.978,6.182l3.158-0.58c-0.102-0.301-0.291-0.56-0.568-0.776s-0.613-0.325-1.008-0.325
		c-0.504,0-0.904,0.166-1.201,0.498c-0.258,0.285-0.389,0.619-0.393,1.002C169.967,6.059,169.97,6.12,169.978,6.182z"/>
	<path fill="#FDDFEB" stroke="#FDDFEB" stroke-width="0.25" stroke-miterlimit="10" d="M174.607,6.785
		c0-0.335,0.088-0.675,0.262-1.02c0.174-0.345,0.396-0.648,0.668-0.912s0.58-0.478,0.926-0.643s0.68-0.249,1.004-0.249
		c0.234,0,0.549,0.064,0.943,0.193V2.292c0-0.457-0.131-0.686-0.393-0.686c-0.148,0-0.281,0.029-0.398,0.088
		c-0.09,0.039-0.141,0.059-0.152,0.059c-0.008,0-0.012-0.012-0.012-0.035c0-0.012,0.014-0.028,0.041-0.05s0.064-0.045,0.109-0.07
		s0.088-0.05,0.129-0.073s0.084-0.047,0.131-0.07s0.078-0.039,0.094-0.047c0.309-0.152,0.535-0.269,0.682-0.349
		c0.145-0.08,0.32-0.192,0.525-0.337c-0.039,0.487-0.059,0.958-0.059,1.414v6.1c0,0.432,0.156,0.648,0.469,0.648
		c0.016,0,0.062-0.004,0.141-0.012s0.123-0.012,0.135-0.012c0.039,0,0.059,0.013,0.059,0.038c0,0.059-0.072,0.088-0.217,0.088
		c-0.047,0-0.127,0.002-0.24,0.007s-0.184,0.007-0.211,0.007h-0.82V8.58c-0.141,0.1-0.262,0.178-0.363,0.236
		c-0.102,0.058-0.256,0.119-0.465,0.182c-0.209,0.064-0.43,0.096-0.66,0.096c-0.426,0-0.818-0.11-1.18-0.332
		c-0.361-0.221-0.643-0.509-0.844-0.864S174.607,7.173,174.607,6.785z M175.222,6.26c0,0.662,0.229,1.202,0.686,1.621
		c0.457,0.418,1.035,0.628,1.734,0.628c0.277,0,0.533-0.043,0.768-0.128V5.12c-0.383-0.382-0.883-0.573-1.5-0.573
		c-0.25,0-0.475,0.039-0.676,0.117c-0.201,0.078-0.363,0.178-0.484,0.301c-0.121,0.123-0.223,0.262-0.307,0.417
		s-0.143,0.307-0.174,0.453S175.222,6.123,175.222,6.26z"/>
	<path fill="#FDDFEB" stroke="#FDDFEB" stroke-width="0.25" stroke-miterlimit="10" d="M182.758,4.677l1.564-1.506v0.885h1.652
		c0.355,0,0.588-0.055,0.697-0.164c0.102-0.09,0.166-0.135,0.193-0.135c0.023,0,0.035,0.016,0.035,0.046
		c0,0.023-0.076,0.09-0.229,0.201l-0.756,0.661h-1.594v2.389c0,0.148,0.002,0.266,0.004,0.352c0.002,0.086,0.01,0.188,0.023,0.305
		c0.014,0.117,0.033,0.209,0.059,0.275c0.025,0.067,0.062,0.138,0.111,0.214s0.109,0.134,0.18,0.173s0.158,0.071,0.262,0.097
		c0.105,0.025,0.227,0.038,0.363,0.038c0.279,0,0.504-0.045,0.674-0.135c0.172-0.09,0.287-0.187,0.352-0.291
		c0.09-0.157,0.156-0.236,0.199-0.236c0.035,0,0.053,0.025,0.053,0.076c0,0.031-0.025,0.089-0.078,0.173s-0.133,0.183-0.238,0.296
		s-0.223,0.223-0.354,0.328s-0.287,0.194-0.469,0.267s-0.363,0.108-0.543,0.108c-0.863,0-1.295-0.553-1.295-1.659V4.677H182.758z"/>
	<path fill="#FDDFEB" stroke="#FDDFEB" stroke-width="0.25" stroke-miterlimit="10" d="M186.965,6.792
		c0-0.328,0.086-0.665,0.256-1.011s0.389-0.65,0.656-0.914s0.576-0.48,0.926-0.65s0.693-0.255,1.033-0.255
		c0.625,0,1.166,0.223,1.621,0.668s0.682,0.982,0.682,1.611c0,0.316-0.08,0.646-0.24,0.987s-0.369,0.649-0.627,0.923
		s-0.564,0.499-0.922,0.677s-0.719,0.267-1.082,0.267c-0.418,0-0.805-0.11-1.162-0.331s-0.637-0.508-0.838-0.861
		S186.965,7.178,186.965,6.792z M187.58,6.241c0,0.445,0.109,0.844,0.326,1.195s0.498,0.618,0.844,0.8s0.715,0.272,1.109,0.272
		c0.445,0,0.834-0.15,1.166-0.451s0.498-0.715,0.498-1.242c0-0.648-0.219-1.188-0.656-1.62s-0.975-0.647-1.611-0.647
		c-0.277,0-0.521,0.044-0.734,0.132s-0.377,0.194-0.492,0.319s-0.209,0.271-0.279,0.437s-0.115,0.312-0.137,0.439
		S187.58,6.124,187.58,6.241z"/>
</g>
</svg>
