<?xml version="1.0" encoding="utf-8"?>
<!-- Generator: Adobe Illustrator 16.0.0, SVG Export Plug-In . SVG Version: 6.00 Build 0)  -->
<!DOCTYPE svg PUBLIC "-//W3C//DTD SVG 1.1//EN" "http://www.w3.org/Graphics/SVG/1.1/DTD/svg11.dtd">
<svg version="1.1" id="Layer_1" xmlns="http://www.w3.org/2000/svg" xmlns:xlink="http://www.w3.org/1999/xlink" x="0px" y="0px"
	 width="270.525px" height="161.667px" viewBox="0 0 270.525 161.667" enable-background="new 0 0 270.525 161.667"
	 xml:space="preserve">
<g enable-background="new    ">
	<path fill="#FDDFEB" d="M59.338,8.287l0.54-0.049c0.216-0.016,0.356-0.06,0.42-0.132c0.072-0.071,0.108-0.224,0.108-0.456V0.69
		c0-0.231-0.036-0.384-0.108-0.456c-0.064-0.071-0.204-0.115-0.42-0.132l-0.54-0.048v-0.432h3.96c2.688,0,4.032,0.815,4.032,2.447
		c0,1.713-1.344,2.568-4.032,2.568h-0.672v-0.54h0.588c0.704,0,1.216-0.16,1.536-0.479c0.304-0.312,0.456-0.805,0.456-1.477
		c0-1.328-0.664-1.992-1.992-1.992h-0.888v7.5c0,0.225,0.036,0.372,0.108,0.444c0.064,0.064,0.204,0.104,0.42,0.12l0.96,0.048v0.456
		h-4.476V8.287z"/>
	<path fill="#FDDFEB" d="M67.774,8.334l0.324-0.024c0.216-0.016,0.348-0.048,0.396-0.096c0.056-0.048,0.084-0.176,0.084-0.384V4.434
		L67.666,3.57V3.499l2.688-1.128v2.075c0.304-1.264,1-1.896,2.088-1.896h0.12v1.788l-0.636-0.084
		c-1.048-0.145-1.572,0.092-1.572,0.708v2.868c0,0.2,0.04,0.328,0.12,0.384c0.056,0.032,0.2,0.056,0.432,0.072l0.612,0.035v0.396
		h-3.744V8.334z"/>
	<path fill="#FDDFEB" d="M73.174,8.334l0.324-0.024c0.216-0.016,0.348-0.048,0.396-0.096c0.056-0.048,0.084-0.176,0.084-0.384V4.434
		L73.066,3.57V3.499l2.688-1.128v5.46c0,0.208,0.028,0.336,0.084,0.384c0.048,0.048,0.18,0.08,0.396,0.096l0.324,0.024v0.384h-3.384
		V8.334z M74.074-0.582c0.224-0.224,0.484-0.336,0.78-0.336s0.56,0.112,0.792,0.336c0.224,0.224,0.336,0.484,0.336,0.78
		s-0.112,0.56-0.336,0.792c-0.224,0.224-0.488,0.336-0.792,0.336c-0.296,0-0.556-0.112-0.78-0.336
		c-0.224-0.232-0.336-0.496-0.336-0.792S73.85-0.358,74.074-0.582z"/>
	<path fill="#FDDFEB" d="M77.169,8.334l0.324-0.024c0.216-0.016,0.348-0.048,0.396-0.096c0.056-0.048,0.084-0.176,0.084-0.384V4.434
		L77.061,3.57V3.499l2.688-1.128v1.536c0.288-0.961,0.896-1.44,1.824-1.44c1.136,0,1.704,0.748,1.704,2.244v3.12
		c0,0.208,0.028,0.336,0.084,0.384c0.048,0.048,0.18,0.08,0.396,0.096l0.324,0.024v0.384h-3.252V8.334l0.228-0.024
		c0.216-0.023,0.344-0.056,0.384-0.096c0.04-0.048,0.06-0.176,0.06-0.384V5.046c0-1.016-0.272-1.524-0.816-1.524
		c-0.624,0-0.936,0.513-0.936,1.536v2.772c0,0.208,0.02,0.336,0.06,0.384c0.04,0.04,0.168,0.072,0.384,0.096l0.228,0.024v0.384
		h-3.252V8.334z"/>
	<path fill="#FDDFEB" d="M85.882,8.526c-0.296-0.231-0.444-0.644-0.444-1.235V3.619h-1.212V3.546l2.904-2.4h0.084v1.548h2.4
		l-0.576,0.925h-1.824v3.264c0,0.768,0.28,1.152,0.84,1.152c0.304,0,0.628-0.116,0.972-0.349l0.192,0.312
		c-0.656,0.536-1.384,0.804-2.184,0.804C86.497,8.802,86.114,8.71,85.882,8.526z"/>
	<path fill="#FDDFEB" d="M90.513,7.962c-0.56-0.584-0.84-1.332-0.84-2.244c0-0.952,0.328-1.744,0.984-2.376
		c0.608-0.584,1.324-0.876,2.148-0.876c1.632,0,2.608,0.82,2.928,2.46h-4.26c0.008,0.809,0.208,1.472,0.6,1.992
		c0.408,0.536,0.948,0.804,1.62,0.804c0.432,0,0.82-0.12,1.164-0.36c0.384-0.264,0.632-0.636,0.744-1.115h0.348
		c-0.272,1.752-1.308,2.628-3.108,2.628C91.873,8.875,91.097,8.571,90.513,7.962z M91.497,4.422h2.268
		c-0.032-1.032-0.376-1.548-1.032-1.548C92.021,2.875,91.61,3.39,91.497,4.422z"/>
	<path fill="#FDDFEB" d="M97.377,8.046c-0.496-0.592-0.744-1.388-0.744-2.388c0-0.937,0.268-1.708,0.804-2.316
		c0.528-0.584,1.18-0.876,1.956-0.876c0.544,0,0.996,0.192,1.356,0.576V0.858L99.621,0.09V0.018l2.904-0.924v8.832h0.876V8.31
		l-2.652,0.54V8.13c-0.44,0.496-0.98,0.744-1.62,0.744C98.425,8.875,97.841,8.598,97.377,8.046z M99.033,7.386
		c0.264,0.44,0.604,0.66,1.02,0.66c0.272,0,0.504-0.08,0.696-0.24V3.378c-0.176-0.152-0.396-0.229-0.66-0.229
		c-0.432,0-0.784,0.221-1.056,0.66c-0.28,0.456-0.42,1.068-0.42,1.836C98.613,6.35,98.753,6.93,99.033,7.386z"/>
	<path fill="#FDDFEB" d="M109.809,8.718h-3.252V8.334l0.324-0.024c0.216-0.016,0.348-0.048,0.396-0.096
		c0.056-0.048,0.084-0.176,0.084-0.384V4.434l-0.912-0.864V3.499l2.688-1.128v1.536c0.288-0.961,0.896-1.44,1.824-1.44
		c0.928,0,1.476,0.492,1.644,1.476c0.304-0.983,0.932-1.476,1.884-1.476c1.136,0,1.704,0.748,1.704,2.244v3.12
		c0,0.208,0.028,0.336,0.084,0.384c0.048,0.048,0.18,0.08,0.396,0.096l0.324,0.024v0.384h-3.252V8.334l0.228-0.024
		c0.216-0.023,0.344-0.056,0.384-0.096c0.04-0.048,0.06-0.176,0.06-0.384V5.046c0-1.016-0.272-1.524-0.816-1.524
		c-0.624,0-0.936,0.513-0.936,1.536v2.772c0,0.208,0.02,0.336,0.06,0.384c0.04,0.04,0.168,0.072,0.384,0.096l0.228,0.024v0.384
		h-3.12V8.334l0.228-0.024c0.216-0.023,0.344-0.056,0.384-0.096c0.04-0.048,0.06-0.176,0.06-0.384V5.046
		c0-1.016-0.272-1.524-0.816-1.524c-0.624,0-0.936,0.513-0.936,1.536v2.772c0,0.208,0.02,0.336,0.06,0.384
		c0.04,0.04,0.168,0.072,0.384,0.096l0.228,0.024V8.718z"/>
	<path fill="#FDDFEB" d="M118.101,8.371c-0.368-0.32-0.552-0.708-0.552-1.164c0-0.496,0.26-0.904,0.78-1.225
		c0.224-0.136,0.724-0.348,1.5-0.636c0.576-0.208,0.964-0.436,1.164-0.684c0.144-0.185,0.216-0.448,0.216-0.792
		c0-0.288-0.084-0.524-0.252-0.708c-0.184-0.192-0.424-0.288-0.72-0.288c-0.448,0-0.76,0.16-0.936,0.479
		c-0.184,0.312-0.208,0.736-0.072,1.272c-0.288,0.063-0.556,0.096-0.804,0.096c-0.296,0-0.528-0.072-0.696-0.216
		c-0.144-0.128-0.216-0.276-0.216-0.444c0-0.416,0.508-0.819,1.524-1.212c0.72-0.271,1.376-0.408,1.968-0.408
		c1.272,0,1.892,0.568,1.86,1.704l-0.096,3.78h0.936V8.31l-2.328,0.54l-0.24-1.067c-0.288,0.728-0.832,1.092-1.632,1.092
		C118.945,8.875,118.477,8.707,118.101,8.371z M120.837,7.842c0.168-0.232,0.256-0.568,0.264-1.008l0.012-1.836
		c-0.144,0.12-0.36,0.268-0.648,0.443c-0.624,0.385-0.936,0.889-0.936,1.513c0,0.304,0.068,0.571,0.204,0.804
		c0.152,0.256,0.348,0.384,0.588,0.384C120.529,8.142,120.701,8.042,120.837,7.842z"/>
	<path fill="#FDDFEB" d="M125.409,8.526c-0.296-0.231-0.444-0.644-0.444-1.235V3.619h-1.212V3.546l2.904-2.4h0.084v1.548h2.4
		l-0.576,0.925h-1.824v3.264c0,0.768,0.28,1.152,0.84,1.152c0.304,0,0.628-0.116,0.972-0.349l0.192,0.312
		c-0.656,0.536-1.384,0.804-2.184,0.804C126.025,8.802,125.641,8.71,125.409,8.526z"/>
	<path fill="#FDDFEB" d="M130.557,8.526c-0.296-0.231-0.444-0.644-0.444-1.235V3.619h-1.212V3.546l2.904-2.4h0.084v1.548h2.4
		l-0.576,0.925h-1.824v3.264c0,0.768,0.28,1.152,0.84,1.152c0.304,0,0.628-0.116,0.972-0.349l0.192,0.312
		c-0.656,0.536-1.384,0.804-2.184,0.804C131.173,8.802,130.789,8.71,130.557,8.526z"/>
	<path fill="#FDDFEB" d="M135.188,7.962c-0.56-0.584-0.84-1.332-0.84-2.244c0-0.952,0.328-1.744,0.984-2.376
		c0.608-0.584,1.325-0.876,2.148-0.876c1.632,0,2.608,0.82,2.929,2.46h-4.261c0.008,0.809,0.208,1.472,0.601,1.992
		c0.408,0.536,0.947,0.804,1.619,0.804c0.433,0,0.82-0.12,1.164-0.36c0.385-0.264,0.633-0.636,0.744-1.115h0.348
		c-0.271,1.752-1.308,2.628-3.107,2.628C136.548,8.875,135.772,8.571,135.188,7.962z M136.173,4.422h2.268
		c-0.031-1.032-0.376-1.548-1.031-1.548C136.696,2.875,136.284,3.39,136.173,4.422z"/>
	<path fill="#FDDFEB" d="M141.272,8.334l0.324-0.024c0.216-0.016,0.348-0.048,0.396-0.096c0.055-0.048,0.084-0.176,0.084-0.384
		V4.434l-0.912-0.864V3.499l2.688-1.128v2.075c0.305-1.264,1-1.896,2.088-1.896h0.12v1.788l-0.636-0.084
		c-1.049-0.145-1.572,0.092-1.572,0.708v2.868c0,0.2,0.04,0.328,0.12,0.384c0.056,0.032,0.2,0.056,0.433,0.072l0.611,0.035v0.396
		h-3.744V8.334z"/>
	<path fill="#FDDFEB" d="M148.988,8.334l0.324-0.024c0.216-0.016,0.349-0.048,0.396-0.096c0.057-0.048,0.084-0.176,0.084-0.384
		V4.434L148.88,3.57V3.499l2.688-1.128v2.075c0.304-1.264,1-1.896,2.088-1.896h0.12v1.788l-0.636-0.084
		c-1.048-0.145-1.572,0.092-1.572,0.708v2.868c0,0.2,0.04,0.328,0.12,0.384c0.056,0.032,0.199,0.056,0.432,0.072l0.612,0.035v0.396
		h-3.744V8.334z"/>
	<path fill="#FDDFEB" d="M155.096,7.962c-0.561-0.584-0.84-1.332-0.84-2.244c0-0.952,0.328-1.744,0.984-2.376
		c0.607-0.584,1.324-0.876,2.147-0.876c1.632,0,2.608,0.82,2.929,2.46h-4.261c0.008,0.809,0.208,1.472,0.601,1.992
		c0.408,0.536,0.947,0.804,1.619,0.804c0.433,0,0.82-0.12,1.164-0.36c0.385-0.264,0.633-0.636,0.744-1.115h0.348
		c-0.271,1.752-1.308,2.628-3.107,2.628C156.456,8.875,155.68,8.571,155.096,7.962z M156.081,4.422h2.268
		c-0.031-1.032-0.376-1.548-1.031-1.548C156.604,2.875,156.192,3.39,156.081,4.422z"/>
	<path fill="#FDDFEB" d="M161.072,8.334l0.324-0.024c0.216-0.016,0.348-0.048,0.396-0.096c0.057-0.048,0.084-0.176,0.084-0.384
		V0.858l-0.912-0.768V0.018l2.688-0.924v8.736c0,0.208,0.028,0.336,0.084,0.384c0.048,0.048,0.181,0.08,0.396,0.096l0.324,0.024
		v0.384h-3.384V8.334z"/>
	<path fill="#FDDFEB" d="M165.632,8.371c-0.367-0.32-0.551-0.708-0.551-1.164c0-0.496,0.26-0.904,0.779-1.225
		c0.225-0.136,0.725-0.348,1.5-0.636c0.576-0.208,0.964-0.436,1.164-0.684c0.145-0.185,0.217-0.448,0.217-0.792
		c0-0.288-0.084-0.524-0.253-0.708c-0.185-0.192-0.424-0.288-0.72-0.288c-0.448,0-0.76,0.16-0.936,0.479
		c-0.185,0.312-0.209,0.736-0.072,1.272c-0.288,0.063-0.557,0.096-0.805,0.096c-0.295,0-0.527-0.072-0.695-0.216
		c-0.145-0.128-0.217-0.276-0.217-0.444c0-0.416,0.508-0.819,1.524-1.212c0.72-0.271,1.376-0.408,1.968-0.408
		c1.272,0,1.893,0.568,1.86,1.704l-0.097,3.78h0.937V8.31l-2.327,0.54l-0.24-1.067c-0.289,0.728-0.832,1.092-1.633,1.092
		C166.476,8.875,166.009,8.707,165.632,8.371z M168.368,7.842c0.168-0.232,0.256-0.568,0.264-1.008l0.013-1.836
		c-0.144,0.12-0.36,0.268-0.647,0.443c-0.625,0.385-0.937,0.889-0.937,1.513c0,0.304,0.067,0.571,0.204,0.804
		c0.152,0.256,0.348,0.384,0.588,0.384C168.06,8.142,168.232,8.042,168.368,7.842z"/>
	<path fill="#FDDFEB" d="M172.94,8.526c-0.297-0.231-0.444-0.644-0.444-1.235V3.619h-1.212V3.546l2.904-2.4h0.084v1.548h2.4
		l-0.576,0.925h-1.824v3.264c0,0.768,0.279,1.152,0.84,1.152c0.304,0,0.628-0.116,0.973-0.349l0.191,0.312
		c-0.656,0.536-1.385,0.804-2.184,0.804C173.555,8.802,173.173,8.71,172.94,8.526z"/>
	<path fill="#FDDFEB" d="M177.572,7.962c-0.56-0.584-0.84-1.332-0.84-2.244c0-0.952,0.327-1.744,0.983-2.376
		c0.608-0.584,1.324-0.876,2.148-0.876c1.633,0,2.607,0.82,2.928,2.46h-4.26c0.008,0.809,0.208,1.472,0.6,1.992
		c0.408,0.536,0.949,0.804,1.621,0.804c0.432,0,0.819-0.12,1.164-0.36c0.383-0.264,0.631-0.636,0.743-1.115h0.349
		c-0.272,1.752-1.309,2.628-3.108,2.628C178.932,8.875,178.156,8.571,177.572,7.962z M178.555,4.422h2.269
		c-0.032-1.032-0.376-1.548-1.032-1.548C179.08,2.875,178.669,3.39,178.555,4.422z"/>
	<path fill="#FDDFEB" d="M184.436,8.046c-0.496-0.592-0.744-1.388-0.744-2.388c0-0.937,0.268-1.708,0.804-2.316
		c0.528-0.584,1.18-0.876,1.956-0.876c0.543,0,0.996,0.192,1.355,0.576V0.858l-1.128-0.768V0.018l2.904-0.924v8.832h0.876V8.31
		l-2.652,0.54V8.13c-0.439,0.496-0.98,0.744-1.619,0.744C185.483,8.875,184.899,8.598,184.436,8.046z M186.092,7.386
		c0.265,0.44,0.604,0.66,1.021,0.66c0.271,0,0.504-0.08,0.695-0.24V3.378c-0.176-0.152-0.396-0.229-0.66-0.229
		c-0.432,0-0.783,0.221-1.056,0.66c-0.28,0.456-0.42,1.068-0.42,1.836C185.672,6.35,185.811,6.93,186.092,7.386z"/>
	<path fill="#FDDFEB" d="M194.876,8.526c-0.297-0.231-0.444-0.644-0.444-1.235V3.619h-1.212V3.546l2.904-2.4h0.084v1.548h2.4
		l-0.576,0.925h-1.824v3.264c0,0.768,0.279,1.152,0.84,1.152c0.304,0,0.628-0.116,0.973-0.349l0.191,0.312
		c-0.656,0.536-1.385,0.804-2.184,0.804C195.491,8.802,195.108,8.71,194.876,8.526z"/>
	<path fill="#FDDFEB" d="M199.567,7.951c-0.607-0.601-0.912-1.34-0.912-2.221c0-0.951,0.328-1.735,0.984-2.352
		c0.633-0.608,1.424-0.912,2.377-0.912c0.975,0,1.775,0.308,2.399,0.924c0.608,0.601,0.912,1.34,0.912,2.22
		c0,0.952-0.324,1.736-0.972,2.353c-0.641,0.608-1.437,0.912-2.389,0.912C200.991,8.875,200.192,8.566,199.567,7.951z
		 M203.323,5.659c0-1.816-0.443-2.725-1.332-2.725c-0.903,0-1.355,0.908-1.355,2.725c0,1.815,0.452,2.724,1.355,2.724
		C202.88,8.382,203.323,7.474,203.323,5.659z"/>
</g>
<g>
	<g>
		<path fill="#FDDFEB" d="M13.255,24.047l-1.27,12l18.744,1.979l-0.823,7.794l-18.744-1.981L9.423,60.294L0.33,59.333L4.984,15.29
			l29.384,3.105l-0.824,7.794L13.255,24.047z"/>
	</g>
	<g>
		<path fill="#FDDFEB" d="M70.12,23.988c2.938,2.188,5.062,5.092,6.366,8.711c1.307,3.62,1.709,7.802,1.208,12.544
			c-0.501,4.743-1.771,8.748-3.804,12.014c-2.033,3.269-4.718,5.663-8.048,7.188c-3.33,1.524-7.141,2.061-11.429,1.607
			c-4.29-0.453-7.901-1.774-10.841-3.96c-2.938-2.188-5.062-5.091-6.366-8.712c-1.308-3.619-1.71-7.801-1.208-12.544
			c0.501-4.741,1.771-8.747,3.806-12.014c2.031-3.267,4.715-5.663,8.046-7.188c3.33-1.524,7.142-2.061,11.431-1.606
			C63.568,20.482,67.18,21.802,70.12,23.988z M49.625,31.175c-2.321,2.443-3.729,5.996-4.224,10.655
			c-0.492,4.661,0.142,8.429,1.9,11.305c1.762,2.876,4.414,4.5,7.961,4.875c3.546,0.375,6.479-0.66,8.804-3.104
			c2.321-2.444,3.729-5.996,4.224-10.657c0.492-4.66-0.143-8.428-1.9-11.303c-1.762-2.876-4.414-4.501-7.96-4.876
			C54.883,27.695,51.948,28.731,49.625,31.175z"/>
	</g>
	<g>
		<path fill="#FDDFEB" d="M115.374,30.209c2.411,2.425,3.408,5.637,2.984,9.637c-0.282,2.682-1.248,4.894-2.893,6.637
			c-1.646,1.745-3.739,2.837-6.29,3.277l-0.014,0.123c1.507,0.743,2.648,1.75,3.436,3.021c0.781,1.271,1.543,3.343,2.282,6.215
			l3.104,12.65l-9.896-1.046l-2.421-10.827c-0.571-2.479-1.354-4.24-2.351-5.283c-0.994-1.044-2.564-1.679-4.709-1.906l-5.011-0.528
			L91.82,69.004l-9.096-0.961L87.379,24l16.208,1.713C109.032,26.287,112.959,27.786,115.374,30.209z M94.365,44.941l6.433,0.68
			c5.072,0.536,7.84-1.36,8.298-5.69c0.433-4.083-2.057-6.41-7.457-6.98L95.7,32.323L94.365,44.941z"/>
	</g>
	<g>
		<path fill="#FDDFEB" d="M136.847,37.109l-1.054,9.959l19.92,2.104l-0.815,7.732l-19.918-2.105l-1.139,10.765l21.898,2.313
			l-0.824,7.794l-30.992-3.274l4.654-44.043l30.438,3.216l-0.822,7.794L136.847,37.109z"/>
	</g>
	<g>
		<path fill="#FDDFEB" d="M163.082,76.534l4.654-44.042l9.094,0.961l-4.651,44.042L163.082,76.534z"/>
	</g>
	<g>
		<path fill="#FDDFEB" d="M217.656,40.737c2.938,2.959,4.393,6.751,4.361,11.376l-9.771-1.033c-0.184-2.229-0.936-3.986-2.256-5.273
			c-1.324-1.287-3.203-2.06-5.635-2.316c-3.551-0.375-6.496,0.681-8.844,3.163c-2.351,2.483-3.771,6.076-4.269,10.777
			c-0.51,4.824,0.1,8.727,1.828,11.703c1.728,2.976,4.346,4.648,7.854,5.021c3.177,0.336,5.701-0.304,7.58-1.919
			c1.886-1.615,3.021-4.111,3.423-7.488l-10.455-1.104l0.782-7.423l18.933,2l-2.56,24.187l-7.67-0.811l0.504-4.764l-0.125-0.014
			c-1.467,1.638-3.354,2.834-5.664,3.59c-2.311,0.758-4.909,0.982-7.799,0.678c-3.752-0.395-6.914-1.656-9.479-3.783
			c-2.568-2.127-4.427-4.972-5.57-8.533c-1.146-3.562-1.473-7.671-0.979-12.332c0.5-4.742,1.78-8.776,3.844-12.104
			c2.062-3.326,4.768-5.752,8.115-7.274c3.354-1.522,7.151-2.059,11.399-1.609C210.564,36.016,214.715,37.779,217.656,40.737z"/>
	</g>
	<g>
		<path fill="#FDDFEB" d="M253.271,86.066l-6.646-18.781c-2.434-6.971-4.473-13.315-6.119-19.036l-0.123-0.013
			c-0.391,6.839-0.896,13.229-1.522,19.167l-1.791,16.95l-8.726-0.922l4.654-44.042l12.928,1.365l6.646,18.779
			c2.436,6.972,4.475,13.318,6.121,19.038l0.125,0.012c0.391-6.839,0.895-13.229,1.522-19.167l1.791-16.948l8.724,0.922
			l-4.654,44.043L253.271,86.066z"/>
	</g>
	<g>
		<path fill="#FDDFEB" d="M23.892,148.224l-2.809,11.021l-9.562,0.592l12.598-45.154l12.292-0.764l18.073,43.258l-9.562,0.592
			l-4.083-10.592L23.892,148.224z M36.761,136.646c-2.431-6.332-4.462-11.98-6.1-16.947l-0.124,0.008
			c-1.173,5.892-2.474,11.744-3.896,17.566l-0.75,2.977l11.98-0.74L36.761,136.646z"/>
	</g>
	<g>
		<path fill="#FDDFEB" d="M65.395,119.976l0.747,12.045l18.812-1.166l0.483,7.822l-18.812,1.166l1.022,16.516l-9.126,0.566
			l-2.738-44.207l29.489-1.828l0.483,7.822L65.395,119.976z"/>
	</g>
	<g>
		<path fill="#FDDFEB" d="M101.653,117.73l0.746,12.045l18.812-1.166l0.484,7.822l-18.812,1.166l1.023,16.516l-9.128,0.564
			l-2.738-44.205l29.491-1.828l0.483,7.824L101.653,117.73z"/>
	</g>
	<g>
		<path fill="#FDDFEB" d="M135.275,141.324l-2.812,11.021l-9.562,0.592l12.598-45.154l12.292-0.764l18.076,43.256l-9.563,0.594
			l-4.082-10.594L135.275,141.324z M148.142,129.744c-2.431-6.33-4.461-11.979-6.099-16.947l-0.125,0.011
			c-1.174,5.892-2.473,11.746-3.899,17.563l-0.746,2.979l11.981-0.742L148.142,129.744z"/>
	</g>
	<g>
		<path fill="#FDDFEB" d="M169.906,150.023l-2.74-44.205l9.127-0.564l2.74,44.205L169.906,150.023z"/>
	</g>
	<g>
		<path fill="#FDDFEB" d="M215.109,106.087c2.781,1.988,4.301,4.99,4.549,9.006c0.166,2.689-0.416,5.029-1.748,7.023
			s-3.217,3.42-5.654,4.277l0.011,0.123c1.604,0.48,2.901,1.285,3.887,2.408c0.983,1.121,2.082,3.037,3.287,5.746l5.166,11.961
			l-9.937,0.613l-4.188-10.271c-0.98-2.352-2.043-3.957-3.195-4.82c-1.154-0.861-2.811-1.229-4.961-1.096l-5.027,0.311l1.048,16.894
			l-9.128,0.562l-2.737-44.207l16.268-1.008C208.205,103.275,212.328,104.099,215.109,106.087z M196.844,124.111l6.457-0.4
			c5.091-0.312,7.5-2.646,7.23-6.989c-0.256-4.103-3.096-5.979-8.516-5.646l-5.959,0.368L196.844,124.111z"/>
	</g>
	<g>
		<path fill="#FDDFEB" d="M254.095,103.144c2.985,2.285,4.631,5.811,4.926,10.568l-9.252,0.574
			c-0.146-2.316-0.916-4.066-2.318-5.248c-1.402-1.183-3.346-1.693-5.828-1.541c-2.029,0.125-3.637,0.672-4.819,1.641
			c-1.188,0.969-1.734,2.176-1.646,3.623c0.068,1.115,0.436,2.01,1.1,2.674c0.666,0.666,1.679,1.217,3.031,1.648
			c1.354,0.438,3.314,0.889,5.881,1.352c3.486,0.656,6.316,1.365,8.482,2.125c2.164,0.76,3.977,1.984,5.432,3.684
			c1.453,1.695,2.275,4.059,2.465,7.076c0.173,2.773-0.401,5.262-1.721,7.461c-1.316,2.199-3.244,3.961-5.779,5.279
			c-2.532,1.318-5.502,2.088-8.896,2.297c-5.586,0.348-10.047-0.729-13.381-3.221c-3.334-2.494-5.152-6.229-5.461-11.191
			l9.438-0.584c0.166,2.689,1.019,4.674,2.551,5.949c1.531,1.271,3.705,1.826,6.521,1.65c2.315-0.146,4.141-0.767,5.463-1.863
			c1.32-1.104,1.932-2.521,1.824-4.26c-0.078-1.24-0.447-2.203-1.113-2.894c-0.666-0.687-1.594-1.198-2.775-1.541
			c-1.188-0.344-3.059-0.769-5.625-1.271c-3.655-0.687-6.567-1.4-8.729-2.141c-2.166-0.738-3.998-1.941-5.492-3.617
			c-1.496-1.672-2.334-4.021-2.521-7.041c-0.158-2.564,0.385-4.888,1.627-6.955c1.239-2.07,3.067-3.73,5.485-4.982
			c2.414-1.25,5.213-1.977,8.402-2.172C246.861,99.882,251.107,100.855,254.095,103.144z"/>
	</g>
</g>
<g>
	<path fill="#FDDFEB" d="M50.921,155.214c-9.384,0-15.467-0.17-15.649-0.174l0.059-2c0.564,0.021,56.701,1.584,93.025-4.981
		c21.579-3.899,43.995-28.908,49.157-54.742c-14.24,3.656-30.834,4.769-49.964,1.543c-9.261-1.562-37.468-9.772-49.112-19.899
		c-0.184-0.171-15.233-14.707-3.966-33.612c0.319-0.448,6.814-9.22,20.056-13.945c22.037-7.861,45.023,1.949,60.428,11.565
		c19.357,12.083,28.188,30.323,25.066,51.582c20.578-5.948,35.91-17.286,46.576-28.009c19.813-19.92,28.239-42.027,28.323-42.249
		l1.873,0.702c-0.084,0.225-8.664,22.734-28.778,42.957c-11.021,11.08-26.941,22.808-48.355,28.791
		c-0.031,0.168-0.062,0.334-0.094,0.502c-5.129,26.725-28.418,52.729-50.854,56.785C104.06,154.482,70.389,155.214,50.921,155.214z
		 M111.464,26.55c-5.662,0-11.067,0.896-16.16,2.699c-12.701,4.497-19.104,13.113-19.167,13.2
		c-10.404,17.466,3.5,30.896,3.641,31.03c11.155,9.7,39.295,17.924,48.103,19.409c19.211,3.236,35.829,2.027,50.026-1.75
		c3.367-20.804-5.113-38.676-24.012-50.473C138.898,31.303,124.505,26.55,111.464,26.55z"/>
</g>
</svg>
