<?xml version="1.0" encoding="utf-8"?>
<!-- Generator: Adobe Illustrator 16.0.0, SVG Export Plug-In . SVG Version: 6.00 Build 0)  -->
<!DOCTYPE svg PUBLIC "-//W3C//DTD SVG 1.1//EN" "http://www.w3.org/Graphics/SVG/1.1/DTD/svg11.dtd">
<svg version="1.1" id="Layer_1" xmlns="http://www.w3.org/2000/svg" xmlns:xlink="http://www.w3.org/1999/xlink" x="0px" y="0px"
	 width="270.523px" height="157.937px" viewBox="-0.001 3.572 270.523 157.937"
	 enable-background="new -0.001 3.572 270.523 157.937" xml:space="preserve">
<g>
	<g>
		<path fill="#FDDFEB" d="M12.925,25.719l-1.271,12l18.744,1.979l-0.823,7.794l-18.744-1.981L9.093,61.966l-9.094-0.961
			l4.653-44.043l29.384,3.105l-0.823,7.794L12.925,25.719z"/>
	</g>
	<g>
		<path fill="#FDDFEB" d="M69.788,25.659c2.938,2.188,5.062,5.092,6.366,8.711c1.308,3.62,1.709,7.802,1.208,12.544
			c-0.501,4.743-1.769,8.748-3.803,12.014c-2.034,3.268-4.717,5.663-8.047,7.188c-3.331,1.524-7.142,2.061-11.43,1.607
			c-4.29-0.453-7.901-1.774-10.841-3.96c-2.938-2.187-5.062-5.09-6.366-8.711c-1.308-3.62-1.71-7.801-1.208-12.544
			c0.502-4.742,1.771-8.747,3.806-12.014c2.032-3.267,4.715-5.663,8.046-7.188c3.33-1.524,7.141-2.06,11.43-1.606
			C63.236,22.153,66.85,23.473,69.788,25.659z M49.295,32.846c-2.322,2.444-3.729,5.997-4.225,10.656
			c-0.492,4.661,0.143,8.428,1.902,11.304s4.414,4.5,7.96,4.875s6.479-0.66,8.803-3.104c2.322-2.444,3.729-5.996,4.224-10.657
			c0.492-4.66-0.143-8.428-1.9-11.303c-1.761-2.876-4.414-4.501-7.96-4.876S51.616,30.402,49.295,32.846z"/>
	</g>
	<g>
		<path fill="#FDDFEB" d="M115.042,31.881c2.411,2.424,3.408,5.636,2.984,9.636c-0.282,2.682-1.248,4.894-2.891,6.637
			c-1.646,1.745-3.74,2.837-6.29,3.277l-0.015,0.123c1.508,0.744,2.649,1.75,3.436,3.022c0.782,1.271,1.543,3.343,2.283,6.215
			l3.104,12.65l-9.896-1.046l-2.421-10.827c-0.572-2.479-1.355-4.24-2.352-5.283c-0.994-1.044-2.563-1.679-4.709-1.906l-5.01-0.529
			L91.49,70.676l-9.095-0.961l4.653-44.043l16.208,1.713C108.7,27.959,112.629,29.458,115.042,31.881z M94.032,46.612l6.434,0.68
			c5.071,0.536,7.839-1.361,8.297-5.691c0.432-4.083-2.057-6.41-7.457-6.98l-5.938-0.628L94.032,46.612z"/>
	</g>
	<g>
		<path fill="#FDDFEB" d="M136.518,38.78l-1.053,9.959l19.919,2.104l-0.816,7.732l-19.919-2.105l-1.137,10.764l21.896,2.314
			l-0.824,7.794l-30.99-3.275l4.653-44.043l30.438,3.216l-0.824,7.794L136.518,38.78z"/>
	</g>
	<g>
		<path fill="#FDDFEB" d="M162.75,78.206l4.653-44.042l9.095,0.961l-4.652,44.042L162.75,78.206z"/>
	</g>
	<g>
		<path fill="#FDDFEB" d="M217.324,42.408c2.938,2.959,4.394,6.751,4.362,11.376l-9.772-1.033c-0.184-2.23-0.935-3.987-2.257-5.274
			c-1.323-1.287-3.202-2.059-5.635-2.316c-3.549-0.375-6.496,0.681-8.843,3.163c-2.35,2.483-3.771,6.076-4.268,10.777
			c-0.511,4.825,0.1,8.727,1.827,11.703c1.729,2.977,4.348,4.649,7.854,5.021c3.176,0.336,5.701-0.304,7.58-1.919
			c1.885-1.615,3.021-4.111,3.423-7.488l-10.456-1.105l0.784-7.423l18.931,2l-2.558,24.188l-7.67-0.812l0.503-4.764l-0.124-0.014
			c-1.469,1.638-3.354,2.835-5.665,3.591c-2.312,0.758-4.91,0.981-7.798,0.678c-3.753-0.396-6.915-1.657-9.481-3.784
			c-2.569-2.127-4.426-4.971-5.57-8.533c-1.146-3.561-1.473-7.671-0.979-12.332c0.501-4.742,1.781-8.776,3.844-12.103
			c2.062-3.327,4.767-5.752,8.116-7.275c3.354-1.522,7.15-2.058,11.398-1.609C210.233,37.687,214.385,39.45,217.324,42.408z"/>
	</g>
	<g>
		<path fill="#FDDFEB" d="M252.94,87.737l-6.646-18.78c-2.436-6.971-4.475-13.316-6.119-19.036l-0.124-0.013
			c-0.391,6.839-0.896,13.229-1.524,19.167l-1.791,16.949l-8.723-0.922l4.652-44.042l12.93,1.366l6.646,18.779
			c2.436,6.972,4.475,13.318,6.121,19.038l0.124,0.012c0.392-6.839,0.896-13.229,1.525-19.167l1.79-16.949l8.722,0.922
			l-4.653,44.043L252.94,87.737z"/>
	</g>
	<g>
		<path fill="#FDDFEB" d="M23.562,149.896l-2.808,11.021l-9.562,0.592l12.598-45.154l12.292-0.764l18.073,43.258l-9.561,0.592
			l-4.083-10.592L23.562,149.896z M36.431,138.317c-2.431-6.332-4.461-11.979-6.1-16.947l-0.124,0.008
			c-1.173,5.891-2.474,11.744-3.896,17.566l-0.75,2.977l11.98-0.74L36.431,138.317z"/>
	</g>
	<g>
		<path fill="#FDDFEB" d="M65.065,121.647l0.747,12.045l18.812-1.166l0.483,7.822l-18.812,1.166l1.021,16.516l-9.126,0.566
			l-2.738-44.207l29.489-1.828l0.485,7.823L65.065,121.647z"/>
	</g>
	<g>
		<path fill="#FDDFEB" d="M101.321,119.401l0.746,12.045l18.812-1.166l0.483,7.822l-18.811,1.166l1.021,16.516l-9.128,0.564
			l-2.738-44.205l29.491-1.828l0.484,7.824L101.321,119.401z"/>
	</g>
	<g>
		<path fill="#FDDFEB" d="M134.943,142.995l-2.81,11.021l-9.562,0.592l12.599-45.153l12.293-0.765l18.074,43.257l-9.562,0.594
			l-4.082-10.594L134.943,142.995z M147.812,131.415c-2.429-6.33-4.461-11.979-6.098-16.947l-0.125,0.01
			c-1.174,5.892-2.473,11.746-3.899,17.564l-0.747,2.979l11.982-0.742L147.812,131.415z"/>
	</g>
	<g>
		<path fill="#FDDFEB" d="M169.573,151.694l-2.739-44.205l9.128-0.564l2.738,44.205L169.573,151.694z"/>
	</g>
	<g>
		<path fill="#FDDFEB" d="M214.777,107.76c2.782,1.988,4.301,4.99,4.549,9.005c0.167,2.69-0.416,5.03-1.748,7.024
			c-1.331,1.994-3.216,3.42-5.652,4.276l0.009,0.123c1.605,0.48,2.901,1.285,3.887,2.408c0.985,1.121,2.081,3.037,3.286,5.746
			l5.167,11.96l-9.935,0.614l-4.189-10.271c-0.979-2.352-2.042-3.957-3.194-4.819c-1.153-0.861-2.811-1.229-4.962-1.097
			l-5.026,0.312l1.048,16.892l-9.128,0.563l-2.738-44.207l16.267-1.008C207.872,104.946,211.996,105.771,214.777,107.76z
			 M196.514,125.782l6.456-0.4c5.09-0.312,7.501-2.646,7.229-6.99c-0.255-4.102-3.094-5.979-8.515-5.646l-5.959,0.369
			L196.514,125.782z"/>
	</g>
	<g>
		<path fill="#FDDFEB" d="M253.766,104.815c2.985,2.285,4.63,5.811,4.925,10.569l-9.252,0.574c-0.146-2.317-0.915-4.067-2.318-5.248
			c-1.402-1.183-3.347-1.694-5.829-1.541c-2.027,0.125-3.636,0.672-4.819,1.64c-1.188,0.969-1.734,2.176-1.646,3.623
			c0.068,1.116,0.437,2.01,1.1,2.674c0.666,0.666,1.678,1.217,3.031,1.649c1.354,0.438,3.315,0.888,5.881,1.351
			c3.486,0.656,6.315,1.365,8.481,2.125c2.164,0.76,3.979,1.985,5.433,3.684c1.453,1.695,2.275,4.059,2.465,7.076
			c0.173,2.773-0.401,5.262-1.721,7.461c-1.315,2.199-3.244,3.961-5.779,5.279c-2.533,1.319-5.501,2.088-8.896,2.297
			c-5.587,0.348-10.047-0.728-13.381-3.221c-3.333-2.494-5.152-6.228-5.461-11.191l9.438-0.584c0.166,2.689,1.018,4.674,2.552,5.949
			c1.529,1.272,3.705,1.826,6.521,1.651c2.317-0.146,4.141-0.766,5.462-1.864c1.322-1.103,1.934-2.521,1.824-4.259
			c-0.077-1.241-0.447-2.204-1.112-2.893c-0.666-0.687-1.594-1.199-2.775-1.541c-1.188-0.345-3.06-0.769-5.624-1.272
			c-3.656-0.685-6.569-1.4-8.732-2.14c-2.165-0.738-3.997-1.942-5.491-3.617c-1.497-1.672-2.335-4.021-2.521-7.041
			c-0.159-2.565,0.383-4.887,1.626-6.955c1.24-2.071,3.069-3.731,5.486-4.983c2.414-1.25,5.214-1.976,8.401-2.172
			C246.529,101.554,250.776,102.526,253.766,104.815z"/>
	</g>
</g>
<g>
	<path fill="#FDDFEB" stroke="#FDDFEB" stroke-width="0.25" stroke-miterlimit="10" d="M62.37,7.721v2.884h-0.847V3.876h2.547
		c1.299,0,2,0.75,2,1.922s-0.701,1.923-2,1.923H62.37z M65.196,5.798c0-0.74-0.403-1.115-1.144-1.115h-1.682v2.23h1.682
		C64.793,6.914,65.196,6.539,65.196,5.798z"/>
	<path fill="#FDDFEB" stroke="#FDDFEB" stroke-width="0.25" stroke-miterlimit="10" d="M71.1,7.298
		c-0.067-0.558-0.355-0.885-0.933-0.885c-0.847,0-1.645,0.798-1.645,2.442v1.75h-0.807V5.76h0.807v0.894
		c0.375-0.586,0.98-0.971,1.788-0.971c0.961,0,1.538,0.577,1.596,1.615H71.1z"/>
	<path fill="#FDDFEB" stroke="#FDDFEB" stroke-width="0.25" stroke-miterlimit="10" d="M73.737,5.76h2.288v4.133h1.788v0.711h-4.268
		v-0.71h1.673V6.471h-1.48L73.737,5.76L73.737,5.76z M75.563,3.799c0.375,0,0.664,0.298,0.664,0.673
		c0,0.366-0.289,0.654-0.664,0.654c-0.365,0-0.663-0.288-0.663-0.654C74.9,4.097,75.198,3.799,75.563,3.799z"/>
	<path fill="#FDDFEB" stroke="#FDDFEB" stroke-width="0.25" stroke-miterlimit="10" d="M83.477,10.605H82.67V7.404
		c0-0.673-0.317-0.99-0.895-0.99c-0.759,0-1.423,0.827-1.423,2.24v1.952h-0.807V5.76h0.807v0.894
		c0.346-0.557,0.952-0.971,1.645-0.971c1.009,0,1.479,0.615,1.479,1.548L83.477,10.605L83.477,10.605z"/>
	<path fill="#FDDFEB" stroke="#FDDFEB" stroke-width="0.25" stroke-miterlimit="10" d="M85.056,5.76h1.289V4.309l0.807-0.51V5.76
		h2.365v0.73h-2.365V8.97c0,0.673,0.298,0.98,0.836,0.98c0.424,0,0.77-0.134,1.192-0.577l0.298,0.683
		c-0.441,0.442-0.885,0.625-1.49,0.625c-1.058,0-1.644-0.558-1.644-1.683V6.491h-1.289L85.056,5.76L85.056,5.76z"/>
	<path fill="#FDDFEB" stroke="#FDDFEB" stroke-width="0.25" stroke-miterlimit="10" d="M95.691,8.355h-3.788
		c0.049,0.961,0.636,1.596,1.49,1.596c0.73,0,1.23-0.355,1.557-0.961l0.645,0.337c-0.528,1.019-1.297,1.355-2.201,1.355
		c-1.413,0-2.316-1.086-2.316-2.5c0-1.365,0.864-2.5,2.316-2.5c1.5,0,2.297,1.067,2.297,2.336L95.691,8.355L95.691,8.355z
		 M91.963,7.625h2.874c-0.145-0.769-0.654-1.211-1.442-1.211C92.615,6.414,92.126,6.895,91.963,7.625z"/>
	<path fill="#FDDFEB" stroke="#FDDFEB" stroke-width="0.25" stroke-miterlimit="10" d="M99.203,5.683
		c0.673,0,1.211,0.327,1.479,0.692V3.799h0.808v6.806h-0.808V9.961c-0.269,0.375-0.817,0.721-1.479,0.721
		c-1.424,0-2.222-1.019-2.222-2.5S97.78,5.683,99.203,5.683z M99.279,9.951c0.924,0,1.472-0.73,1.472-1.769
		s-0.548-1.769-1.472-1.769c-0.923,0-1.471,0.73-1.471,1.769S98.356,9.951,99.279,9.951z"/>
	<path fill="#FDDFEB" stroke="#FDDFEB" stroke-width="0.25" stroke-miterlimit="10" d="M113.887,10.605h-0.808V7.164
		c0-0.529-0.153-0.74-0.528-0.74c-0.462,0-0.855,0.548-0.855,1.903v2.278h-0.808V7.164c0-0.529-0.154-0.74-0.529-0.74
		c-0.461,0-0.854,0.548-0.854,1.903v2.278h-0.808V5.76h0.808v0.615c0.25-0.404,0.635-0.692,1.135-0.692c0.548,0,0.865,0.308,1,0.788
		c0.25-0.461,0.683-0.788,1.191-0.788c0.597,0,1.058,0.385,1.058,1.308L113.887,10.605L113.887,10.605z"/>
	<path fill="#FDDFEB" stroke="#FDDFEB" stroke-width="0.25" stroke-miterlimit="10" d="M119.244,10.605h-0.653l-0.116-0.683
		c-0.308,0.442-0.989,0.76-1.711,0.76c-0.808,0-1.499-0.481-1.499-1.471c0-1.077,0.865-1.586,2.191-1.586h0.979V7.414
		c0-0.75-0.528-1-1.115-1c-0.566,0-0.989,0.356-1.144,0.827l-0.712-0.192c0.222-0.846,0.972-1.365,1.854-1.365
		c1.136,0,1.923,0.529,1.923,1.865v3.056H119.244z M116.888,9.951c0.625,0,1.548-0.384,1.548-1.48V8.317h-1.058
		c-0.826,0-1.288,0.346-1.288,0.894C116.091,9.672,116.407,9.951,116.888,9.951z"/>
	<path fill="#FDDFEB" stroke="#FDDFEB" stroke-width="0.25" stroke-miterlimit="10" d="M120.795,5.76h1.288V4.309l0.808-0.51V5.76
		h2.364v0.73h-2.364V8.97c0,0.673,0.298,0.98,0.836,0.98c0.423,0,0.771-0.134,1.192-0.577l0.298,0.683
		c-0.442,0.442-0.885,0.625-1.49,0.625c-1.058,0-1.644-0.558-1.644-1.683V6.491h-1.288V5.76z"/>
	<path fill="#FDDFEB" stroke="#FDDFEB" stroke-width="0.25" stroke-miterlimit="10" d="M126.758,5.76h1.288V4.309l0.808-0.51V5.76
		h2.364v0.73h-2.364V8.97c0,0.673,0.298,0.98,0.836,0.98c0.423,0,0.771-0.134,1.192-0.577l0.298,0.683
		c-0.442,0.442-0.885,0.625-1.49,0.625c-1.058,0-1.644-0.558-1.644-1.683V6.491h-1.288V5.76z"/>
	<path fill="#FDDFEB" stroke="#FDDFEB" stroke-width="0.25" stroke-miterlimit="10" d="M137.429,8.355h-3.787
		c0.048,0.961,0.634,1.596,1.489,1.596c0.731,0,1.229-0.355,1.557-0.961l0.646,0.337c-0.529,1.019-1.299,1.355-2.203,1.355
		c-1.413,0-2.316-1.086-2.316-2.5c0-1.365,0.865-2.5,2.316-2.5c1.5,0,2.298,1.067,2.298,2.336v0.337H137.429z M133.699,7.625h2.875
		c-0.145-0.769-0.652-1.211-1.442-1.211C134.352,6.414,133.862,6.895,133.699,7.625z"/>
	<path fill="#FDDFEB" stroke="#FDDFEB" stroke-width="0.25" stroke-miterlimit="10" d="M142.613,7.298
		c-0.066-0.558-0.354-0.885-0.932-0.885c-0.846,0-1.645,0.798-1.645,2.442v1.75h-0.809V5.76h0.809v0.894
		c0.375-0.586,0.98-0.971,1.787-0.971c0.963,0,1.539,0.577,1.598,1.615H142.613z"/>
	<path fill="#FDDFEB" stroke="#FDDFEB" stroke-width="0.25" stroke-miterlimit="10" d="M154.538,7.298
		c-0.066-0.558-0.355-0.885-0.934-0.885c-0.846,0-1.643,0.798-1.643,2.442v1.75h-0.809V5.76h0.809v0.894
		c0.375-0.586,0.979-0.971,1.787-0.971c0.961,0,1.539,0.577,1.596,1.615H154.538z"/>
	<path fill="#FDDFEB" stroke="#FDDFEB" stroke-width="0.25" stroke-miterlimit="10" d="M161.279,8.355h-3.787
		c0.049,0.961,0.635,1.596,1.49,1.596c0.73,0,1.23-0.355,1.559-0.961l0.645,0.337c-0.529,1.019-1.299,1.355-2.203,1.355
		c-1.412,0-2.314-1.086-2.314-2.5c0-1.365,0.863-2.5,2.314-2.5c1.5,0,2.299,1.067,2.299,2.336v0.337H161.279z M157.55,7.625h2.875
		c-0.146-0.769-0.654-1.211-1.443-1.211C158.204,6.414,157.714,6.895,157.55,7.625z"/>
	<path fill="#FDDFEB" stroke="#FDDFEB" stroke-width="0.25" stroke-miterlimit="10" d="M162.491,4.606v-0.73h2.145v4.902
		c0,0.798,0.355,1.173,1.02,1.173c0.578,0,1-0.355,1.125-1.173l0.73,0.145c-0.172,1.173-0.865,1.759-1.855,1.759
		c-1.113,0-1.824-0.683-1.824-1.904V4.606H162.491z"/>
	<path fill="#FDDFEB" stroke="#FDDFEB" stroke-width="0.25" stroke-miterlimit="10" d="M172.906,10.605h-0.652l-0.115-0.683
		c-0.309,0.442-0.99,0.76-1.711,0.76c-0.809,0-1.5-0.481-1.5-1.471c0-1.077,0.865-1.586,2.191-1.586h0.98V7.414
		c0-0.75-0.529-1-1.115-1c-0.566,0-0.99,0.356-1.145,0.827l-0.711-0.193c0.223-0.846,0.973-1.365,1.855-1.365
		c1.135,0,1.922,0.529,1.922,1.865V10.605z M170.552,9.951c0.625,0,1.547-0.384,1.547-1.48V8.317h-1.057
		c-0.826,0-1.289,0.346-1.289,0.894C169.753,9.672,170.07,9.951,170.552,9.951z"/>
	<path fill="#FDDFEB" stroke="#FDDFEB" stroke-width="0.25" stroke-miterlimit="10" d="M174.456,5.76h1.289V4.309l0.807-0.51V5.76
		h2.365v0.73h-2.365V8.97c0,0.673,0.299,0.98,0.836,0.98c0.424,0,0.77-0.134,1.193-0.577l0.297,0.683
		c-0.441,0.442-0.885,0.625-1.49,0.625c-1.057,0-1.643-0.558-1.643-1.683V6.491h-1.289V5.76z"/>
	<path fill="#FDDFEB" stroke="#FDDFEB" stroke-width="0.25" stroke-miterlimit="10" d="M185.13,8.355h-3.787
		c0.047,0.961,0.633,1.596,1.488,1.596c0.73,0,1.23-0.355,1.559-0.961l0.645,0.337c-0.529,1.019-1.299,1.355-2.201,1.355
		c-1.414,0-2.316-1.086-2.316-2.5c0-1.365,0.865-2.5,2.316-2.5c1.5,0,2.297,1.067,2.297,2.336V8.355L185.13,8.355z M181.4,7.625
		h2.873c-0.145-0.769-0.652-1.211-1.441-1.211C182.054,6.414,181.562,6.895,181.4,7.625z"/>
	<path fill="#FDDFEB" stroke="#FDDFEB" stroke-width="0.25" stroke-miterlimit="10" d="M188.64,5.683
		c0.674,0,1.211,0.327,1.48,0.692V3.799h0.809v6.806h-0.809V9.961c-0.27,0.375-0.816,0.721-1.48,0.721
		c-1.422,0-2.221-1.019-2.221-2.5S187.218,5.683,188.64,5.683z M188.718,9.951c0.924,0,1.471-0.73,1.471-1.769
		s-0.547-1.769-1.471-1.769c-0.922,0-1.471,0.73-1.471,1.769S187.796,9.951,188.718,9.951z"/>
	<path fill="#FDDFEB" stroke="#FDDFEB" stroke-width="0.25" stroke-miterlimit="10" d="M198.306,5.76h1.289V4.309l0.807-0.51V5.76
		h2.365v0.73h-2.365V8.97c0,0.673,0.299,0.98,0.836,0.98c0.424,0,0.771-0.134,1.193-0.577l0.297,0.683
		c-0.441,0.442-0.885,0.625-1.49,0.625c-1.057,0-1.643-0.558-1.643-1.683V6.491h-1.289V5.76z"/>
	<path fill="#FDDFEB" stroke="#FDDFEB" stroke-width="0.25" stroke-miterlimit="10" d="M206.615,5.683c1.48,0,2.385,1.163,2.385,2.5
		c0,1.336-0.904,2.5-2.385,2.5s-2.385-1.164-2.385-2.5C204.23,6.846,205.134,5.683,206.615,5.683z M206.615,9.951
		c0.988,0,1.557-0.836,1.557-1.769s-0.566-1.769-1.557-1.769s-1.559,0.836-1.559,1.769S205.624,9.951,206.615,9.951z"/>
</g>
</svg>
