<?xml version="1.0" encoding="utf-8"?>
<!-- Generator: Adobe Illustrator 16.0.0, SVG Export Plug-In . SVG Version: 6.00 Build 0)  -->
<!DOCTYPE svg PUBLIC "-//W3C//DTD SVG 1.1//EN" "http://www.w3.org/Graphics/SVG/1.1/DTD/svg11.dtd">
<svg version="1.1" id="Layer_1" xmlns="http://www.w3.org/2000/svg" xmlns:xlink="http://www.w3.org/1999/xlink" x="0px" y="0px"
	 width="288.351px" height="279.122px" viewBox="0 0 288.351 279.122" enable-background="new 0 0 288.351 279.122"
	 xml:space="preserve">
<g>
	<path fill="#208B50" d="M54.155,69.028l0.966-3.089l6.371-0.483L79.064,4.924c-10.621,0-16.51,4.828-23.654,16.509l-2.703-1.159
		L61.88,0c1.834,0.676,3.957,1.062,6.082,1.255c2.22,0.194,4.44,0.194,6.563,0.194h16.993c4.827,0,9.943,0,14.48-1.449
		l-0.965,21.433h-2.704c-1.159-9.076-3.475-16.219-14.096-16.509L70.761,65.456l6.662,0.483l-1.062,3.089H54.155z"/>
	<path fill="#208B50" d="M109.276,27.033l16.123-5.6c0.098,0.289,0.194,1.062,0.194,1.738c0,2.993-0.773,5.309-1.546,7.53
		l-9.46,26.646c-0.871,2.51-1.643,4.152-1.643,5.311s0.771,2.51,2.222,2.51c2.123,0,4.248-1.931,6.082-3.09l1.061,3.09
		c-3.186,2.605-6.371,5.212-10.716,5.212c-4.344,0-6.854-2.606-6.854-6.758c0-2.895,1.062-5.792,2.413-9.653l6.662-17.185
		c0.676-1.834,1.255-2.993,1.255-4.539c0-1.833-1.738-2.412-3.38-2.412c-1.062,0-2.22,0.192-3.282,0.192L109.276,27.033z
		 M131.965,5.794c0,3.282-2.606,5.792-5.792,5.792c-3.188,0-5.794-2.51-5.794-5.792c0-3.089,2.606-5.794,5.794-5.794
		C129.358,0,131.965,2.705,131.965,5.794z"/>
	<path fill="#208B50" d="M133.12,69.028l9.943-27.225c1.062-3.089,1.546-5.407,1.546-6.371c0-2.029-1.062-3.188-3.09-3.188
		c-1.255,0-3.283,0.966-4.44,2.221l-1.354-2.414l11.778-10.62c4.248,2.414,5.311,7.626,5.311,12.165
		c5.697-6.083,9.945-12.165,17.475-12.165c8.303,0,9.943,5.02,10.139,11.489c5.02-6.277,9.652-11.489,18.244-11.489
		c5.795,0,9.656,4.344,9.656,10.136c0,2.993-0.871,6.083-2.896,10.718l-5.6,13.418c-0.869,2.029-1.836,4.731-1.836,5.89
		c0,1.543,1.16,2.798,2.607,2.798c2.414,0,4.924-1.543,6.178-3.282l1.354,2.414c-2.607,2.801-7.24,6.854-12.164,6.854
		c-4.441,0-6.566-2.606-6.566-5.888c0-2.029,0.871-5.215,2.318-8.593l6.273-14.964c1.352-3.284,2.127-6.083,2.127-7.82
		c0-3.573-2.414-5.696-5.795-5.696c-5.695,0-10.812,6.66-13.805,11.103c-4.344,6.467-9.365,22.686-11.393,30.506h-9.365L170,42.672
		c1.738-4.344,2.896-7.915,2.896-10.136c0-3.861-3.088-5.116-5.502-5.116c-4.443,0-9.656,4.633-13.807,11.391
		c-5.697,9.268-8.496,19.599-10.813,30.218H133.12z"/>
	<path fill="#208B50" d="M253.982,60.727c-3.957,4.246-13.514,9.653-21.432,9.653c-10.426,0-14.578-7.241-14.578-16.798
		c0-16.219,16.605-32.149,30.41-32.149c5.119,0,10.428,2.703,10.428,8.785c0,6.951-6.18,13.516-12.646,16.317l-19.695,8.398
		c0.869,5.407,4.248,9.46,10.428,9.46c5.309,0,11.971-4.054,15.35-6.756L253.982,60.727z M236.316,46.728
		c12.357-5.116,14.289-11.682,14.289-16.123c0-3.089-2.223-5.794-5.117-5.794c-9.943,0-19.311,17.379-19.311,26.068L236.316,46.728z
		"/>
	<path fill="#208B50" d="M66.801,122.762l16.123-5.6c0.098,0.289,0.194,1.062,0.194,1.738c0,2.993-0.773,5.309-1.546,7.53
		l-9.46,26.646c-0.87,2.51-1.643,4.152-1.643,5.311c0,1.159,0.772,2.51,2.222,2.51c2.123,0,4.248-1.93,6.082-3.089l1.061,3.089
		c-3.186,2.606-6.371,5.213-10.715,5.213c-4.345,0-6.854-2.606-6.854-6.758c0-2.896,1.062-5.792,2.413-9.653l6.662-17.185
		c0.676-1.835,1.255-2.994,1.255-4.539c0-1.833-1.737-2.412-3.38-2.412c-1.062,0-2.219,0.192-3.281,0.192L66.801,122.762z
		 M89.489,101.523c0,3.281-2.606,5.792-5.792,5.792c-3.188,0-5.793-2.511-5.793-5.792c0-3.09,2.605-5.794,5.793-5.794
		C86.883,95.729,89.489,98.434,89.489,101.523z"/>
	<path fill="#208B50" d="M114.876,117.162c4.345,0,11.103,0.967,11.103,6.566c0,2.413-1.544,4.536-4.15,4.536
		c-3.38,0-5.503-3.476-6.274-6.95c-0.87-0.676-2.028-0.773-3.188-0.773c-4.44,0-7.819,3.38-7.819,7.241
		c0,9.364,16.315,12.068,16.315,22.688c0,10.62-8.593,15.64-18.245,15.64c-5.407,0-14.771-1.544-14.771-8.978
		c0-2.51,2.51-4.345,4.729-4.345c4.442,0,6.082,3.571,6.082,6.18c0,1.351,0,2.315,0.579,2.798c1.159,0.967,3.669,0.967,4.441,0.967
		c5.406,0,9.654-3.186,9.654-8.884c0-9.17-15.158-10.715-15.158-22.301C98.174,121.894,105.995,117.162,114.876,117.162z"/>
	<path fill="#208B50" d="M131.285,164.758c3.669-8.109,6.951-18.247,10.137-27.417c0.676-1.933,1.255-4.539,1.255-5.89
		c0-2.027-1.159-3.477-3.09-3.477c-1.447,0-3.957,1.449-5.116,2.608l-1.255-2.801l11.103-10.62c5.212,2.801,5.89,8.689,5.89,14
		h0.193c5.02-6.277,10.619-14,19.693-14c6.371,0,10.812,3.477,10.812,10.04c0,2.414-0.771,5.118-1.834,7.821l-7.434,19.308
		c-0.484,1.159-0.869,2.317-0.869,3.766c0,1.062,0.869,2.026,2.414,2.026c2.703,0,4.441-1.447,6.082-3.186l1.256,3.09
		c-3.283,3.188-6.373,6.082-11.199,6.082c-3.379,0-7.145-2.026-7.145-5.792c0-1.351,0.867-4.151,2.123-7.53l6.373-16.605
		c1.352-3.476,2.027-6.274,2.027-7.434c0-3.089-2.607-5.6-5.891-5.6c-5.404,0-10.908,4.345-16.701,14.48
		c-4.055,7.049-7.336,19.213-9.17,27.129H131.285z"/>
	<path fill="#208B50" d="M199.73,118.9c2.412-1.545,9.848-7.529,9.848-10.717c0-2.22-4.635-4.247-4.635-8.014
		c0-2.702,2.221-4.44,4.828-4.44c3.957,0,5.986,2.896,5.986,6.565c0,7.82-8.496,14.192-14.291,18.246L199.73,118.9z"/>
	<path fill="#208B50" d="M222.316,122.762l1.16-4.248h7.24l4.441-13.999l9.654-4.922l-6.373,18.921h8.98l-1.062,4.248h-9.27
		l-9.848,30.122c-0.385,1.255-1.062,3.09-1.062,4.633c0,1.643,1.258,2.606,2.801,2.606c2.703,0,5.793-3.281,7.242-4.537l1.158,2.993
		c-2.801,3.573-6.855,7.53-12.068,7.53c-4.73,0-7.338-2.317-7.338-6.563c0-1.835,1.643-6.277,2.027-7.532l9.365-29.252H222.316z"/>
	<path fill="#208B50" d="M0,260.489l1.061-3.089c5.214-1.159,7.049-2.027,8.688-6.662l18.635-54.258l-6.47-0.48l1.062-3.09H37.94
		l3.957,42.576l30.316-42.576h15.735L86.983,196l-6.081,0.48l-16.025,60.437l5.984,0.483l-0.965,3.089H48.851l1.061-3.089
		l5.986-0.483l15.351-55.897h-0.192l-33.212,46.244h-2.702l-4.635-46.244h-0.192l-13.903,42.093c-0.965,2.799-2.22,6.467-2.22,8.688
		c0,3.957,4.15,5.6,7.434,5.6l-1.062,3.089H0z"/>
	<path fill="#208B50" d="M102.424,261.841c-9.559,0-16.025-9.075-16.025-17.957c0-14.675,10.04-30.99,26.838-30.99
		c9.559,0,16.026,9.076,16.026,17.957C129.263,245.525,119.223,261.841,102.424,261.841z M103.1,258.463
		c12.163,0,17.957-22.881,17.957-32.439c0-3.09-0.579-9.752-8.496-9.752c-12.165,0-17.957,22.881-17.957,32.439
		C94.604,251.801,95.184,258.463,103.1,258.463z"/>
	<path fill="#208B50" d="M136.209,260.489c3.669-8.109,6.951-18.247,10.136-27.417c0.676-1.931,1.256-4.539,1.256-5.891
		c0-2.026-1.158-3.476-3.09-3.476c-1.447,0-3.957,1.449-5.116,2.608l-1.255-2.801l11.102-10.62c5.213,2.799,5.891,8.689,5.891,14
		h0.191c5.021-6.277,10.621-14,19.695-14c6.371,0,10.812,3.477,10.812,10.04c0,2.414-0.771,5.116-1.834,7.821l-7.434,19.308
		c-0.484,1.159-0.869,2.317-0.869,3.766c0,1.062,0.869,2.028,2.414,2.028c2.703,0,4.441-1.449,6.082-3.188l1.256,3.089
		c-3.283,3.186-6.373,6.083-11.201,6.083c-3.377,0-7.143-2.027-7.143-5.792c0-1.352,0.867-4.151,2.123-7.53l6.373-16.605
		c1.352-3.476,2.027-6.274,2.027-7.434c0-3.089-2.607-5.6-5.891-5.6c-5.404,0-10.908,4.345-16.701,14.48
		c-4.055,7.047-7.336,19.212-9.17,27.129H136.209z"/>
	<path fill="#208B50" d="M231.105,252.188c-3.957,4.246-13.514,9.653-21.43,9.653c-10.428,0-14.58-7.241-14.58-16.798
		c0-16.219,16.605-32.149,30.41-32.149c5.119,0,10.428,2.703,10.428,8.785c0,6.951-6.178,13.517-12.646,16.317l-19.695,8.397
		c0.869,5.407,4.248,9.463,10.428,9.463c5.309,0,11.971-4.056,15.35-6.758L231.105,252.188z M213.439,238.188
		c12.357-5.116,14.289-11.682,14.289-16.123c0-3.089-2.223-5.794-5.117-5.794c-9.943,0-19.309,17.38-19.309,26.068L213.439,238.188z
		"/>
	<path fill="#208B50" d="M247.033,218.784l14.576-5.891l0.482,1.159c0.58,1.352,0.771,2.896,0.771,4.44
		c0,2.606-0.867,5.021-1.834,7.434l-7.625,19.599c-0.387,0.868-1.547,3.958-1.547,5.407c0,2.412,1.354,4.924,4.924,4.924
		c11.779,0,19.115-28.191,20.854-36.012c0.387-1.738,0.967-3.958,1.547-5.6h9.17c-2.703,6.083-4.924,12.841-7.047,19.695
		l-5.021,15.93c-4.73,14.867-10.234,29.252-28.383,29.252c-5.986,0-11.971-2.317-11.971-6.758c0-3.186,1.641-5.021,5.117-5.021
		c3.475,0,5.115,2.801,6.082,7.725c0.191,0.771,1.543,0.676,3.09,0.676c9.557,0,15.445-14.288,17.086-22.784h-0.193
		c-3.957,4.729-7.529,8.881-14.094,8.881c-6.275,0-9.365-5.309-9.365-10.331c0-4.149,1.447-6.854,3.09-10.715l4.439-10.428
		c1.449-3.281,2.223-5.503,2.223-7.047c0-1.255-1.256-2.026-2.607-2.026c-1.062,0-2.221,0.289-3.09,0.577L247.033,218.784z"/>
</g>
</svg>
