<?xml version="1.0" encoding="utf-8"?>
<!-- Generator: Adobe Illustrator 16.0.0, SVG Export Plug-In . SVG Version: 6.00 Build 0)  -->
<!DOCTYPE svg PUBLIC "-//W3C//DTD SVG 1.1//EN" "http://www.w3.org/Graphics/SVG/1.1/DTD/svg11.dtd">
<svg version="1.1" id="Layer_1" xmlns="http://www.w3.org/2000/svg" xmlns:xlink="http://www.w3.org/1999/xlink" x="0px" y="0px"
	 width="270.522px" height="157.709px" viewBox="20.695 3.799 270.522 157.709"
	 enable-background="new 20.695 3.799 270.522 157.709" xml:space="preserve">
<g>
	<g>
		<path fill="#FDDFEB" d="M33.62,25.719l-1.27,12l18.744,1.979l-0.823,7.794l-18.744-1.981l-1.739,16.455l-9.093-0.961l4.653-44.043
			l29.384,3.105l-0.824,7.794L33.62,25.719z"/>
	</g>
	<g>
		<path fill="#FDDFEB" d="M90.484,25.659c2.938,2.188,5.062,5.092,6.366,8.711c1.307,3.62,1.709,7.802,1.208,12.544
			c-0.501,4.743-1.769,8.748-3.803,12.014c-2.034,3.268-4.717,5.663-8.047,7.188c-3.331,1.524-7.141,2.061-11.429,1.607
			c-4.29-0.453-7.902-1.774-10.841-3.96c-2.938-2.187-5.062-5.09-6.366-8.711c-1.308-3.62-1.71-7.801-1.208-12.544
			c0.501-4.742,1.77-8.747,3.805-12.014c2.032-3.267,4.715-5.663,8.046-7.188c3.33-1.524,7.141-2.06,11.43-1.606
			C83.931,22.153,87.545,23.473,90.484,25.659z M69.99,32.846c-2.322,2.444-3.729,5.997-4.224,10.656
			c-0.492,4.661,0.142,8.428,1.902,11.304c1.76,2.876,4.414,4.5,7.96,4.875s6.48-0.66,8.803-3.104
			c2.322-2.444,3.729-5.996,4.224-10.657c0.492-4.66-0.143-8.428-1.901-11.303c-1.761-2.876-4.414-4.501-7.96-4.876
			S72.312,30.402,69.99,32.846z"/>
	</g>
	<g>
		<path fill="#FDDFEB" d="M135.738,31.881c2.411,2.424,3.408,5.636,2.984,9.636c-0.282,2.682-1.248,4.894-2.891,6.637
			c-1.646,1.745-3.74,2.837-6.29,3.277l-0.014,0.123c1.507,0.744,2.649,1.75,3.435,3.022c0.782,1.271,1.543,3.343,2.283,6.215
			l3.104,12.65l-9.896-1.046l-2.421-10.827c-0.572-2.479-1.355-4.24-2.351-5.283c-0.994-1.044-2.564-1.679-4.709-1.906l-5.01-0.529
			l-1.777,16.826l-9.095-0.961l4.653-44.043l16.208,1.713C129.396,27.959,133.324,29.458,135.738,31.881z M114.728,46.612
			l6.433,0.68c5.072,0.536,7.839-1.361,8.297-5.691c0.432-4.083-2.056-6.41-7.457-6.98l-5.938-0.628L114.728,46.612z"/>
	</g>
	<g>
		<path fill="#FDDFEB" d="M157.213,38.78l-1.053,9.959l19.919,2.104l-0.816,7.732l-19.919-2.105l-1.137,10.764l21.897,2.314
			l-0.824,7.794l-30.991-3.275l4.654-44.043l30.438,3.216l-0.824,7.794L157.213,38.78z"/>
	</g>
	<g>
		<path fill="#FDDFEB" d="M183.446,78.206l4.653-44.042l9.095,0.961l-4.653,44.042L183.446,78.206z"/>
	</g>
	<g>
		<path fill="#FDDFEB" d="M238.02,42.408c2.938,2.959,4.393,6.751,4.362,11.376l-9.772-1.033c-0.184-2.23-0.935-3.987-2.257-5.274
			c-1.323-1.287-3.202-2.059-5.635-2.316c-3.549-0.375-6.496,0.681-8.843,3.163c-2.349,2.483-3.77,6.076-4.267,10.777
			c-0.511,4.825,0.099,8.727,1.827,11.703c1.729,2.977,4.347,4.649,7.854,5.021c3.176,0.336,5.701-0.304,7.58-1.919
			c1.885-1.615,3.021-4.111,3.423-7.488l-10.456-1.105l0.784-7.423l18.931,2l-2.558,24.188l-7.67-0.812l0.503-4.763l-0.124-0.014
			c-1.468,1.638-3.354,2.835-5.665,3.591c-2.311,0.758-4.91,0.982-7.798,0.678c-3.752-0.396-6.915-1.657-9.481-3.784
			c-2.569-2.127-4.426-4.971-5.57-8.533c-1.147-3.561-1.473-7.671-0.979-12.332c0.501-4.742,1.781-8.776,3.844-12.103
			c2.062-3.327,4.767-5.752,8.116-7.275c3.354-1.522,7.151-2.058,11.399-1.609C230.928,37.687,235.08,39.45,238.02,42.408z"/>
	</g>
	<g>
		<path fill="#FDDFEB" d="M273.635,87.737l-6.646-18.78c-2.435-6.971-4.474-13.316-6.119-19.036l-0.124-0.013
			c-0.39,6.839-0.896,13.229-1.524,19.167l-1.791,16.95l-8.723-0.922l4.653-44.043l12.929,1.366l6.646,18.779
			c2.435,6.972,4.474,13.318,6.121,19.038l0.124,0.012c0.391-6.839,0.896-13.229,1.525-19.167l1.79-16.949l8.722,0.922
			l-4.653,44.043L273.635,87.737z"/>
	</g>
	<g>
		<path fill="#FDDFEB" d="M44.257,149.896l-2.808,11.021l-9.562,0.592l12.598-45.155l12.292-0.763l18.073,43.258l-9.561,0.592
			l-4.083-10.592L44.257,149.896z M57.126,138.317c-2.43-6.331-4.461-11.979-6.099-16.947l-0.124,0.008
			c-1.173,5.891-2.474,11.744-3.896,17.566l-0.75,2.977l11.981-0.741L57.126,138.317z"/>
	</g>
	<g>
		<path fill="#FDDFEB" d="M85.76,121.647l0.747,12.045l18.812-1.165l0.483,7.822l-18.812,1.166l1.022,16.515l-9.126,0.566
			l-2.738-44.207l29.489-1.827l0.485,7.823L85.76,121.647z"/>
	</g>
	<g>
		<path fill="#FDDFEB" d="M122.016,119.401l0.746,12.045l18.812-1.166l0.484,7.823l-18.811,1.166l1.022,16.515l-9.128,0.565
			l-2.738-44.206l29.491-1.827l0.484,7.823L122.016,119.401z"/>
	</g>
	<g>
		<path fill="#FDDFEB" d="M155.638,142.995l-2.81,11.021l-9.562,0.593l12.598-45.154l12.293-0.764l18.075,43.256l-9.563,0.594
			l-4.082-10.594L155.638,142.995z M168.507,131.415c-2.429-6.33-4.461-11.979-6.098-16.947l-0.125,0.009
			c-1.173,5.892-2.472,11.746-3.899,17.565l-0.747,2.979l11.982-0.743L168.507,131.415z"/>
	</g>
	<g>
		<path fill="#FDDFEB" d="M190.269,151.695l-2.739-44.206l9.127-0.564l2.739,44.205L190.269,151.695z"/>
	</g>
	<g>
		<path fill="#FDDFEB" d="M235.472,107.76c2.782,1.988,4.301,4.99,4.549,9.004c0.167,2.691-0.416,5.031-1.748,7.025
			c-1.331,1.994-3.216,3.42-5.653,4.276l0.009,0.123c1.606,0.481,2.902,1.285,3.887,2.408c0.985,1.122,2.081,3.038,3.286,5.747
			l5.167,11.96l-9.935,0.614l-4.189-10.271c-0.979-2.352-2.042-3.957-3.194-4.82c-1.154-0.861-2.811-1.229-4.962-1.097l-5.027,0.312
			l1.048,16.891l-9.128,0.564l-2.738-44.207l16.267-1.008C228.568,104.946,232.692,105.771,235.472,107.76z M217.209,125.782
			l6.456-0.4c5.09-0.313,7.501-2.646,7.23-6.99c-0.255-4.102-3.094-5.979-8.515-5.646l-5.959,0.369L217.209,125.782z"/>
	</g>
	<g>
		<path fill="#FDDFEB" d="M274.461,104.815c2.986,2.286,4.63,5.811,4.925,10.57l-9.252,0.574c-0.145-2.318-0.915-4.068-2.318-5.248
			c-1.403-1.183-3.347-1.694-5.829-1.541c-2.028,0.125-3.636,0.672-4.82,1.64c-1.187,0.968-1.734,2.176-1.646,3.622
			c0.068,1.117,0.436,2.01,1.099,2.674c0.666,0.667,1.678,1.217,3.032,1.65c1.354,0.438,3.315,0.888,5.88,1.351
			c3.487,0.655,6.316,1.364,8.482,2.124c2.164,0.76,3.978,1.986,5.433,3.684c1.453,1.696,2.275,4.058,2.464,7.076
			c0.173,2.773-0.401,5.262-1.72,7.461c-1.316,2.2-3.244,3.961-5.78,5.28c-2.533,1.319-5.501,2.087-8.896,2.297
			c-5.587,0.347-10.047-0.728-13.381-3.222c-3.333-2.494-5.152-6.227-5.461-11.191l9.438-0.584c0.166,2.689,1.017,4.674,2.551,5.95
			c1.53,1.272,3.705,1.825,6.521,1.651c2.317-0.146,4.14-0.766,5.462-1.865c1.322-1.102,1.933-2.52,1.824-4.258
			c-0.077-1.241-0.447-2.205-1.112-2.893c-0.666-0.686-1.594-1.199-2.776-1.541c-1.187-0.344-3.059-0.768-5.624-1.272
			c-3.656-0.685-6.569-1.4-8.732-2.14c-2.165-0.738-3.997-1.943-5.491-3.617c-1.497-1.672-2.335-4.021-2.521-7.041
			c-0.159-2.566,0.383-4.887,1.626-6.955c1.24-2.072,3.069-3.731,5.486-4.983c2.414-1.251,5.214-1.976,8.402-2.172
			C267.224,101.554,271.471,102.527,274.461,104.815z"/>
	</g>
</g>
<g>
	<path fill="#FDDFEB" d="M80.241,7.721v2.884h-0.846V3.876h2.547c1.298,0,2,0.75,2,1.922s-0.702,1.923-2,1.923H80.241z
		 M83.068,5.798c0-0.74-0.404-1.115-1.144-1.115h-1.682v2.23h1.682C82.664,6.914,83.068,6.539,83.068,5.798z"/>
	<path fill="#FDDFEB" d="M88.972,7.298c-0.067-0.558-0.356-0.885-0.933-0.885c-0.846,0-1.644,0.798-1.644,2.442v1.75h-0.807V5.76
		h0.807v0.894c0.375-0.586,0.98-0.971,1.788-0.971c0.961,0,1.538,0.577,1.596,1.615H88.972z"/>
	<path fill="#FDDFEB" d="M91.609,5.76h2.288v4.133h1.788v0.711h-4.268V9.894h1.673V6.471h-1.48V5.76z M93.435,3.799
		c0.375,0,0.664,0.298,0.664,0.673c0,0.366-0.289,0.654-0.664,0.654c-0.365,0-0.663-0.288-0.663-0.654
		C92.772,4.097,93.07,3.799,93.435,3.799z"/>
	<path fill="#FDDFEB" d="M101.349,10.605h-0.808V7.404c0-0.673-0.317-0.99-0.894-0.99c-0.759,0-1.423,0.827-1.423,2.24v1.952h-0.807
		V5.76h0.807v0.894c0.346-0.557,0.952-0.971,1.644-0.971c1.009,0,1.48,0.615,1.48,1.548V10.605z"/>
	<path fill="#FDDFEB" d="M102.928,5.76h1.289V4.309l0.807-0.51V5.76h2.365v0.73h-2.365v2.48c0,0.673,0.298,0.98,0.836,0.98
		c0.423,0,0.769-0.134,1.192-0.577l0.298,0.683c-0.442,0.442-0.885,0.625-1.49,0.625c-1.058,0-1.644-0.558-1.644-1.683V6.491h-1.289
		V5.76z"/>
	<path fill="#FDDFEB" d="M108.89,5.76h1.288V4.309l0.808-0.51V5.76h2.365v0.73h-2.365v2.48c0,0.673,0.298,0.98,0.836,0.98
		c0.423,0,0.769-0.134,1.192-0.577l0.298,0.683c-0.442,0.442-0.885,0.625-1.49,0.625c-1.058,0-1.644-0.558-1.644-1.683V6.491h-1.288
		V5.76z"/>
	<path fill="#FDDFEB" d="M119.563,8.355h-3.788c0.048,0.961,0.635,1.596,1.49,1.596c0.73,0,1.23-0.355,1.557-0.961l0.644,0.337
		c-0.528,1.019-1.297,1.355-2.201,1.355c-1.413,0-2.317-1.086-2.317-2.5c0-1.365,0.865-2.5,2.317-2.5c1.5,0,2.297,1.067,2.297,2.336
		V8.355z M115.834,7.625h2.874c-0.144-0.769-0.654-1.211-1.442-1.211C116.487,6.414,115.997,6.895,115.834,7.625z"/>
	<path fill="#FDDFEB" d="M123.074,5.683c0.673,0,1.211,0.327,1.48,0.692V3.799h0.808v6.806h-0.808V9.961
		c-0.269,0.375-0.817,0.721-1.48,0.721c-1.423,0-2.221-1.019-2.221-2.5S121.652,5.683,123.074,5.683z M123.151,9.951
		c0.923,0,1.471-0.73,1.471-1.769c0-1.039-0.548-1.769-1.471-1.769s-1.471,0.73-1.471,1.769
		C121.68,9.221,122.228,9.951,123.151,9.951z"/>
	<path fill="#FDDFEB" d="M137.759,10.605h-0.808V7.164c0-0.529-0.153-0.74-0.528-0.74c-0.462,0-0.855,0.548-0.855,1.903v2.278
		h-0.808V7.164c0-0.529-0.154-0.74-0.529-0.74c-0.461,0-0.855,0.548-0.855,1.903v2.278h-0.807V5.76h0.807v0.615
		c0.25-0.404,0.635-0.692,1.135-0.692c0.548,0,0.865,0.308,1,0.788c0.25-0.461,0.683-0.788,1.191-0.788
		c0.597,0,1.058,0.385,1.058,1.308V10.605z"/>
	<path fill="#FDDFEB" d="M143.115,10.605h-0.653l-0.116-0.683c-0.308,0.442-0.989,0.76-1.711,0.76c-0.808,0-1.499-0.481-1.499-1.471
		c0-1.077,0.865-1.586,2.191-1.586h0.98V7.414c0-0.75-0.528-1-1.115-1c-0.567,0-0.99,0.356-1.144,0.827l-0.712-0.192
		c0.222-0.846,0.972-1.365,1.855-1.365c1.135,0,1.923,0.529,1.923,1.865V10.605z M140.76,9.951c0.625,0,1.548-0.384,1.548-1.48
		V8.317h-1.058c-0.826,0-1.288,0.346-1.288,0.894C139.962,9.672,140.279,9.951,140.76,9.951z"/>
	<path fill="#FDDFEB" d="M144.666,5.76h1.288V4.309l0.808-0.51V5.76h2.364v0.73h-2.364v2.48c0,0.673,0.298,0.98,0.836,0.98
		c0.423,0,0.77-0.134,1.192-0.577l0.298,0.683c-0.442,0.442-0.885,0.625-1.49,0.625c-1.058,0-1.644-0.558-1.644-1.683V6.491h-1.288
		V5.76z"/>
	<path fill="#FDDFEB" d="M150.629,5.76h1.288V4.309l0.808-0.51V5.76h2.364v0.73h-2.364v2.48c0,0.673,0.298,0.98,0.836,0.98
		c0.423,0,0.77-0.134,1.192-0.577l0.298,0.683c-0.442,0.442-0.885,0.625-1.49,0.625c-1.058,0-1.644-0.558-1.644-1.683V6.491h-1.288
		V5.76z"/>
	<path fill="#FDDFEB" d="M161.301,8.355h-3.787c0.048,0.961,0.634,1.596,1.489,1.596c0.731,0,1.23-0.355,1.558-0.961l0.645,0.337
		c-0.529,1.019-1.298,1.355-2.202,1.355c-1.413,0-2.316-1.086-2.316-2.5c0-1.365,0.865-2.5,2.316-2.5c1.5,0,2.298,1.067,2.298,2.336
		V8.355z M157.571,7.625h2.874c-0.145-0.769-0.653-1.211-1.442-1.211C158.224,6.414,157.734,6.895,157.571,7.625z"/>
	<path fill="#FDDFEB" d="M166.485,7.298c-0.067-0.558-0.355-0.885-0.933-0.885c-0.846,0-1.644,0.798-1.644,2.442v1.75h-0.808V5.76
		h0.808v0.894c0.375-0.586,0.98-0.971,1.788-0.971c0.961,0,1.538,0.577,1.596,1.615H166.485z"/>
	<path fill="#FDDFEB" d="M178.41,7.298c-0.067-0.558-0.355-0.885-0.933-0.885c-0.846,0-1.644,0.798-1.644,2.442v1.75h-0.808V5.76
		h0.808v0.894c0.375-0.586,0.98-0.971,1.788-0.971c0.961,0,1.538,0.577,1.596,1.615H178.41z"/>
	<path fill="#FDDFEB" d="M185.151,8.355h-3.787c0.048,0.961,0.634,1.596,1.489,1.596c0.731,0,1.23-0.355,1.558-0.961l0.645,0.337
		c-0.529,1.019-1.298,1.355-2.202,1.355c-1.413,0-2.316-1.086-2.316-2.5c0-1.365,0.865-2.5,2.316-2.5c1.5,0,2.298,1.067,2.298,2.336
		V8.355z M181.422,7.625h2.874c-0.145-0.769-0.653-1.211-1.442-1.211C182.075,6.414,181.585,6.895,181.422,7.625z"/>
	<path fill="#FDDFEB" d="M186.364,4.606v-0.73h2.144v4.902c0,0.798,0.356,1.173,1.02,1.173c0.577,0,1-0.355,1.125-1.173l0.73,0.145
		c-0.173,1.173-0.865,1.759-1.855,1.759c-1.115,0-1.826-0.683-1.826-1.904V4.606H186.364z"/>
	<path fill="#FDDFEB" d="M196.778,10.605h-0.653l-0.116-0.683c-0.308,0.442-0.989,0.76-1.711,0.76c-0.808,0-1.499-0.481-1.499-1.471
		c0-1.077,0.865-1.586,2.191-1.586h0.98V7.414c0-0.75-0.528-1-1.115-1c-0.567,0-0.99,0.356-1.144,0.827L193,7.048
		c0.222-0.846,0.972-1.365,1.855-1.365c1.135,0,1.923,0.529,1.923,1.865V10.605z M194.423,9.951c0.625,0,1.548-0.384,1.548-1.48
		V8.317h-1.058c-0.826,0-1.288,0.346-1.288,0.894C193.625,9.672,193.942,9.951,194.423,9.951z"/>
	<path fill="#FDDFEB" d="M198.328,5.76h1.288V4.309l0.808-0.51V5.76h2.364v0.73h-2.364v2.48c0,0.673,0.298,0.98,0.836,0.98
		c0.423,0,0.77-0.134,1.192-0.577l0.298,0.683c-0.442,0.442-0.885,0.625-1.49,0.625c-1.058,0-1.644-0.558-1.644-1.683V6.491h-1.288
		V5.76z"/>
	<path fill="#FDDFEB" d="M209.001,8.355h-3.787c0.048,0.961,0.634,1.596,1.489,1.596c0.731,0,1.23-0.355,1.558-0.961l0.645,0.337
		c-0.529,1.019-1.298,1.355-2.202,1.355c-1.413,0-2.316-1.086-2.316-2.5c0-1.365,0.865-2.5,2.316-2.5c1.5,0,2.298,1.067,2.298,2.336
		V8.355z M205.271,7.625h2.874c-0.145-0.769-0.653-1.211-1.442-1.211C205.925,6.414,205.434,6.895,205.271,7.625z"/>
	<path fill="#FDDFEB" d="M212.512,5.683c0.673,0,1.211,0.327,1.48,0.692V3.799h0.808v6.806h-0.808V9.961
		c-0.27,0.375-0.817,0.721-1.48,0.721c-1.423,0-2.221-1.019-2.221-2.5S211.09,5.683,212.512,5.683z M212.59,9.951
		c0.923,0,1.471-0.73,1.471-1.769c0-1.039-0.548-1.769-1.471-1.769s-1.471,0.73-1.471,1.769
		C211.119,9.221,211.667,9.951,212.59,9.951z"/>
	<path fill="#FDDFEB" d="M222.178,5.76h1.288V4.309l0.808-0.51V5.76h2.364v0.73h-2.364v2.48c0,0.673,0.298,0.98,0.836,0.98
		c0.423,0,0.77-0.134,1.192-0.577l0.298,0.683c-0.442,0.442-0.885,0.625-1.49,0.625c-1.058,0-1.644-0.558-1.644-1.683V6.491h-1.288
		V5.76z"/>
	<path fill="#FDDFEB" d="M230.486,5.683c1.48,0,2.384,1.163,2.384,2.5c0,1.336-0.903,2.5-2.384,2.5s-2.385-1.164-2.385-2.5
		C228.101,6.846,229.006,5.683,230.486,5.683z M230.486,9.951c0.989,0,1.557-0.836,1.557-1.769c0-0.933-0.567-1.769-1.557-1.769
		c-0.99,0-1.558,0.836-1.558,1.769C228.928,9.115,229.496,9.951,230.486,9.951z"/>
</g>
</svg>
