<?xml version="1.0" encoding="utf-8"?>
<!-- Generator: Adobe Illustrator 16.0.0, SVG Export Plug-In . SVG Version: 6.00 Build 0)  -->
<!DOCTYPE svg PUBLIC "-//W3C//DTD SVG 1.1//EN" "http://www.w3.org/Graphics/SVG/1.1/DTD/svg11.dtd">
<svg version="1.1" id="Layer_1" xmlns="http://www.w3.org/2000/svg" xmlns:xlink="http://www.w3.org/1999/xlink" x="0px" y="0px"
	 width="270.522px" height="144.544px" viewBox="10.856 16.963 270.522 144.544"
	 enable-background="new 10.856 16.963 270.522 144.544" xml:space="preserve">
<g>
	<path fill="#FDDFEB" d="M23.78,25.719l-1.269,12l18.744,1.98l-0.824,7.794l-18.744-1.981l-1.739,16.455l-9.093-0.961l4.654-44.043
		l29.383,3.105l-0.824,7.794L23.78,25.719z"/>
	<path fill="#FDDFEB" d="M80.644,25.659c2.938,2.188,5.061,5.092,6.367,8.711c1.306,3.62,1.709,7.802,1.208,12.544
		c-0.501,4.743-1.769,8.748-3.803,12.014c-2.034,3.268-4.717,5.663-8.047,7.188c-3.331,1.524-7.14,2.061-11.428,1.607
		c-4.29-0.453-7.903-1.774-10.841-3.96c-2.938-2.187-5.061-5.09-6.366-8.711c-1.307-3.62-1.71-7.801-1.208-12.544
		c0.501-4.742,1.769-8.747,3.804-12.014c2.033-3.267,4.715-5.663,8.046-7.188c3.33-1.524,7.14-2.06,11.429-1.606
		C74.092,22.153,77.705,23.473,80.644,25.659z M60.15,32.846c-2.323,2.444-3.73,5.997-4.223,10.656
		c-0.493,4.661,0.141,8.428,1.902,11.304c1.76,2.876,4.414,4.5,7.96,4.875c3.546,0.375,6.481-0.66,8.803-3.104
		c2.322-2.444,3.73-5.996,4.223-10.657c0.492-4.66-0.142-8.428-1.902-11.303c-1.76-2.876-4.414-4.501-7.96-4.876
		C65.407,29.366,62.472,30.402,60.15,32.846z"/>
	<path fill="#FDDFEB" d="M125.898,31.881c2.411,2.424,3.408,5.636,2.985,9.636c-0.283,2.682-1.248,4.894-2.891,6.637
		c-1.645,1.745-3.74,2.837-6.29,3.277l-0.013,0.123c1.507,0.744,2.65,1.75,3.434,3.022c0.783,1.271,1.543,3.343,2.284,6.215
		l3.103,12.65l-9.896-1.046l-2.421-10.827c-0.573-2.479-1.356-4.24-2.35-5.283c-0.995-1.044-2.565-1.679-4.709-1.906l-5.01-0.529
		l-1.778,16.826l-9.094-0.961l4.654-44.043l16.208,1.713C119.556,27.959,123.484,29.458,125.898,31.881z M104.888,46.612l6.433,0.68
		c5.072,0.536,7.838-1.361,8.296-5.691c0.432-4.083-2.055-6.41-7.457-6.98l-5.938-0.628L104.888,46.612z"/>
	<path fill="#FDDFEB" d="M147.373,38.78l-1.052,9.959l19.919,2.105l-0.817,7.732l-19.919-2.105l-1.137,10.764l21.898,2.314
		l-0.824,7.794l-30.992-3.275l4.655-44.043l30.437,3.216l-0.824,7.794L147.373,38.78z"/>
	<path fill="#FDDFEB" d="M173.606,78.206l4.654-44.043l9.094,0.961L182.7,79.167L173.606,78.206z"/>
	<path fill="#FDDFEB" d="M228.18,42.408c2.939,2.959,4.393,6.751,4.363,11.376l-9.773-1.033c-0.183-2.23-0.934-3.987-2.257-5.274
		c-1.323-1.287-3.202-2.059-5.634-2.316c-3.549-0.375-6.496,0.681-8.843,3.163c-2.348,2.483-3.769,6.076-4.266,10.777
		c-0.51,4.825,0.098,8.727,1.827,11.703c1.729,2.977,4.347,4.65,7.853,5.021c3.176,0.336,5.702-0.304,7.581-1.919
		c1.884-1.615,3.021-4.111,3.422-7.488l-10.456-1.105l0.785-7.423l18.93,2l-2.557,24.188l-7.67-0.811l0.503-4.763l-0.124-0.013
		c-1.468,1.638-3.355,2.835-5.665,3.592c-2.311,0.757-4.911,0.982-7.798,0.677c-3.752-0.396-6.915-1.658-9.482-3.785
		c-2.57-2.127-4.426-4.971-5.571-8.533c-1.148-3.561-1.472-7.671-0.979-12.332c0.501-4.742,1.782-8.776,3.844-12.103
		c2.061-3.327,4.766-5.752,8.116-7.275c3.353-1.522,7.152-2.058,11.4-1.609C221.089,37.687,225.24,39.45,228.18,42.408z"/>
	<path fill="#FDDFEB" d="M263.796,87.737l-6.647-18.78c-2.434-6.971-4.473-13.316-6.119-19.036l-0.124-0.013
		c-0.39,6.839-0.897,13.229-1.525,19.167l-1.791,16.95l-8.723-0.922l4.654-44.043l12.928,1.366l6.647,18.779
		c2.434,6.972,4.473,13.318,6.121,19.037l0.124,0.013c0.39-6.84,0.897-13.229,1.525-19.167l1.791-16.949l8.721,0.922l-4.654,44.043
		L263.796,87.737z"/>
	<path fill="#FDDFEB" d="M34.417,149.896l-2.807,11.02l-9.562,0.592l12.597-45.156l12.292-0.762l18.074,43.257l-9.561,0.592
		l-4.083-10.592L34.417,149.896z M47.286,138.317c-2.429-6.331-4.461-11.979-6.098-16.948l-0.124,0.008
		c-1.173,5.89-2.473,11.745-3.897,17.567l-0.75,2.976l11.982-0.742L47.286,138.317z"/>
	<path fill="#FDDFEB" d="M75.92,121.647l0.747,12.045l18.812-1.165l0.484,7.822l-18.812,1.166l1.023,16.515l-9.126,0.566
		l-2.739-44.207l29.49-1.827l0.485,7.823L75.92,121.647z"/>
	<path fill="#FDDFEB" d="M112.177,119.401l0.746,12.045l18.811-1.166l0.485,7.823l-18.811,1.166l1.023,16.515l-9.127,0.565
		l-2.739-44.206l29.491-1.827l0.485,7.823L112.177,119.401z"/>
	<path fill="#FDDFEB" d="M145.799,142.995l-2.809,11.019l-9.561,0.593l12.597-45.156l12.293-0.762l18.075,43.256l-9.564,0.593
		l-4.082-10.593L145.799,142.995z M158.667,131.415c-2.428-6.33-4.461-11.979-6.097-16.948l-0.125,0.008
		c-1.173,5.891-2.472,11.746-3.9,17.567l-0.747,2.977l11.983-0.743L158.667,131.415z"/>
	<path fill="#FDDFEB" d="M180.429,151.695l-2.739-44.206l9.127-0.565l2.739,44.206L180.429,151.695z"/>
	<path fill="#FDDFEB" d="M225.633,107.76c2.782,1.988,4.3,4.99,4.548,9.004c0.167,2.692-0.416,5.031-1.748,7.026
		c-1.331,1.994-3.215,3.42-5.653,4.277l0.008,0.123c1.607,0.483,2.903,1.285,3.887,2.408s2.081,3.039,3.286,5.747l5.167,11.96
		l-9.934,0.615l-4.19-10.272c-0.978-2.351-2.042-3.957-3.195-4.821c-1.154-0.862-2.81-1.229-4.962-1.096l-5.027,0.312l1.047,16.89
		l-9.127,0.565l-2.739-44.206l16.266-1.008C218.728,104.946,222.852,105.771,225.633,107.76z M207.369,125.781l6.456-0.399
		c5.09-0.315,7.501-2.647,7.231-6.992c-0.254-4.1-3.093-5.98-8.514-5.645l-5.959,0.369L207.369,125.781z"/>
	<path fill="#FDDFEB" d="M264.621,104.815c2.987,2.286,4.63,5.811,4.925,10.571l-9.252,0.573c-0.144-2.318-0.915-4.068-2.319-5.248
		c-1.403-1.181-3.346-1.694-5.829-1.541c-2.029,0.126-3.635,0.672-4.821,1.64s-1.734,2.176-1.645,3.622
		c0.069,1.117,0.436,2.01,1.099,2.674c0.666,0.667,1.677,1.217,3.032,1.651c1.355,0.437,3.316,0.887,5.88,1.35
		c3.488,0.655,6.317,1.364,8.483,2.124c2.164,0.759,3.977,1.986,5.432,3.683c1.453,1.697,2.276,4.057,2.464,7.076
		c0.172,2.774-0.402,5.262-1.72,7.461c-1.317,2.201-3.244,3.962-5.78,5.281c-2.534,1.319-5.501,2.087-8.895,2.297
		c-5.587,0.346-10.047-0.728-13.381-3.222c-3.333-2.494-5.153-6.227-5.461-11.191l9.438-0.585c0.166,2.69,1.016,4.675,2.551,5.951
		c1.53,1.273,3.705,1.825,6.521,1.651c2.317-0.145,4.139-0.766,5.462-1.865c1.322-1.102,1.932-2.519,1.824-4.258
		c-0.077-1.241-0.448-2.205-1.113-2.892c-0.666-0.685-1.593-1.199-2.776-1.542c-1.186-0.342-3.059-0.766-5.624-1.272
		c-3.657-0.685-6.57-1.4-8.733-2.14c-2.165-0.738-3.997-1.943-5.492-3.616c-1.497-1.673-2.335-4.02-2.522-7.041
		c-0.159-2.567,0.383-4.887,1.626-6.956c1.241-2.072,3.07-3.731,5.487-4.983c2.414-1.251,5.214-1.975,8.403-2.172
		C257.385,101.554,261.632,102.527,264.621,104.815z"/>
</g>
</svg>
