<?xml version="1.0" encoding="utf-8"?>
<!-- Generator: Adobe Illustrator 16.0.0, SVG Export Plug-In . SVG Version: 6.00 Build 0)  -->
<!DOCTYPE svg PUBLIC "-//W3C//DTD SVG 1.1//EN" "http://www.w3.org/Graphics/SVG/1.1/DTD/svg11.dtd">
<svg version="1.1" id="Layer_1" xmlns="http://www.w3.org/2000/svg" xmlns:xlink="http://www.w3.org/1999/xlink" x="0px" y="0px"
	 width="255.761px" height="148.712px" viewBox="9.93 0.986 255.761 148.712" enable-background="new 9.93 0.986 255.761 148.712"
	 xml:space="preserve">
<g>
	<path fill="#FDDFEB" d="M9.93,73.96V21.021h32.928v8.438H18.89v14.858h21.504v8.288H18.89V73.96H9.93z"/>
	<path fill="#FDDFEB" d="M84.677,55.742c0,11.199-7.99,19.338-18.893,19.338c-10.826,0-18.816-8.139-18.816-19.338
		c0-11.126,7.99-19.265,18.816-19.265C76.687,36.477,84.677,44.616,84.677,55.742z M75.941,55.742
		c0-7.542-4.779-11.425-10.156-11.425c-5.3,0-10.154,3.883-10.154,11.425c0,7.54,4.854,11.573,10.154,11.573
		C71.161,67.315,75.941,63.357,75.941,55.742z"/>
	<path fill="#FDDFEB" d="M115.817,46.185c-0.969-0.149-1.94-0.224-2.836-0.224c-6.72,0-9.782,3.882-9.782,10.677V73.96h-8.661
		V37.597h8.438v5.824c1.718-3.957,5.75-6.272,10.528-6.272c1.045,0,1.941,0.149,2.313,0.224V46.185z"/>
	<path fill="#FDDFEB" d="M156.366,63.581c-1.942,6.349-7.689,11.5-16.427,11.5c-9.855,0-18.591-7.167-18.591-19.488
		c0-11.5,8.511-19.115,17.695-19.115c11.2,0,17.772,7.392,17.772,18.892c0,1.418-0.15,2.613-0.226,2.762h-26.582
		c0.226,5.525,4.557,9.483,9.932,9.483c5.227,0,7.915-2.764,9.109-6.347L156.366,63.581z M148.079,51.784
		c-0.15-4.256-2.988-8.064-8.961-8.064c-5.45,0-8.586,4.182-8.885,8.064H148.079z"/>
	<path fill="#FDDFEB" d="M170.855,19.154c3.137,0,5.676,2.539,5.676,5.675c0,3.135-2.539,5.6-5.676,5.6
		c-3.06,0-5.599-2.464-5.599-5.6C165.257,21.693,167.796,19.154,170.855,19.154z M166.6,73.96V37.597h8.587V73.96H166.6z"/>
	<path fill="#FDDFEB" d="M193.26,73.885c0.598,4.481,4.104,7.841,9.108,7.841c6.869,0,10.305-3.508,10.305-10.902v-3.808
		c-1.569,2.838-5.228,5.302-10.527,5.302c-9.708,0-16.803-7.468-16.803-17.697c0-9.707,6.797-17.696,16.803-17.696
		c5.673,0,9.184,2.315,10.753,5.301v-4.629h8.36v32.929c0,9.707-5.003,18.741-18.666,18.741c-9.632,0-16.354-5.973-17.325-13.291
		L193.26,73.885z M212.898,54.622c0-6.198-3.959-10.23-9.335-10.23c-5.526,0-9.482,4.032-9.482,10.23
		c0,6.347,3.807,10.303,9.482,10.303C209.088,64.925,212.898,60.894,212.898,54.622z"/>
	<path fill="#FDDFEB" d="M242.02,73.96h-8.662V37.597h8.438v4.853c2.389-4.181,6.721-5.898,10.752-5.898
		c8.885,0,13.143,6.421,13.143,14.411V73.96h-8.662V52.456c0-4.479-2.016-8.064-7.468-8.064c-4.927,0-7.541,3.809-7.541,8.588V73.96
		z"/>
	<path fill="#FDDFEB" d="M58.242,135.287h-22.4l-4.928,13.291h-9.482L42.04,95.636h10.377l20.609,52.941h-9.781L58.242,135.287z
		 M38.977,126.998h16.128l-8.065-21.654L38.977,126.998z"/>
	<path fill="#FDDFEB" d="M115.518,107.435v4.779h8.438v7.541h-8.438v28.822h-8.737v-28.822H91.625v28.822h-8.738v-28.822h-6.346
		v-7.541h6.346v-5.004c0-8.139,5.227-13.066,12.694-13.066c2.165,0,3.958,0.447,4.555,0.746v7.395
		c-0.522-0.15-1.494-0.373-3.137-0.373c-2.24,0-5.375,1.045-5.375,5.523v4.779h15.156v-5.004c0-8.139,5.228-13.066,12.695-13.066
		c2.165,0,3.957,0.447,4.556,0.746v7.395c-0.523-0.15-1.495-0.373-3.138-0.373C118.655,101.912,115.518,102.957,115.518,107.435z"/>
	<path fill="#FDDFEB" d="M141.135,127.746l9.333-1.42c2.091-0.299,2.688-1.344,2.688-2.613c0-3.061-2.092-5.525-6.868-5.525
		c-4.557,0-7.097,2.914-7.47,6.57l-7.915-1.793c0.673-6.27,6.349-11.869,15.309-11.869c11.202,0,15.456,6.346,15.456,13.588v18.068
		c0,3.287,0.373,5.453,0.449,5.826h-8.064c-0.074-0.225-0.373-1.717-0.373-4.631c-1.719,2.764-5.304,5.752-11.201,5.752
		c-7.616,0-12.321-5.229-12.321-10.977C130.158,132.224,134.938,128.642,141.135,127.746z M153.157,133.494v-1.643l-9.483,1.42
		c-2.688,0.447-4.854,1.941-4.854,4.928c0,2.465,1.868,4.703,5.303,4.703C148.974,142.902,153.157,140.589,153.157,133.494z"/>
	<path fill="#FDDFEB" d="M177.877,93.769c3.136,0,5.675,2.541,5.675,5.678c0,3.135-2.539,5.6-5.675,5.6c-3.061,0-5.6-2.465-5.6-5.6
		C172.277,96.31,174.816,93.769,177.877,93.769z M173.621,148.578v-36.363h8.587v36.363H173.621z"/>
	<path fill="#FDDFEB" d="M216.183,120.8c-0.972-0.148-1.941-0.223-2.838-0.223c-6.72,0-9.782,3.881-9.782,10.678v17.322h-8.661
		v-36.363h8.438v5.824c1.718-3.959,5.751-6.273,10.528-6.273c1.046,0,1.941,0.15,2.315,0.227V120.8z"/>
	<path fill="#FDDFEB" d="M229.326,136.63c0.299,3.287,2.764,6.195,7.392,6.195c3.585,0,5.452-1.939,5.452-4.18
		c0-1.941-1.344-3.434-4.258-4.031l-5.374-1.195c-6.422-1.42-9.782-5.6-9.782-10.604c0-6.346,5.823-11.721,13.364-11.721
		c10.154,0,13.441,6.57,14.039,10.154l-7.317,2.09c-0.299-2.09-1.866-5.451-6.722-5.451c-3.06,0-5.227,1.941-5.227,4.184
		c0,1.938,1.42,3.357,3.66,3.807l5.525,1.119c6.868,1.494,10.453,5.674,10.453,11.051c0,5.525-4.481,11.65-13.74,11.65
		c-10.525,0-14.559-6.873-15.007-10.977L229.326,136.63z"/>
</g>
<g>
	<path fill="#FDDFEB" d="M81.726,3.795v1.74h-0.755V1.081h1.652c0.855,0,1.42,0.577,1.42,1.356c0,0.786-0.565,1.357-1.42,1.357
		H81.726z M82.51,3.129c0.479,0,0.767-0.264,0.767-0.685c0-0.427-0.288-0.698-0.767-0.698h-0.784v1.383H82.51z"/>
	<path fill="#FDDFEB" d="M86.932,3.776H86.38v1.759h-0.761V1.081h1.709c0.86,0,1.394,0.596,1.394,1.351
		c0,0.634-0.383,1.118-1.004,1.269l1.004,1.834h-0.854L86.932,3.776z M87.19,3.11c0.464,0,0.765-0.27,0.765-0.678
		c0-0.415-0.301-0.686-0.765-0.686h-0.81V3.11H87.19z"/>
	<path fill="#FDDFEB" d="M90.404,5.535V1.081h0.767v4.454H90.404z"/>
	<path fill="#FDDFEB" d="M96.069,5.535L93.87,2.162v3.374h-0.754V1.081h0.961l2.022,3.16v-3.16h0.755v4.454H96.069z"/>
	<path fill="#FDDFEB" d="M100.546,1.79v3.745h-0.754V1.79h-1.444V1.081h3.65V1.79H100.546z"/>
	<path fill="#FDDFEB" d="M103.49,5.535V1.081h2.752v0.703h-1.998v1.182h1.809V3.65h-1.809v1.181h1.998v0.704H103.49z"/>
	<path fill="#FDDFEB" d="M108.024,5.535V1.081h1.577c1.212,0,2.167,0.804,2.167,2.236c0,1.426-0.968,2.218-2.173,2.218H108.024z
		 M109.57,4.844c0.771,0,1.413-0.496,1.413-1.526c0-1.043-0.635-1.546-1.407-1.546h-0.798v3.072H109.57z"/>
	<path fill="#FDDFEB" d="M120.026,5.535v-3.28l-1.388,3.28h-0.654l-1.377-3.267v3.267h-0.734V1.081h1.005l1.446,3.398l1.426-3.398
		h1.025v4.454H120.026z"/>
	<path fill="#FDDFEB" d="M125.345,4.417h-1.884l-0.416,1.119h-0.799l1.735-4.454h0.873l1.733,4.454h-0.82L125.345,4.417z
		 M123.722,3.719h1.359l-0.679-1.822L123.722,3.719z"/>
	<path fill="#FDDFEB" d="M129.401,1.79v3.745h-0.754V1.79h-1.444V1.081h3.65V1.79H129.401z"/>
	<path fill="#FDDFEB" d="M134.216,1.79v3.745h-0.754V1.79h-1.444V1.081h3.649V1.79H134.216z"/>
	<path fill="#FDDFEB" d="M137.161,5.535V1.081h2.753v0.703h-1.998v1.182h1.81V3.65h-1.81v1.181h1.998v0.704H137.161z"/>
	<path fill="#FDDFEB" d="M143.01,3.776h-0.553v1.759h-0.762V1.081h1.709c0.86,0,1.396,0.596,1.396,1.351
		c0,0.634-0.385,1.118-1.007,1.269l1.007,1.834h-0.854L143.01,3.776z M143.265,3.11c0.466,0,0.768-0.27,0.768-0.678
		c0-0.415-0.302-0.686-0.768-0.686h-0.809V3.11H143.265z"/>
	<path fill="#FDDFEB" d="M150.229,3.776h-0.553v1.759h-0.759V1.081h1.706c0.861,0,1.396,0.596,1.396,1.351
		c0,0.634-0.384,1.118-1.004,1.269l1.004,1.834h-0.855L150.229,3.776z M150.488,3.11c0.463,0,0.764-0.27,0.764-0.678
		c0-0.415-0.301-0.686-0.764-0.686h-0.812V3.11H150.488z"/>
	<path fill="#FDDFEB" d="M153.702,5.535V1.081h2.751v0.703h-1.997v1.182h1.808V3.65h-1.808v1.181h1.997v0.704H153.702z"/>
	<path fill="#FDDFEB" d="M158.235,5.535V1.081h0.755v3.737h2.041v0.717H158.235z"/>
	<path fill="#FDDFEB" d="M165.308,4.417h-1.885l-0.415,1.119h-0.8l1.736-4.454h0.873l1.732,4.454h-0.822L165.308,4.417z
		 M163.684,3.719h1.36l-0.68-1.822L163.684,3.719z"/>
	<path fill="#FDDFEB" d="M169.364,1.79v3.745h-0.755V1.79h-1.444V1.081h3.649V1.79H169.364z"/>
	<path fill="#FDDFEB" d="M172.309,5.535V1.081h2.751v0.703h-1.997v1.182h1.809V3.65h-1.809v1.181h1.997v0.704H172.309z"/>
	<path fill="#FDDFEB" d="M176.844,5.535V1.081h1.575c1.212,0,2.168,0.804,2.168,2.236c0,1.426-0.968,2.218-2.174,2.218H176.844z
		 M178.388,4.844c0.771,0,1.411-0.496,1.411-1.526c0-1.043-0.634-1.546-1.405-1.546h-0.798v3.072H178.388z"/>
	<path fill="#FDDFEB" d="M186.437,1.79v3.745h-0.754V1.79h-1.444V1.081h3.65V1.79H186.437z"/>
	<path fill="#FDDFEB" d="M191.235,0.986c1.169,0,2.268,0.861,2.268,2.318c0,1.464-1.099,2.324-2.268,2.324
		c-1.168,0-2.262-0.86-2.262-2.324C188.973,1.847,190.067,0.986,191.235,0.986z M191.235,4.913c0.754,0,1.496-0.534,1.496-1.608
		s-0.742-1.608-1.496-1.608c-0.747,0-1.489,0.534-1.489,1.608S190.488,4.913,191.235,4.913z"/>
</g>
</svg>
