<?xml version="1.0" encoding="utf-8"?>
<!-- Generator: Adobe Illustrator 16.0.0, SVG Export Plug-In . SVG Version: 6.00 Build 0)  -->
<!DOCTYPE svg PUBLIC "-//W3C//DTD SVG 1.1//EN" "http://www.w3.org/Graphics/SVG/1.1/DTD/svg11.dtd">
<svg version="1.1" id="Layer_1" xmlns="http://www.w3.org/2000/svg" xmlns:xlink="http://www.w3.org/1999/xlink" x="0px" y="0px"
	 width="251.209px" height="146.059px" viewBox="298.918 -5.414 251.209 146.059"
	 enable-background="new 298.918 -5.414 251.209 146.059" xml:space="preserve">
<g>
	<path fill="#7171FF" d="M298.918,66.258V14.254h32.349v8.289H307.72v14.597h21.125v8.142H307.72v20.978L298.918,66.258
		L298.918,66.258z"/>
	<path fill="#7171FF" d="M372.34,48.361c0,11.002-7.848,18.997-18.557,18.997c-10.637,0-18.484-7.995-18.484-18.997
		c0-10.929,7.849-18.924,18.484-18.924C364.493,29.437,372.34,37.432,372.34,48.361z M363.758,48.361
		c0-7.408-4.694-11.223-9.975-11.223c-5.209,0-9.977,3.813-9.977,11.223s4.768,11.369,9.977,11.369
		C359.063,59.73,363.758,55.843,363.758,48.361z"/>
	<path fill="#7171FF" d="M402.924,38.972c-0.953-0.147-1.906-0.221-2.787-0.221c-6.602,0-9.608,3.814-9.608,10.489v17.017h-8.509
		V30.537h8.289v5.722c1.688-3.888,5.646-6.161,10.342-6.161c1.027,0,1.906,0.146,2.273,0.22V38.972L402.924,38.972z"/>
	<path fill="#7171FF" d="M442.75,56.063c-1.908,6.233-7.555,11.295-16.137,11.295c-9.684,0-18.266-7.042-18.266-19.145
		c0-11.295,8.363-18.776,17.385-18.776c11.002,0,17.457,7.262,17.457,18.558c0,1.395-0.146,2.567-0.221,2.714h-26.111
		c0.221,5.429,4.475,9.315,9.756,9.315c5.135,0,7.773-2.714,8.949-6.234L442.75,56.063z M434.608,44.473
		c-0.146-4.182-2.934-7.923-8.803-7.923c-5.354,0-8.434,4.108-8.729,7.923H434.608z"/>
	<path fill="#7171FF" d="M456.977,12.42c3.08,0,5.574,2.494,5.574,5.575s-2.494,5.501-5.574,5.501c-3.008,0-5.502-2.42-5.502-5.501
		S453.969,12.42,456.977,12.42z M452.797,66.258V30.537h8.436v35.721H452.797z"/>
	<path fill="#7171FF" d="M478.981,66.185c0.588,4.4,4.033,7.702,8.947,7.702c6.748,0,10.123-3.448,10.123-10.71v-3.74
		c-1.541,2.787-5.135,5.208-10.342,5.208c-9.535,0-16.504-7.335-16.504-17.385c0-9.534,6.674-17.384,16.504-17.384
		c5.574,0,9.021,2.274,10.562,5.208v-4.548h8.215v32.347c0,9.535-4.914,18.411-18.338,18.411c-9.463,0-16.062-5.869-17.018-13.057
		L478.981,66.185z M498.272,47.26c0-6.088-3.889-10.049-9.17-10.049c-5.428,0-9.314,3.961-9.314,10.049
		c0,6.235,3.742,10.123,9.314,10.123C494.532,57.383,498.272,53.422,498.272,47.26z"/>
	<path fill="#7171FF" d="M526.875,66.258h-8.51V30.537h8.289v4.769c2.348-4.108,6.602-5.796,10.562-5.796
		c8.729,0,12.91,6.309,12.91,14.157v22.591h-8.51V45.134c0-4.4-1.98-7.922-7.334-7.922c-4.842,0-7.408,3.741-7.408,8.437V66.258z"/>
	<path fill="#7171FF" d="M346.375,126.489h-22.004l-4.842,13.057h-9.314l20.244-52.006h10.194l20.245,52.006h-9.609L346.375,126.489
		z M327.452,118.346h15.844l-7.922-21.271L327.452,118.346z"/>
	<path fill="#7171FF" d="M402.631,99.129v4.695h8.289v7.408h-8.289v28.312h-8.582v-28.312h-14.889v28.312h-8.582v-28.312h-6.234
		v-7.408h6.234v-4.916c0-7.994,5.135-12.836,12.469-12.836c2.127,0,3.889,0.441,4.475,0.734v7.262
		c-0.514-0.146-1.467-0.367-3.08-0.367c-2.199,0-5.281,1.027-5.281,5.428v4.695h14.891v-4.916c0-7.994,5.135-12.836,12.471-12.836
		c2.127,0,3.887,0.441,4.473,0.734v7.262c-0.512-0.146-1.467-0.367-3.08-0.367C405.713,93.701,402.631,94.729,402.631,99.129z"/>
	<path fill="#7171FF" d="M427.788,119.08l9.17-1.395c2.053-0.293,2.641-1.32,2.641-2.566c0-3.008-2.055-5.428-6.748-5.428
		c-4.475,0-6.969,2.86-7.336,6.455l-7.773-1.763c0.66-6.159,6.232-11.661,15.035-11.661c11.004,0,15.184,6.233,15.184,13.35v17.75
		c0,3.229,0.367,5.354,0.441,5.723h-7.922c-0.074-0.221-0.367-1.688-0.367-4.549c-1.688,2.715-5.207,5.648-11.002,5.648
		c-7.482,0-12.104-5.136-12.104-10.781C417.006,123.481,421.7,119.961,427.788,119.08z M439.596,124.729v-1.613l-9.314,1.393
		c-2.641,0.439-4.768,1.906-4.768,4.843c0,2.42,1.832,4.621,5.207,4.621C435.489,133.971,439.596,131.696,439.596,124.729z"/>
	<path fill="#7171FF" d="M463.874,85.707c3.08,0,5.574,2.492,5.574,5.574c0,3.08-2.494,5.5-5.574,5.5c-3.008,0-5.502-2.42-5.502-5.5
		C458.372,88.199,460.866,85.707,463.874,85.707z M459.692,139.545v-35.721h8.436v35.721H459.692z"/>
	<path fill="#7171FF" d="M501.5,112.258c-0.953-0.146-1.906-0.219-2.787-0.219c-6.602,0-9.607,3.814-9.607,10.488v17.018h-8.51
		v-35.721h8.289v5.721c1.688-3.889,5.646-6.162,10.342-6.162c1.027,0,1.906,0.146,2.273,0.222V112.258L501.5,112.258z"/>
	<path fill="#7171FF" d="M514.407,127.809c0.293,3.227,2.715,6.088,7.262,6.088c3.521,0,5.354-1.906,5.354-4.107
		c0-1.906-1.32-3.375-4.182-3.961l-5.281-1.174c-6.307-1.393-9.607-5.5-9.607-10.416c0-6.234,5.721-11.516,13.129-11.516
		c9.977,0,13.203,6.455,13.791,9.977l-7.189,2.053c-0.293-2.053-1.832-5.354-6.602-5.354c-3.006,0-5.133,1.906-5.133,4.106
		c0,1.906,1.393,3.302,3.594,3.74l5.428,1.101c6.748,1.469,10.27,5.575,10.27,10.856c0,5.428-4.4,11.441-13.496,11.441
		c-10.342,0-14.305-6.748-14.742-10.781L514.407,127.809z"/>
</g>
<g>
	<path fill="#7171FF" d="M368.774-3.13c0-1.424,1.066-2.281,2.201-2.281c1.109,0,1.77,0.654,1.966,1.418l-0.696,0.234
		c-0.129-0.53-0.535-0.956-1.27-0.956c-0.723,0-1.441,0.524-1.441,1.584c0,1.023,0.701,1.565,1.447,1.565
		c0.732,0,1.152-0.469,1.301-0.961l0.678,0.222c-0.196,0.739-0.861,1.448-1.979,1.448C369.803-0.856,368.774-1.706,368.774-3.13z"/>
	<path fill="#7171FF" d="M376.483-5.411c1.146,0,2.225,0.846,2.225,2.275c0,1.437-1.078,2.281-2.225,2.281s-2.22-0.845-2.22-2.281
		C374.263-4.567,375.336-5.411,376.483-5.411z M376.483-1.558c0.739,0,1.467-0.524,1.467-1.578s-0.728-1.578-1.467-1.578
		c-0.734,0-1.461,0.524-1.461,1.578S375.749-1.558,376.483-1.558z"/>
	<path fill="#7171FF" d="M383.254-0.948l-2.157-3.311v3.311h-0.739v-4.37h0.941l1.986,3.101v-3.101h0.738v4.37H383.254z"/>
	<path fill="#7171FF" d="M388.725-5.319h0.783l-1.652,4.37h-0.752l-1.628-4.37h0.802l1.221,3.402L388.725-5.319z"/>
	<path fill="#7171FF" d="M390.959-0.948v-4.37h2.699v0.689H391.7v1.159h1.774v0.672H391.7v1.159h1.959v0.689L390.959-0.948
		L390.959-0.948z"/>
	<path fill="#7171FF" d="M396.702-2.674h-0.543v1.726h-0.746v-4.37h1.678c0.844,0,1.367,0.585,1.367,1.324
		c0,0.623-0.375,1.099-0.986,1.245l0.986,1.8h-0.838L396.702-2.674z M396.954-3.327c0.457,0,0.752-0.265,0.752-0.666
		c0-0.406-0.295-0.672-0.752-0.672h-0.795v1.338H396.954z"/>
	<path fill="#7171FF" d="M402.319-4.086c-0.043-0.271-0.271-0.672-0.855-0.672c-0.445,0-0.752,0.296-0.752,0.628
		c0,0.278,0.172,0.487,0.512,0.562l0.629,0.129c0.771,0.153,1.184,0.642,1.184,1.258c0,0.678-0.549,1.325-1.547,1.325
		c-1.109,0-1.621-0.716-1.689-1.345l0.691-0.196c0.043,0.456,0.369,0.875,0.998,0.875c0.523,0,0.795-0.266,0.795-0.604
		c0-0.284-0.209-0.512-0.586-0.592l-0.615-0.13c-0.666-0.135-1.111-0.573-1.111-1.228c0-0.732,0.672-1.338,1.486-1.338
		c1.029,0,1.43,0.629,1.529,1.116L402.319-4.086z"/>
	<path fill="#7171FF" d="M407.184-2.045h-1.85l-0.406,1.097h-0.781l1.699-4.37h0.857l1.701,4.37h-0.809L407.184-2.045z
		 M405.594-2.73h1.332l-0.666-1.788L405.594-2.73z"/>
	<path fill="#7171FF" d="M411.17-4.622v3.674h-0.74v-3.674h-1.418v-0.695h3.582v0.695H411.17z"/>
	<path fill="#7171FF" d="M414.065-0.948v-4.37h0.752v4.37H414.065z"/>
	<path fill="#7171FF" d="M418.682-5.411c1.146,0,2.225,0.846,2.225,2.275c0,1.437-1.078,2.281-2.225,2.281s-2.221-0.845-2.221-2.281
		C416.463-4.567,417.536-5.411,418.682-5.411z M418.682-1.558c0.738,0,1.467-0.524,1.467-1.578s-0.729-1.578-1.467-1.578
		c-0.734,0-1.461,0.524-1.461,1.578S417.948-1.558,418.682-1.558z"/>
	<path fill="#7171FF" d="M425.454-0.948l-2.156-3.311v3.311h-0.74v-4.37h0.943l1.984,3.101v-3.101h0.74v4.37H425.454z"/>
	<path fill="#7171FF" d="M430.344-4.086c-0.043-0.271-0.271-0.672-0.855-0.672c-0.445,0-0.752,0.296-0.752,0.628
		c0,0.278,0.172,0.487,0.512,0.562l0.629,0.129c0.771,0.153,1.184,0.642,1.184,1.258c0,0.678-0.549,1.325-1.549,1.325
		c-1.107,0-1.621-0.716-1.688-1.345l0.689-0.196c0.043,0.456,0.369,0.875,0.998,0.875c0.525,0,0.797-0.266,0.797-0.604
		c0-0.284-0.211-0.512-0.586-0.592l-0.615-0.13c-0.666-0.135-1.111-0.573-1.111-1.228c0-0.732,0.672-1.338,1.486-1.338
		c1.029,0,1.43,0.629,1.527,1.116L430.344-4.086z"/>
	<path fill="#7171FF" d="M436.377-2.674h-0.543v1.726h-0.744v-4.37h1.676c0.846,0,1.369,0.585,1.369,1.324
		c0,0.623-0.377,1.099-0.986,1.245l0.986,1.8h-0.84L436.377-2.674z M436.631-3.327c0.455,0,0.752-0.265,0.752-0.666
		c0-0.406-0.297-0.672-0.752-0.672h-0.797v1.338H436.631z"/>
	<path fill="#7171FF" d="M439.79-0.948v-4.37h2.699v0.689h-1.959v1.159h1.773v0.672h-1.773v1.159h1.959v0.689L439.79-0.948
		L439.79-0.948z"/>
	<path fill="#7171FF" d="M444.243-0.948v-4.37h0.74v3.668h2.004v0.702H444.243z"/>
	<path fill="#7171FF" d="M451.184-2.045h-1.85l-0.406,1.097h-0.781l1.699-4.37h0.857l1.701,4.37h-0.809L451.184-2.045z
		 M449.594-2.73h1.332l-0.666-1.788L449.594-2.73z"/>
	<path fill="#7171FF" d="M455.17-4.622v3.674h-0.74v-3.674h-1.418v-0.695h3.582v0.695H455.17z"/>
	<path fill="#7171FF" d="M458.065-0.948v-4.37h2.697v0.689h-1.959v1.159h1.775v0.672h-1.775v1.159h1.959v0.689L458.065-0.948
		L458.065-0.948z"/>
	<path fill="#7171FF" d="M462.516-0.948v-4.37h1.549c1.188,0,2.127,0.788,2.127,2.193c0,1.399-0.949,2.176-2.135,2.176
		L462.516-0.948L462.516-0.948z M464.034-1.626c0.758,0,1.387-0.486,1.387-1.498c0-1.022-0.623-1.516-1.381-1.516h-0.783v3.014
		H464.034z"/>
	<path fill="#7171FF" d="M471.94-4.622v3.674h-0.74v-3.674h-1.418v-0.695h3.582v0.695H471.94z"/>
	<path fill="#7171FF" d="M476.653-5.411c1.145,0,2.225,0.846,2.225,2.275c0,1.437-1.078,2.281-2.225,2.281
		c-1.148,0-2.221-0.845-2.221-2.281C474.432-4.567,475.504-5.411,476.653-5.411z M476.653-1.558c0.738,0,1.467-0.524,1.467-1.578
		s-0.729-1.578-1.467-1.578c-0.734,0-1.461,0.524-1.461,1.578S475.918-1.558,476.653-1.558z"/>
</g>
</svg>
