<?xml version="1.0" encoding="utf-8"?>
<!-- Generator: Adobe Illustrator 16.0.0, SVG Export Plug-In . SVG Version: 6.00 Build 0)  -->
<!DOCTYPE svg PUBLIC "-//W3C//DTD SVG 1.1//EN" "http://www.w3.org/Graphics/SVG/1.1/DTD/svg11.dtd">
<svg version="1.1" id="Layer_1" xmlns="http://www.w3.org/2000/svg" xmlns:xlink="http://www.w3.org/1999/xlink" x="0px" y="0px"
	 width="270.524px" height="166.605px" viewBox="366 -9.48 270.524 166.605" enable-background="new 366 -9.48 270.524 166.605"
	 xml:space="preserve">
<g>
	<g>
		<path fill="#FDDFEB" d="M378.925,12.082l-1.27,12l18.744,1.979l-0.823,7.794l-18.744-1.981l-1.739,16.455L366,47.368l4.653-44.043
			l29.384,3.105l-0.824,7.794L378.925,12.082z"/>
	</g>
	<g>
		<path fill="#FDDFEB" d="M435.79,12.022c2.938,2.188,5.062,5.092,6.366,8.711c1.307,3.62,1.709,7.802,1.208,12.544
			c-0.501,4.743-1.77,8.748-3.804,12.014c-2.033,3.269-4.717,5.663-8.047,7.188c-3.331,1.524-7.141,2.061-11.429,1.607
			c-4.29-0.453-7.902-1.774-10.841-3.96c-2.938-2.188-5.062-5.091-6.366-8.712c-1.308-3.619-1.71-7.801-1.208-12.544
			c0.501-4.741,1.77-8.747,3.805-12.014c2.032-3.267,4.715-5.663,8.046-7.188c3.33-1.524,7.142-2.061,11.431-1.606
			C429.238,8.516,432.85,9.837,435.79,12.022z M415.295,19.21c-2.322,2.443-3.729,5.996-4.224,10.655
			c-0.492,4.661,0.142,8.429,1.901,11.305c1.761,2.876,4.414,4.5,7.96,4.875s6.48-0.66,8.804-3.104
			c2.321-2.444,3.729-5.996,4.224-10.657c0.492-4.66-0.143-8.428-1.901-11.303c-1.761-2.876-4.414-4.501-7.96-4.876
			S417.618,16.765,415.295,19.21z"/>
	</g>
	<g>
		<path fill="#FDDFEB" d="M481.044,18.244c2.411,2.425,3.408,5.637,2.984,9.637c-0.282,2.682-1.248,4.894-2.892,6.637
			c-1.646,1.745-3.74,2.837-6.29,3.277l-0.014,0.123c1.507,0.743,2.648,1.75,3.435,3.021c0.782,1.271,1.543,3.343,2.283,6.215
			l3.104,12.65l-9.896-1.046l-2.421-10.827c-0.572-2.479-1.354-4.24-2.351-5.283c-0.994-1.044-2.564-1.679-4.709-1.906l-5.011-0.528
			l-1.776,16.825l-9.096-0.961l4.653-44.043l16.208,1.713C474.702,14.322,478.629,15.821,481.044,18.244z M460.034,32.975
			l6.433,0.68c5.072,0.536,7.839-1.36,8.297-5.69c0.433-4.083-2.056-6.41-7.457-6.98l-5.938-0.628L460.034,32.975z"/>
	</g>
	<g>
		<path fill="#FDDFEB" d="M502.518,25.143l-1.053,9.959l19.919,2.104l-0.815,7.732l-19.919-2.105l-1.138,10.765l21.897,2.313
			l-0.824,7.794l-30.991-3.274l4.654-44.043l30.438,3.216l-0.823,7.794L502.518,25.143z"/>
	</g>
	<g>
		<path fill="#FDDFEB" d="M528.752,64.569l4.653-44.042l9.095,0.961l-4.653,44.042L528.752,64.569z"/>
	</g>
	<g>
		<path fill="#FDDFEB" d="M583.326,28.771c2.938,2.959,4.393,6.751,4.361,11.376l-9.771-1.033c-0.185-2.229-0.936-3.986-2.257-5.273
			c-1.323-1.287-3.202-2.06-5.635-2.316c-3.55-0.375-6.496,0.681-8.844,3.163c-2.349,2.483-3.77,6.076-4.267,10.777
			c-0.511,4.824,0.099,8.727,1.827,11.703s4.347,4.648,7.854,5.021c3.176,0.336,5.701-0.304,7.58-1.919
			c1.885-1.615,3.021-4.111,3.423-7.488l-10.456-1.104l0.784-7.423l18.932,2l-2.559,24.188l-7.67-0.812l0.503-4.764l-0.124-0.014
			c-1.468,1.638-3.354,2.835-5.665,3.591c-2.311,0.758-4.91,0.982-7.798,0.678c-3.752-0.396-6.915-1.656-9.481-3.783
			c-2.568-2.127-4.426-4.972-5.569-8.533c-1.147-3.562-1.474-7.671-0.979-12.332c0.501-4.742,1.781-8.776,3.845-12.104
			c2.062-3.326,4.767-5.752,8.115-7.274c3.354-1.522,7.151-2.059,11.399-1.609C576.235,24.051,580.385,25.813,583.326,28.771z"/>
	</g>
	<g>
		<path fill="#FDDFEB" d="M618.942,74.1l-6.646-18.78c-2.435-6.971-4.474-13.315-6.119-19.036l-0.124-0.013
			c-0.39,6.839-0.896,13.229-1.523,19.167l-1.791,16.95l-8.724-0.922l4.653-44.043l12.929,1.365l6.646,18.779
			c2.435,6.972,4.474,13.318,6.121,19.038l0.124,0.012c0.391-6.839,0.896-13.229,1.524-19.167l1.79-16.948l8.723,0.922
			l-4.653,44.043L618.942,74.1z"/>
	</g>
	<g>
		<path fill="#FDDFEB" d="M389.562,136.26l-2.808,11.021l-9.562,0.592l12.598-45.154l12.292-0.764l18.073,43.259l-9.562,0.592
			l-4.083-10.592L389.562,136.26z M402.431,124.68c-2.43-6.331-4.461-11.979-6.099-16.947l-0.124,0.008
			c-1.173,5.892-2.474,11.744-3.896,17.566l-0.75,2.977l11.981-0.74L402.431,124.68z"/>
	</g>
	<g>
		<path fill="#FDDFEB" d="M431.065,108.01l0.747,12.045l18.812-1.165l0.483,7.822l-18.812,1.166l1.022,16.515l-9.126,0.566
			l-2.738-44.207l29.489-1.827l0.484,7.822L431.065,108.01z"/>
	</g>
	<g>
		<path fill="#FDDFEB" d="M467.323,105.764l0.746,12.045l18.812-1.166l0.484,7.823l-18.812,1.166l1.023,16.515l-9.128,0.565
			l-2.738-44.206l29.491-1.827l0.483,7.823L467.323,105.764z"/>
	</g>
	<g>
		<path fill="#FDDFEB" d="M500.945,129.358l-2.811,11.021l-9.562,0.593l12.598-45.154l12.293-0.764l18.075,43.256l-9.563,0.594
			l-4.082-10.594L500.945,129.358z M513.812,117.778c-2.429-6.33-4.461-11.979-6.098-16.947l-0.125,0.01
			c-1.173,5.892-2.472,11.746-3.899,17.564l-0.746,2.979l11.981-0.743L513.812,117.778z"/>
	</g>
	<g>
		<path fill="#FDDFEB" d="M535.575,138.058l-2.739-44.206l9.127-0.564l2.739,44.205L535.575,138.058z"/>
	</g>
	<g>
		<path fill="#FDDFEB" d="M580.779,94.123c2.781,1.988,4.301,4.99,4.549,9.005c0.167,2.69-0.416,5.03-1.748,7.024
			c-1.331,1.994-3.216,3.42-5.653,4.276l0.009,0.123c1.606,0.48,2.902,1.285,3.888,2.408c0.984,1.121,2.081,3.037,3.286,5.746
			l5.167,11.961l-9.936,0.613l-4.188-10.271c-0.979-2.353-2.042-3.957-3.194-4.82c-1.154-0.861-2.812-1.229-4.962-1.097
			l-5.027,0.312l1.048,16.892l-9.128,0.563l-2.737-44.207l16.267-1.008C573.874,91.309,577.998,92.135,580.779,94.123z
			 M562.514,112.145l6.456-0.4c5.09-0.312,7.501-2.646,7.23-6.989c-0.255-4.103-3.095-5.979-8.516-5.646l-5.959,0.369
			L562.514,112.145z"/>
	</g>
	<g>
		<path fill="#FDDFEB" d="M619.766,91.178c2.986,2.286,4.63,5.811,4.926,10.569l-9.253,0.574c-0.145-2.317-0.915-4.067-2.317-5.248
			c-1.403-1.183-3.347-1.693-5.829-1.541c-2.028,0.125-3.636,0.672-4.82,1.641c-1.187,0.968-1.733,2.176-1.646,3.622
			c0.067,1.116,0.436,2.01,1.099,2.674c0.666,0.667,1.678,1.217,3.032,1.649c1.354,0.438,3.314,0.889,5.88,1.352
			c3.487,0.655,6.316,1.364,8.482,2.124c2.164,0.76,3.978,1.985,5.433,3.684c1.453,1.696,2.275,4.059,2.464,7.076
			c0.173,2.773-0.401,5.262-1.72,7.461c-1.316,2.2-3.244,3.961-5.78,5.28c-2.533,1.318-5.501,2.087-8.896,2.297
			c-5.587,0.347-10.048-0.729-13.382-3.222c-3.333-2.494-5.151-6.228-5.461-11.191l9.438-0.584c0.166,2.689,1.017,4.674,2.551,5.95
			c1.53,1.271,3.705,1.825,6.521,1.65c2.316-0.146,4.14-0.766,5.462-1.864c1.321-1.103,1.933-2.521,1.824-4.259
			c-0.077-1.24-0.447-2.204-1.112-2.893c-0.666-0.686-1.594-1.199-2.776-1.541c-1.187-0.344-3.059-0.768-5.624-1.271
			c-3.656-0.686-6.568-1.4-8.731-2.141c-2.165-0.738-3.997-1.942-5.491-3.617c-1.497-1.672-2.335-4.021-2.521-7.041
			c-0.158-2.565,0.384-4.887,1.626-6.955c1.24-2.071,3.069-3.73,5.486-4.982c2.414-1.251,5.214-1.977,8.402-2.172
			C612.531,87.918,616.778,88.89,619.766,91.178z"/>
	</g>
</g>
<g>
	<path fill="#FDDFEB" d="M427.997-0.996c-0.977-0.872-1.464-2.02-1.464-3.444c0-1.424,0.491-2.572,1.476-3.444
		s2.28-1.308,3.889-1.308c1.063,0,1.987,0.14,2.771,0.42l0.553,3.144h-0.265l-1.584-2.304c-0.208-0.304-0.444-0.504-0.708-0.6
		c-0.2-0.072-0.488-0.108-0.863-0.108c-0.881,0-1.597,0.276-2.148,0.828c-0.664,0.656-0.996,1.648-0.996,2.976
		c0,1.32,0.264,2.392,0.792,3.216c0.592,0.92,1.44,1.38,2.544,1.38c0.376,0,0.664-0.036,0.863-0.108
		c0.265-0.096,0.5-0.296,0.709-0.6l1.584-2.304h0.264l-0.637,3.144c-0.783,0.28-1.768,0.42-2.951,0.42
		C430.241,0.312,428.965-0.124,427.997-0.996z"/>
	<path fill="#FDDFEB" d="M437.333-0.612c-0.607-0.6-0.912-1.34-0.912-2.22c0-0.952,0.328-1.736,0.984-2.352
		c0.632-0.608,1.424-0.912,2.376-0.912c0.976,0,1.776,0.308,2.399,0.924c0.608,0.6,0.912,1.34,0.912,2.22
		c0,0.952-0.324,1.736-0.972,2.352c-0.64,0.608-1.437,0.912-2.388,0.912C438.757,0.312,437.957,0.004,437.333-0.612z M441.089-2.904
		c0-1.816-0.443-2.724-1.332-2.724c-0.904,0-1.355,0.908-1.355,2.724c0,1.816,0.451,2.724,1.355,2.724
		C440.646-0.18,441.089-1.088,441.089-2.904z"/>
	<path fill="#FDDFEB" d="M444.053-0.228l0.324-0.024c0.216-0.016,0.349-0.048,0.396-0.096c0.057-0.048,0.084-0.176,0.084-0.384
		v-3.396l-0.912-0.864v-0.072l2.688-1.128v1.536c0.288-0.96,0.896-1.44,1.824-1.44c1.136,0,1.704,0.748,1.704,2.244v3.12
		c0,0.208,0.027,0.336,0.084,0.384c0.048,0.048,0.18,0.08,0.396,0.096l0.323,0.024v0.384h-3.252v-0.384l0.228-0.024
		c0.217-0.024,0.344-0.056,0.385-0.096c0.039-0.048,0.06-0.176,0.06-0.384v-2.784c0-1.016-0.272-1.524-0.815-1.524
		c-0.625,0-0.937,0.512-0.937,1.536v2.772c0,0.208,0.021,0.336,0.06,0.384c0.041,0.04,0.168,0.072,0.385,0.096l0.228,0.024v0.384
		h-3.252V-0.228z"/>
	<path fill="#FDDFEB" d="M451.997-4.8c-0.176-0.408-0.412-0.628-0.708-0.66l-0.192-0.024v-0.384h3.433v0.384l-0.253,0.024
		c-0.416,0.032-0.543,0.228-0.383,0.588l1.295,2.904l1.104-2.568c0.24-0.56,0.132-0.864-0.323-0.912l-0.336-0.036v-0.384h2.387
		v0.384l-0.239,0.024c-0.345,0.041-0.616,0.28-0.816,0.72l-2.231,5.04h-0.48L451.997-4.8z"/>
	<path fill="#FDDFEB" d="M459.089-0.6c-0.561-0.584-0.84-1.332-0.84-2.244c0-0.952,0.328-1.744,0.984-2.376
		c0.607-0.584,1.324-0.876,2.147-0.876c1.632,0,2.608,0.82,2.929,2.46h-4.261c0.008,0.808,0.208,1.472,0.601,1.992
		c0.408,0.536,0.947,0.804,1.619,0.804c0.433,0,0.82-0.12,1.164-0.36c0.385-0.264,0.633-0.636,0.744-1.116h0.348
		c-0.271,1.752-1.308,2.628-3.107,2.628C460.448,0.312,459.673,0.008,459.089-0.6z M460.073-4.14h2.268
		c-0.031-1.032-0.376-1.548-1.031-1.548C460.597-5.688,460.185-5.172,460.073-4.14z"/>
	<path fill="#FDDFEB" d="M465.413-0.228l0.324-0.024c0.215-0.016,0.348-0.048,0.396-0.096c0.056-0.048,0.084-0.176,0.084-0.384
		v-3.396l-0.912-0.864v-0.072l2.688-1.128v2.076c0.304-1.264,1-1.896,2.088-1.896h0.119v1.788l-0.635-0.084
		c-1.049-0.144-1.572,0.092-1.572,0.708v2.868c0,0.2,0.039,0.328,0.119,0.384c0.057,0.032,0.2,0.056,0.433,0.072l0.612,0.036v0.396
		h-3.744V-0.228z"/>
	<path fill="#FDDFEB" d="M471.353,0.024l-0.191-2.136h0.264l0.912,1.488c0.199,0.32,0.523,0.48,0.972,0.48
		c0.288,0,0.528-0.076,0.72-0.228c0.209-0.168,0.312-0.384,0.312-0.648c0-0.528-0.309-0.86-0.924-0.996l-0.637-0.144
		c-1.072-0.24-1.607-0.892-1.607-1.956c0-0.608,0.264-1.096,0.792-1.464c0.487-0.344,1.084-0.516,1.788-0.516
		c0.615,0,1.152,0.08,1.607,0.24l0.229,2.04h-0.264l-1.021-1.464c-0.177-0.256-0.44-0.384-0.792-0.384
		c-0.288,0-0.52,0.076-0.695,0.228c-0.186,0.16-0.277,0.376-0.277,0.648c0,0.536,0.309,0.872,0.925,1.008l0.516,0.108
		c1.231,0.264,1.849,0.904,1.849,1.92c0,0.6-0.26,1.096-0.78,1.488c-0.513,0.384-1.16,0.576-1.944,0.576
		C472.536,0.312,471.952,0.216,471.353,0.024z"/>
	<path fill="#FDDFEB" d="M477.425-0.192c-0.368-0.32-0.553-0.708-0.553-1.164c0-0.496,0.26-0.904,0.78-1.224
		c0.224-0.136,0.724-0.348,1.5-0.636c0.576-0.208,0.964-0.436,1.164-0.684c0.144-0.184,0.216-0.448,0.216-0.792
		c0-0.288-0.084-0.524-0.252-0.708c-0.184-0.192-0.424-0.288-0.72-0.288c-0.448,0-0.761,0.16-0.937,0.48
		c-0.184,0.312-0.207,0.736-0.072,1.272c-0.287,0.064-0.555,0.096-0.803,0.096c-0.297,0-0.528-0.072-0.697-0.216
		c-0.143-0.128-0.215-0.276-0.215-0.444c0-0.416,0.508-0.82,1.523-1.212c0.721-0.271,1.376-0.408,1.969-0.408
		c1.271,0,1.891,0.568,1.859,1.704l-0.096,3.78h0.936v0.384l-2.328,0.54l-0.24-1.068c-0.287,0.728-0.832,1.092-1.631,1.092
		C478.269,0.312,477.8,0.144,477.425-0.192z M480.161-0.72c0.168-0.232,0.256-0.568,0.264-1.008l0.012-1.836
		c-0.145,0.12-0.359,0.269-0.648,0.444c-0.623,0.384-0.936,0.888-0.936,1.512c0,0.304,0.068,0.572,0.204,0.804
		c0.151,0.256,0.348,0.384,0.588,0.384C479.853-0.42,480.025-0.52,480.161-0.72z"/>
	<path fill="#FDDFEB" d="M484.973-0.036c-0.296-0.232-0.444-0.644-0.444-1.236v-3.672h-1.212v-0.072l2.904-2.4h0.084v1.548h2.399
		l-0.576,0.924h-1.823v3.264c0,0.768,0.28,1.152,0.84,1.152c0.304,0,0.628-0.116,0.972-0.348l0.192,0.312
		c-0.656,0.536-1.384,0.804-2.185,0.804C485.589,0.24,485.204,0.148,484.973-0.036z"/>
	<path fill="#FDDFEB" d="M489.149-0.228l0.323-0.024c0.217-0.016,0.349-0.048,0.396-0.096c0.057-0.048,0.084-0.176,0.084-0.384
		v-3.396l-0.912-0.864v-0.072l2.688-1.128v5.46c0,0.208,0.029,0.336,0.084,0.384c0.049,0.048,0.181,0.08,0.396,0.096l0.324,0.024
		v0.384h-3.384V-0.228z M490.048-9.144c0.225-0.224,0.484-0.336,0.78-0.336s0.56,0.112,0.792,0.336
		c0.225,0.224,0.336,0.484,0.336,0.78s-0.111,0.56-0.336,0.792c-0.225,0.224-0.488,0.336-0.792,0.336
		c-0.296,0-0.556-0.112-0.78-0.336c-0.224-0.232-0.336-0.496-0.336-0.792S489.824-8.92,490.048-9.144z"/>
	<path fill="#FDDFEB" d="M494.296-0.612c-0.607-0.6-0.912-1.34-0.912-2.22c0-0.952,0.328-1.736,0.984-2.352
		c0.632-0.608,1.424-0.912,2.376-0.912c0.976,0,1.776,0.308,2.399,0.924c0.608,0.6,0.912,1.34,0.912,2.22
		c0,0.952-0.324,1.736-0.972,2.352c-0.64,0.608-1.437,0.912-2.388,0.912C495.72,0.312,494.92,0.004,494.296-0.612z M498.052-2.904
		c0-1.816-0.443-2.724-1.332-2.724c-0.904,0-1.355,0.908-1.355,2.724c0,1.816,0.451,2.724,1.355,2.724
		C497.609-0.18,498.052-1.088,498.052-2.904z"/>
	<path fill="#FDDFEB" d="M501.017-0.228l0.324-0.024c0.215-0.016,0.348-0.048,0.395-0.096c0.057-0.048,0.084-0.176,0.084-0.384
		v-3.396l-0.911-0.864v-0.072l2.688-1.128v1.536c0.287-0.96,0.895-1.44,1.822-1.44c1.137,0,1.705,0.748,1.705,2.244v3.12
		c0,0.208,0.027,0.336,0.084,0.384c0.047,0.048,0.18,0.08,0.396,0.096l0.324,0.024v0.384h-3.254v-0.384l0.229-0.024
		c0.217-0.024,0.344-0.056,0.385-0.096c0.039-0.048,0.061-0.176,0.061-0.384v-2.784c0-1.016-0.273-1.524-0.816-1.524
		c-0.625,0-0.936,0.512-0.936,1.536v2.772c0,0.208,0.02,0.336,0.059,0.384c0.041,0.04,0.168,0.072,0.385,0.096l0.229,0.024v0.384
		h-3.252V-0.228z"/>
	<path fill="#FDDFEB" d="M509.105,0.024l-0.191-2.136h0.264l0.912,1.488c0.199,0.32,0.523,0.48,0.971,0.48
		c0.289,0,0.529-0.076,0.721-0.228c0.207-0.168,0.312-0.384,0.312-0.648c0-0.528-0.309-0.86-0.924-0.996l-0.637-0.144
		c-1.072-0.24-1.607-0.892-1.607-1.956c0-0.608,0.264-1.096,0.791-1.464c0.488-0.344,1.084-0.516,1.789-0.516
		c0.615,0,1.15,0.08,1.607,0.24l0.229,2.04h-0.266l-1.02-1.464c-0.176-0.256-0.439-0.384-0.791-0.384
		c-0.289,0-0.521,0.076-0.697,0.228c-0.184,0.16-0.275,0.376-0.275,0.648c0,0.536,0.309,0.872,0.924,1.008l0.516,0.108
		c1.232,0.264,1.85,0.904,1.85,1.92c0,0.6-0.262,1.096-0.781,1.488c-0.512,0.384-1.16,0.576-1.943,0.576
		C510.288,0.312,509.704,0.216,509.105,0.024z"/>
	<path fill="#FDDFEB" d="M517.491-0.228l0.324-0.024c0.217-0.016,0.348-0.048,0.396-0.096c0.055-0.048,0.084-0.176,0.084-0.384
		v-3.396l-0.912-0.864v-0.072l2.688-1.128v2.076c0.305-1.264,1-1.896,2.088-1.896h0.121v1.788l-0.637-0.084
		c-1.049-0.144-1.572,0.092-1.572,0.708v2.868c0,0.2,0.039,0.328,0.119,0.384c0.057,0.032,0.201,0.056,0.434,0.072l0.611,0.036
		v0.396h-3.744V-0.228z"/>
	<path fill="#FDDFEB" d="M523.839-0.6c-0.559-0.584-0.84-1.332-0.84-2.244c0-0.952,0.328-1.744,0.984-2.376
		c0.607-0.584,1.324-0.876,2.148-0.876c1.631,0,2.607,0.82,2.928,2.46h-4.26c0.008,0.808,0.207,1.472,0.6,1.992
		c0.408,0.536,0.947,0.804,1.619,0.804c0.434,0,0.82-0.12,1.164-0.36c0.385-0.264,0.633-0.636,0.744-1.116h0.35
		c-0.273,1.752-1.309,2.628-3.109,2.628C525.2,0.312,524.423,0.008,523.839-0.6z M524.823-4.14h2.268
		c-0.031-1.032-0.375-1.548-1.031-1.548C525.347-5.688,524.935-5.172,524.823-4.14z"/>
	<path fill="#FDDFEB" d="M530.056-0.228l0.324-0.024c0.215-0.016,0.348-0.048,0.395-0.096c0.057-0.048,0.084-0.176,0.084-0.384
		v-6.972l-0.912-0.768v-0.072l2.689-0.924v8.736c0,0.208,0.027,0.336,0.084,0.384c0.047,0.048,0.18,0.08,0.395,0.096l0.324,0.024
		v0.384h-3.383V-0.228z"/>
	<path fill="#FDDFEB" d="M534.855-0.192c-0.367-0.32-0.551-0.708-0.551-1.164c0-0.496,0.26-0.904,0.779-1.224
		c0.225-0.136,0.725-0.348,1.5-0.636c0.576-0.208,0.965-0.436,1.164-0.684c0.145-0.184,0.217-0.448,0.217-0.792
		c0-0.288-0.084-0.524-0.252-0.708c-0.186-0.192-0.426-0.288-0.721-0.288c-0.447,0-0.76,0.16-0.936,0.48
		c-0.186,0.312-0.209,0.736-0.072,1.272c-0.289,0.064-0.557,0.096-0.805,0.096c-0.295,0-0.527-0.072-0.695-0.216
		c-0.145-0.128-0.217-0.276-0.217-0.444c0-0.416,0.508-0.82,1.525-1.212c0.719-0.271,1.375-0.408,1.967-0.408
		c1.271,0,1.893,0.568,1.861,1.704l-0.098,3.78h0.938v0.384l-2.328,0.54l-0.24-1.068c-0.289,0.728-0.832,1.092-1.633,1.092
		C535.698,0.312,535.232,0.144,534.855-0.192z M537.591-0.72c0.168-0.232,0.256-0.568,0.264-1.008l0.012-1.836
		c-0.143,0.12-0.359,0.269-0.646,0.444c-0.625,0.384-0.938,0.888-0.938,1.512c0,0.304,0.068,0.572,0.205,0.804
		c0.152,0.256,0.348,0.384,0.588,0.384C537.282-0.42,537.454-0.52,537.591-0.72z"/>
	<path fill="#FDDFEB" d="M542.404-0.036c-0.295-0.232-0.443-0.644-0.443-1.236v-3.672h-1.213v-0.072l2.904-2.4h0.084v1.548h2.4
		l-0.576,0.924h-1.824v3.264c0,0.768,0.281,1.152,0.84,1.152c0.305,0,0.629-0.116,0.973-0.348l0.191,0.312
		c-0.656,0.536-1.383,0.804-2.184,0.804C543.021,0.24,542.636,0.148,542.404-0.036z"/>
	<path fill="#FDDFEB" d="M547.275-0.6c-0.559-0.584-0.84-1.332-0.84-2.244c0-0.952,0.328-1.744,0.984-2.376
		c0.607-0.584,1.324-0.876,2.148-0.876c1.631,0,2.607,0.82,2.928,2.46h-4.26c0.008,0.808,0.207,1.472,0.6,1.992
		c0.408,0.536,0.947,0.804,1.619,0.804c0.434,0,0.82-0.12,1.164-0.36c0.385-0.264,0.633-0.636,0.744-1.116h0.35
		c-0.273,1.752-1.309,2.628-3.109,2.628C548.636,0.312,547.859,0.008,547.275-0.6z M548.259-4.14h2.268
		c-0.031-1.032-0.375-1.548-1.031-1.548C548.782-5.688,548.37-5.172,548.259-4.14z"/>
	<path fill="#FDDFEB" d="M554.378-0.516c-0.496-0.592-0.742-1.388-0.742-2.388c0-0.936,0.268-1.708,0.803-2.316
		c0.527-0.584,1.18-0.876,1.957-0.876c0.543,0,0.996,0.192,1.355,0.576v-2.184l-1.129-0.768v-0.072l2.904-0.924v8.832h0.877v0.384
		l-2.652,0.54v-0.72c-0.439,0.496-0.98,0.744-1.621,0.744C555.427,0.312,554.843,0.036,554.378-0.516z M556.034-1.176
		c0.264,0.44,0.605,0.66,1.021,0.66c0.271,0,0.504-0.08,0.695-0.24v-4.428c-0.176-0.152-0.396-0.228-0.66-0.228
		c-0.432,0-0.783,0.22-1.057,0.66c-0.279,0.456-0.42,1.068-0.42,1.836C555.615-2.212,555.755-1.632,556.034-1.176z"/>
	<path fill="#FDDFEB" d="M565.3-0.036c-0.297-0.232-0.445-0.644-0.445-1.236v-3.672h-1.211v-0.072l2.904-2.4h0.084v1.548h2.398
		l-0.574,0.924h-1.824v3.264c0,0.768,0.279,1.152,0.84,1.152c0.303,0,0.627-0.116,0.971-0.348l0.193,0.312
		c-0.656,0.536-1.385,0.804-2.184,0.804C565.915,0.24,565.531,0.148,565.3-0.036z"/>
	<path fill="#FDDFEB" d="M570.232-0.612c-0.609-0.6-0.912-1.34-0.912-2.22c0-0.952,0.326-1.736,0.982-2.352
		c0.633-0.608,1.424-0.912,2.377-0.912c0.977,0,1.775,0.308,2.4,0.924c0.607,0.6,0.912,1.34,0.912,2.22
		c0,0.952-0.324,1.736-0.973,2.352c-0.641,0.608-1.436,0.912-2.389,0.912C571.656,0.312,570.855,0.004,570.232-0.612z
		 M573.988-2.904c0-1.816-0.445-2.724-1.332-2.724c-0.904,0-1.357,0.908-1.357,2.724c0,1.816,0.453,2.724,1.357,2.724
		C573.542-0.18,573.988-1.088,573.988-2.904z"/>
</g>
<g>
	<path fill="#FDDFEB" d="M426.353,155.228c-9.302,1.241-15.354,1.877-15.536,1.896l-0.206-1.99
		c0.562-0.056,56.413-5.926,91.55-17.237c20.996-6.759,40.008-34.794,41.515-61.22c0.102-1.771,0.123-3.513,0.068-5.222
		c-0.34,0.152-0.677,0.302-1.018,0.452c-29.018,12.698-62.098,11.495-98.325-3.578c-6.452-2.934-16.753-12.769-9.762-29.083
		c0.259-0.486,5.536-10.041,18.036-16.475c20.804-10.706,44.886-4.021,61.426,3.474c18.923,8.574,29.871,23.356,31.469,42.147
		c45.724-22.197,64.993-73.468,65.188-73.997l1.877,0.688c-0.197,0.54-19.93,53.093-66.923,75.459
		c0.095,2.04,0.083,4.121-0.039,6.247c-1.55,27.168-21.195,56.023-42.898,63.01C478.928,147.477,445.651,152.655,426.353,155.228z
		 M469.353,19.688c-5.612,0.749-10.853,2.351-15.661,4.812c-11.995,6.137-17.204,15.524-17.255,15.618
		c-7.936,18.53,8.077,26.066,8.762,26.378c35.668,14.84,68.217,16.052,96.71,3.586c0.578-0.252,1.152-0.51,1.723-0.772
		c-1.324-18.398-11.902-32.88-30.354-41.241C497.174,20.772,482.28,17.964,469.353,19.688z"/>
</g>
</svg>
