<?xml version="1.0" encoding="utf-8"?>
<!-- Generator: Adobe Illustrator 16.0.0, SVG Export Plug-In . SVG Version: 6.00 Build 0)  -->
<!DOCTYPE svg PUBLIC "-//W3C//DTD SVG 1.1//EN" "http://www.w3.org/Graphics/SVG/1.1/DTD/svg11.dtd">
<svg version="1.1" id="Layer_1" xmlns="http://www.w3.org/2000/svg" xmlns:xlink="http://www.w3.org/1999/xlink" x="0px" y="0px"
	 width="255.762px" height="147.799px" viewBox="297.012 -5.415 255.762 147.799"
	 enable-background="new 297.012 -5.415 255.762 147.799" xml:space="preserve">
<g>
	<path fill="#FFB3B3" d="M368.774-3.13c0-1.425,1.064-2.281,2.201-2.281c1.107,0,1.77,0.654,1.965,1.418l-0.695,0.234
		c-0.129-0.53-0.535-0.956-1.27-0.956c-0.725,0-1.441,0.523-1.441,1.584c0,1.022,0.701,1.564,1.447,1.564
		c0.73,0,1.15-0.47,1.301-0.961l0.678,0.222c-0.195,0.739-0.861,1.448-1.979,1.448C369.803-0.856,368.774-1.706,368.774-3.13z"/>
	<path fill="#FFB3B3" d="M376.483-5.411c1.146,0,2.225,0.847,2.225,2.275c0,1.437-1.078,2.28-2.225,2.28s-2.221-0.846-2.221-2.28
		C374.262-4.567,375.336-5.411,376.483-5.411z M376.483-1.558c0.738,0,1.467-0.523,1.467-1.577c0-1.055-0.729-1.578-1.467-1.578
		c-0.734,0-1.461,0.523-1.461,1.578C375.022-2.082,375.749-1.558,376.483-1.558z"/>
	<path fill="#FFB3B3" d="M383.254-0.948l-2.158-3.311v3.311h-0.736v-4.369h0.939l1.986,3.102v-3.102h0.736v4.369H383.254z"/>
	<path fill="#FFB3B3" d="M388.725-5.319h0.783l-1.65,4.369h-0.752l-1.631-4.369h0.805l1.221,3.401L388.725-5.319z"/>
	<path fill="#FFB3B3" d="M390.959-0.948v-4.369h2.699v0.688H391.7v1.159h1.773v0.672H391.7v1.158h1.959v0.688L390.959-0.948
		L390.959-0.948z"/>
	<path fill="#FFB3B3" d="M396.702-2.674h-0.543v1.726h-0.746v-4.369h1.678c0.844,0,1.367,0.585,1.367,1.323
		c0,0.623-0.375,1.1-0.986,1.245l0.986,1.8h-0.838L396.702-2.674z M396.954-3.327c0.457,0,0.752-0.265,0.752-0.666
		c0-0.405-0.295-0.672-0.752-0.672h-0.795v1.338H396.954z"/>
	<path fill="#FFB3B3" d="M402.319-4.086c-0.043-0.271-0.271-0.672-0.855-0.672c-0.445,0-0.752,0.296-0.752,0.628
		c0,0.277,0.172,0.486,0.512,0.562l0.629,0.129c0.771,0.152,1.186,0.643,1.186,1.258c0,0.679-0.549,1.325-1.547,1.325
		c-1.109,0-1.621-0.717-1.689-1.346l0.691-0.195c0.043,0.456,0.369,0.875,0.998,0.875c0.521,0,0.795-0.267,0.795-0.604
		c0-0.284-0.209-0.513-0.586-0.592l-0.615-0.131c-0.666-0.135-1.111-0.572-1.111-1.229c0-0.731,0.674-1.338,1.486-1.338
		c1.029,0,1.43,0.629,1.529,1.116L402.319-4.086z"/>
	<path fill="#FFB3B3" d="M407.184-2.045h-1.85l-0.406,1.097h-0.781l1.699-4.369h0.857l1.701,4.369h-0.811L407.184-2.045z
		 M405.594-2.73h1.332l-0.666-1.788L405.594-2.73z"/>
	<path fill="#FFB3B3" d="M411.17-4.622v3.674h-0.74v-3.674h-1.418v-0.694h3.582v0.694H411.17z"/>
	<path fill="#FFB3B3" d="M414.065-0.948v-4.369h0.752v4.369H414.065z"/>
	<path fill="#FFB3B3" d="M418.682-5.411c1.146,0,2.227,0.847,2.227,2.275c0,1.437-1.078,2.28-2.227,2.28
		c-1.146,0-2.221-0.846-2.221-2.28C416.463-4.567,417.536-5.411,418.682-5.411z M418.682-1.558c0.738,0,1.469-0.523,1.469-1.577
		c0-1.055-0.73-1.578-1.469-1.578c-0.732,0-1.461,0.523-1.461,1.578C417.221-2.082,417.948-1.558,418.682-1.558z"/>
	<path fill="#FFB3B3" d="M425.454-0.948l-2.156-3.311v3.311h-0.74v-4.369h0.943l1.984,3.102v-3.102h0.738v4.369H425.454z"/>
	<path fill="#FFB3B3" d="M430.344-4.086c-0.043-0.271-0.271-0.672-0.854-0.672c-0.445,0-0.752,0.296-0.752,0.628
		c0,0.277,0.172,0.486,0.512,0.562l0.629,0.129c0.771,0.152,1.184,0.643,1.184,1.258c0,0.679-0.549,1.325-1.549,1.325
		c-1.105,0-1.621-0.717-1.688-1.346l0.688-0.195c0.043,0.456,0.369,0.875,0.998,0.875c0.525,0,0.797-0.267,0.797-0.604
		c0-0.284-0.211-0.513-0.586-0.592l-0.613-0.131c-0.666-0.135-1.111-0.572-1.111-1.229c0-0.731,0.672-1.338,1.486-1.338
		c1.027,0,1.43,0.629,1.525,1.116L430.344-4.086z"/>
	<path fill="#FFB3B3" d="M436.377-2.674h-0.543v1.726h-0.744v-4.369h1.676c0.848,0,1.369,0.585,1.369,1.323
		c0,0.623-0.377,1.1-0.984,1.245l0.984,1.8h-0.84L436.377-2.674z M436.631-3.327c0.455,0,0.752-0.265,0.752-0.666
		c0-0.405-0.297-0.672-0.752-0.672h-0.797v1.338H436.631z"/>
	<path fill="#FFB3B3" d="M439.79-0.948v-4.369h2.699v0.688h-1.959v1.159h1.771v0.672h-1.771v1.158h1.959v0.688L439.79-0.948
		L439.79-0.948z"/>
	<path fill="#FFB3B3" d="M444.243-0.948v-4.369h0.74v3.668h2.004v0.701H444.243z"/>
	<path fill="#FFB3B3" d="M451.184-2.045h-1.85l-0.406,1.097h-0.781l1.699-4.369h0.857l1.701,4.369h-0.811L451.184-2.045z
		 M449.594-2.73h1.332l-0.666-1.788L449.594-2.73z"/>
	<path fill="#FFB3B3" d="M455.17-4.622v3.674h-0.74v-3.674h-1.418v-0.694h3.582v0.694H455.17z"/>
	<path fill="#FFB3B3" d="M458.065-0.948v-4.369h2.695v0.688h-1.959v1.159h1.775v0.672h-1.775v1.158h1.959v0.688L458.065-0.948
		L458.065-0.948z"/>
	<path fill="#FFB3B3" d="M462.516-0.948v-4.369h1.551c1.188,0,2.127,0.787,2.127,2.192c0,1.398-0.949,2.176-2.137,2.176
		L462.516-0.948L462.516-0.948z M464.034-1.626c0.758,0,1.387-0.485,1.387-1.498c0-1.021-0.623-1.517-1.381-1.517h-0.783v3.015
		H464.034z"/>
	<path fill="#FFB3B3" d="M471.94-4.622v3.674h-0.74v-3.674h-1.418v-0.694h3.582v0.694H471.94z"/>
	<path fill="#FFB3B3" d="M476.653-5.411c1.145,0,2.225,0.847,2.225,2.275c0,1.437-1.078,2.28-2.225,2.28
		c-1.148,0-2.223-0.846-2.223-2.28C474.432-4.567,475.504-5.411,476.653-5.411z M476.653-1.558c0.736,0,1.467-0.523,1.467-1.577
		c0-1.055-0.729-1.578-1.467-1.578c-0.734,0-1.461,0.523-1.461,1.578C475.192-2.082,475.918-1.558,476.653-1.558z"/>
</g>
<g>
	<path fill="#FFB3B3" d="M297.013,66.643V13.704h32.928v8.438h-23.969V37h21.504v8.288h-21.504v21.355H297.013z"/>
	<path fill="#FFB3B3" d="M371.759,48.425c0,11.199-7.988,19.337-18.893,19.337c-10.826,0-18.816-8.14-18.816-19.337
		c0-11.126,7.99-19.265,18.816-19.265C363.769,29.16,371.759,37.299,371.759,48.425z M363.023,48.425
		c0-7.542-4.779-11.425-10.156-11.425c-5.299,0-10.154,3.883-10.154,11.425c0,7.541,4.855,11.573,10.154,11.573
		C358.244,59.998,363.023,56.04,363.023,48.425z"/>
	<path fill="#FFB3B3" d="M402.9,38.868c-0.969-0.149-1.941-0.224-2.836-0.224c-6.721,0-9.783,3.882-9.783,10.677v17.322h-8.66V30.28
		h8.438v5.824c1.719-3.957,5.75-6.272,10.527-6.272c1.045,0,1.941,0.149,2.312,0.224v8.812H402.9z"/>
	<path fill="#FFB3B3" d="M443.449,56.264c-1.943,6.349-7.689,11.5-16.428,11.5c-9.855,0-18.59-7.168-18.59-19.489
		c0-11.5,8.51-19.115,17.693-19.115c11.199,0,17.771,7.392,17.771,18.892c0,1.418-0.15,2.613-0.227,2.762h-26.582
		c0.227,5.526,4.559,9.483,9.934,9.483c5.227,0,7.914-2.764,9.107-6.347L443.449,56.264z M435.162,44.467
		c-0.148-4.256-2.988-8.064-8.961-8.064c-5.451,0-8.586,4.182-8.885,8.064H435.162z"/>
	<path fill="#FFB3B3" d="M462.769,11.837c3.137,0,5.229,2.539,4.676,5.675c-0.553,3.135-3.527,5.6-6.664,5.6
		c-3.061,0-5.166-2.464-4.613-5.6C456.722,14.376,459.71,11.837,462.769,11.837z M448.851,66.643l6.412-36.363h8.586l-6.412,36.363
		H448.851z"/>
	<path fill="#FFB3B3" d="M480.341,66.567c0.6,4.482,4.105,7.842,9.109,7.842c6.869,0,10.305-3.51,10.305-10.902v-3.808
		c-1.568,2.838-5.229,5.302-10.525,5.302c-9.709,0-16.805-7.468-16.805-17.697c0-9.707,6.799-17.696,16.805-17.696
		c5.672,0,9.184,2.315,10.752,5.301V30.28h8.359v32.929c0,9.707-5.004,18.741-18.666,18.741c-9.633,0-16.354-5.975-17.324-13.291
		L480.341,66.567z M499.98,47.305c0-6.198-3.959-10.23-9.334-10.23c-5.527,0-9.482,4.032-9.482,10.23
		c0,6.346,3.809,10.303,9.482,10.303C496.169,57.608,499.98,53.577,499.98,47.305z"/>
	<path fill="#FFB3B3" d="M529.103,66.643h-8.662V30.28h8.438v4.853c2.391-4.181,6.723-5.898,10.752-5.898
		c8.887,0,13.145,6.421,13.145,14.411v22.998h-8.662V45.139c0-4.479-2.016-8.064-7.469-8.064c-4.928,0-7.541,3.809-7.541,8.588
		V66.643L529.103,66.643z"/>
	<path fill="#FFB3B3" d="M345.324,127.971h-22.4l-4.928,13.291h-9.48l20.607-52.945H339.5l20.609,52.941h-9.781L345.324,127.971z
		 M326.06,119.682h16.127l-8.064-21.654L326.06,119.682z"/>
	<path fill="#FFB3B3" d="M405.056,100.118l-0.843,4.777h8.438l-1.329,7.541h-8.438l-5.083,28.822h-8.737l5.082-28.822H378.99
		l-5.082,28.822h-8.736l5.082-28.822h-6.348l1.33-7.541h6.348l0.883-5.004c1.435-8.139,7.529-13.064,14.996-13.064
		c2.164,0,3.879,0.445,4.425,0.746l-1.305,7.396c-0.495-0.15-1.429-0.373-3.073-0.373c-2.24,0-5.559,1.045-6.348,5.521l-0.843,4.777
		h15.156l0.882-5.004c1.436-8.139,7.531-13.064,15-13.064c2.164,0,3.878,0.445,4.424,0.746l-1.305,7.396
		c-0.496-0.15-1.43-0.373-3.072-0.373C409.166,94.596,405.845,95.641,405.056,100.118z"/>
	<path fill="#FFB3B3" d="M428.216,120.43l9.334-1.42c2.092-0.301,2.688-1.346,2.688-2.613c0-3.062-2.092-5.525-6.867-5.525
		c-4.557,0-7.098,2.914-7.471,6.57l-7.914-1.793c0.672-6.271,6.348-11.869,15.309-11.869c11.201,0,15.455,6.346,15.455,13.588
		v18.068c0,3.287,0.373,5.453,0.449,5.826h-8.062c-0.074-0.227-0.373-1.719-0.373-4.631c-1.721,2.764-5.305,5.752-11.201,5.752
		c-7.615,0-12.32-5.229-12.32-10.979C417.24,124.907,422.021,121.325,428.216,120.43z M440.24,126.178v-1.645l-9.484,1.42
		c-2.688,0.445-4.854,1.939-4.854,4.93c0,2.465,1.869,4.701,5.303,4.701C436.056,135.585,440.24,133.27,440.24,126.178z"/>
	<path fill="#FFB3B3" d="M464.958,86.452c3.139,0,5.676,2.541,5.676,5.68c0,3.135-2.537,5.6-5.676,5.6c-3.061,0-5.6-2.465-5.6-5.6
		C459.359,88.993,461.898,86.452,464.958,86.452z M460.703,141.262v-36.363h8.588v36.363H460.703z"/>
	<path fill="#FFB3B3" d="M503.265,113.481c-0.973-0.146-1.941-0.223-2.838-0.223c-6.721,0-9.781,3.881-9.781,10.678v17.322h-8.662
		v-36.363h8.438v5.824c1.721-3.959,5.752-6.271,10.529-6.271c1.045,0,1.941,0.148,2.314,0.229V113.481L503.265,113.481z"/>
	<path fill="#FFB3B3" d="M516.408,129.311c0.299,3.287,2.764,6.195,7.393,6.195c3.586,0,5.451-1.938,5.451-4.18
		c0-1.941-1.344-3.434-4.258-4.031l-5.373-1.195c-6.422-1.42-9.783-5.6-9.783-10.604c0-6.346,5.824-11.721,13.365-11.721
		c10.154,0,13.441,6.57,14.039,10.154l-7.318,2.09c-0.299-2.09-1.863-5.451-6.721-5.451c-3.061,0-5.227,1.941-5.227,4.184
		c0,1.938,1.42,3.357,3.66,3.807l5.523,1.119c6.867,1.494,10.453,5.674,10.453,11.051c0,5.525-4.482,11.65-13.74,11.65
		c-10.523,0-14.559-6.873-15.008-10.977L516.408,129.311z"/>
</g>
</svg>
