<?xml version="1.0" encoding="utf-8"?>
<!-- Generator: Adobe Illustrator 16.0.0, SVG Export Plug-In . SVG Version: 6.00 Build 0)  -->
<!DOCTYPE svg PUBLIC "-//W3C//DTD SVG 1.1//EN" "http://www.w3.org/Graphics/SVG/1.1/DTD/svg11.dtd">
<svg version="1.1" id="Layer_1" xmlns="http://www.w3.org/2000/svg" xmlns:xlink="http://www.w3.org/1999/xlink" x="0px" y="0px"
	 width="251.208px" height="146.058px" viewBox="298.918 -5.414 251.208 146.058"
	 enable-background="new 298.918 -5.414 251.208 146.058" xml:space="preserve">
<g>
	<path fill="#FFB3B3" d="M298.918,66.258V14.254h32.349v8.289H307.72V37.14h21.125v8.143H307.72V66.26L298.918,66.258
		L298.918,66.258z"/>
	<path fill="#FFB3B3" d="M372.34,48.361c0,11.002-7.848,18.997-18.557,18.997c-10.638,0-18.484-7.995-18.484-18.997
		c0-10.929,7.849-18.924,18.484-18.924C364.493,29.437,372.34,37.432,372.34,48.361z M363.758,48.361
		c0-7.407-4.694-11.223-9.975-11.223c-5.209,0-9.978,3.813-9.978,11.223c0,7.41,4.769,11.369,9.978,11.369
		C359.063,59.73,363.758,55.843,363.758,48.361z"/>
	<path fill="#FFB3B3" d="M402.924,38.972c-0.953-0.146-1.906-0.221-2.787-0.221c-6.602,0-9.608,3.813-9.608,10.489v17.017h-8.508
		v-35.72h8.289v5.722c1.688-3.888,5.646-6.161,10.342-6.161c1.026,0,1.905,0.146,2.272,0.22V38.972L402.924,38.972z"/>
	<path fill="#FFB3B3" d="M442.75,56.063c-1.908,6.233-7.555,11.295-16.137,11.295c-9.685,0-18.267-7.042-18.267-19.145
		c0-11.295,8.363-18.776,17.386-18.776c11.002,0,17.457,7.263,17.457,18.559c0,1.395-0.146,2.566-0.222,2.714h-26.11
		c0.221,5.429,4.475,9.314,9.756,9.314c5.135,0,7.772-2.714,8.949-6.233L442.75,56.063z M434.608,44.473
		c-0.146-4.182-2.935-7.923-8.804-7.923c-5.354,0-8.434,4.108-8.729,7.923H434.608z"/>
	<path fill="#FFB3B3" d="M456.977,12.42c3.08,0,5.574,2.494,5.574,5.575s-2.494,5.501-5.574,5.501c-3.008,0-5.502-2.42-5.502-5.501
		S453.969,12.42,456.977,12.42z M452.797,66.258V30.537h8.437v35.721H452.797z"/>
	<path fill="#FFB3B3" d="M478.981,66.185c0.588,4.4,4.032,7.702,8.946,7.702c6.748,0,10.123-3.448,10.123-10.71v-3.74
		c-1.541,2.787-5.135,5.208-10.342,5.208c-9.535,0-16.504-7.335-16.504-17.385c0-9.534,6.674-17.384,16.504-17.384
		c5.574,0,9.021,2.273,10.562,5.208v-4.548h8.216v32.347c0,9.535-4.914,18.411-18.338,18.411c-9.464,0-16.062-5.869-17.019-13.058
		L478.981,66.185z M498.272,47.26c0-6.088-3.89-10.049-9.171-10.049c-5.428,0-9.313,3.961-9.313,10.049
		c0,6.235,3.742,10.123,9.313,10.123C494.532,57.383,498.272,53.422,498.272,47.26z"/>
	<path fill="#FFB3B3" d="M526.875,66.258h-8.51V30.537h8.289v4.769c2.348-4.107,6.602-5.796,10.562-5.796
		c8.729,0,12.91,6.309,12.91,14.157v22.591h-8.51V45.134c0-4.4-1.98-7.922-7.334-7.922c-4.842,0-7.408,3.741-7.408,8.437
		L526.875,66.258L526.875,66.258z"/>
	<path fill="#FFB3B3" d="M346.375,126.49h-22.004l-4.843,13.057h-9.313l20.244-52.006h10.194l20.244,52.006h-9.608L346.375,126.49z
		 M327.452,118.346h15.844l-7.922-21.271L327.452,118.346z"/>
	<path fill="#FFB3B3" d="M402.631,99.129v4.695h8.289v7.407h-8.289v28.312h-8.582v-28.312H379.16v28.312h-8.582v-28.312h-6.234
		v-7.407h6.234v-4.916c0-7.994,5.135-12.836,12.469-12.836c2.127,0,3.89,0.44,4.476,0.733v7.262
		c-0.515-0.146-1.467-0.366-3.08-0.366c-2.199,0-5.281,1.026-5.281,5.428v4.695h14.891v-4.916c0-7.994,5.136-12.836,12.472-12.836
		c2.127,0,3.887,0.44,4.473,0.733v7.262c-0.512-0.146-1.467-0.366-3.08-0.366C405.713,93.701,402.631,94.729,402.631,99.129z"/>
	<path fill="#FFB3B3" d="M427.788,119.08l9.17-1.396c2.053-0.293,2.641-1.319,2.641-2.565c0-3.009-2.055-5.429-6.748-5.429
		c-4.475,0-6.969,2.86-7.336,6.455l-7.772-1.763c0.66-6.159,6.231-11.661,15.035-11.661c11.004,0,15.184,6.233,15.184,13.35v17.75
		c0,3.229,0.367,5.354,0.441,5.724h-7.922c-0.074-0.221-0.367-1.688-0.367-4.549c-1.688,2.715-5.207,5.647-11.002,5.647
		c-7.482,0-12.104-5.136-12.104-10.781C417.006,123.481,421.7,119.961,427.788,119.08z M439.596,124.729v-1.612l-9.313,1.393
		c-2.642,0.439-4.769,1.906-4.769,4.843c0,2.42,1.832,4.621,5.207,4.621C435.489,133.971,439.596,131.696,439.596,124.729z"/>
	<path fill="#FFB3B3" d="M463.874,85.707c3.08,0,5.574,2.492,5.574,5.574c0,3.079-2.494,5.5-5.574,5.5
		c-3.008,0-5.502-2.421-5.502-5.5C458.372,88.199,460.866,85.707,463.874,85.707z M459.692,139.545v-35.721h8.436v35.721H459.692z"
		/>
	<path fill="#FFB3B3" d="M501.5,112.258c-0.953-0.146-1.906-0.219-2.787-0.219c-6.602,0-9.606,3.813-9.606,10.487v17.019h-8.511
		v-35.721h8.289v5.721c1.688-3.889,5.646-6.162,10.342-6.162c1.027,0,1.906,0.146,2.273,0.222V112.258L501.5,112.258z"/>
	<path fill="#FFB3B3" d="M514.407,127.809c0.293,3.228,2.715,6.088,7.262,6.088c3.521,0,5.354-1.905,5.354-4.106
		c0-1.906-1.32-3.375-4.183-3.961l-5.281-1.175c-6.307-1.393-9.606-5.5-9.606-10.415c0-6.234,5.721-11.517,13.129-11.517
		c9.977,0,13.203,6.455,13.791,9.978l-7.189,2.053c-0.293-2.053-1.832-5.354-6.602-5.354c-3.006,0-5.133,1.906-5.133,4.106
		c0,1.906,1.393,3.302,3.594,3.74l5.428,1.101c6.748,1.469,10.271,5.575,10.271,10.856c0,5.428-4.4,11.44-13.496,11.44
		c-10.342,0-14.305-6.748-14.742-10.781L514.407,127.809z"/>
</g>
<g>
	<path fill="#FFB3B3" d="M368.774-3.13c0-1.425,1.065-2.281,2.201-2.281c1.108,0,1.77,0.654,1.965,1.418l-0.695,0.234
		c-0.129-0.53-0.535-0.956-1.27-0.956c-0.724,0-1.441,0.523-1.441,1.584c0,1.022,0.701,1.564,1.447,1.564
		c0.731,0,1.151-0.469,1.301-0.961l0.678,0.222c-0.195,0.739-0.861,1.448-1.979,1.448C369.804-0.856,368.774-1.706,368.774-3.13z"/>
	<path fill="#FFB3B3" d="M376.483-5.411c1.146,0,2.225,0.846,2.225,2.275c0,1.437-1.078,2.28-2.225,2.28
		c-1.147,0-2.221-0.845-2.221-2.28C374.263-4.567,375.336-5.411,376.483-5.411z M376.483-1.558c0.738,0,1.467-0.523,1.467-1.577
		c0-1.055-0.729-1.578-1.467-1.578c-0.734,0-1.461,0.523-1.461,1.578C375.022-2.082,375.749-1.558,376.483-1.558z"/>
	<path fill="#FFB3B3" d="M383.254-0.948l-2.157-3.311v3.311h-0.738v-4.37h0.94l1.986,3.102v-3.102h0.737v4.37H383.254z"/>
	<path fill="#FFB3B3" d="M388.726-5.319h0.782l-1.651,4.37h-0.752l-1.629-4.37h0.803l1.221,3.402L388.726-5.319z"/>
	<path fill="#FFB3B3" d="M390.959-0.948v-4.37h2.699v0.689H391.7v1.159h1.773v0.672H391.7v1.158h1.959v0.689L390.959-0.948
		L390.959-0.948z"/>
	<path fill="#FFB3B3" d="M396.702-2.674h-0.543v1.726h-0.746v-4.37h1.678c0.844,0,1.367,0.585,1.367,1.324
		c0,0.623-0.375,1.099-0.986,1.245l0.986,1.8h-0.838L396.702-2.674z M396.954-3.327c0.457,0,0.752-0.265,0.752-0.666
		c0-0.406-0.295-0.672-0.752-0.672h-0.795v1.338H396.954z"/>
	<path fill="#FFB3B3" d="M402.319-4.086c-0.043-0.271-0.271-0.672-0.855-0.672c-0.445,0-0.752,0.296-0.752,0.628
		c0,0.277,0.172,0.486,0.512,0.562l0.629,0.129c0.771,0.153,1.185,0.643,1.185,1.258c0,0.679-0.549,1.325-1.547,1.325
		c-1.109,0-1.621-0.716-1.689-1.345l0.691-0.196c0.043,0.456,0.369,0.875,0.998,0.875c0.522,0,0.795-0.266,0.795-0.604
		c0-0.284-0.209-0.513-0.586-0.592l-0.615-0.131c-0.666-0.135-1.111-0.572-1.111-1.228c0-0.732,0.672-1.338,1.486-1.338
		c1.029,0,1.43,0.629,1.529,1.116L402.319-4.086z"/>
	<path fill="#FFB3B3" d="M407.184-2.045h-1.85l-0.406,1.097h-0.781l1.699-4.37h0.857l1.701,4.37h-0.81L407.184-2.045z M405.594-2.73
		h1.332l-0.666-1.788L405.594-2.73z"/>
	<path fill="#FFB3B3" d="M411.17-4.622v3.674h-0.74v-3.674h-1.418v-0.695h3.582v0.695H411.17z"/>
	<path fill="#FFB3B3" d="M414.065-0.948v-4.37h0.752v4.37H414.065z"/>
	<path fill="#FFB3B3" d="M418.682-5.411c1.146,0,2.226,0.846,2.226,2.275c0,1.437-1.078,2.28-2.226,2.28
		c-1.146,0-2.221-0.845-2.221-2.28C416.463-4.567,417.536-5.411,418.682-5.411z M418.682-1.558c0.738,0,1.468-0.523,1.468-1.577
		c0-1.055-0.729-1.578-1.468-1.578c-0.733,0-1.461,0.523-1.461,1.578C417.221-2.082,417.948-1.558,418.682-1.558z"/>
	<path fill="#FFB3B3" d="M425.454-0.948l-2.156-3.311v3.311h-0.74v-4.37h0.943l1.984,3.102v-3.102h0.739v4.37H425.454z"/>
	<path fill="#FFB3B3" d="M430.344-4.086c-0.043-0.271-0.271-0.672-0.854-0.672c-0.445,0-0.752,0.296-0.752,0.628
		c0,0.277,0.172,0.486,0.512,0.562l0.629,0.129c0.771,0.153,1.184,0.643,1.184,1.258c0,0.679-0.549,1.325-1.549,1.325
		c-1.106,0-1.621-0.716-1.688-1.345l0.688-0.196c0.043,0.456,0.369,0.875,0.998,0.875c0.525,0,0.797-0.266,0.797-0.604
		c0-0.284-0.211-0.513-0.586-0.592l-0.614-0.131c-0.666-0.135-1.111-0.572-1.111-1.228c0-0.732,0.672-1.338,1.486-1.338
		c1.028,0,1.43,0.629,1.526,1.116L430.344-4.086z"/>
	<path fill="#FFB3B3" d="M436.377-2.674h-0.543v1.726h-0.744v-4.37h1.676c0.847,0,1.369,0.585,1.369,1.324
		c0,0.623-0.377,1.099-0.985,1.245l0.985,1.8h-0.84L436.377-2.674z M436.631-3.327c0.455,0,0.752-0.265,0.752-0.666
		c0-0.406-0.297-0.672-0.752-0.672h-0.797v1.338H436.631z"/>
	<path fill="#FFB3B3" d="M439.79-0.948v-4.37h2.699v0.689h-1.959v1.159h1.772v0.672h-1.772v1.158h1.959v0.689L439.79-0.948
		L439.79-0.948z"/>
	<path fill="#FFB3B3" d="M444.243-0.948v-4.37h0.74v3.668h2.004v0.702H444.243z"/>
	<path fill="#FFB3B3" d="M451.184-2.045h-1.85l-0.406,1.097h-0.781l1.699-4.37h0.857l1.701,4.37h-0.81L451.184-2.045z M449.594-2.73
		h1.332l-0.666-1.788L449.594-2.73z"/>
	<path fill="#FFB3B3" d="M455.17-4.622v3.674h-0.74v-3.674h-1.418v-0.695h3.582v0.695H455.17z"/>
	<path fill="#FFB3B3" d="M458.065-0.948v-4.37h2.696v0.689h-1.959v1.159h1.775v0.672h-1.775v1.158h1.959v0.689L458.065-0.948
		L458.065-0.948z"/>
	<path fill="#FFB3B3" d="M462.516-0.948v-4.37h1.55c1.188,0,2.127,0.788,2.127,2.193c0,1.398-0.949,2.176-2.136,2.176L462.516-0.948
		L462.516-0.948z M464.034-1.626c0.758,0,1.387-0.486,1.387-1.498c0-1.022-0.623-1.517-1.381-1.517h-0.783v3.015H464.034z"/>
	<path fill="#FFB3B3" d="M471.94-4.622v3.674h-0.74v-3.674h-1.418v-0.695h3.582v0.695H471.94z"/>
	<path fill="#FFB3B3" d="M476.653-5.411c1.145,0,2.225,0.846,2.225,2.275c0,1.437-1.078,2.28-2.225,2.28
		c-1.148,0-2.222-0.845-2.222-2.28C474.432-4.567,475.504-5.411,476.653-5.411z M476.653-1.558c0.737,0,1.467-0.523,1.467-1.577
		c0-1.055-0.729-1.578-1.467-1.578c-0.734,0-1.461,0.523-1.461,1.578C475.192-2.082,475.918-1.558,476.653-1.558z"/>
</g>
</svg>
