<?xml version="1.0" encoding="utf-8"?>
<!-- Generator: Adobe Illustrator 16.0.0, SVG Export Plug-In . SVG Version: 6.00 Build 0)  -->
<!DOCTYPE svg PUBLIC "-//W3C//DTD SVG 1.1//EN" "http://www.w3.org/Graphics/SVG/1.1/DTD/svg11.dtd">
<svg version="1.1" id="Layer_1" xmlns="http://www.w3.org/2000/svg" xmlns:xlink="http://www.w3.org/1999/xlink" x="0px" y="0px"
	 width="270.523px" height="157.352px" viewBox="0 0 270.523 157.352" enable-background="new 0 0 270.523 157.352"
	 xml:space="preserve">
<g>
	<g>
		<path fill="#FDDFEB" d="M11.925,21.473l-1.271,12l18.745,1.98l-0.822,7.794L9.832,41.265L8.093,57.72L-1,56.76l4.652-44.043
			l29.385,3.105l-0.824,7.794L11.925,21.473z"/>
	</g>
	<g>
		<path fill="#FDDFEB" d="M68.79,21.414c2.938,2.188,5.062,5.092,6.365,8.711c1.308,3.62,1.71,7.802,1.208,12.544
			c-0.501,4.743-1.77,8.748-3.804,12.014c-2.033,3.27-4.717,5.663-8.047,7.188c-3.331,1.523-7.141,2.061-11.429,1.606
			c-4.29-0.453-7.902-1.773-10.841-3.96c-2.938-2.188-5.062-5.091-6.366-8.712c-1.309-3.619-1.71-7.801-1.208-12.544
			c0.501-4.741,1.77-8.747,3.805-12.014c2.032-3.268,4.715-5.663,8.046-7.188c3.33-1.523,7.143-2.061,11.432-1.605
			C62.238,17.908,65.85,19.228,68.79,21.414z M48.295,28.601c-2.322,2.443-3.729,5.996-4.225,10.655
			c-0.491,4.661,0.143,8.429,1.901,11.305c1.761,2.876,4.414,4.5,7.96,4.875s6.48-0.66,8.804-3.104
			c2.321-2.444,3.729-5.996,4.225-10.657c0.492-4.66-0.144-8.428-1.901-11.303c-1.761-2.876-4.414-4.501-7.96-4.876
			S50.618,26.157,48.295,28.601z"/>
	</g>
	<g>
		<path fill="#FDDFEB" d="M114.044,27.635c2.411,2.425,3.408,5.637,2.983,9.637c-0.281,2.683-1.248,4.895-2.892,6.638
			c-1.646,1.744-3.74,2.837-6.29,3.276l-0.014,0.123c1.507,0.743,2.647,1.75,3.435,3.021c0.782,1.271,1.543,3.343,2.283,6.215
			l3.104,12.649l-9.896-1.046l-2.421-10.826c-0.572-2.479-1.354-4.24-2.352-5.283c-0.993-1.044-2.563-1.68-4.709-1.906l-5.011-0.528
			L90.491,66.43l-9.097-0.961l4.653-44.043l16.208,1.713C107.702,23.714,111.629,25.213,114.044,27.635z M93.034,42.367l6.433,0.68
			c5.072,0.536,7.839-1.36,8.297-5.69c0.433-4.083-2.056-6.409-7.457-6.979l-5.938-0.628L93.034,42.367z"/>
	</g>
	<g>
		<path fill="#FDDFEB" d="M135.518,34.535l-1.053,9.959l19.919,2.104l-0.815,7.732l-19.919-2.105l-1.138,10.766l21.897,2.312
			l-0.824,7.794l-30.991-3.273l4.654-44.043l30.438,3.216l-0.823,7.794L135.518,34.535z"/>
	</g>
	<g>
		<path fill="#FDDFEB" d="M161.752,73.961l4.652-44.042l9.096,0.961l-4.653,44.042L161.752,73.961z"/>
	</g>
	<g>
		<path fill="#FDDFEB" d="M216.326,38.163c2.938,2.959,4.393,6.751,4.36,11.376l-9.771-1.033c-0.186-2.229-0.937-3.986-2.257-5.273
			c-1.323-1.287-3.202-2.06-5.636-2.315c-3.55-0.375-6.496,0.681-8.844,3.163c-2.349,2.482-3.77,6.076-4.267,10.776
			c-0.512,4.824,0.099,8.728,1.827,11.703c1.728,2.977,4.347,4.648,7.854,5.021c3.176,0.336,5.701-0.305,7.58-1.919
			c1.885-1.615,3.021-4.111,3.423-7.488l-10.456-1.104l0.784-7.423l18.932,2l-2.559,24.188l-7.67-0.812l0.503-4.764l-0.124-0.014
			c-1.468,1.638-3.354,2.835-5.665,3.591c-2.311,0.758-4.91,0.981-7.798,0.678c-3.752-0.396-6.915-1.656-9.481-3.783
			c-2.567-2.127-4.426-4.972-5.568-8.532c-1.147-3.562-1.475-7.672-0.979-12.332c0.501-4.742,1.781-8.776,3.845-12.104
			c2.062-3.326,4.768-5.752,8.115-7.273c3.354-1.522,7.151-2.06,11.399-1.609C209.235,33.442,213.385,35.205,216.326,38.163z"/>
	</g>
	<g>
		<path fill="#FDDFEB" d="M251.942,83.492l-6.646-18.78c-2.436-6.971-4.475-13.315-6.119-19.036l-0.124-0.013
			c-0.39,6.839-0.896,13.229-1.523,19.167l-1.79,16.95l-8.725-0.923l4.653-44.043l12.929,1.365l6.646,18.779
			c2.435,6.972,4.474,13.317,6.121,19.038l0.123,0.012c0.392-6.839,0.896-13.229,1.524-19.167l1.79-16.948l8.723,0.922
			l-4.652,44.043L251.942,83.492z"/>
	</g>
	<g>
		<path fill="#FDDFEB" d="M22.562,145.651l-2.808,11.021l-9.562,0.592L22.79,112.11l12.292-0.764l18.072,43.259l-9.562,0.592
			l-4.083-10.592L22.562,145.651z M35.431,134.073c-2.43-6.331-4.461-11.979-6.099-16.947l-0.124,0.008
			c-1.173,5.892-2.475,11.744-3.896,17.566l-0.75,2.977l11.981-0.74L35.431,134.073z"/>
	</g>
	<g>
		<path fill="#FDDFEB" d="M64.065,117.402l0.747,12.046l18.812-1.165l0.482,7.821l-18.812,1.166l1.021,16.516l-9.126,0.565
			l-2.737-44.207l29.488-1.827l0.484,7.822L64.065,117.402z"/>
	</g>
	<g>
		<path fill="#FDDFEB" d="M100.323,115.156l0.745,12.045l18.812-1.166l0.484,7.822l-18.812,1.166l1.023,16.516l-9.128,0.564
			l-2.738-44.206l29.491-1.827l0.482,7.823L100.323,115.156z"/>
	</g>
	<g>
		<path fill="#FDDFEB" d="M133.945,138.75l-2.811,11.021l-9.562,0.594l12.599-45.154l12.293-0.765l18.075,43.257l-9.563,0.594
			l-4.082-10.594L133.945,138.75z M146.812,127.17c-2.429-6.33-4.461-11.979-6.098-16.947l-0.125,0.01
			c-1.173,5.893-2.472,11.746-3.899,17.564l-0.746,2.979l11.981-0.742L146.812,127.17z"/>
	</g>
	<g>
		<path fill="#FDDFEB" d="M168.575,147.45l-2.739-44.206l9.127-0.564l2.739,44.205L168.575,147.45z"/>
	</g>
	<g>
		<path fill="#FDDFEB" d="M213.779,103.514c2.781,1.988,4.302,4.99,4.55,9.005c0.167,2.69-0.416,5.03-1.748,7.024
			c-1.331,1.994-3.217,3.42-5.653,4.275l0.009,0.123c1.606,0.48,2.902,1.285,3.889,2.408c0.983,1.121,2.08,3.037,3.285,5.746
			l5.167,11.961l-9.936,0.613l-4.188-10.271c-0.979-2.353-2.042-3.957-3.193-4.819c-1.154-0.861-2.812-1.229-4.962-1.098
			l-5.027,0.312l1.048,16.892l-9.128,0.563l-2.737-44.207l16.268-1.008C206.874,100.701,210.998,101.526,213.779,103.514z
			 M195.514,121.537l6.456-0.4c5.09-0.312,7.501-2.646,7.23-6.989c-0.256-4.103-3.096-5.979-8.517-5.646l-5.959,0.369
			L195.514,121.537z"/>
	</g>
	<g>
		<path fill="#FDDFEB" d="M252.766,100.57c2.986,2.286,4.63,5.812,4.926,10.569l-9.253,0.574c-0.145-2.317-0.915-4.067-2.316-5.248
			c-1.403-1.183-3.348-1.693-5.829-1.541c-2.028,0.125-3.636,0.672-4.82,1.641c-1.187,0.969-1.732,2.177-1.646,3.622
			c0.066,1.116,0.436,2.01,1.099,2.674c0.666,0.667,1.678,1.218,3.032,1.649c1.354,0.438,3.313,0.889,5.88,1.352
			c3.487,0.655,6.315,1.364,8.481,2.124c2.164,0.761,3.979,1.985,5.434,3.685c1.453,1.696,2.274,4.059,2.464,7.076
			c0.173,2.772-0.401,5.262-1.72,7.461c-1.316,2.2-3.244,3.961-5.78,5.279c-2.533,1.318-5.501,2.088-8.896,2.298
			c-5.587,0.347-10.048-0.729-13.382-3.223c-3.333-2.494-5.15-6.228-5.461-11.19l9.438-0.584c0.166,2.688,1.017,4.674,2.551,5.949
			c1.53,1.271,3.705,1.825,6.521,1.65c2.316-0.146,4.141-0.766,5.463-1.864c1.32-1.103,1.933-2.521,1.823-4.259
			c-0.076-1.24-0.446-2.204-1.111-2.893c-0.666-0.687-1.595-1.199-2.776-1.541c-1.187-0.345-3.059-0.769-5.624-1.271
			c-3.656-0.686-6.568-1.399-8.73-2.141c-2.165-0.738-3.997-1.942-5.491-3.617c-1.497-1.672-2.335-4.021-2.521-7.041
			c-0.158-2.565,0.384-4.887,1.626-6.955c1.24-2.071,3.069-3.729,5.486-4.981c2.414-1.251,5.214-1.978,8.402-2.173
			C245.531,97.309,249.778,98.282,252.766,100.57z"/>
	</g>
</g>
<g>
	<path fill="#FDDFEB" d="M60.997,8.396c-0.977-0.872-1.464-2.02-1.464-3.443c0-1.425,0.491-2.572,1.476-3.444S63.289,0.2,64.897,0.2
		c1.064,0,1.988,0.14,2.772,0.42l0.552,3.144h-0.264L66.373,1.46c-0.208-0.304-0.444-0.504-0.708-0.601
		c-0.2-0.071-0.488-0.107-0.864-0.107c-0.88,0-1.596,0.275-2.148,0.828c-0.664,0.655-0.995,1.647-0.995,2.976
		c0,1.32,0.264,2.393,0.792,3.216c0.592,0.92,1.439,1.38,2.544,1.38c0.376,0,0.664-0.035,0.863-0.107
		c0.265-0.096,0.5-0.296,0.708-0.601l1.584-2.304h0.265l-0.637,3.145c-0.783,0.279-1.768,0.42-2.951,0.42
		C63.241,9.703,61.965,9.268,60.997,8.396z"/>
	<path fill="#FDDFEB" d="M70.333,8.781C69.725,8.18,69.421,7.44,69.421,6.56c0-0.952,0.328-1.735,0.983-2.352
		c0.633-0.608,1.425-0.912,2.376-0.912c0.977,0,1.776,0.308,2.4,0.924c0.608,0.6,0.912,1.34,0.912,2.22
		c0,0.952-0.324,1.736-0.972,2.353c-0.641,0.607-1.437,0.912-2.389,0.912C71.757,9.703,70.957,9.396,70.333,8.781z M74.089,6.488
		c0-1.815-0.444-2.724-1.332-2.724c-0.904,0-1.356,0.908-1.356,2.724c0,1.816,0.452,2.725,1.356,2.725
		C73.645,9.212,74.089,8.304,74.089,6.488z"/>
	<path fill="#FDDFEB" d="M77.053,9.164l0.324-0.024c0.216-0.016,0.348-0.048,0.396-0.096c0.057-0.048,0.084-0.176,0.084-0.384V5.263
		L76.945,4.4V4.327l2.688-1.128v1.535c0.288-0.96,0.896-1.439,1.824-1.439c1.136,0,1.704,0.748,1.704,2.244v3.12
		c0,0.208,0.027,0.336,0.084,0.384c0.048,0.048,0.18,0.08,0.396,0.096l0.324,0.024v0.384h-3.252V9.164l0.228-0.024
		c0.217-0.023,0.345-0.056,0.385-0.096c0.04-0.048,0.06-0.176,0.06-0.384V5.876c0-1.017-0.272-1.524-0.816-1.524
		c-0.624,0-0.936,0.513-0.936,1.536V8.66c0,0.208,0.02,0.336,0.06,0.384c0.04,0.04,0.168,0.072,0.385,0.096l0.228,0.024v0.384
		h-3.252V9.164z"/>
	<path fill="#FDDFEB" d="M84.997,4.592c-0.177-0.408-0.412-0.628-0.708-0.66l-0.192-0.023V3.524h3.432v0.385l-0.252,0.023
		c-0.416,0.032-0.544,0.229-0.384,0.588l1.296,2.904l1.104-2.568c0.24-0.56,0.132-0.863-0.324-0.912l-0.336-0.035V3.524h2.388v0.385
		l-0.24,0.023c-0.344,0.041-0.615,0.28-0.815,0.72l-2.232,5.04h-0.479L84.997,4.592z"/>
	<path fill="#FDDFEB" d="M92.089,8.792c-0.561-0.584-0.84-1.332-0.84-2.244c0-0.952,0.328-1.744,0.983-2.376
		c0.608-0.584,1.324-0.876,2.148-0.876c1.632,0,2.607,0.82,2.928,2.46h-4.26c0.008,0.808,0.208,1.472,0.6,1.992
		c0.408,0.536,0.948,0.804,1.62,0.804c0.433,0,0.82-0.12,1.164-0.36c0.384-0.264,0.632-0.636,0.744-1.115h0.348
		c-0.271,1.752-1.308,2.628-3.107,2.628C93.449,9.703,92.673,9.4,92.089,8.792z M93.073,5.252h2.268
		c-0.032-1.032-0.376-1.548-1.032-1.548C93.597,3.703,93.185,4.219,93.073,5.252z"/>
	<path fill="#FDDFEB" d="M98.413,9.164l0.323-0.024c0.217-0.016,0.349-0.048,0.396-0.096c0.056-0.048,0.084-0.176,0.084-0.384V5.263
		L98.305,4.4V4.327l2.688-1.128v2.075c0.304-1.264,1-1.896,2.088-1.896h0.12v1.788l-0.637-0.084
		c-1.048-0.145-1.571,0.092-1.571,0.708v2.868c0,0.199,0.04,0.327,0.119,0.384c0.057,0.032,0.2,0.056,0.433,0.072l0.612,0.035v0.396
		h-3.744V9.164z"/>
	<path fill="#FDDFEB" d="M104.353,9.416l-0.191-2.136h0.264l0.912,1.487c0.2,0.32,0.522,0.48,0.972,0.48
		c0.288,0,0.528-0.076,0.72-0.229c0.208-0.168,0.312-0.384,0.312-0.647c0-0.528-0.308-0.86-0.924-0.996l-0.637-0.145
		c-1.071-0.239-1.607-0.892-1.607-1.956c0-0.607,0.264-1.096,0.792-1.464c0.488-0.344,1.084-0.516,1.788-0.516
		c0.616,0,1.151,0.08,1.607,0.24l0.229,2.04h-0.264l-1.021-1.465c-0.176-0.256-0.439-0.384-0.792-0.384
		c-0.288,0-0.52,0.076-0.696,0.229c-0.185,0.16-0.275,0.376-0.275,0.647c0,0.536,0.308,0.872,0.924,1.008l0.516,0.108
		c1.232,0.264,1.849,0.904,1.849,1.92c0,0.601-0.261,1.096-0.78,1.488c-0.512,0.384-1.16,0.576-1.944,0.576
		C105.537,9.703,104.953,9.608,104.353,9.416z"/>
	<path fill="#FDDFEB" d="M110.425,9.199c-0.368-0.32-0.552-0.708-0.552-1.164c0-0.496,0.26-0.904,0.779-1.225
		c0.225-0.136,0.725-0.348,1.5-0.636c0.576-0.208,0.965-0.436,1.164-0.684c0.145-0.185,0.217-0.448,0.217-0.792
		c0-0.288-0.084-0.524-0.252-0.708c-0.185-0.192-0.425-0.288-0.721-0.288c-0.448,0-0.76,0.159-0.936,0.479
		c-0.185,0.312-0.208,0.736-0.072,1.272c-0.288,0.063-0.556,0.096-0.804,0.096c-0.296,0-0.528-0.072-0.696-0.216
		c-0.144-0.128-0.216-0.276-0.216-0.444c0-0.416,0.508-0.82,1.523-1.212c0.721-0.271,1.376-0.408,1.969-0.408
		c1.271,0,1.892,0.568,1.859,1.704l-0.096,3.78h0.936v0.384l-2.327,0.54l-0.24-1.068c-0.288,0.729-0.832,1.093-1.632,1.093
		C111.269,9.703,110.801,9.535,110.425,9.199z M113.161,8.672c0.168-0.232,0.256-0.568,0.264-1.008l0.012-1.836
		c-0.144,0.12-0.359,0.269-0.647,0.443c-0.624,0.385-0.937,0.889-0.937,1.513c0,0.304,0.068,0.571,0.204,0.804
		c0.152,0.256,0.348,0.384,0.588,0.384C112.853,8.971,113.025,8.872,113.161,8.672z"/>
	<path fill="#FDDFEB" d="M117.973,9.356c-0.296-0.231-0.444-0.644-0.444-1.235V4.448h-1.212V4.376l2.904-2.4h0.084v1.548h2.4
		l-0.576,0.925h-1.824v3.264c0,0.768,0.28,1.152,0.84,1.152c0.305,0,0.628-0.116,0.973-0.349l0.191,0.312
		c-0.656,0.536-1.384,0.804-2.184,0.804C118.589,9.632,118.205,9.54,117.973,9.356z"/>
	<path fill="#FDDFEB" d="M122.149,9.164l0.324-0.024c0.216-0.016,0.348-0.048,0.396-0.096c0.056-0.048,0.084-0.176,0.084-0.384
		V5.263L122.04,4.4V4.327l2.688-1.128v5.46c0,0.208,0.028,0.336,0.084,0.384c0.048,0.048,0.181,0.08,0.396,0.096l0.324,0.024v0.384
		h-3.385L122.149,9.164L122.149,9.164z M123.049,0.248c0.224-0.225,0.484-0.336,0.78-0.336s0.56,0.111,0.792,0.336
		c0.224,0.224,0.336,0.483,0.336,0.779c0,0.297-0.112,0.561-0.336,0.792c-0.225,0.225-0.488,0.337-0.792,0.337
		c-0.296,0-0.557-0.112-0.78-0.337c-0.224-0.231-0.336-0.495-0.336-0.792C122.713,0.732,122.824,0.471,123.049,0.248z"/>
	<path fill="#FDDFEB" d="M127.296,8.781c-0.608-0.601-0.912-1.341-0.912-2.221c0-0.952,0.328-1.735,0.984-2.352
		c0.632-0.608,1.424-0.912,2.376-0.912c0.976,0,1.775,0.308,2.399,0.924c0.608,0.6,0.912,1.34,0.912,2.22
		c0,0.952-0.324,1.736-0.972,2.353c-0.641,0.607-1.437,0.912-2.389,0.912C128.72,9.703,127.92,9.396,127.296,8.781z M131.052,6.488
		c0-1.815-0.444-2.724-1.332-2.724c-0.904,0-1.356,0.908-1.356,2.724c0,1.816,0.452,2.725,1.356,2.725
		C130.608,9.212,131.052,8.304,131.052,6.488z"/>
	<path fill="#FDDFEB" d="M134.016,9.164l0.324-0.024c0.216-0.016,0.349-0.048,0.396-0.096c0.058-0.048,0.084-0.176,0.084-0.384
		V5.263L133.908,4.4V4.327l2.688-1.128v1.535c0.287-0.96,0.896-1.439,1.822-1.439c1.137,0,1.705,0.748,1.705,2.244v3.12
		c0,0.208,0.026,0.336,0.084,0.384c0.047,0.048,0.18,0.08,0.396,0.096l0.324,0.024v0.384h-3.254V9.164l0.229-0.024
		c0.218-0.023,0.345-0.056,0.386-0.096c0.039-0.048,0.061-0.176,0.061-0.384V5.876c0-1.017-0.272-1.524-0.815-1.524
		c-0.625,0-0.937,0.513-0.937,1.536V8.66c0,0.208,0.021,0.336,0.06,0.384c0.04,0.04,0.168,0.072,0.385,0.096l0.229,0.024v0.384
		h-3.252L134.016,9.164L134.016,9.164z"/>
	<path fill="#FDDFEB" d="M142.105,9.416l-0.19-2.136h0.264l0.912,1.487c0.199,0.32,0.522,0.48,0.971,0.48
		c0.289,0,0.529-0.076,0.722-0.229c0.206-0.168,0.312-0.384,0.312-0.647c0-0.528-0.309-0.86-0.924-0.996l-0.637-0.145
		c-1.072-0.239-1.607-0.892-1.607-1.956c0-0.607,0.264-1.096,0.791-1.464c0.488-0.344,1.084-0.516,1.789-0.516
		c0.615,0,1.15,0.08,1.606,0.24l0.229,2.04h-0.266l-1.021-1.465c-0.176-0.256-0.438-0.384-0.791-0.384
		c-0.289,0-0.521,0.076-0.697,0.229c-0.184,0.16-0.274,0.376-0.274,0.647c0,0.536,0.309,0.872,0.924,1.008l0.516,0.108
		c1.232,0.264,1.851,0.904,1.851,1.92c0,0.601-0.263,1.096-0.781,1.488c-0.512,0.384-1.16,0.576-1.943,0.576
		C143.288,9.703,142.704,9.608,142.105,9.416z"/>
	<path fill="#FDDFEB" d="M150.491,9.164l0.323-0.024c0.218-0.016,0.349-0.048,0.396-0.096c0.055-0.048,0.084-0.176,0.084-0.384
		V5.263L150.384,4.4V4.327l2.688-1.128v2.075c0.306-1.264,1-1.896,2.089-1.896h0.121v1.788l-0.638-0.084
		c-1.049-0.145-1.572,0.092-1.572,0.708v2.868c0,0.199,0.039,0.327,0.119,0.384c0.058,0.032,0.201,0.056,0.435,0.072l0.61,0.035
		v0.396h-3.743L150.491,9.164L150.491,9.164z"/>
	<path fill="#FDDFEB" d="M156.839,8.792c-0.56-0.584-0.84-1.332-0.84-2.244c0-0.952,0.328-1.744,0.983-2.376
		c0.607-0.584,1.324-0.876,2.148-0.876c1.631,0,2.606,0.82,2.928,2.46h-4.26c0.008,0.808,0.207,1.472,0.6,1.992
		c0.408,0.536,0.947,0.804,1.619,0.804c0.435,0,0.82-0.12,1.164-0.36c0.385-0.264,0.633-0.636,0.744-1.115h0.35
		c-0.272,1.752-1.309,2.628-3.108,2.628C158.2,9.703,157.423,9.4,156.839,8.792z M157.823,5.252h2.268
		c-0.031-1.032-0.375-1.548-1.031-1.548C158.347,3.703,157.935,4.219,157.823,5.252z"/>
	<path fill="#FDDFEB" d="M163.056,9.164l0.324-0.024c0.215-0.016,0.348-0.048,0.395-0.096c0.058-0.048,0.084-0.176,0.084-0.384
		V1.688l-0.912-0.768V0.847l2.689-0.924v8.736c0,0.208,0.027,0.336,0.084,0.384c0.047,0.048,0.18,0.08,0.396,0.096l0.323,0.024
		v0.384h-3.383V9.164L163.056,9.164z"/>
	<path fill="#FDDFEB" d="M167.855,9.199c-0.367-0.32-0.551-0.708-0.551-1.164c0-0.496,0.26-0.904,0.779-1.225
		c0.225-0.136,0.725-0.348,1.5-0.636c0.576-0.208,0.965-0.436,1.164-0.684c0.145-0.185,0.217-0.448,0.217-0.792
		c0-0.288-0.084-0.524-0.252-0.708c-0.187-0.192-0.426-0.288-0.721-0.288c-0.447,0-0.761,0.159-0.937,0.479
		c-0.186,0.312-0.209,0.736-0.072,1.272c-0.289,0.063-0.557,0.096-0.805,0.096c-0.295,0-0.527-0.072-0.695-0.216
		c-0.145-0.128-0.217-0.276-0.217-0.444c0-0.416,0.508-0.82,1.525-1.212c0.719-0.271,1.375-0.408,1.967-0.408
		c1.271,0,1.893,0.568,1.861,1.704l-0.099,3.78h0.938v0.384l-2.328,0.54l-0.24-1.068c-0.289,0.729-0.832,1.093-1.633,1.093
		C168.698,9.703,168.232,9.535,167.855,9.199z M170.591,8.672c0.168-0.232,0.256-0.568,0.264-1.008l0.013-1.836
		c-0.144,0.12-0.359,0.269-0.646,0.443c-0.625,0.385-0.938,0.889-0.938,1.513c0,0.304,0.067,0.571,0.204,0.804
		c0.152,0.256,0.349,0.384,0.589,0.384C170.282,8.971,170.454,8.872,170.591,8.672z"/>
	<path fill="#FDDFEB" d="M175.404,9.356c-0.295-0.231-0.442-0.644-0.442-1.235V4.448h-1.213V4.376l2.903-2.4h0.084v1.548h2.4
		l-0.576,0.925h-1.824v3.264c0,0.768,0.281,1.152,0.841,1.152c0.305,0,0.629-0.116,0.973-0.349l0.191,0.312
		c-0.656,0.536-1.384,0.804-2.185,0.804C176.021,9.632,175.636,9.54,175.404,9.356z"/>
	<path fill="#FDDFEB" d="M180.275,8.792c-0.559-0.584-0.84-1.332-0.84-2.244c0-0.952,0.328-1.744,0.984-2.376
		c0.606-0.584,1.324-0.876,2.147-0.876c1.631,0,2.607,0.82,2.929,2.46h-4.261c0.009,0.808,0.207,1.472,0.601,1.992
		c0.408,0.536,0.947,0.804,1.619,0.804c0.434,0,0.819-0.12,1.164-0.36c0.385-0.264,0.633-0.636,0.743-1.115h0.351
		c-0.273,1.752-1.31,2.628-3.109,2.628C181.636,9.703,180.859,9.4,180.275,8.792z M181.259,5.252h2.268
		c-0.03-1.032-0.375-1.548-1.03-1.548C181.782,3.703,181.37,4.219,181.259,5.252z"/>
	<path fill="#FDDFEB" d="M187.378,8.876c-0.496-0.592-0.742-1.389-0.742-2.389c0-0.936,0.268-1.707,0.803-2.315
		c0.527-0.584,1.181-0.876,1.957-0.876c0.543,0,0.996,0.191,1.355,0.576V1.688l-1.129-0.768V0.847l2.903-0.924v8.832h0.877v0.384
		l-2.651,0.54V8.96c-0.439,0.496-0.98,0.744-1.621,0.744C188.427,9.703,187.843,9.427,187.378,8.876z M189.034,8.216
		c0.264,0.44,0.604,0.66,1.021,0.66c0.271,0,0.504-0.08,0.695-0.24V4.208c-0.176-0.152-0.396-0.229-0.66-0.229
		c-0.432,0-0.783,0.221-1.057,0.66c-0.279,0.456-0.421,1.068-0.421,1.836C188.615,7.179,188.755,7.76,189.034,8.216z"/>
	<path fill="#FDDFEB" d="M198.3,9.356c-0.297-0.231-0.445-0.644-0.445-1.235V4.448h-1.211V4.376l2.904-2.4h0.084v1.548h2.397
		l-0.573,0.925h-1.824v3.264c0,0.768,0.279,1.152,0.84,1.152c0.303,0,0.627-0.116,0.971-0.349l0.193,0.312
		c-0.656,0.536-1.385,0.804-2.184,0.804C198.915,9.632,198.531,9.54,198.3,9.356z"/>
	<path fill="#FDDFEB" d="M203.232,8.781c-0.608-0.601-0.912-1.341-0.912-2.221c0-0.952,0.326-1.735,0.982-2.352
		c0.633-0.608,1.424-0.912,2.377-0.912c0.977,0,1.775,0.308,2.4,0.924c0.606,0.6,0.912,1.34,0.912,2.22
		c0,0.952-0.324,1.736-0.974,2.353c-0.641,0.607-1.436,0.912-2.389,0.912C204.656,9.703,203.855,9.396,203.232,8.781z
		 M206.988,6.488c0-1.815-0.444-2.724-1.331-2.724c-0.904,0-1.357,0.908-1.357,2.724c0,1.816,0.453,2.725,1.357,2.725
		C206.542,9.212,206.988,8.304,206.988,6.488z"/>
</g>
</svg>
