<?xml version="1.0" encoding="utf-8"?>
<!-- Generator: Adobe Illustrator 16.0.0, SVG Export Plug-In . SVG Version: 6.00 Build 0)  -->
<!DOCTYPE svg PUBLIC "-//W3C//DTD SVG 1.1//EN" "http://www.w3.org/Graphics/SVG/1.1/DTD/svg11.dtd">
<svg version="1.1" id="Layer_1" xmlns="http://www.w3.org/2000/svg" xmlns:xlink="http://www.w3.org/1999/xlink" x="0px" y="0px"
	 width="323.902px" height="281px" viewBox="0 0 323.902 281" enable-background="new 0 0 323.902 281" xml:space="preserve">
<g>
	<path d="M79.787,12.267v57.05H65.474v-57.05H43.666V0h57.928v12.267H79.787z"/>
	<path d="M113.078,11.682V0h13.631v11.682H113.078z M113.078,69.316V19.86h13.631v49.456H113.078z"/>
	<path d="M213.792,23.852c3.082,3.44,4.622,8.47,4.622,15.091v30.374h-13.629V40.305c0-3.634-0.682-6.36-2.044-8.178
		c-1.363-1.816-3.276-2.725-5.745-2.725c-2.919,0-5.157,1.25-6.714,3.747c-1.562,2.5-2.338,6.084-2.338,10.757v25.411h-13.631
		V39.428c0-3.179-0.665-5.645-1.997-7.398c-1.331-1.752-3.26-2.628-5.791-2.628c-2.919,0-5.157,1.25-6.719,3.747
		c-1.557,2.5-2.333,6.084-2.333,10.757v25.411h-13.631V19.86h12.852v5.647h0.192c1.818-2.338,3.831-4.057,6.038-5.16
		c2.206-1.104,4.77-1.656,7.689-1.656c3.442,0,6.409,0.715,8.909,2.141c2.498,1.428,4.428,3.539,5.791,6.328
		c1.949-2.789,4.155-4.9,6.619-6.328c2.469-1.426,5.519-2.141,9.155-2.141C206.472,18.692,210.707,20.413,213.792,23.852z"/>
	<path d="M263.098,59.337c1.756-1.266,2.793-2.935,3.118-5.013h13.921c-0.65,3.051-2.028,5.842-4.136,8.373
		c-2.111,2.531-4.837,4.526-8.181,5.987c-3.343,1.46-7.122,2.189-11.342,2.189c-5.125,0-9.539-1.119-13.238-3.357
		c-3.7-2.241-6.524-5.37-8.47-9.395c-1.948-4.025-2.924-8.666-2.924-13.922c0-4.933,0.976-9.347,2.924-13.241
		c1.945-3.895,4.77-6.977,8.47-9.248c3.699-2.272,8.081-3.409,13.144-3.409c5.646,0,10.478,1.477,14.503,4.431
		c4.024,2.953,6.817,6.96,8.374,12.023c1.038,3.31,1.557,7.53,1.557,12.657h-35.533c0.194,4.803,1.315,8.309,3.359,10.513
		c2.044,2.208,4.653,3.31,7.835,3.31C259.141,61.235,261.348,60.603,263.098,59.337z M249.226,30.667
		c-1.913,1.816-3.129,4.543-3.648,8.176h21.608c-0.387-3.567-1.572-6.278-3.552-8.128c-1.978-1.851-4.397-2.775-7.25-2.775
		C253.525,27.939,251.139,28.851,249.226,30.667z"/>
	<path d="M65.862,108.225V96.543h13.631v11.682H65.862z M65.862,165.859v-49.456h13.631v49.456H65.862z"/>
	<path d="M130.31,119.128c3.637,2.857,5.451,7.01,5.451,12.461h-13.045c0-4.801-2.595-7.203-7.788-7.203
		c-2.14,0-3.795,0.405-4.964,1.218c-1.168,0.812-1.755,1.931-1.755,3.357c0,1.169,0.356,2.094,1.074,2.775
		c0.712,0.682,1.751,1.251,3.114,1.703c1.362,0.456,3.505,1.072,6.425,1.851c4.155,1.105,7.432,2.144,9.833,3.115
		c2.4,0.975,4.464,2.531,6.184,4.672c1.719,2.145,2.578,5.098,2.578,8.86c0,4.675-1.961,8.422-5.891,11.245
		c-3.925,2.824-9.23,4.234-15.917,4.234c-7.008,0-12.458-1.476-16.356-4.429c-3.895-2.953-5.839-7.35-5.839-13.191h13.825
		c0,2.467,0.745,4.381,2.238,5.744c1.494,1.362,3.632,2.044,6.425,2.044c2.337,0,4.12-0.422,5.356-1.267
		c1.231-0.841,1.85-2.009,1.85-3.503c0-1.363-0.392-2.451-1.168-3.263c-0.78-0.81-1.866-1.46-3.265-1.947
		c-1.395-0.487-3.716-1.15-6.96-1.995c-3.895-1.036-6.929-1.995-9.104-2.873c-2.175-0.875-4.057-2.319-5.645-4.332
		c-1.592-2.01-2.385-4.801-2.385-8.372c0-2.92,0.86-5.532,2.579-7.837c1.719-2.301,4.12-4.104,7.206-5.404
		c3.082-1.296,6.635-1.946,10.66-1.946C121.58,114.845,126.673,116.275,130.31,119.128z"/>
	<path d="M192.326,120.444c3.244,3.472,4.868,8.485,4.868,15.042v30.373h-13.631v-29.011c0-3.635-0.765-6.36-2.289-8.178
		c-1.525-1.816-3.649-2.726-6.375-2.726c-2.923,0-5.276,1.153-7.06,3.456c-1.785,2.303-2.677,5.631-2.677,9.979v26.479h-13.632
		v-49.456h12.756v6.232h0.194c1.688-2.272,3.763-4.072,6.231-5.404c2.464-1.331,5.226-1.997,8.275-1.997
		C184.632,115.234,189.078,116.972,192.326,120.444z"/>
	<path d="M216.857,124.582h-6.911l4.574-14.215h-4.281V96.543h12.75v13.823L216.857,124.582z"/>
	<path d="M265.243,155.15v10.419c-2.08,0.647-4.481,0.972-7.207,0.972c-5.712,0-9.863-1.247-12.458-3.747
		c-2.599-2.497-3.895-6.604-3.895-12.315v-23.949h-7.985v-10.126h7.985v-12.85h13.627v12.85h9.445v10.126h-9.445v21.513
		c0,2.726,0.487,4.674,1.463,5.842c0.975,1.169,2.626,1.754,4.963,1.754C263.098,155.638,264.267,155.477,265.243,155.15z"/>
	<path d="M66.108,262.404V227.94c0-8.694,0.194-17.36,0.582-25.992h-0.194c-2.144,8.176-4.611,16.68-7.4,25.505l-11.001,34.951
		H31.739l-11-34.951c-2.789-8.825-5.257-17.329-7.4-25.505h-0.194c0.392,8.632,0.586,17.298,0.586,25.992v34.464H0v-69.315h22.976
		l10.031,31.833c2.726,8.7,4.995,17.2,6.813,25.508h0.194c1.818-8.308,4.088-16.808,6.817-25.508l10.026-31.833h22.976v69.315
		H66.108z"/>
	<path d="M133.816,214.603c3.795,2.143,6.73,5.193,8.811,9.152c2.075,3.959,3.114,8.601,3.114,13.92
		c0,5.324-1.039,9.966-3.114,13.923c-2.08,3.959-5.016,7.01-8.811,9.15c-3.799,2.144-8.26,3.213-13.386,3.213
		c-5.13,0-9.59-1.069-13.389-3.213c-3.795-2.141-6.731-5.191-8.81-9.15c-2.076-3.957-3.114-8.599-3.114-13.923
		c0-5.319,1.038-9.961,3.114-13.92c2.079-3.959,5.015-7.01,8.81-9.152c3.799-2.143,8.259-3.213,13.389-3.213
		C125.556,211.39,130.017,212.46,133.816,214.603z M112.397,226.188c-1.981,2.857-2.967,6.687-2.967,11.487
		c0,4.806,0.986,8.635,2.967,11.488c1.98,2.858,4.658,4.284,8.033,4.284c3.372,0,6.049-1.426,8.03-4.284
		c1.98-2.854,2.971-6.683,2.971-11.488c0-4.801-0.991-8.63-2.971-11.487c-1.981-2.854-4.659-4.282-8.03-4.282
		C117.055,221.906,114.377,223.333,112.397,226.188z"/>
	<path d="M200.454,216.989c3.245,3.473,4.87,8.486,4.87,15.042v30.373h-13.632v-29.011c0-3.635-0.761-6.36-2.285-8.179
		c-1.525-1.815-3.653-2.726-6.379-2.726c-2.919,0-5.271,1.153-7.059,3.458c-1.783,2.303-2.674,5.63-2.674,9.978v26.479h-13.632
		v-49.455h12.752v6.231h0.198c1.684-2.271,3.764-4.072,6.228-5.403c2.468-1.332,5.226-1.996,8.275-1.996
		C192.765,211.781,197.209,213.517,200.454,216.989z"/>
	<path d="M250.006,252.426c1.755-1.266,2.793-2.936,3.117-5.013h13.921c-0.649,3.05-2.027,5.84-4.136,8.371
		c-2.111,2.531-4.837,4.526-8.181,5.988c-3.343,1.46-7.122,2.188-11.341,2.188c-5.126,0-9.539-1.119-13.24-3.357
		c-3.699-2.239-6.523-5.369-8.469-9.395c-1.948-4.024-2.923-8.666-2.923-13.922c0-4.932,0.975-9.348,2.923-13.241
		c1.945-3.895,4.77-6.976,8.469-9.247c3.701-2.272,8.082-3.409,13.145-3.409c5.646,0,10.478,1.478,14.503,4.431
		s6.818,6.96,8.374,12.022c1.038,3.31,1.557,7.531,1.557,12.656h-35.532c0.192,4.804,1.314,8.311,3.358,10.515
		c2.044,2.208,4.655,3.31,7.836,3.31C246.048,254.324,248.255,253.691,250.006,252.426z M236.133,223.755
		c-1.913,1.816-3.129,4.544-3.647,8.177h21.609c-0.389-3.567-1.573-6.279-3.555-8.13c-1.977-1.85-4.396-2.774-7.249-2.774
		C240.432,221.028,238.047,221.939,236.133,223.755z"/>
	<path d="M300.585,273.649c-2.044,2.628-4.496,4.511-7.353,5.646c-2.855,1.136-6.394,1.704-10.612,1.704
		c-2.531,0-4.9-0.259-7.106-0.778v-10.903c1.431,0.519,3.181,0.777,5.257,0.777c2.729,0,4.92-0.73,6.571-2.189
		c1.656-1.461,2.484-3.394,2.484-5.792c0-0.909-0.146-1.946-0.44-3.116c-0.288-1.169-0.923-3.115-1.897-5.841l-14.019-40.208h14.604
		l5.062,16.551c2.077,6.944,3.896,13.857,5.452,20.735h0.193c1.945-7.981,3.862-14.895,5.745-20.735l5.355-16.551h14.019
		l-17.719,49.747C304.495,267.37,302.629,271.02,300.585,273.649z"/>
</g>
</svg>
