<?xml version="1.0" encoding="utf-8"?>
<!-- Generator: Adobe Illustrator 16.0.0, SVG Export Plug-In . SVG Version: 6.00 Build 0)  -->
<!DOCTYPE svg PUBLIC "-//W3C//DTD SVG 1.1//EN" "http://www.w3.org/Graphics/SVG/1.1/DTD/svg11.dtd">
<svg version="1.1" id="Layer_1" xmlns="http://www.w3.org/2000/svg" xmlns:xlink="http://www.w3.org/1999/xlink" x="0px" y="0px"
	 width="270.524px" height="161.527px" viewBox="-1 -4.263 270.524 161.527" enable-background="new -1 -4.263 270.524 161.527"
	 xml:space="preserve">
<g>
	<g>
		<path fill="#FDDFEB" d="M11.925,21.473l-1.271,12l18.745,1.98l-0.822,7.794L9.832,41.265L8.093,57.72L-1,56.76l4.652-44.043
			l29.385,3.105l-0.824,7.794L11.925,21.473z"/>
	</g>
	<g>
		<path fill="#FDDFEB" d="M68.79,21.414c2.938,2.188,5.062,5.092,6.365,8.711c1.308,3.62,1.71,7.802,1.208,12.544
			c-0.501,4.743-1.771,8.748-3.804,12.014c-2.033,3.271-4.718,5.663-8.047,7.188c-3.331,1.522-7.142,2.061-11.43,1.605
			c-4.29-0.453-7.901-1.772-10.841-3.96c-2.938-2.188-5.062-5.091-6.366-8.712c-1.309-3.619-1.71-7.801-1.208-12.544
			c0.501-4.741,1.771-8.747,3.806-12.014c2.031-3.269,4.715-5.663,8.046-7.188c3.33-1.522,7.143-2.061,11.432-1.604
			C62.238,17.908,65.85,19.228,68.79,21.414z M48.295,28.601c-2.321,2.443-3.729,5.996-4.225,10.655
			c-0.491,4.661,0.143,8.429,1.901,11.305c1.761,2.876,4.413,4.5,7.96,4.875c3.546,0.375,6.479-0.66,8.804-3.104
			c2.321-2.444,3.729-5.996,4.225-10.657c0.492-4.66-0.144-8.428-1.9-11.303c-1.762-2.876-4.414-4.501-7.96-4.876
			S50.618,26.157,48.295,28.601z"/>
	</g>
	<g>
		<path fill="#FDDFEB" d="M114.044,27.635c2.411,2.425,3.408,5.637,2.983,9.637c-0.281,2.684-1.248,4.896-2.893,6.639
			c-1.646,1.743-3.739,2.837-6.289,3.275l-0.015,0.123c1.507,0.743,2.647,1.75,3.436,3.021c0.781,1.271,1.543,3.343,2.282,6.215
			l3.104,12.648l-9.896-1.046l-2.421-10.825c-0.571-2.479-1.354-4.24-2.352-5.283c-0.993-1.044-2.563-1.681-4.709-1.906
			l-5.011-0.528L90.491,66.43l-9.097-0.961l4.652-44.043l16.208,1.713C107.702,23.714,111.629,25.213,114.044,27.635z
			 M93.034,42.367l6.433,0.68c5.072,0.536,7.84-1.36,8.298-5.69c0.433-4.083-2.057-6.408-7.457-6.979l-5.938-0.628L93.034,42.367z"
			/>
	</g>
	<g>
		<path fill="#FDDFEB" d="M135.518,34.535l-1.054,9.959l19.919,2.104l-0.814,7.732l-19.919-2.105l-1.138,10.767l21.896,2.312
			l-0.824,7.794l-30.99-3.272l4.653-44.043l30.438,3.216l-0.823,7.794L135.518,34.535z"/>
	</g>
	<g>
		<path fill="#FDDFEB" d="M161.752,73.961l4.652-44.042l9.096,0.961l-4.652,44.042L161.752,73.961z"/>
	</g>
	<g>
		<path fill="#FDDFEB" d="M216.326,38.163c2.938,2.959,4.394,6.751,4.36,11.376l-9.771-1.033c-0.186-2.229-0.937-3.986-2.257-5.273
			c-1.323-1.287-3.202-2.06-5.636-2.314c-3.55-0.375-6.496,0.681-8.844,3.163c-2.35,2.481-3.771,6.076-4.268,10.775
			c-0.512,4.824,0.099,8.729,1.827,11.703c1.728,2.978,4.347,4.648,7.854,5.021c3.177,0.336,5.701-0.306,7.58-1.919
			c1.886-1.615,3.021-4.111,3.424-7.488l-10.456-1.104l0.783-7.423l18.933,2l-2.56,24.188l-7.67-0.812l0.503-4.764l-0.124-0.014
			c-1.468,1.638-3.354,2.835-5.665,3.591c-2.311,0.758-4.909,0.98-7.798,0.678c-3.752-0.396-6.915-1.656-9.48-3.783
			c-2.567-2.127-4.426-4.972-5.568-8.531c-1.146-3.562-1.475-7.673-0.979-12.332c0.501-4.742,1.78-8.776,3.845-12.104
			c2.062-3.326,4.768-5.752,8.115-7.272c3.354-1.522,7.15-2.061,11.398-1.609C209.235,33.442,213.385,35.205,216.326,38.163z"/>
	</g>
	<g>
		<path fill="#FDDFEB" d="M251.942,83.492l-6.646-18.78c-2.436-6.971-4.475-13.315-6.119-19.036l-0.123-0.013
			c-0.391,6.839-0.896,13.229-1.523,19.167l-1.79,16.95l-8.725-0.924l4.652-44.043l12.93,1.365l6.646,18.779
			c2.436,6.972,4.474,13.316,6.121,19.038l0.123,0.012c0.392-6.839,0.896-13.229,1.523-19.167l1.79-16.948l8.724,0.922
			l-4.652,44.043L251.942,83.492z"/>
	</g>
	<g>
		<path fill="#FDDFEB" d="M22.562,145.651l-2.809,11.021l-9.562,0.592L22.79,112.11l12.292-0.764l18.072,43.259l-9.562,0.592
			l-4.083-10.592L22.562,145.651z M35.431,134.073c-2.431-6.331-4.461-11.979-6.1-16.947l-0.124,0.008
			c-1.173,5.892-2.475,11.744-3.896,17.566l-0.75,2.977l11.98-0.74L35.431,134.073z"/>
	</g>
	<g>
		<path fill="#FDDFEB" d="M64.065,117.402l0.747,12.047l18.812-1.165l0.482,7.82l-18.812,1.166l1.021,16.517l-9.126,0.564
			l-2.737-44.207l29.488-1.827l0.483,7.822L64.065,117.402z"/>
	</g>
	<g>
		<path fill="#FDDFEB" d="M100.323,115.156l0.745,12.045l18.812-1.166l0.484,7.821l-18.812,1.166l1.023,16.517l-9.128,0.563
			l-2.738-44.206l29.491-1.827l0.482,7.823L100.323,115.156z"/>
	</g>
	<g>
		<path fill="#FDDFEB" d="M133.945,138.75l-2.812,11.021l-9.562,0.595l12.599-45.154l12.293-0.766l18.075,43.258l-9.562,0.594
			l-4.082-10.594L133.945,138.75z M146.812,127.17c-2.43-6.33-4.461-11.979-6.099-16.947l-0.125,0.01
			c-1.173,5.894-2.472,11.746-3.898,17.564l-0.746,2.979l11.98-0.741L146.812,127.17z"/>
	</g>
	<g>
		<path fill="#FDDFEB" d="M168.575,147.45l-2.739-44.206l9.127-0.564l2.739,44.205L168.575,147.45z"/>
	</g>
	<g>
		<path fill="#FDDFEB" d="M213.779,103.514c2.781,1.988,4.302,4.99,4.55,9.005c0.167,2.69-0.416,5.03-1.748,7.024
			c-1.331,1.994-3.217,3.42-5.652,4.274l0.009,0.123c1.605,0.48,2.901,1.285,3.889,2.408c0.983,1.121,2.08,3.037,3.285,5.746
			l5.167,11.961l-9.937,0.613l-4.188-10.271c-0.979-2.353-2.042-3.957-3.193-4.818c-1.153-0.861-2.812-1.229-4.962-1.099
			l-5.026,0.312l1.048,16.892l-9.128,0.563l-2.737-44.207l16.268-1.008C206.874,100.701,210.998,101.526,213.779,103.514z
			 M195.514,121.537l6.456-0.4c5.09-0.312,7.501-2.646,7.229-6.989c-0.256-4.103-3.096-5.979-8.517-5.646l-5.959,0.369
			L195.514,121.537z"/>
	</g>
	<g>
		<path fill="#FDDFEB" d="M252.766,100.57c2.985,2.286,4.63,5.812,4.926,10.569l-9.253,0.574c-0.146-2.317-0.915-4.067-2.316-5.248
			c-1.402-1.183-3.348-1.693-5.829-1.541c-2.027,0.125-3.636,0.672-4.819,1.641c-1.188,0.97-1.732,2.178-1.646,3.622
			c0.066,1.116,0.437,2.01,1.1,2.674c0.665,0.667,1.678,1.219,3.031,1.649c1.354,0.438,3.313,0.889,5.88,1.352
			c3.487,0.655,6.315,1.364,8.481,2.124c2.164,0.762,3.979,1.985,5.434,3.686c1.453,1.696,2.274,4.059,2.464,7.076
			c0.174,2.771-0.4,5.262-1.72,7.461c-1.315,2.2-3.244,3.961-5.78,5.278c-2.532,1.318-5.501,2.089-8.896,2.299
			c-5.587,0.347-10.048-0.729-13.382-3.224c-3.333-2.494-5.15-6.228-5.461-11.189l9.438-0.584c0.166,2.688,1.018,4.674,2.551,5.948
			c1.53,1.271,3.705,1.825,6.521,1.65c2.316-0.146,4.141-0.766,5.463-1.864c1.32-1.103,1.933-2.521,1.823-4.259
			c-0.076-1.24-0.446-2.204-1.111-2.893c-0.666-0.688-1.595-1.199-2.775-1.541c-1.188-0.346-3.06-0.77-5.624-1.271
			c-3.656-0.686-6.568-1.398-8.73-2.141c-2.165-0.738-3.997-1.942-5.491-3.617c-1.497-1.672-2.335-4.021-2.521-7.041
			c-0.158-2.565,0.384-4.887,1.626-6.955c1.24-2.071,3.068-3.729,5.485-4.98c2.414-1.251,5.215-1.979,8.402-2.174
			C245.531,97.309,249.778,98.282,252.766,100.57z"/>
	</g>
</g>
<g>
	<path fill="#FDDFEB" d="M55.169,1.635c0-0.569,0.082-1.124,0.245-1.664c0.163-0.541,0.409-1.045,0.738-1.514
		c0.329-0.468,0.719-0.88,1.169-1.233c0.451-0.354,0.984-0.633,1.601-0.835c0.616-0.201,1.274-0.303,1.974-0.303
		c0.477,0,0.976,0.041,1.5,0.121s0.909,0.151,1.158,0.214c0.249,0.062,0.625,0.163,1.127,0.303
		c-0.021,0.528-0.031,0.853-0.031,0.972c0,0.093,0.005,0.382,0.016,0.866s0.016,0.768,0.016,0.851c0,0.072-0.021,0.108-0.062,0.108
		c-0.042,0-0.062-0.025-0.062-0.078c0-0.021,0-0.068,0-0.145c0-0.075,0-0.126,0-0.152c0-0.025-0.001-0.072-0.004-0.141
		c-0.002-0.067-0.008-0.119-0.015-0.156c-0.008-0.036-0.019-0.086-0.031-0.148c-0.013-0.062-0.029-0.117-0.047-0.164
		s-0.042-0.1-0.07-0.16c-0.028-0.06-0.062-0.118-0.101-0.176c-0.039-0.057-0.082-0.117-0.128-0.18
		c-0.316-0.396-0.775-0.711-1.375-0.945c-0.601-0.234-1.251-0.352-1.951-0.352c-0.539,0-1.064,0.104-1.577,0.312
		c-0.513,0.207-0.979,0.502-1.399,0.883C57.438-1.7,57.1-1.202,56.844-0.587c-0.256,0.614-0.384,1.296-0.384,2.043
		c0,0.653,0.096,1.257,0.288,1.81c0.191,0.553,0.436,1.009,0.734,1.369c0.298,0.361,0.635,0.669,1.01,0.923s0.744,0.438,1.104,0.549
		s0.703,0.167,1.03,0.167c0.787,0,1.516-0.142,2.188-0.424c0.67-0.283,1.172-0.582,1.503-0.899c0.067-0.067,0.132-0.183,0.194-0.346
		c0.062-0.164,0.093-0.295,0.093-0.394l-0.016-0.155c0-0.042,0.021-0.062,0.062-0.062s0.062,0.047,0.062,0.14
		c0,0.109-0.021,0.371-0.062,0.786c-0.021,0.224-0.031,0.579-0.031,1.066c-0.648,0.208-1.129,0.358-1.445,0.451
		c-0.316,0.094-0.724,0.185-1.224,0.272s-0.978,0.132-1.434,0.132c-0.72,0-1.408-0.13-2.063-0.389
		c-0.656-0.26-1.224-0.615-1.706-1.066c-0.482-0.451-0.865-1.003-1.15-1.653C55.312,3.081,55.169,2.382,55.169,1.635z"/>
	<path fill="#FDDFEB" d="M66.079,3.787c0-0.436,0.113-0.882,0.338-1.341c0.226-0.458,0.516-0.862,0.871-1.212
		c0.354-0.35,0.764-0.637,1.228-0.862c0.463-0.226,0.921-0.338,1.372-0.338c0.829,0,1.545,0.295,2.148,0.886
		s0.905,1.303,0.905,2.137c0,0.42-0.106,0.856-0.318,1.31s-0.49,0.861-0.832,1.224s-0.75,0.662-1.224,0.897
		c-0.474,0.235-0.952,0.354-1.434,0.354c-0.554,0-1.068-0.146-1.542-0.439c-0.474-0.292-0.844-0.673-1.111-1.142
		C66.212,4.791,66.079,4.3,66.079,3.787z M66.895,3.057c0,0.591,0.144,1.119,0.431,1.585c0.288,0.467,0.661,0.82,1.119,1.061
		c0.458,0.241,0.949,0.361,1.473,0.361c0.59,0,1.106-0.199,1.546-0.598c0.44-0.399,0.661-0.948,0.661-1.647
		c0-0.86-0.29-1.576-0.87-2.148c-0.581-0.572-1.292-0.859-2.137-0.859c-0.368,0-0.693,0.059-0.975,0.175
		c-0.282,0.117-0.5,0.258-0.653,0.424s-0.276,0.358-0.369,0.579c-0.093,0.22-0.154,0.414-0.183,0.583
		C66.909,2.74,66.895,2.902,66.895,3.057z"/>
	<path fill="#FDDFEB" d="M73.802,1.099c0-0.042,0.14-0.122,0.42-0.241c0.642-0.279,0.966-0.422,0.971-0.428
		c0.362-0.191,0.606-0.35,0.73-0.474c-0.042,0.528-0.062,0.945-0.062,1.251c0.181-0.181,0.327-0.321,0.439-0.42
		c0.111-0.098,0.264-0.216,0.458-0.354c0.194-0.137,0.396-0.237,0.606-0.303c0.21-0.064,0.434-0.097,0.672-0.097
		c0.181,0,0.356,0.021,0.524,0.065c0.168,0.044,0.34,0.127,0.517,0.249s0.328,0.277,0.455,0.466c0.127,0.189,0.23,0.439,0.311,0.75
		c0.08,0.311,0.12,0.666,0.12,1.064v3.069c0,0.606,0.143,0.909,0.428,0.909c0.01,0,0.067-0.002,0.171-0.008
		c0.104-0.005,0.181-0.008,0.233-0.008c0.042,0,0.062,0.031,0.062,0.094c0,0.041-0.07,0.062-0.209,0.062
		c-0.052,0-0.227-0.006-0.525-0.016c-0.298-0.011-0.473-0.016-0.524-0.016c-0.067,0-0.274,0.005-0.622,0.016
		c-0.347,0.01-0.549,0.016-0.606,0.016c-0.047,0-0.079-0.002-0.097-0.004c-0.018-0.003-0.035-0.011-0.051-0.023
		c-0.015-0.013-0.023-0.035-0.023-0.066c0-0.041,0.031-0.062,0.093-0.062c0.057,0,0.114,0.003,0.171,0.008l0.085,0.008
		c0.187,0,0.314-0.08,0.385-0.24c0.07-0.161,0.104-0.469,0.104-0.925V2.754c0-1.274-0.567-1.912-1.702-1.912
		c-0.611,0-1.104,0.197-1.476,0.591v4.173c0,0.274,0.05,0.513,0.151,0.715s0.25,0.303,0.447,0.303l0.225-0.031
		c0.031,0,0.047,0.016,0.047,0.047c0,0.036-0.009,0.062-0.027,0.078s-0.038,0.024-0.058,0.027c-0.021,0.002-0.055,0.004-0.101,0.004
		c-0.062,0-0.254-0.006-0.575-0.016c-0.321-0.011-0.508-0.016-0.559-0.016c-0.062,0-0.258,0.005-0.587,0.016
		c-0.329,0.01-0.52,0.016-0.571,0.016c-0.026,0-0.05-0.003-0.074-0.008c-0.023-0.006-0.045-0.019-0.066-0.039
		c-0.021-0.021-0.029-0.047-0.023-0.078c0-0.021,0.016-0.031,0.047-0.031c0.005,0,0.036,0.006,0.093,0.016
		c0.057,0.011,0.09,0.016,0.101,0.016c0.404,0,0.606-0.298,0.606-0.894V1.658c0-0.503-0.127-0.754-0.381-0.754
		c-0.078,0-0.218,0.044-0.419,0.132c-0.161,0.072-0.259,0.109-0.295,0.109C73.816,1.146,73.802,1.13,73.802,1.099z"/>
	<path fill="#FDDFEB" d="M81.503,0.19c0-0.052,0.081-0.078,0.241-0.078c0.073,0,0.283,0.01,0.63,0.029
		c0.347,0.02,0.551,0.029,0.614,0.029c0.016,0,0.106-0.003,0.272-0.01c0.166-0.007,0.308-0.01,0.427-0.01
		c0.202-0.013,0.43-0.02,0.684-0.02c0.218,0,0.351,0.008,0.4,0.024s0.074,0.054,0.074,0.111c0,0.026-0.016,0.039-0.046,0.039
		c-0.047,0-0.135-0.002-0.264-0.008c-0.13-0.005-0.2-0.008-0.21-0.008c-0.176,0-0.317,0.027-0.423,0.081
		c-0.106,0.055-0.171,0.106-0.194,0.155s-0.035,0.097-0.035,0.143c0,0.072,0.052,0.229,0.155,0.473l1.655,3.944l1.702-3.752
		c0.15-0.329,0.226-0.552,0.226-0.665c0-0.062-0.003-0.109-0.008-0.143c-0.005-0.034-0.021-0.074-0.046-0.12
		c-0.026-0.047-0.071-0.081-0.136-0.104s-0.149-0.035-0.252-0.035c-0.005,0-0.048,0.004-0.128,0.012
		c-0.08,0.008-0.149,0.012-0.206,0.012c-0.057,0-0.085-0.033-0.085-0.101c0-0.052,0.091-0.078,0.272-0.078
		c0.099,0,0.276,0.01,0.533,0.029c0.256,0.02,0.423,0.029,0.501,0.029c0.072,0,0.227-0.01,0.462-0.029s0.4-0.029,0.493-0.029
		c0.28,0,0.42,0.032,0.42,0.098c0,0.064-0.049,0.097-0.148,0.097c-0.026,0-0.079-0.006-0.159-0.02
		c-0.08-0.013-0.154-0.02-0.221-0.02c-0.078,0-0.145,0.007-0.202,0.02C88.439,0.3,88.394,0.313,88.36,0.325S88.293,0.366,88.26,0.41
		c-0.034,0.044-0.057,0.077-0.07,0.101c-0.013,0.023-0.039,0.075-0.078,0.155c-0.039,0.079-0.066,0.138-0.082,0.174l-2.199,4.741
		c-0.129,0.294-0.336,0.789-0.622,1.485c-0.259-0.676-0.523-1.336-0.792-1.98l-1.686-4.022c-0.223-0.531-0.495-0.797-0.816-0.797
		c-0.016,0-0.063,0.004-0.144,0.012c-0.08,0.008-0.144,0.012-0.19,0.012C81.529,0.29,81.503,0.257,81.503,0.19z"/>
	<path fill="#FDDFEB" d="M89.934,3.426c0-0.638,0.168-1.223,0.505-1.754c0.337-0.532,0.754-0.938,1.251-1.218
		c0.498-0.28,1.005-0.42,1.523-0.42c0.062,0,0.125,0.001,0.187,0.004c0.062,0.002,0.172,0.02,0.33,0.05
		c0.158,0.031,0.307,0.072,0.447,0.124s0.302,0.134,0.485,0.245c0.184,0.11,0.353,0.242,0.505,0.396
		c0.152,0.152,0.304,0.352,0.454,0.597c0.15,0.245,0.274,0.521,0.373,0.826l-5.392,0.99c0.052,0.369,0.152,0.705,0.299,1.01
		c0.147,0.304,0.324,0.56,0.528,0.768s0.434,0.384,0.688,0.526c0.253,0.143,0.51,0.247,0.769,0.312
		c0.259,0.065,0.521,0.098,0.785,0.098c0.7,0,1.22-0.122,1.562-0.367c0.223-0.156,0.4-0.314,0.532-0.474
		c0.132-0.158,0.215-0.277,0.249-0.355s0.056-0.117,0.066-0.117c0.067,0,0.101,0.016,0.101,0.047c0,0.011-0.003,0.021-0.008,0.031
		c-0.083,0.202-0.205,0.415-0.365,0.641c-0.161,0.226-0.363,0.451-0.606,0.676c-0.243,0.226-0.542,0.412-0.897,0.56
		c-0.354,0.147-0.729,0.222-1.123,0.222c-0.528,0-1.005-0.103-1.43-0.307c-0.425-0.204-0.767-0.474-1.026-0.807
		c-0.259-0.334-0.456-0.699-0.591-1.095S89.934,3.835,89.934,3.426z M90.571,2.979l4.188-0.769c-0.135-0.399-0.386-0.742-0.753-1.03
		c-0.368-0.287-0.813-0.431-1.337-0.431c-0.668,0-1.199,0.22-1.593,0.66c-0.342,0.378-0.516,0.821-0.521,1.329
		C90.555,2.816,90.56,2.897,90.571,2.979z"/>
	<path fill="#FDDFEB" d="M96.709,6.676c0-0.023,0.003-0.041,0.008-0.053c0.005-0.012,0.019-0.022,0.04-0.032
		s0.055-0.014,0.103-0.014c0.068,0,0.157,0.002,0.268,0.007c0.11,0.006,0.186,0.008,0.228,0.008c0.226,0,0.374-0.069,0.445-0.21
		c0.071-0.14,0.106-0.459,0.106-0.958V1.896c0-0.312-0.02-0.529-0.058-0.654c-0.039-0.124-0.126-0.187-0.26-0.187
		c-0.093,0-0.194,0.036-0.303,0.108c-0.067,0.042-0.122,0.062-0.163,0.062s-0.062-0.021-0.062-0.062c0-0.021,0.02-0.042,0.059-0.065
		c0.039-0.023,0.093-0.054,0.163-0.09s0.118-0.062,0.144-0.078c0.75-0.467,1.244-0.797,1.484-0.989
		c-0.026,0.203-0.052,0.781-0.078,1.737c0.078-0.078,0.443-0.446,1.096-1.106c0.104-0.104,0.261-0.283,0.474-0.537l0.256,0.257
		c0.057,0.057,0.147,0.149,0.272,0.276c0.124,0.127,0.235,0.24,0.334,0.339c0.187,0.187,0.337,0.307,0.451,0.358
		s0.233,0.078,0.357,0.078c0.047,0,0.093-0.006,0.14-0.016c0.046-0.011,0.085-0.022,0.116-0.035
		c0.031-0.013,0.066-0.032,0.105-0.059c0.039-0.026,0.066-0.045,0.082-0.059c0.016-0.013,0.042-0.037,0.078-0.074
		c0.036-0.036,0.06-0.057,0.07-0.062c0.031-0.031,0.062-0.066,0.093-0.105c0.031-0.039,0.054-0.066,0.07-0.082
		s0.031-0.023,0.046-0.023c0.052,0,0.078,0.026,0.078,0.078c0,0.036-0.122,0.177-0.365,0.421l-1.126,1.176
		c-0.596-0.597-0.969-0.963-1.119-1.098c-0.021-0.016-0.061-0.053-0.12-0.109c-0.06-0.057-0.103-0.095-0.128-0.113
		c-0.026-0.018-0.065-0.039-0.117-0.062c-0.052-0.023-0.104-0.035-0.155-0.035c-0.176,0-0.505,0.282-0.987,0.849v3.279
		c0,0.571,0.06,0.948,0.179,1.133s0.329,0.276,0.629,0.276c0.052,0,0.165-0.009,0.338-0.027c0.174-0.018,0.299-0.024,0.377-0.019
		c0.016,0,0.032,0.012,0.051,0.035c0.018,0.024,0.027,0.041,0.027,0.049c0,0.058-0.127,0.087-0.381,0.087
		c-0.072,0-0.33-0.006-0.771-0.016c-0.441-0.01-0.739-0.015-0.892-0.015c-0.088,0-0.327,0.003-0.714,0.007
		c-0.388,0.005-0.633,0.008-0.737,0.008C96.785,6.733,96.709,6.713,96.709,6.676z"/>
	<path fill="#FDDFEB" d="M103.811,5.808c0-0.078,0.005-0.313,0.016-0.707c0.01-0.394,0.016-0.63,0.016-0.707
		c0-0.15,0.021-0.226,0.062-0.226c0.036,0,0.058,0.013,0.066,0.038c0.008,0.026,0.012,0.088,0.012,0.187
		c0,0.453,0.091,0.771,0.272,0.951c0.171,0.17,0.469,0.318,0.894,0.445c0.425,0.126,0.886,0.189,1.383,0.189
		c0.44,0,0.811-0.086,1.111-0.259c0.3-0.173,0.45-0.383,0.45-0.63c0-0.221-0.141-0.431-0.424-0.629
		c-0.282-0.198-0.778-0.411-1.487-0.638c-0.275-0.087-0.479-0.154-0.614-0.2c-0.135-0.047-0.303-0.108-0.505-0.186
		s-0.351-0.145-0.447-0.201s-0.203-0.129-0.322-0.216c-0.12-0.088-0.205-0.177-0.256-0.267c-0.052-0.09-0.097-0.195-0.136-0.316
		s-0.058-0.254-0.058-0.398c0-0.506,0.229-0.967,0.688-1.383c0.458-0.415,1.035-0.622,1.729-0.622c0.342,0,0.69,0.058,1.045,0.175
		c0.355,0.116,0.633,0.239,0.835,0.369c0.202,0.129,0.303,0.228,0.303,0.295c0,0.15,0.008,0.443,0.023,0.878
		c0.016,0.436,0.023,0.754,0.023,0.956V2.77c0,0.098-0.025,0.147-0.077,0.147c-0.047,0-0.07-0.044-0.07-0.131l0.016-0.361
		c-0.005-0.281-0.054-0.498-0.144-0.648c-0.091-0.151-0.217-0.281-0.377-0.389c-0.218-0.148-0.525-0.268-0.921-0.356
		c-0.396-0.09-0.796-0.135-1.201-0.135c-0.461,0-0.825,0.086-1.092,0.259c-0.267,0.173-0.4,0.382-0.4,0.629
		c0,0.222,0.139,0.398,0.416,0.529c0.277,0.132,0.897,0.347,1.861,0.646c0.819,0.247,1.384,0.494,1.694,0.741
		s0.466,0.59,0.466,1.027c0,0.248-0.049,0.492-0.147,0.73s-0.25,0.464-0.455,0.676c-0.204,0.213-0.49,0.384-0.858,0.513
		c-0.368,0.13-0.793,0.194-1.274,0.194c-0.788,0-1.399-0.147-1.834-0.442C103.905,6.258,103.811,6.062,103.811,5.808z"/>
	<path fill="#FDDFEB" d="M109.818,5.029c0-0.25,0.073-0.464,0.22-0.642s0.399-0.337,0.759-0.478
		c0.665-0.225,1.163-0.408,1.492-0.552c0.33-0.144,0.731-0.351,1.204-0.622V2.352c0-0.172-0.02-0.334-0.059-0.485
		c-0.038-0.151-0.106-0.301-0.202-0.449c-0.096-0.149-0.239-0.268-0.429-0.356s-0.42-0.133-0.689-0.133
		c-0.345,0-0.638,0.039-0.88,0.118c-0.242,0.078-0.474,0.21-0.692,0.394c-0.165,0.137-0.295,0.294-0.39,0.473
		c-0.058,0.126-0.099,0.188-0.125,0.188c-0.03,0-0.046-0.016-0.046-0.047c0-0.118,0.067-0.288,0.203-0.509
		c0.136-0.22,0.31-0.443,0.521-0.672c0.212-0.228,0.472-0.425,0.781-0.591c0.309-0.165,0.614-0.248,0.916-0.248
		c0.598,0,1.083,0.2,1.456,0.601s0.56,0.952,0.56,1.654v3.475c0,0.026,0,0.061,0,0.103c0,0.149,0.003,0.256,0.008,0.318
		c0.006,0.062,0.024,0.129,0.057,0.199s0.087,0.117,0.164,0.142c0.077,0.023,0.186,0.036,0.324,0.036
		c0.059,0,0.133-0.006,0.221-0.016c0.088-0.011,0.146-0.016,0.172-0.016c0.054,0.027,0.083,0.057,0.089,0.089
		c0,0.02-0.129,0.041-0.385,0.063c-0.257,0.022-0.427,0.034-0.51,0.034h-1.064V5.929c-0.036,0.021-0.132,0.086-0.288,0.195
		s-0.256,0.178-0.3,0.203c-0.044,0.026-0.13,0.076-0.257,0.149c-0.128,0.074-0.224,0.122-0.289,0.146
		c-0.064,0.023-0.149,0.059-0.253,0.105c-0.104,0.047-0.199,0.078-0.284,0.092c-0.086,0.014-0.173,0.021-0.262,0.021
		c-0.295,0-0.56-0.061-0.794-0.182c-0.233-0.12-0.416-0.276-0.546-0.466c-0.131-0.19-0.23-0.386-0.3-0.586
		C109.852,5.406,109.818,5.214,109.818,5.029z M110.743,4.802c0,0.396,0.166,0.761,0.498,1.092c0.333,0.331,0.668,0.497,1.006,0.497
		c0.099,0,0.205-0.022,0.319-0.067c0.114-0.044,0.207-0.09,0.28-0.137c0.072-0.047,0.185-0.122,0.335-0.227s0.255-0.175,0.312-0.212
		V2.892c-0.488,0.313-1.041,0.593-1.659,0.838c-0.468,0.188-0.767,0.354-0.896,0.497S110.743,4.562,110.743,4.802z"/>
	<path fill="#FDDFEB" d="M116.089,0.982l2.074-1.997v1.174h2.191c0.472,0,0.779-0.072,0.925-0.218
		c0.135-0.119,0.22-0.179,0.256-0.179c0.031,0,0.047,0.021,0.047,0.062c0,0.03-0.101,0.119-0.303,0.267l-1.003,0.877h-2.113v3.167
		c0,0.197,0.001,0.353,0.004,0.467s0.013,0.249,0.031,0.405c0.019,0.155,0.044,0.277,0.078,0.365s0.083,0.183,0.148,0.284
		s0.145,0.178,0.238,0.229s0.21,0.095,0.348,0.129c0.138,0.033,0.298,0.05,0.48,0.05c0.369,0,0.668-0.06,0.895-0.179
		c0.226-0.12,0.381-0.249,0.465-0.386c0.119-0.209,0.208-0.313,0.265-0.313c0.047,0,0.07,0.034,0.07,0.102
		c0,0.041-0.034,0.117-0.104,0.229c-0.07,0.112-0.175,0.242-0.314,0.393s-0.297,0.296-0.471,0.436
		c-0.173,0.14-0.381,0.258-0.621,0.354c-0.241,0.096-0.48,0.144-0.719,0.144c-1.146,0-1.718-0.733-1.718-2.2V0.982H116.089z"/>
	<path fill="#FDDFEB" d="M121.924,6.711c0-0.079,0.031-0.119,0.094-0.119c0.036,0,0.091,0.003,0.163,0.008
		c0.072,0.006,0.119,0.008,0.14,0.008c0.083,0,0.157-0.005,0.222-0.015c0.064-0.011,0.121-0.02,0.171-0.027
		c0.049-0.008,0.093-0.03,0.132-0.066s0.071-0.062,0.098-0.077c0.025-0.016,0.046-0.053,0.062-0.112s0.028-0.1,0.039-0.12
		s0.017-0.074,0.02-0.159s0.004-0.143,0.004-0.171s0-0.098,0-0.209s0-0.185,0-0.221V1.669c0-0.134-0.005-0.237-0.016-0.31
		s-0.037-0.137-0.081-0.193c-0.045-0.058-0.113-0.086-0.206-0.086c-0.058,0-0.169,0.042-0.334,0.124
		c-0.078,0.047-0.13,0.07-0.156,0.07c-0.016,0-0.026-0.013-0.034-0.039c-0.008-0.025-0.007-0.052,0.004-0.077
		c0.005-0.011,0.029-0.027,0.073-0.051s0.092-0.049,0.144-0.077s0.086-0.048,0.102-0.059c0.533-0.315,1.03-0.648,1.492-1
		c-0.042,0.455-0.062,0.876-0.062,1.264v4.287c0,0.165,0.005,0.299,0.016,0.399c0.01,0.101,0.035,0.21,0.073,0.329
		c0.039,0.119,0.104,0.208,0.194,0.268s0.209,0.089,0.354,0.089c0.058,0,0.135-0.005,0.233-0.016c0.099-0.01,0.168-0.015,0.21-0.015
		c0.057,0,0.085,0.033,0.085,0.1c0,0.058-0.127,0.086-0.38,0.086c-0.094,0-0.312-0.011-0.653-0.034
		c-0.072,0-0.151-0.001-0.237-0.004c-0.085-0.003-0.155-0.006-0.209-0.009c-0.055-0.003-0.087-0.005-0.098-0.005
		c-0.016,0-0.103,0.003-0.26,0.009c-0.158,0.006-0.289,0.009-0.393,0.009c-0.363,0.023-0.575,0.034-0.638,0.034
		C122.046,6.763,121.924,6.746,121.924,6.711z M122.895-1.878c0.036-0.047,0.154-0.173,0.354-0.381
		c0.199-0.207,0.31-0.323,0.33-0.35c0.062,0.052,0.311,0.28,0.746,0.684l-0.318,0.265c-0.213,0.182-0.35,0.332-0.412,0.451
		c-0.067-0.062-0.184-0.174-0.35-0.335C123.079-1.704,122.963-1.815,122.895-1.878z"/>
	<path fill="#FDDFEB" d="M126.119,3.787c0-0.436,0.112-0.882,0.338-1.341c0.226-0.458,0.516-0.862,0.87-1.212
		c0.355-0.35,0.765-0.637,1.229-0.862c0.463-0.226,0.92-0.338,1.371-0.338c0.829,0,1.545,0.295,2.148,0.886s0.905,1.303,0.905,2.137
		c0,0.42-0.106,0.856-0.318,1.31c-0.213,0.453-0.489,0.861-0.832,1.224c-0.342,0.362-0.749,0.662-1.224,0.897
		c-0.474,0.235-0.952,0.354-1.434,0.354c-0.555,0-1.068-0.146-1.542-0.439c-0.475-0.292-0.845-0.673-1.111-1.142
		C126.252,4.791,126.119,4.3,126.119,3.787z M126.934,3.057c0,0.591,0.145,1.119,0.432,1.585c0.288,0.467,0.66,0.82,1.119,1.061
		c0.458,0.241,0.949,0.361,1.473,0.361c0.591,0,1.105-0.199,1.546-0.598c0.44-0.399,0.661-0.948,0.661-1.647
		c0-0.86-0.291-1.576-0.871-2.148s-1.292-0.859-2.137-0.859c-0.368,0-0.692,0.059-0.975,0.175c-0.283,0.117-0.5,0.258-0.653,0.424
		c-0.152,0.166-0.275,0.358-0.369,0.579c-0.093,0.22-0.154,0.414-0.183,0.583C126.949,2.74,126.934,2.902,126.934,3.057z"/>
	<path fill="#FDDFEB" d="M133.843,1.099c0-0.042,0.14-0.122,0.42-0.241c0.643-0.279,0.966-0.422,0.971-0.428
		c0.363-0.191,0.606-0.35,0.73-0.474c-0.041,0.528-0.062,0.945-0.062,1.251c0.181-0.181,0.327-0.321,0.438-0.42
		c0.111-0.098,0.265-0.216,0.459-0.354c0.194-0.137,0.396-0.237,0.605-0.303c0.21-0.064,0.435-0.097,0.673-0.097
		c0.181,0,0.355,0.021,0.524,0.065c0.168,0.044,0.341,0.127,0.517,0.249s0.327,0.277,0.454,0.466c0.127,0.189,0.23,0.439,0.312,0.75
		c0.08,0.311,0.12,0.666,0.12,1.064v3.069c0,0.606,0.143,0.909,0.428,0.909c0.01,0,0.067-0.002,0.171-0.008
		c0.104-0.005,0.181-0.008,0.233-0.008c0.041,0,0.062,0.031,0.062,0.094c0,0.041-0.069,0.062-0.21,0.062
		c-0.052,0-0.227-0.006-0.524-0.016c-0.298-0.011-0.473-0.016-0.524-0.016c-0.067,0-0.274,0.005-0.621,0.016
		c-0.348,0.01-0.55,0.016-0.606,0.016c-0.047,0-0.079-0.002-0.098-0.004c-0.018-0.003-0.034-0.011-0.05-0.023
		s-0.023-0.035-0.023-0.066c0-0.041,0.031-0.062,0.093-0.062c0.058,0,0.114,0.003,0.171,0.008l0.086,0.008
		c0.187,0,0.314-0.08,0.385-0.24c0.069-0.161,0.104-0.469,0.104-0.925V2.754c0-1.274-0.567-1.912-1.701-1.912
		c-0.611,0-1.104,0.197-1.477,0.591v4.173c0,0.274,0.05,0.513,0.151,0.715c0.101,0.202,0.25,0.303,0.446,0.303l0.226-0.031
		c0.031,0,0.047,0.016,0.047,0.047c0,0.036-0.009,0.062-0.027,0.078s-0.037,0.024-0.059,0.027c-0.021,0.002-0.054,0.004-0.101,0.004
		c-0.062,0-0.254-0.006-0.575-0.016c-0.321-0.011-0.508-0.016-0.56-0.016c-0.062,0-0.258,0.005-0.587,0.016
		c-0.328,0.01-0.519,0.016-0.57,0.016c-0.026,0-0.051-0.003-0.074-0.008c-0.023-0.006-0.045-0.019-0.066-0.039
		c-0.021-0.021-0.028-0.047-0.022-0.078c0-0.021,0.015-0.031,0.046-0.031c0.006,0,0.036,0.006,0.094,0.016
		c0.057,0.011,0.091,0.016,0.101,0.016c0.404,0,0.606-0.298,0.606-0.894V1.658c0-0.503-0.127-0.754-0.381-0.754
		c-0.078,0-0.218,0.044-0.42,0.132c-0.16,0.072-0.259,0.109-0.295,0.109C133.855,1.146,133.843,1.13,133.843,1.099z"/>
	<path fill="#FDDFEB" d="M142.01,5.808c0-0.078,0.005-0.313,0.016-0.707c0.01-0.394,0.016-0.63,0.016-0.707
		c0-0.15,0.021-0.226,0.062-0.226c0.037,0,0.059,0.013,0.066,0.038c0.008,0.026,0.012,0.088,0.012,0.187
		c0,0.453,0.091,0.771,0.272,0.951c0.171,0.17,0.469,0.318,0.894,0.445c0.425,0.126,0.886,0.189,1.383,0.189
		c0.44,0,0.811-0.086,1.111-0.259c0.3-0.173,0.45-0.383,0.45-0.63c0-0.221-0.141-0.431-0.423-0.629
		c-0.283-0.198-0.778-0.411-1.488-0.638c-0.274-0.087-0.479-0.154-0.614-0.2c-0.135-0.047-0.303-0.108-0.505-0.186
		s-0.351-0.145-0.446-0.201c-0.097-0.057-0.204-0.129-0.323-0.216c-0.119-0.088-0.204-0.177-0.256-0.267s-0.098-0.195-0.136-0.316
		c-0.039-0.121-0.059-0.254-0.059-0.398c0-0.506,0.229-0.967,0.688-1.383c0.458-0.415,1.035-0.622,1.729-0.622
		c0.343,0,0.69,0.058,1.046,0.175c0.354,0.116,0.633,0.239,0.835,0.369c0.202,0.129,0.303,0.228,0.303,0.295
		c0,0.15,0.008,0.443,0.023,0.878c0.016,0.436,0.023,0.754,0.023,0.956V2.77c0,0.098-0.025,0.147-0.077,0.147
		c-0.047,0-0.07-0.044-0.07-0.131l0.016-0.361c-0.005-0.281-0.054-0.498-0.144-0.648c-0.091-0.151-0.217-0.281-0.377-0.389
		c-0.218-0.148-0.524-0.268-0.921-0.356c-0.396-0.09-0.797-0.135-1.201-0.135c-0.461,0-0.824,0.086-1.091,0.259
		c-0.268,0.173-0.4,0.382-0.4,0.629c0,0.222,0.139,0.398,0.415,0.529c0.277,0.132,0.897,0.347,1.861,0.646
		c0.818,0.247,1.384,0.494,1.694,0.741s0.466,0.59,0.466,1.027c0,0.248-0.049,0.492-0.147,0.73s-0.25,0.464-0.454,0.676
		c-0.205,0.213-0.491,0.384-0.859,0.513c-0.367,0.13-0.792,0.194-1.274,0.194c-0.787,0-1.398-0.147-1.834-0.442
		C142.102,6.258,142.01,6.062,142.01,5.808z"/>
	<path fill="#FDDFEB" d="M151.466,6.676c0-0.023,0.002-0.041,0.008-0.053c0.005-0.012,0.019-0.022,0.039-0.032
		s0.055-0.014,0.103-0.014c0.068,0,0.157,0.002,0.268,0.007c0.11,0.006,0.187,0.008,0.229,0.008c0.226,0,0.374-0.069,0.444-0.21
		c0.071-0.14,0.106-0.459,0.106-0.958V1.896c0-0.312-0.02-0.529-0.059-0.654c-0.038-0.124-0.125-0.187-0.26-0.187
		c-0.094,0-0.194,0.036-0.304,0.108c-0.067,0.042-0.121,0.062-0.163,0.062c-0.041,0-0.062-0.021-0.062-0.062
		c0-0.021,0.02-0.042,0.058-0.065c0.039-0.023,0.094-0.054,0.164-0.09c0.069-0.036,0.117-0.062,0.144-0.078
		c0.749-0.467,1.243-0.797,1.484-0.989c-0.026,0.203-0.053,0.781-0.078,1.737c0.078-0.078,0.442-0.446,1.096-1.106
		c0.104-0.104,0.262-0.283,0.474-0.537l0.257,0.257c0.057,0.057,0.147,0.149,0.271,0.276c0.125,0.127,0.236,0.24,0.335,0.339
		c0.186,0.187,0.336,0.307,0.45,0.358s0.233,0.078,0.357,0.078c0.047,0,0.094-0.006,0.14-0.016c0.047-0.011,0.086-0.022,0.117-0.035
		c0.03-0.013,0.065-0.032,0.104-0.059s0.066-0.045,0.082-0.059c0.016-0.013,0.041-0.037,0.077-0.074
		c0.036-0.036,0.06-0.057,0.07-0.062c0.031-0.031,0.062-0.066,0.093-0.105s0.055-0.066,0.07-0.082s0.031-0.023,0.047-0.023
		c0.052,0,0.077,0.026,0.077,0.078c0,0.036-0.122,0.177-0.365,0.421l-1.127,1.176c-0.596-0.597-0.969-0.963-1.118-1.098
		c-0.021-0.016-0.062-0.053-0.121-0.109s-0.103-0.095-0.128-0.113c-0.026-0.018-0.064-0.039-0.116-0.062
		c-0.052-0.023-0.104-0.035-0.156-0.035c-0.176,0-0.505,0.282-0.986,0.849v3.279c0,0.571,0.06,0.948,0.179,1.133
		s0.329,0.276,0.629,0.276c0.052,0,0.165-0.009,0.339-0.027c0.173-0.018,0.299-0.024,0.377-0.019c0.015,0,0.032,0.012,0.05,0.035
		c0.019,0.024,0.027,0.041,0.027,0.049c0,0.058-0.127,0.087-0.381,0.087c-0.072,0-0.329-0.006-0.771-0.016
		c-0.441-0.01-0.739-0.015-0.892-0.015c-0.089,0-0.326,0.003-0.714,0.007c-0.388,0.005-0.634,0.008-0.738,0.008
		C151.541,6.733,151.466,6.713,151.466,6.676z"/>
	<path fill="#FDDFEB" d="M158.421,3.426c0-0.638,0.168-1.223,0.505-1.754c0.337-0.532,0.754-0.938,1.251-1.218
		s1.005-0.42,1.523-0.42c0.062,0,0.124,0.001,0.187,0.004c0.062,0.002,0.172,0.02,0.33,0.05c0.157,0.031,0.307,0.072,0.446,0.124
		s0.302,0.134,0.485,0.245c0.184,0.11,0.353,0.242,0.505,0.396c0.153,0.152,0.305,0.352,0.455,0.597
		c0.149,0.245,0.274,0.521,0.372,0.826l-5.392,0.99c0.052,0.369,0.151,0.705,0.299,1.01c0.148,0.304,0.324,0.56,0.529,0.768
		c0.204,0.208,0.434,0.384,0.688,0.526s0.51,0.247,0.77,0.312c0.259,0.065,0.521,0.098,0.784,0.098c0.699,0,1.22-0.122,1.562-0.367
		c0.223-0.156,0.399-0.314,0.532-0.474c0.132-0.158,0.215-0.277,0.248-0.355c0.034-0.078,0.056-0.117,0.066-0.117
		c0.067,0,0.101,0.016,0.101,0.047c0,0.011-0.002,0.021-0.008,0.031c-0.083,0.202-0.204,0.415-0.365,0.641
		c-0.16,0.226-0.362,0.451-0.605,0.676c-0.244,0.226-0.543,0.412-0.897,0.56c-0.355,0.147-0.729,0.222-1.123,0.222
		c-0.528,0-1.005-0.103-1.43-0.307s-0.767-0.474-1.026-0.807c-0.259-0.334-0.455-0.699-0.59-1.095S158.421,3.835,158.421,3.426z
		 M159.057,2.979l4.188-0.769c-0.135-0.399-0.386-0.742-0.754-1.03c-0.367-0.287-0.813-0.431-1.336-0.431
		c-0.669,0-1.199,0.22-1.593,0.66c-0.343,0.378-0.516,0.821-0.521,1.329C159.042,2.816,159.048,2.897,159.057,2.979z"/>
	<path fill="#FDDFEB" d="M165.436,6.701c0-0.042,0.002-0.064,0.004-0.07c0.003-0.005,0.017-0.008,0.043-0.008
		c0.021,0,0.091,0.006,0.21,0.016c0.119,0.011,0.187,0.016,0.202,0.016c0.295,0,0.482-0.08,0.563-0.241
		c0.08-0.16,0.12-0.484,0.12-0.971v-7.656c0-0.782-0.132-1.173-0.396-1.173c-0.119,0-0.22,0.02-0.303,0.059
		c-0.083,0.04-0.135,0.06-0.155,0.06c-0.042,0-0.062-0.02-0.062-0.06c0-0.039,0.047-0.071,0.14-0.096
		c0.26-0.104,0.857-0.384,1.795-0.84c-0.062,0.534-0.093,1.161-0.093,1.881V5.38c0,0.519,0.044,0.857,0.132,1.019
		c0.088,0.16,0.226,0.24,0.412,0.24c0.062,0,0.146-0.005,0.253-0.016c0.105-0.01,0.18-0.016,0.221-0.016
		c0.088,0,0.133,0.021,0.133,0.062c0,0.042-0.022,0.067-0.066,0.078c-0.044,0.01-0.123,0.015-0.237,0.015
		c-0.041,0-0.232-0.01-0.575-0.03c-0.093,0-0.22-0.003-0.38-0.008c-0.161-0.006-0.268-0.008-0.319-0.008
		c-0.16,0-0.433,0.01-0.815,0.031l-0.536,0.03c-0.125,0-0.204-0.005-0.237-0.016C165.453,6.753,165.436,6.733,165.436,6.701z"/>
	<path fill="#FDDFEB" d="M169.695,5.029c0-0.25,0.073-0.464,0.22-0.642s0.399-0.337,0.759-0.478
		c0.665-0.225,1.163-0.408,1.492-0.552c0.33-0.144,0.731-0.351,1.204-0.622V2.352c0-0.172-0.02-0.334-0.059-0.485
		c-0.038-0.151-0.106-0.301-0.202-0.449c-0.096-0.149-0.239-0.268-0.429-0.356s-0.42-0.133-0.689-0.133
		c-0.345,0-0.638,0.039-0.88,0.118c-0.242,0.078-0.474,0.21-0.692,0.394c-0.165,0.137-0.295,0.294-0.39,0.473
		c-0.058,0.126-0.099,0.188-0.125,0.188c-0.03,0-0.046-0.016-0.046-0.047c0-0.118,0.067-0.288,0.203-0.509
		c0.136-0.22,0.31-0.443,0.521-0.672c0.212-0.228,0.472-0.425,0.781-0.591c0.309-0.165,0.614-0.248,0.916-0.248
		c0.598,0,1.083,0.2,1.456,0.601s0.56,0.952,0.56,1.654v3.475c0,0.026,0,0.061,0,0.103c0,0.149,0.003,0.256,0.008,0.318
		c0.006,0.062,0.024,0.129,0.057,0.199s0.087,0.117,0.164,0.142c0.077,0.023,0.186,0.036,0.324,0.036
		c0.059,0,0.133-0.006,0.221-0.016c0.088-0.011,0.146-0.016,0.172-0.016c0.054,0.027,0.083,0.057,0.089,0.089
		c0,0.02-0.129,0.041-0.385,0.063c-0.257,0.022-0.427,0.034-0.51,0.034h-1.064V5.929c-0.036,0.021-0.132,0.086-0.288,0.195
		s-0.256,0.178-0.3,0.203c-0.044,0.026-0.13,0.076-0.257,0.149c-0.128,0.074-0.224,0.122-0.289,0.146
		c-0.064,0.023-0.149,0.059-0.253,0.105c-0.104,0.047-0.199,0.078-0.284,0.092c-0.086,0.014-0.173,0.021-0.262,0.021
		c-0.295,0-0.56-0.061-0.794-0.182c-0.233-0.12-0.416-0.276-0.546-0.466c-0.131-0.19-0.23-0.386-0.3-0.586
		C169.729,5.406,169.695,5.214,169.695,5.029z M170.62,4.802c0,0.396,0.166,0.761,0.498,1.092c0.333,0.331,0.668,0.497,1.006,0.497
		c0.099,0,0.205-0.022,0.319-0.067c0.114-0.044,0.207-0.09,0.28-0.137c0.072-0.047,0.185-0.122,0.335-0.227s0.255-0.175,0.312-0.212
		V2.892c-0.488,0.313-1.041,0.593-1.659,0.838c-0.468,0.188-0.767,0.354-0.896,0.497S170.62,4.562,170.62,4.802z"/>
	<path fill="#FDDFEB" d="M175.966,0.982l2.074-1.997v1.174h2.191c0.472,0,0.779-0.072,0.925-0.218
		c0.135-0.119,0.22-0.179,0.256-0.179c0.031,0,0.047,0.021,0.047,0.062c0,0.03-0.101,0.119-0.303,0.267l-1.003,0.877h-2.113v3.167
		c0,0.197,0.001,0.353,0.004,0.467s0.013,0.249,0.031,0.405c0.019,0.155,0.044,0.277,0.078,0.365s0.083,0.183,0.148,0.284
		s0.145,0.178,0.238,0.229s0.21,0.095,0.348,0.129c0.138,0.033,0.298,0.05,0.48,0.05c0.369,0,0.668-0.06,0.895-0.179
		c0.226-0.12,0.381-0.249,0.465-0.386c0.119-0.209,0.208-0.313,0.265-0.313c0.047,0,0.07,0.034,0.07,0.102
		c0,0.041-0.034,0.117-0.104,0.229c-0.07,0.112-0.175,0.242-0.314,0.393s-0.297,0.296-0.471,0.436
		c-0.173,0.14-0.381,0.258-0.621,0.354c-0.241,0.096-0.48,0.144-0.719,0.144c-1.146,0-1.718-0.733-1.718-2.2V0.982H175.966z"/>
	<path fill="#FDDFEB" d="M181.894,3.426c0-0.638,0.168-1.223,0.505-1.754c0.337-0.532,0.754-0.938,1.251-1.218
		s1.005-0.42,1.523-0.42c0.062,0,0.124,0.001,0.187,0.004c0.062,0.002,0.172,0.02,0.33,0.05c0.157,0.031,0.307,0.072,0.446,0.124
		s0.302,0.134,0.485,0.245c0.184,0.11,0.353,0.242,0.505,0.396c0.153,0.152,0.305,0.352,0.455,0.597
		c0.149,0.245,0.274,0.521,0.372,0.826l-5.392,0.99c0.052,0.369,0.151,0.705,0.299,1.01c0.148,0.304,0.324,0.56,0.529,0.768
		c0.204,0.208,0.434,0.384,0.688,0.526s0.51,0.247,0.77,0.312c0.259,0.065,0.521,0.098,0.784,0.098c0.699,0,1.22-0.122,1.562-0.367
		c0.223-0.156,0.399-0.314,0.532-0.474c0.132-0.158,0.215-0.277,0.248-0.355c0.034-0.078,0.056-0.117,0.066-0.117
		c0.067,0,0.101,0.016,0.101,0.047c0,0.011-0.002,0.021-0.008,0.031c-0.083,0.202-0.204,0.415-0.365,0.641
		c-0.16,0.226-0.362,0.451-0.605,0.676c-0.244,0.226-0.543,0.412-0.897,0.56c-0.355,0.147-0.729,0.222-1.123,0.222
		c-0.528,0-1.005-0.103-1.43-0.307s-0.767-0.474-1.026-0.807c-0.259-0.334-0.455-0.699-0.59-1.095S181.894,3.835,181.894,3.426z
		 M182.531,2.979l4.188-0.769c-0.135-0.399-0.386-0.742-0.754-1.03c-0.367-0.287-0.813-0.431-1.336-0.431
		c-0.669,0-1.199,0.22-1.593,0.66c-0.343,0.378-0.516,0.821-0.521,1.329C182.515,2.816,182.521,2.897,182.531,2.979z"/>
	<path fill="#FDDFEB" d="M188.988,3.779c0-0.444,0.115-0.896,0.346-1.353c0.23-0.458,0.525-0.86,0.886-1.21
		c0.36-0.349,0.77-0.633,1.228-0.853c0.459-0.22,0.903-0.329,1.333-0.329c0.311,0,0.728,0.085,1.251,0.256V-2.18
		c0-0.606-0.174-0.909-0.521-0.909c-0.197,0-0.373,0.039-0.528,0.116c-0.119,0.052-0.187,0.078-0.202,0.078
		c-0.011,0-0.016-0.016-0.016-0.047c0-0.016,0.019-0.037,0.055-0.066c0.036-0.028,0.084-0.059,0.144-0.093
		c0.06-0.033,0.116-0.066,0.171-0.097c0.055-0.031,0.112-0.062,0.175-0.094s0.104-0.052,0.124-0.062
		c0.41-0.202,0.711-0.355,0.903-0.462s0.425-0.255,0.698-0.447c-0.053,0.646-0.078,1.271-0.078,1.876v8.089
		c0,0.573,0.207,0.86,0.622,0.86c0.021,0,0.082-0.006,0.186-0.016c0.104-0.011,0.164-0.016,0.179-0.016
		c0.052,0,0.078,0.017,0.078,0.051c0,0.077-0.096,0.116-0.287,0.116c-0.062,0-0.169,0.003-0.319,0.01s-0.243,0.01-0.279,0.01h-1.088
		V6.159c-0.187,0.132-0.347,0.236-0.481,0.313c-0.135,0.076-0.341,0.157-0.618,0.241c-0.277,0.085-0.568,0.127-0.874,0.127
		c-0.564,0-1.087-0.146-1.565-0.44c-0.479-0.293-0.853-0.675-1.119-1.146C189.121,4.785,188.988,4.293,188.988,3.779z
		 M189.803,3.081c0,0.878,0.304,1.595,0.909,2.15c0.606,0.555,1.373,0.832,2.301,0.832c0.367,0,0.707-0.057,1.018-0.17V1.571
		c-0.508-0.506-1.171-0.76-1.989-0.76c-0.332,0-0.631,0.052-0.897,0.155s-0.48,0.236-0.641,0.399
		c-0.161,0.162-0.297,0.347-0.408,0.554c-0.111,0.206-0.188,0.406-0.229,0.601C189.825,2.713,189.803,2.901,189.803,3.081z"/>
	<path fill="#FDDFEB" d="M200.434,0.982l2.074-1.997v1.174h2.191c0.472,0,0.779-0.072,0.925-0.218
		c0.135-0.119,0.22-0.179,0.256-0.179c0.031,0,0.047,0.021,0.047,0.062c0,0.03-0.101,0.119-0.303,0.267l-1.003,0.877h-2.113v3.167
		c0,0.197,0.001,0.353,0.004,0.467s0.013,0.249,0.031,0.405c0.019,0.155,0.044,0.277,0.078,0.365s0.083,0.183,0.148,0.284
		s0.145,0.178,0.238,0.229s0.21,0.095,0.348,0.129c0.138,0.033,0.298,0.05,0.48,0.05c0.369,0,0.668-0.06,0.895-0.179
		c0.226-0.12,0.381-0.249,0.465-0.386c0.119-0.209,0.208-0.313,0.265-0.313c0.047,0,0.07,0.034,0.07,0.102
		c0,0.041-0.034,0.117-0.104,0.229c-0.07,0.112-0.175,0.242-0.314,0.393s-0.297,0.296-0.471,0.436
		c-0.173,0.14-0.381,0.258-0.621,0.354c-0.241,0.096-0.48,0.144-0.719,0.144c-1.146,0-1.718-0.733-1.718-2.2V0.982H200.434z"/>
	<path fill="#FDDFEB" d="M206.331,3.787c0-0.436,0.112-0.882,0.338-1.341c0.226-0.458,0.516-0.862,0.87-1.212
		c0.355-0.35,0.765-0.637,1.229-0.862c0.463-0.226,0.92-0.338,1.371-0.338c0.829,0,1.545,0.295,2.148,0.886s0.905,1.303,0.905,2.137
		c0,0.42-0.106,0.856-0.318,1.31c-0.213,0.453-0.489,0.861-0.832,1.224c-0.342,0.362-0.749,0.662-1.224,0.897
		c-0.474,0.235-0.952,0.354-1.434,0.354c-0.555,0-1.068-0.146-1.542-0.439c-0.475-0.292-0.845-0.673-1.111-1.142
		C206.464,4.791,206.331,4.3,206.331,3.787z M207.146,3.057c0,0.591,0.145,1.119,0.432,1.585c0.288,0.467,0.66,0.82,1.119,1.061
		c0.458,0.241,0.949,0.361,1.473,0.361c0.591,0,1.105-0.199,1.546-0.598c0.44-0.399,0.661-0.948,0.661-1.647
		c0-0.86-0.291-1.576-0.871-2.148s-1.292-0.859-2.137-0.859c-0.368,0-0.692,0.059-0.975,0.175c-0.283,0.117-0.5,0.258-0.653,0.424
		c-0.152,0.166-0.275,0.358-0.369,0.579c-0.093,0.22-0.154,0.414-0.183,0.583C207.161,2.74,207.146,2.902,207.146,3.057z"/>
</g>
</svg>
