<?xml version="1.0" encoding="utf-8"?>
<!-- Generator: Adobe Illustrator 16.0.0, SVG Export Plug-In . SVG Version: 6.00 Build 0)  -->
<!DOCTYPE svg PUBLIC "-//W3C//DTD SVG 1.1//EN" "http://www.w3.org/Graphics/SVG/1.1/DTD/svg11.dtd">
<svg version="1.1" id="Layer_1" xmlns="http://www.w3.org/2000/svg" xmlns:xlink="http://www.w3.org/1999/xlink" x="0px" y="0px"
	 width="270.522px" height="158.263px" viewBox="21.425 3.246 270.522 158.263"
	 enable-background="new 21.425 3.246 270.522 158.263" xml:space="preserve">
<g>
	<g>
		<path fill="#FDDFEB" d="M34.349,25.719l-1.27,12l18.744,1.979l-0.823,7.794l-18.744-1.981l-1.739,16.455l-9.093-0.961
			l4.653-44.043l29.384,3.105l-0.824,7.794L34.349,25.719z"/>
	</g>
	<g>
		<path fill="#FDDFEB" d="M91.214,25.659c2.938,2.188,5.062,5.092,6.366,8.711c1.307,3.62,1.709,7.802,1.208,12.544
			c-0.501,4.743-1.769,8.748-3.803,12.014c-2.034,3.268-4.717,5.663-8.047,7.188c-3.331,1.524-7.141,2.061-11.429,1.607
			c-4.29-0.453-7.902-1.774-10.841-3.96c-2.938-2.187-5.062-5.09-6.366-8.711c-1.308-3.62-1.71-7.801-1.208-12.544
			c0.501-4.742,1.77-8.747,3.805-12.014c2.032-3.267,4.715-5.663,8.046-7.188c3.33-1.524,7.141-2.06,11.43-1.606
			C84.661,22.153,88.274,23.473,91.214,25.659z M70.719,32.846c-2.322,2.444-3.729,5.997-4.224,10.656
			c-0.492,4.661,0.142,8.428,1.902,11.304c1.76,2.876,4.414,4.5,7.96,4.875s6.48-0.66,8.803-3.104
			c2.322-2.444,3.729-5.996,4.224-10.657c0.492-4.66-0.143-8.428-1.901-11.303c-1.761-2.876-4.414-4.501-7.96-4.876
			S73.042,30.402,70.719,32.846z"/>
	</g>
	<g>
		<path fill="#FDDFEB" d="M136.468,31.881c2.411,2.424,3.408,5.636,2.984,9.636c-0.282,2.682-1.248,4.894-2.891,6.637
			c-1.646,1.745-3.74,2.837-6.29,3.277l-0.014,0.123c1.507,0.744,2.649,1.75,3.435,3.022c0.782,1.271,1.543,3.343,2.283,6.215
			l3.104,12.65l-9.896-1.046l-2.421-10.827c-0.572-2.479-1.355-4.24-2.351-5.283c-0.994-1.044-2.564-1.679-4.709-1.906l-5.01-0.529
			l-1.777,16.826l-9.095-0.961l4.653-44.043l16.208,1.713C130.126,27.959,134.053,29.458,136.468,31.881z M115.458,46.612
			l6.433,0.68c5.072,0.536,7.839-1.361,8.297-5.691c0.432-4.083-2.056-6.41-7.457-6.98l-5.938-0.628L115.458,46.612z"/>
	</g>
	<g>
		<path fill="#FDDFEB" d="M157.942,38.78l-1.053,9.959l19.919,2.104l-0.816,7.732l-19.919-2.105l-1.137,10.764l21.897,2.314
			l-0.824,7.794l-30.991-3.275l4.654-44.043l30.438,3.216l-0.824,7.794L157.942,38.78z"/>
	</g>
	<g>
		<path fill="#FDDFEB" d="M184.176,78.206l4.653-44.042l9.095,0.961l-4.653,44.042L184.176,78.206z"/>
	</g>
	<g>
		<path fill="#FDDFEB" d="M238.75,42.408c2.938,2.959,4.393,6.751,4.362,11.376l-9.772-1.033c-0.184-2.23-0.935-3.987-2.257-5.274
			c-1.323-1.287-3.202-2.059-5.635-2.316c-3.549-0.375-6.496,0.681-8.843,3.163c-2.349,2.483-3.77,6.076-4.267,10.777
			c-0.511,4.825,0.099,8.727,1.827,11.703c1.729,2.977,4.347,4.649,7.854,5.021c3.176,0.336,5.701-0.304,7.58-1.919
			c1.885-1.615,3.021-4.111,3.423-7.488l-10.456-1.105l0.784-7.423l18.931,2l-2.558,24.188l-7.67-0.812l0.503-4.763l-0.124-0.014
			c-1.468,1.638-3.354,2.835-5.665,3.591c-2.311,0.758-4.91,0.982-7.798,0.678c-3.752-0.396-6.915-1.657-9.481-3.784
			c-2.569-2.127-4.426-4.971-5.57-8.533c-1.147-3.561-1.473-7.671-0.979-12.332c0.501-4.742,1.781-8.776,3.844-12.103
			c2.062-3.327,4.767-5.752,8.116-7.275c3.354-1.522,7.151-2.058,11.399-1.609C231.658,37.687,235.809,39.45,238.75,42.408z"/>
	</g>
	<g>
		<path fill="#FDDFEB" d="M274.365,87.737l-6.646-18.78c-2.435-6.971-4.474-13.316-6.119-19.036l-0.124-0.013
			c-0.39,6.839-0.896,13.229-1.524,19.167l-1.791,16.95l-8.723-0.922l4.653-44.043l12.929,1.366l6.646,18.779
			c2.435,6.972,4.474,13.318,6.121,19.038l0.124,0.012c0.391-6.839,0.896-13.229,1.525-19.167l1.79-16.949l8.722,0.922
			l-4.653,44.043L274.365,87.737z"/>
	</g>
	<g>
		<path fill="#FDDFEB" d="M44.986,149.896l-2.808,11.021l-9.562,0.592l12.598-45.155l12.292-0.763l18.073,43.258l-9.561,0.592
			l-4.083-10.592L44.986,149.896z M57.855,138.317c-2.43-6.331-4.461-11.979-6.099-16.947l-0.124,0.008
			c-1.173,5.891-2.474,11.744-3.896,17.566l-0.75,2.977l11.981-0.741L57.855,138.317z"/>
	</g>
	<g>
		<path fill="#FDDFEB" d="M86.489,121.647l0.747,12.045l18.812-1.165l0.483,7.822l-18.812,1.166l1.022,16.515l-9.126,0.566
			l-2.738-44.207l29.489-1.827l0.485,7.823L86.489,121.647z"/>
	</g>
	<g>
		<path fill="#FDDFEB" d="M122.746,119.401l0.746,12.045l18.812-1.166l0.484,7.823l-18.811,1.166L125,155.784l-9.128,0.565
			l-2.738-44.206l29.491-1.827l0.484,7.823L122.746,119.401z"/>
	</g>
	<g>
		<path fill="#FDDFEB" d="M156.368,142.995l-2.81,11.021l-9.562,0.593l12.598-45.154l12.293-0.764l18.075,43.256l-9.563,0.594
			l-4.082-10.594L156.368,142.995z M169.236,131.415c-2.429-6.33-4.461-11.979-6.098-16.947l-0.125,0.009
			c-1.173,5.892-2.472,11.746-3.899,17.565l-0.747,2.979l11.982-0.743L169.236,131.415z"/>
	</g>
	<g>
		<path fill="#FDDFEB" d="M190.999,151.695l-2.739-44.206l9.127-0.564l2.739,44.205L190.999,151.695z"/>
	</g>
	<g>
		<path fill="#FDDFEB" d="M236.202,107.76c2.782,1.988,4.301,4.99,4.549,9.004c0.167,2.691-0.416,5.031-1.748,7.025
			c-1.331,1.994-3.216,3.42-5.653,4.276l0.009,0.123c1.606,0.481,2.902,1.285,3.887,2.408c0.985,1.122,2.081,3.038,3.286,5.747
			l5.167,11.96l-9.935,0.614l-4.189-10.271c-0.979-2.352-2.042-3.957-3.194-4.82c-1.154-0.861-2.811-1.229-4.962-1.097l-5.027,0.312
			l1.048,16.891l-9.128,0.564l-2.738-44.207l16.267-1.008C229.298,104.946,233.422,105.771,236.202,107.76z M217.938,125.782
			l6.456-0.4c5.09-0.313,7.501-2.646,7.23-6.99c-0.255-4.102-3.094-5.979-8.515-5.646l-5.959,0.369L217.938,125.782z"/>
	</g>
	<g>
		<path fill="#FDDFEB" d="M275.19,104.815c2.986,2.286,4.63,5.811,4.925,10.57l-9.252,0.574c-0.145-2.318-0.915-4.068-2.318-5.248
			c-1.403-1.183-3.347-1.694-5.829-1.541c-2.028,0.125-3.636,0.672-4.82,1.64c-1.187,0.968-1.734,2.176-1.646,3.622
			c0.068,1.117,0.436,2.01,1.099,2.674c0.666,0.667,1.678,1.217,3.032,1.65c1.354,0.438,3.315,0.888,5.88,1.351
			c3.487,0.655,6.316,1.364,8.482,2.124c2.164,0.76,3.978,1.986,5.433,3.684c1.453,1.696,2.275,4.058,2.464,7.076
			c0.173,2.773-0.401,5.262-1.72,7.461c-1.316,2.2-3.244,3.961-5.78,5.28c-2.533,1.319-5.501,2.087-8.896,2.297
			c-5.587,0.347-10.047-0.728-13.381-3.222c-3.333-2.494-5.152-6.227-5.461-11.191l9.438-0.584c0.166,2.689,1.017,4.674,2.551,5.95
			c1.53,1.272,3.705,1.825,6.521,1.651c2.317-0.146,4.14-0.766,5.462-1.865c1.322-1.102,1.933-2.52,1.824-4.258
			c-0.077-1.241-0.447-2.205-1.112-2.893c-0.666-0.686-1.594-1.199-2.776-1.541c-1.187-0.344-3.059-0.768-5.624-1.272
			c-3.656-0.685-6.569-1.4-8.732-2.14c-2.165-0.738-3.997-1.943-5.491-3.617c-1.497-1.672-2.335-4.021-2.521-7.041
			c-0.159-2.566,0.383-4.887,1.626-6.955c1.24-2.072,3.069-3.731,5.486-4.983c2.414-1.251,5.214-1.976,8.402-2.172
			C267.954,101.554,272.201,102.527,275.19,104.815z"/>
	</g>
</g>
<g>
	<path fill="#FDDFEB" stroke="#FDDFEB" stroke-width="0.25" stroke-miterlimit="10" d="M74.551,9.505
		c-0.372,1.487-1.391,2.555-3.01,2.555c-1.895,0-3.466-1.392-3.466-4.294s1.571-4.293,3.466-4.293c1.619,0,2.639,1.067,3.01,2.555
		l-0.995,0.3c-0.372-1.224-0.959-1.847-2.015-1.847c-1.427,0-2.375,0.996-2.375,3.286c0,2.291,0.947,3.286,2.375,3.286
		c1.056,0,1.643-0.624,2.015-1.847L74.551,9.505z"/>
	<path fill="#FDDFEB" stroke="#FDDFEB" stroke-width="0.25" stroke-miterlimit="10" d="M78.644,5.823
		c1.847,0,2.975,1.451,2.975,3.118s-1.127,3.119-2.975,3.119c-1.847,0-2.974-1.452-2.974-3.119S76.798,5.823,78.644,5.823z
		 M78.644,11.148c1.235,0,1.943-1.043,1.943-2.207c0-1.163-0.708-2.207-1.943-2.207s-1.943,1.043-1.943,2.207
		C76.701,10.104,77.409,11.148,78.644,11.148z"/>
	<path fill="#FDDFEB" stroke="#FDDFEB" stroke-width="0.25" stroke-miterlimit="10" d="M88.627,11.963h-1.008V7.97
		c0-0.84-0.396-1.235-1.115-1.235c-0.947,0-1.775,1.031-1.775,2.794v2.435h-1.007V5.919h1.007v1.115
		c0.432-0.696,1.188-1.211,2.051-1.211c1.259,0,1.847,0.768,1.847,1.931V11.963z"/>
	<path fill="#FDDFEB" stroke="#FDDFEB" stroke-width="0.25" stroke-miterlimit="10" d="M96.559,5.919l-2.531,6.044h-1.007
		L90.49,5.919h1.091l1.943,4.845l1.943-4.845H96.559z"/>
	<path fill="#FDDFEB" stroke="#FDDFEB" stroke-width="0.25" stroke-miterlimit="10" d="M103.915,9.157h-4.726
		c0.06,1.2,0.792,1.991,1.859,1.991c0.912,0,1.535-0.444,1.943-1.2l0.804,0.42c-0.66,1.271-1.619,1.691-2.747,1.691
		c-1.763,0-2.89-1.355-2.89-3.119c0-1.703,1.079-3.118,2.89-3.118c1.871,0,2.867,1.331,2.867,2.915V9.157z M99.261,8.246h3.586
		c-0.18-0.959-0.816-1.511-1.799-1.511C100.077,6.734,99.465,7.334,99.261,8.246z"/>
	<path fill="#FDDFEB" stroke="#FDDFEB" stroke-width="0.25" stroke-miterlimit="10" d="M110.383,7.838
		c-0.084-0.696-0.444-1.104-1.163-1.104c-1.056,0-2.051,0.995-2.051,3.046v2.183h-1.007V5.919h1.007v1.115
		c0.468-0.731,1.224-1.211,2.231-1.211c1.199,0,1.919,0.72,1.991,2.015H110.383z"/>
	<path fill="#FDDFEB" stroke="#FDDFEB" stroke-width="0.25" stroke-miterlimit="10" d="M118.027,7.13l-0.792,0.564
		c-0.372-0.672-0.804-0.959-1.451-0.959c-0.516,0-1.043,0.216-1.043,0.803c0,0.516,0.503,0.756,1.403,0.936
		c1.127,0.228,2.171,0.552,2.171,1.643c0,1.248-1.08,1.943-2.327,1.943c-1.211,0-2.255-0.6-2.626-1.751l0.959-0.36
		c0.264,0.744,0.839,1.2,1.667,1.2c0.684,0,1.283-0.3,1.283-0.936c0-0.516-0.6-0.684-1.559-0.888
		c-1.02-0.216-1.955-0.563-1.955-1.751c0-1.08,0.947-1.751,2.062-1.751C116.911,5.823,117.571,6.303,118.027,7.13z"/>
	<path fill="#FDDFEB" stroke="#FDDFEB" stroke-width="0.25" stroke-miterlimit="10" d="M125.863,11.963h-0.815l-0.145-0.852
		c-0.384,0.552-1.235,0.948-2.135,0.948c-1.008,0-1.871-0.6-1.871-1.835c0-1.343,1.08-1.979,2.734-1.979h1.224V7.981
		c0-0.936-0.659-1.247-1.392-1.247c-0.707,0-1.235,0.444-1.427,1.031l-0.888-0.24c0.276-1.056,1.212-1.703,2.314-1.703
		c1.416,0,2.399,0.66,2.399,2.327V11.963z M122.925,11.148c0.779,0,1.931-0.48,1.931-1.847V9.109h-1.319
		c-1.031,0-1.607,0.432-1.607,1.115C121.928,10.8,122.325,11.148,122.925,11.148z"/>
	<path fill="#FDDFEB" stroke="#FDDFEB" stroke-width="0.25" stroke-miterlimit="10" d="M127.799,5.919h1.606V4.108l1.008-0.636
		v2.447h2.95V6.83h-2.95v3.094c0,0.84,0.372,1.224,1.043,1.224c0.528,0,0.96-0.168,1.487-0.72l0.372,0.852
		c-0.552,0.552-1.104,0.78-1.859,0.78c-1.319,0-2.051-0.696-2.051-2.099V6.83h-1.606V5.919z"/>
	<path fill="#FDDFEB" stroke="#FDDFEB" stroke-width="0.25" stroke-miterlimit="10" d="M135.993,5.919h2.854v5.157h2.231v0.888
		h-5.325v-0.888h2.087v-4.27h-1.848V5.919z M138.272,3.472c0.468,0,0.827,0.372,0.827,0.839c0,0.456-0.359,0.815-0.827,0.815
		c-0.456,0-0.828-0.359-0.828-0.815C137.444,3.844,137.816,3.472,138.272,3.472z"/>
	<path fill="#FDDFEB" stroke="#FDDFEB" stroke-width="0.25" stroke-miterlimit="10" d="M145.603,5.823
		c1.847,0,2.975,1.451,2.975,3.118s-1.128,3.119-2.975,3.119s-2.975-1.452-2.975-3.119S143.757,5.823,145.603,5.823z
		 M145.603,11.148c1.235,0,1.943-1.043,1.943-2.207c0-1.163-0.708-2.207-1.943-2.207s-1.942,1.043-1.942,2.207
		C143.661,10.104,144.368,11.148,145.603,11.148z"/>
	<path fill="#FDDFEB" stroke="#FDDFEB" stroke-width="0.25" stroke-miterlimit="10" d="M155.587,11.963h-1.008V7.97
		c0-0.84-0.396-1.235-1.115-1.235c-0.947,0-1.775,1.031-1.775,2.794v2.435h-1.007V5.919h1.007v1.115
		c0.433-0.696,1.188-1.211,2.051-1.211c1.26,0,1.848,0.768,1.848,1.931V11.963z"/>
	<path fill="#FDDFEB" stroke="#FDDFEB" stroke-width="0.25" stroke-miterlimit="10" d="M162.667,7.13l-0.791,0.564
		c-0.372-0.672-0.804-0.959-1.451-0.959c-0.516,0-1.044,0.216-1.044,0.803c0,0.516,0.504,0.756,1.403,0.936
		c1.128,0.228,2.171,0.552,2.171,1.643c0,1.248-1.079,1.943-2.326,1.943c-1.212,0-2.255-0.6-2.627-1.751l0.959-0.36
		c0.265,0.744,0.84,1.2,1.668,1.2c0.684,0,1.283-0.3,1.283-0.936c0-0.516-0.6-0.684-1.56-0.888c-1.02-0.216-1.955-0.563-1.955-1.751
		c0-1.08,0.947-1.751,2.063-1.751C161.552,5.823,162.212,6.303,162.667,7.13z"/>
	<path fill="#FDDFEB" stroke="#FDDFEB" stroke-width="0.25" stroke-miterlimit="10" d="M177.343,7.838
		c-0.084-0.696-0.444-1.104-1.164-1.104c-1.055,0-2.051,0.995-2.051,3.046v2.183h-1.007V5.919h1.007v1.115
		c0.468-0.731,1.224-1.211,2.231-1.211c1.199,0,1.919,0.72,1.99,2.015H177.343z"/>
	<path fill="#FDDFEB" stroke="#FDDFEB" stroke-width="0.25" stroke-miterlimit="10" d="M185.754,9.157h-4.725
		c0.06,1.2,0.791,1.991,1.858,1.991c0.912,0,1.535-0.444,1.943-1.2l0.804,0.42c-0.66,1.271-1.619,1.691-2.747,1.691
		c-1.763,0-2.891-1.355-2.891-3.119c0-1.703,1.08-3.118,2.891-3.118c1.871,0,2.866,1.331,2.866,2.915V9.157z M181.1,8.246h3.586
		c-0.18-0.959-0.815-1.511-1.799-1.511C181.916,6.734,181.304,7.334,181.1,8.246z"/>
	<path fill="#FDDFEB" stroke="#FDDFEB" stroke-width="0.25" stroke-miterlimit="10" d="M187.269,4.479V3.568h2.675v6.117
		c0,0.996,0.444,1.463,1.271,1.463c0.72,0,1.247-0.444,1.403-1.463l0.911,0.18c-0.216,1.463-1.079,2.195-2.314,2.195
		c-1.392,0-2.278-0.852-2.278-2.375V4.479H187.269z"/>
	<path fill="#FDDFEB" stroke="#FDDFEB" stroke-width="0.25" stroke-miterlimit="10" d="M200.262,11.963h-0.815l-0.145-0.852
		c-0.384,0.552-1.235,0.948-2.135,0.948c-1.008,0-1.871-0.6-1.871-1.835c0-1.343,1.08-1.979,2.734-1.979h1.224V7.981
		c0-0.936-0.659-1.247-1.392-1.247c-0.707,0-1.235,0.444-1.427,1.031l-0.888-0.24c0.276-1.056,1.212-1.703,2.314-1.703
		c1.416,0,2.399,0.66,2.399,2.327V11.963z M197.324,11.148c0.779,0,1.931-0.48,1.931-1.847V9.109h-1.319
		c-1.031,0-1.607,0.432-1.607,1.115C196.328,10.8,196.724,11.148,197.324,11.148z"/>
	<path fill="#FDDFEB" stroke="#FDDFEB" stroke-width="0.25" stroke-miterlimit="10" d="M202.197,5.919h1.606V4.108l1.008-0.636
		v2.447h2.95V6.83h-2.95v3.094c0,0.84,0.372,1.224,1.043,1.224c0.528,0,0.96-0.168,1.487-0.72l0.372,0.852
		c-0.552,0.552-1.104,0.78-1.859,0.78c-1.319,0-2.051-0.696-2.051-2.099V6.83h-1.606V5.919z"/>
	<path fill="#FDDFEB" stroke="#FDDFEB" stroke-width="0.25" stroke-miterlimit="10" d="M215.513,9.157h-4.725
		c0.06,1.2,0.791,1.991,1.858,1.991c0.912,0,1.535-0.444,1.943-1.2l0.804,0.42c-0.66,1.271-1.619,1.691-2.747,1.691
		c-1.763,0-2.891-1.355-2.891-3.119c0-1.703,1.08-3.118,2.891-3.118c1.871,0,2.866,1.331,2.866,2.915V9.157z M210.86,8.246h3.586
		c-0.18-0.959-0.815-1.511-1.799-1.511C211.676,6.734,211.064,7.334,210.86,8.246z"/>
	<path fill="#FDDFEB" stroke="#FDDFEB" stroke-width="0.25" stroke-miterlimit="10" d="M219.896,5.823
		c0.839,0,1.511,0.408,1.847,0.864V3.472h1.008v8.491h-1.008V11.16c-0.336,0.468-1.02,0.9-1.847,0.9
		c-1.775,0-2.771-1.271-2.771-3.119C217.126,7.094,218.121,5.823,219.896,5.823z M219.992,11.148c1.151,0,1.835-0.912,1.835-2.207
		s-0.684-2.207-1.835-2.207s-1.835,0.911-1.835,2.207S218.841,11.148,219.992,11.148z"/>
	<path fill="#FDDFEB" stroke="#FDDFEB" stroke-width="0.25" stroke-miterlimit="10" d="M231.957,5.919h1.606V4.108l1.008-0.636
		v2.447h2.95V6.83h-2.95v3.094c0,0.84,0.372,1.224,1.043,1.224c0.528,0,0.96-0.168,1.487-0.72l0.372,0.852
		c-0.552,0.552-1.104,0.78-1.859,0.78c-1.319,0-2.051-0.696-2.051-2.099V6.83h-1.606V5.919z"/>
	<path fill="#FDDFEB" stroke="#FDDFEB" stroke-width="0.25" stroke-miterlimit="10" d="M242.323,5.823
		c1.848,0,2.975,1.451,2.975,3.118s-1.127,3.119-2.975,3.119c-1.847,0-2.975-1.452-2.975-3.119S240.476,5.823,242.323,5.823z
		 M242.323,11.148c1.235,0,1.943-1.043,1.943-2.207c0-1.163-0.708-2.207-1.943-2.207s-1.942,1.043-1.942,2.207
		C240.381,10.104,241.088,11.148,242.323,11.148z"/>
</g>
</svg>
