<?xml version="1.0" encoding="utf-8"?>
<!-- Generator: Adobe Illustrator 16.0.0, SVG Export Plug-In . SVG Version: 6.00 Build 0)  -->
<!DOCTYPE svg PUBLIC "-//W3C//DTD SVG 1.1//EN" "http://www.w3.org/Graphics/SVG/1.1/DTD/svg11.dtd">
<svg version="1.1" id="Layer_1" xmlns="http://www.w3.org/2000/svg" xmlns:xlink="http://www.w3.org/1999/xlink" x="0px" y="0px"
	 width="270.525px" height="161.667px" viewBox="0.33 -1.829 270.525 161.667" enable-background="new 0.33 -1.829 270.525 161.667"
	 xml:space="preserve">
<text transform="matrix(1 0 0 1 58.8342 8.7185)" fill="#FDDFEB" font-family="'SangBleuKingdomBold'" font-size="12">Printed matter related to</text>
<g>
	<g>
		<path fill="#FDDFEB" d="M13.255,24.047l-1.27,12l18.744,1.979l-0.823,7.794l-18.744-1.981L9.423,60.294L0.33,59.333L4.984,15.29
			l29.384,3.105l-0.824,7.794L13.255,24.047z"/>
	</g>
	<g>
		<path fill="#FDDFEB" d="M70.12,23.988c2.938,2.188,5.062,5.092,6.366,8.711c1.307,3.62,1.709,7.802,1.208,12.544
			c-0.501,4.743-1.77,8.748-3.804,12.014c-2.033,3.269-4.717,5.663-8.047,7.188c-3.331,1.524-7.141,2.061-11.429,1.607
			c-4.29-0.453-7.902-1.774-10.841-3.96c-2.938-2.188-5.062-5.091-6.366-8.712c-1.308-3.619-1.71-7.801-1.208-12.544
			c0.501-4.741,1.77-8.747,3.805-12.014c2.032-3.267,4.715-5.663,8.046-7.188c3.33-1.524,7.142-2.061,11.431-1.606
			C63.568,20.482,67.18,21.802,70.12,23.988z M49.625,31.175c-2.322,2.443-3.729,5.996-4.224,10.655
			c-0.492,4.661,0.142,8.429,1.901,11.305c1.761,2.876,4.414,4.5,7.96,4.875s6.48-0.66,8.804-3.104
			c2.321-2.444,3.729-5.996,4.224-10.657c0.492-4.66-0.143-8.428-1.901-11.303c-1.761-2.876-4.414-4.501-7.96-4.876
			S51.948,28.731,49.625,31.175z"/>
	</g>
	<g>
		<path fill="#FDDFEB" d="M115.374,30.209c2.411,2.425,3.408,5.637,2.984,9.637c-0.282,2.682-1.248,4.894-2.892,6.637
			c-1.646,1.745-3.74,2.837-6.29,3.277l-0.014,0.123c1.507,0.743,2.648,1.75,3.435,3.021c0.782,1.271,1.543,3.343,2.283,6.215
			l3.104,12.65l-9.896-1.046l-2.421-10.827c-0.572-2.479-1.354-4.24-2.351-5.283c-0.994-1.044-2.564-1.679-4.709-1.906l-5.011-0.528
			l-1.776,16.825l-9.096-0.961L87.379,24l16.208,1.713C109.032,26.287,112.959,27.786,115.374,30.209z M94.365,44.941l6.433,0.68
			c5.072,0.536,7.839-1.36,8.297-5.69c0.433-4.083-2.056-6.41-7.457-6.98l-5.938-0.628L94.365,44.941z"/>
	</g>
	<g>
		<path fill="#FDDFEB" d="M136.847,37.109l-1.053,9.959l19.92,2.104l-0.816,7.732l-19.918-2.105l-1.138,10.765l21.898,2.313
			l-0.824,7.794l-30.992-3.274l4.654-44.043l30.437,3.216l-0.822,7.794L136.847,37.109z"/>
	</g>
	<g>
		<path fill="#FDDFEB" d="M163.082,76.534l4.654-44.042l9.094,0.961l-4.652,44.042L163.082,76.534z"/>
	</g>
	<g>
		<path fill="#FDDFEB" d="M217.656,40.737c2.938,2.959,4.393,6.751,4.361,11.376l-9.771-1.033c-0.184-2.229-0.936-3.986-2.256-5.273
			c-1.324-1.287-3.203-2.06-5.635-2.316c-3.551-0.375-6.496,0.681-8.844,3.163c-2.35,2.483-3.77,6.076-4.268,10.777
			c-0.51,4.824,0.1,8.727,1.828,11.703s4.346,4.648,7.854,5.021c3.176,0.336,5.701-0.304,7.58-1.919
			c1.885-1.615,3.021-4.111,3.422-7.488l-10.455-1.104l0.783-7.423l18.932,2l-2.559,24.187l-7.67-0.811l0.504-4.764l-0.125-0.014
			c-1.467,1.638-3.354,2.834-5.664,3.59c-2.311,0.758-4.91,0.982-7.799,0.678c-3.752-0.395-6.914-1.656-9.48-3.783
			c-2.568-2.127-4.426-4.972-5.57-8.533c-1.146-3.562-1.473-7.671-0.979-12.332c0.5-4.742,1.781-8.776,3.844-12.104
			c2.062-3.326,4.768-5.752,8.115-7.274c3.355-1.522,7.152-2.059,11.4-1.609C210.564,36.016,214.715,37.779,217.656,40.737z"/>
	</g>
	<g>
		<path fill="#FDDFEB" d="M253.271,86.066l-6.646-18.781c-2.434-6.971-4.473-13.315-6.119-19.036l-0.123-0.013
			c-0.391,6.839-0.896,13.229-1.523,19.167l-1.791,16.95l-8.725-0.922l4.654-44.042l12.928,1.365l6.646,18.779
			c2.436,6.972,4.475,13.318,6.121,19.038l0.125,0.012c0.391-6.839,0.895-13.229,1.523-19.167l1.791-16.948l8.723,0.922
			l-4.654,44.043L253.271,86.066z"/>
	</g>
	<g>
		<path fill="#FDDFEB" d="M23.892,148.224l-2.808,11.021l-9.562,0.592l12.598-45.154l12.292-0.764l18.073,43.258l-9.562,0.592
			l-4.083-10.592L23.892,148.224z M36.761,136.646c-2.43-6.332-4.461-11.98-6.099-16.947l-0.124,0.008
			c-1.173,5.891-2.474,11.744-3.896,17.566l-0.75,2.977l11.981-0.74L36.761,136.646z"/>
	</g>
	<g>
		<path fill="#FDDFEB" d="M65.395,119.976l0.747,12.045l18.812-1.166l0.483,7.822l-18.812,1.166l1.022,16.516l-9.126,0.566
			l-2.738-44.207l29.489-1.828l0.484,7.822L65.395,119.976z"/>
	</g>
	<g>
		<path fill="#FDDFEB" d="M101.653,117.73l0.746,12.045l18.812-1.166l0.484,7.822l-18.812,1.166l1.023,16.516l-9.128,0.564
			l-2.738-44.205l29.491-1.828l0.483,7.824L101.653,117.73z"/>
	</g>
	<g>
		<path fill="#FDDFEB" d="M135.275,141.324l-2.811,11.021l-9.562,0.592l12.598-45.154l12.292-0.764l18.076,43.256l-9.564,0.594
			l-4.082-10.594L135.275,141.324z M148.142,129.744c-2.43-6.33-4.461-11.979-6.098-16.947l-0.125,0.01
			c-1.174,5.891-2.473,11.746-3.9,17.564l-0.746,2.979l11.982-0.742L148.142,129.744z"/>
	</g>
	<g>
		<path fill="#FDDFEB" d="M169.906,150.023l-2.74-44.205l9.127-0.564l2.74,44.205L169.906,150.023z"/>
	</g>
	<g>
		<path fill="#FDDFEB" d="M215.109,106.088c2.781,1.988,4.301,4.99,4.549,9.006c0.166,2.689-0.416,5.029-1.748,7.023
			s-3.217,3.42-5.654,4.277l0.01,0.123c1.605,0.48,2.902,1.285,3.887,2.408c0.984,1.121,2.082,3.037,3.287,5.746l5.166,11.961
			l-9.936,0.613l-4.188-10.271c-0.98-2.352-2.043-3.957-3.195-4.82c-1.154-0.861-2.811-1.229-4.961-1.096l-5.027,0.311l1.047,16.893
			l-9.127,0.562l-2.738-44.207l16.268-1.008C208.205,103.275,212.328,104.099,215.109,106.088z M196.844,124.111l6.457-0.4
			c5.09-0.312,7.5-2.646,7.23-6.99c-0.256-4.102-3.096-5.979-8.516-5.646l-5.959,0.369L196.844,124.111z"/>
	</g>
	<g>
		<path fill="#FDDFEB" d="M254.095,103.144c2.986,2.285,4.631,5.811,4.926,10.568l-9.252,0.574
			c-0.145-2.316-0.916-4.066-2.318-5.248s-3.346-1.693-5.828-1.541c-2.029,0.125-3.637,0.672-4.82,1.641
			c-1.188,0.969-1.734,2.176-1.646,3.623c0.068,1.115,0.436,2.01,1.1,2.674c0.666,0.666,1.678,1.217,3.031,1.648
			c1.354,0.439,3.314,0.889,5.881,1.352c3.486,0.656,6.316,1.365,8.482,2.125c2.164,0.76,3.977,1.984,5.432,3.684
			c1.453,1.695,2.275,4.059,2.465,7.076c0.172,2.773-0.402,5.262-1.721,7.461c-1.316,2.199-3.244,3.961-5.779,5.279
			c-2.533,1.318-5.502,2.088-8.896,2.297c-5.586,0.348-10.047-0.729-13.381-3.221c-3.334-2.494-5.152-6.229-5.461-11.191
			l9.438-0.584c0.166,2.689,1.018,4.674,2.551,5.949c1.531,1.271,3.705,1.826,6.521,1.65c2.316-0.145,4.141-0.766,5.463-1.863
			c1.32-1.104,1.932-2.521,1.824-4.26c-0.078-1.24-0.447-2.203-1.113-2.893c-0.666-0.686-1.594-1.199-2.775-1.541
			c-1.188-0.344-3.059-0.768-5.625-1.271c-3.656-0.686-6.568-1.4-8.73-2.141c-2.166-0.738-3.998-1.941-5.492-3.617
			c-1.496-1.672-2.334-4.02-2.521-7.041c-0.158-2.564,0.385-4.887,1.627-6.955c1.24-2.07,3.068-3.73,5.486-4.982
			c2.414-1.25,5.213-1.977,8.402-2.172C246.861,99.883,251.107,100.855,254.095,103.144z"/>
	</g>
</g>
<g>
	<path fill="#FDDFEB" d="M50.921,155.215c-9.384,0-15.467-0.17-15.65-0.174l0.059-2c0.564,0.02,56.701,1.584,93.025-4.982
		c21.579-3.9,43.995-28.908,49.157-54.742c-14.24,3.656-30.834,4.768-49.963,1.543c-9.261-1.562-37.468-9.773-49.113-19.899
		c-0.183-0.171-15.233-14.707-3.966-33.612c0.32-0.448,6.815-9.22,20.056-13.945c22.037-7.861,45.024,1.949,60.428,11.565
		c19.357,12.083,28.188,30.323,25.066,51.582c20.578-5.949,35.91-17.287,46.576-28.01c19.814-19.92,28.24-42.027,28.324-42.249
		l1.873,0.702c-0.084,0.225-8.664,22.734-28.779,42.957c-11.021,11.08-26.941,22.808-48.355,28.791
		c-0.031,0.168-0.062,0.334-0.094,0.502c-5.129,26.725-28.418,52.729-50.854,56.785C104.06,154.482,70.389,155.215,50.921,155.215z
		 M111.464,26.55c-5.662,0-11.068,0.896-16.161,2.699c-12.701,4.497-19.104,13.113-19.167,13.2
		c-10.404,17.466,3.5,30.896,3.641,31.03c11.155,9.7,39.295,17.924,48.103,19.409c19.211,3.236,35.829,2.027,50.026-1.75
		c3.367-20.804-5.113-38.676-24.012-50.473C138.898,31.303,124.505,26.55,111.464,26.55z"/>
</g>
</svg>
