<?xml version="1.0" encoding="utf-8"?>
<!-- Generator: Adobe Illustrator 16.0.0, SVG Export Plug-In . SVG Version: 6.00 Build 0)  -->
<!DOCTYPE svg PUBLIC "-//W3C//DTD SVG 1.1//EN" "http://www.w3.org/Graphics/SVG/1.1/DTD/svg11.dtd">
<svg version="1.1" id="Layer_1" xmlns="http://www.w3.org/2000/svg" xmlns:xlink="http://www.w3.org/1999/xlink" x="0px" y="0px"
	 width="255.762px" height="148.715px" viewBox="9.93 0.986 255.762 148.715" enable-background="new 9.93 0.986 255.762 148.715"
	 xml:space="preserve">
<g>
	<path fill="#F91E1E" d="M9.93,73.96V21.021h32.928v8.438H18.89v14.858h21.504v8.288H18.89V73.96H9.93z"/>
	<path fill="#F91E1E" d="M84.677,55.742c0,11.199-7.988,19.337-18.893,19.337c-10.826,0-18.816-8.14-18.816-19.337
		c0-11.126,7.99-19.265,18.816-19.265C76.687,36.477,84.677,44.616,84.677,55.742z M75.941,55.742
		c0-7.542-4.779-11.425-10.156-11.425c-5.3,0-10.154,3.883-10.154,11.425c0,7.54,4.854,11.573,10.154,11.573
		C71.161,67.315,75.941,63.357,75.941,55.742z"/>
	<path fill="#F91E1E" d="M115.817,46.185c-0.969-0.149-1.94-0.224-2.836-0.224c-6.72,0-9.782,3.882-9.782,10.677V73.96h-8.661
		V37.597h8.438v5.824c1.718-3.957,5.75-6.272,10.526-6.272c1.045,0,1.941,0.149,2.313,0.224L115.817,46.185L115.817,46.185z"/>
	<path fill="#F91E1E" d="M156.366,63.581c-1.942,6.349-7.689,11.5-16.427,11.5c-9.855,0-18.591-7.167-18.591-19.489
		c0-11.5,8.511-19.115,17.693-19.115c11.2,0,17.772,7.392,17.772,18.892c0,1.418-0.15,2.613-0.228,2.762h-26.582
		c0.228,5.525,4.559,9.483,9.934,9.483c5.227,0,7.915-2.764,9.107-6.347L156.366,63.581z M148.079,51.784
		c-0.148-4.256-2.988-8.064-8.961-8.064c-5.45,0-8.586,4.182-8.885,8.064H148.079z"/>
	<path fill="#F91E1E" d="M175.687,19.154c3.137,0,5.229,2.539,4.676,5.675c-0.553,3.135-3.527,5.6-6.664,5.6
		c-3.061,0-5.166-2.464-4.613-5.6C169.64,21.693,172.628,19.154,175.687,19.154z M161.769,73.96l6.411-36.363h8.587l-6.412,36.363
		H161.769z"/>
	<path fill="#F91E1E" d="M193.26,73.885c0.6,4.482,4.104,7.841,9.108,7.841c6.869,0,10.305-3.51,10.305-10.902v-3.808
		c-1.567,2.838-5.228,5.302-10.525,5.302c-9.708,0-16.805-7.468-16.805-17.697c0-9.707,6.799-17.696,16.805-17.696
		c5.673,0,9.184,2.315,10.753,5.301v-4.629h8.358v32.929c0,9.707-5.003,18.741-18.666,18.741c-9.632,0-16.354-5.975-17.323-13.291
		L193.26,73.885z M212.898,54.622c0-6.198-3.959-10.23-9.335-10.23c-5.526,0-9.482,4.032-9.482,10.23
		c0,6.347,3.809,10.303,9.482,10.303C209.088,64.925,212.898,60.894,212.898,54.622z"/>
	<path fill="#F91E1E" d="M242.02,73.96h-8.662V37.597h8.438v4.853c2.391-4.181,6.723-5.898,10.752-5.898
		c8.887,0,13.145,6.421,13.145,14.411V73.96h-8.662V52.456c0-4.479-2.016-8.064-7.468-8.064c-4.929,0-7.541,3.809-7.541,8.588
		L242.02,73.96L242.02,73.96z"/>
	<path fill="#F91E1E" d="M58.242,135.289h-22.4l-4.928,13.291h-9.48L42.04,95.634h10.377l20.609,52.941h-9.781L58.242,135.289z
		 M38.977,127h16.128l-8.065-21.654L38.977,127z"/>
	<path fill="#F91E1E" d="M117.973,107.435l-0.842,4.777h8.438l-1.33,7.541h-8.438l-5.083,28.822h-8.737l5.083-28.822H91.908
		l-5.083,28.822h-8.736l5.083-28.822h-6.348l1.33-7.541h6.348l0.882-5.004c1.435-8.139,7.53-13.064,14.996-13.064
		c2.165,0,3.879,0.445,4.425,0.746l-1.305,7.396c-0.496-0.15-1.428-0.373-3.073-0.373c-2.24,0-5.559,1.045-6.349,5.521l-0.842,4.777
		h15.156l0.882-5.004c1.435-8.139,7.531-13.064,14.999-13.064c2.165,0,3.878,0.445,4.425,0.746l-1.305,7.396
		c-0.497-0.15-1.429-0.373-3.072-0.373C122.084,101.914,118.763,102.958,117.973,107.435z"/>
	<path fill="#F91E1E" d="M141.135,127.748l9.333-1.42c2.093-0.301,2.688-1.346,2.688-2.613c0-3.062-2.092-5.525-6.868-5.525
		c-4.557,0-7.097,2.914-7.47,6.57l-7.915-1.793c0.673-6.271,6.349-11.869,15.309-11.869c11.202,0,15.456,6.346,15.456,13.588v18.068
		c0,3.287,0.373,5.453,0.449,5.826h-8.062c-0.074-0.227-0.373-1.719-0.373-4.631c-1.721,2.764-5.306,5.752-11.201,5.752
		c-7.616,0-12.321-5.229-12.321-10.979C130.158,132.224,134.938,128.642,141.135,127.748z M153.157,133.496v-1.645l-9.483,1.42
		c-2.688,0.445-4.854,1.939-4.854,4.93c0,2.465,1.868,4.701,5.303,4.701C148.974,142.902,153.157,140.587,153.157,133.496z"/>
	<path fill="#F91E1E" d="M177.877,93.769c3.138,0,5.675,2.541,5.675,5.68c0,3.135-2.537,5.6-5.675,5.6c-3.061,0-5.6-2.465-5.6-5.6
		C172.277,96.31,174.816,93.769,177.877,93.769z M173.621,148.58v-36.363h8.587v36.363H173.621z"/>
	<path fill="#F91E1E" d="M216.183,120.798c-0.974-0.146-1.941-0.223-2.838-0.223c-6.722,0-9.782,3.881-9.782,10.678v17.322h-8.661
		v-36.363h8.438v5.824c1.72-3.959,5.751-6.271,10.528-6.271c1.046,0,1.941,0.148,2.315,0.229V120.798L216.183,120.798z"/>
	<path fill="#F91E1E" d="M229.326,136.628c0.299,3.287,2.764,6.195,7.392,6.195c3.587,0,5.452-1.938,5.452-4.18
		c0-1.941-1.344-3.434-4.258-4.031l-5.374-1.195c-6.422-1.42-9.782-5.6-9.782-10.604c0-6.346,5.823-11.721,13.364-11.721
		c10.154,0,13.441,6.57,14.039,10.154l-7.317,2.09c-0.299-2.09-1.864-5.451-6.722-5.451c-3.06,0-5.227,1.941-5.227,4.184
		c0,1.938,1.42,3.357,3.66,3.807l5.523,1.119c6.868,1.494,10.453,5.674,10.453,11.051c0,5.525-4.481,11.65-13.74,11.65
		c-10.523,0-14.559-6.873-15.007-10.977L229.326,136.628z"/>
</g>
<g>
	<path fill="#F91E1E" d="M81.726,3.795v1.74h-0.755V1.081h1.65c0.855,0,1.42,0.577,1.42,1.356c0,0.786-0.563,1.357-1.42,1.357
		L81.726,3.795L81.726,3.795z M82.51,3.129c0.479,0,0.769-0.264,0.769-0.685c0-0.427-0.288-0.698-0.769-0.698h-0.782v1.383H82.51z"
		/>
	<path fill="#F91E1E" d="M86.932,3.776H86.38v1.759h-0.761V1.081h1.709c0.86,0,1.396,0.596,1.396,1.351
		c0,0.634-0.385,1.118-1.006,1.269l1.006,1.834h-0.854L86.932,3.776z M87.19,3.11c0.464,0,0.765-0.27,0.765-0.678
		c0-0.415-0.301-0.686-0.765-0.686H86.38V3.11H87.19z"/>
	<path fill="#F91E1E" d="M90.404,5.535V1.081h0.767v4.454H90.404z"/>
	<path fill="#F91E1E" d="M96.069,5.535L93.87,2.162v3.374h-0.754V1.081h0.961l2.022,3.16v-3.16h0.755v4.454H96.069z"/>
	<path fill="#F91E1E" d="M100.546,1.79v3.745h-0.754V1.79h-1.442V1.081h3.648V1.79H100.546z"/>
	<path fill="#F91E1E" d="M103.49,5.535V1.081h2.752v0.703h-1.998v1.182h1.811V3.65h-1.811v1.181h1.998v0.704H103.49z"/>
	<path fill="#F91E1E" d="M108.024,5.535V1.081h1.577c1.212,0,2.167,0.804,2.167,2.236c0,1.426-0.97,2.218-2.173,2.218H108.024z
		 M109.57,4.844c0.771,0,1.413-0.496,1.413-1.526c0-1.043-0.635-1.546-1.407-1.546h-0.798v3.072H109.57z"/>
	<path fill="#F91E1E" d="M120.026,5.535v-3.28l-1.388,3.28h-0.654l-1.377-3.267v3.267h-0.734V1.081h1.005l1.446,3.398l1.426-3.398
		h1.025v4.454H120.026z"/>
	<path fill="#F91E1E" d="M125.345,4.417h-1.886l-0.416,1.119h-0.799l1.735-4.454h0.873l1.731,4.454h-0.818L125.345,4.417z
		 M123.722,3.719h1.357l-0.679-1.822L123.722,3.719z"/>
	<path fill="#F91E1E" d="M129.401,1.79v3.745h-0.754V1.79h-1.444V1.081h3.65V1.79H129.401z"/>
	<path fill="#F91E1E" d="M134.216,1.79v3.745h-0.754V1.79h-1.442V1.081h3.647V1.79H134.216z"/>
	<path fill="#F91E1E" d="M137.161,5.535V1.081h2.753v0.703h-1.998v1.182h1.812V3.65h-1.812v1.181h1.998v0.704H137.161z"/>
	<path fill="#F91E1E" d="M143.01,3.776h-0.553v1.759h-0.762V1.081h1.709c0.86,0,1.396,0.596,1.396,1.351
		c0,0.634-0.385,1.118-1.007,1.269l1.007,1.834h-0.854L143.01,3.776z M143.265,3.11c0.466,0,0.768-0.27,0.768-0.678
		c0-0.415-0.302-0.686-0.768-0.686h-0.811V3.11H143.265z"/>
	<path fill="#F91E1E" d="M150.229,3.776h-0.555v1.759h-0.759V1.081h1.706c0.861,0,1.396,0.596,1.396,1.351
		c0,0.634-0.386,1.118-1.004,1.269l1.004,1.834h-0.855L150.229,3.776z M150.488,3.11c0.463,0,0.764-0.27,0.764-0.678
		c0-0.415-0.301-0.686-0.764-0.686h-0.812V3.11H150.488z"/>
	<path fill="#F91E1E" d="M153.702,5.535V1.081h2.751v0.703h-1.997v1.182h1.81V3.65h-1.81v1.181h1.997v0.704H153.702z"/>
	<path fill="#F91E1E" d="M158.235,5.535V1.081h0.755v3.737h2.041v0.717H158.235z"/>
	<path fill="#F91E1E" d="M165.308,4.417h-1.887l-0.415,1.119h-0.8l1.736-4.454h0.873l1.73,4.454h-0.82L165.308,4.417z
		 M163.684,3.719h1.358l-0.68-1.822L163.684,3.719z"/>
	<path fill="#F91E1E" d="M169.364,1.79v3.745h-0.755V1.79h-1.444V1.081h3.649V1.79H169.364z"/>
	<path fill="#F91E1E" d="M172.309,5.535V1.081h2.751v0.703h-1.997v1.182h1.809V3.65h-1.809v1.181h1.997v0.704H172.309z"/>
	<path fill="#F91E1E" d="M176.844,5.535V1.081h1.575c1.212,0,2.168,0.804,2.168,2.236c0,1.426-0.968,2.218-2.174,2.218H176.844z
		 M178.388,4.844c0.771,0,1.409-0.496,1.409-1.526c0-1.043-0.634-1.546-1.403-1.546h-0.798v3.072H178.388z"/>
	<path fill="#F91E1E" d="M186.437,1.79v3.745h-0.754V1.79h-1.444V1.081h3.65V1.79H186.437z"/>
	<path fill="#F91E1E" d="M191.235,0.986c1.169,0,2.268,0.861,2.268,2.318c0,1.464-1.099,2.324-2.268,2.324
		c-1.168,0-2.262-0.86-2.262-2.324C188.973,1.847,190.067,0.986,191.235,0.986z M191.235,4.913c0.754,0,1.496-0.534,1.496-1.608
		c0-1.074-0.742-1.608-1.496-1.608c-0.747,0-1.489,0.534-1.489,1.608C189.746,4.379,190.488,4.913,191.235,4.913z"/>
</g>
</svg>
