<?xml version="1.0" encoding="utf-8"?>
<!-- Generator: Adobe Illustrator 16.0.0, SVG Export Plug-In . SVG Version: 6.00 Build 0)  -->
<!DOCTYPE svg PUBLIC "-//W3C//DTD SVG 1.1//EN" "http://www.w3.org/Graphics/SVG/1.1/DTD/svg11.dtd">
<svg version="1.1" id="Layer_1" xmlns="http://www.w3.org/2000/svg" xmlns:xlink="http://www.w3.org/1999/xlink" x="0px" y="0px"
	 width="270.523px" height="156.927px" viewBox="10.562 4.582 270.523 156.927"
	 enable-background="new 10.562 4.582 270.523 156.927" xml:space="preserve">
<g>
	<g>
		<path fill="#FDDFEB" d="M23.487,25.719l-1.269,12l18.744,1.979l-0.824,7.794l-18.744-1.981l-1.739,16.455l-9.093-0.961
			l4.654-44.043l29.383,3.105l-0.824,7.794L23.487,25.719z"/>
	</g>
	<g>
		<path fill="#FDDFEB" d="M80.351,25.659c2.938,2.188,5.062,5.092,6.367,8.711c1.306,3.62,1.709,7.802,1.208,12.544
			c-0.501,4.743-1.769,8.748-3.803,12.014c-2.034,3.268-4.717,5.663-8.047,7.188c-3.331,1.524-7.141,2.061-11.429,1.607
			c-4.29-0.453-7.902-1.774-10.841-3.96c-2.938-2.187-5.061-5.09-6.366-8.711c-1.307-3.62-1.71-7.801-1.208-12.544
			c0.501-4.742,1.77-8.747,3.805-12.014c2.032-3.267,4.715-5.663,8.046-7.188c3.33-1.524,7.14-2.06,11.429-1.606
			C73.799,22.153,77.412,23.473,80.351,25.659z M59.857,32.846c-2.322,2.444-3.729,5.997-4.223,10.656
			c-0.493,4.661,0.141,8.428,1.902,11.304c1.76,2.876,4.414,4.5,7.96,4.875s6.48-0.66,8.803-3.104
			c2.322-2.444,3.729-5.996,4.223-10.657c0.492-4.66-0.142-8.428-1.901-11.303c-1.761-2.876-4.414-4.501-7.96-4.876
			C65.115,29.366,62.179,30.402,59.857,32.846z"/>
	</g>
	<g>
		<path fill="#FDDFEB" d="M125.605,31.881c2.411,2.424,3.408,5.636,2.985,9.636c-0.283,2.682-1.248,4.894-2.891,6.637
			c-1.646,1.745-3.74,2.837-6.29,3.277l-0.014,0.123c1.507,0.744,2.65,1.75,3.435,3.022c0.782,1.271,1.543,3.343,2.283,6.215
			l3.104,12.65l-9.896-1.046L115.9,61.568c-0.572-2.479-1.355-4.24-2.35-5.283c-0.995-1.044-2.565-1.679-4.709-1.906l-5.01-0.529
			l-1.778,16.826l-9.094-0.961l4.653-44.043l16.208,1.713C119.263,27.959,123.191,29.458,125.605,31.881z M104.595,46.612
			l6.433,0.68c5.072,0.536,7.839-1.361,8.297-5.691c0.432-4.083-2.056-6.41-7.457-6.98l-5.938-0.628L104.595,46.612z"/>
	</g>
	<g>
		<path fill="#FDDFEB" d="M147.08,38.78l-1.053,9.959l19.919,2.105l-0.816,7.732l-19.919-2.105l-1.137,10.764l21.897,2.314
			l-0.824,7.794l-30.991-3.275l4.654-44.043l30.438,3.216l-0.824,7.794L147.08,38.78z"/>
	</g>
	<g>
		<path fill="#FDDFEB" d="M173.313,78.206l4.654-44.042l9.094,0.961l-4.653,44.042L173.313,78.206z"/>
	</g>
	<g>
		<path fill="#FDDFEB" d="M227.887,42.408c2.939,2.959,4.393,6.751,4.363,11.376l-9.773-1.033c-0.183-2.23-0.934-3.987-2.257-5.274
			s-3.202-2.059-5.634-2.316c-3.549-0.375-6.496,0.681-8.843,3.163c-2.349,2.483-3.77,6.076-4.267,10.777
			c-0.51,4.825,0.099,8.727,1.827,11.703c1.729,2.977,4.347,4.649,7.854,5.021c3.176,0.336,5.701-0.304,7.58-1.919
			c1.885-1.615,3.021-4.111,3.423-7.488l-10.456-1.105l0.784-7.423l18.931,2l-2.558,24.188l-7.67-0.812l0.503-4.763l-0.124-0.014
			c-1.468,1.639-3.354,2.836-5.665,3.592c-2.311,0.758-4.91,0.982-7.798,0.678c-3.752-0.396-6.915-1.658-9.481-3.785
			c-2.57-2.127-4.426-4.971-5.571-8.533c-1.147-3.561-1.472-7.671-0.979-12.332c0.501-4.742,1.781-8.776,3.844-12.103
			c2.061-3.327,4.766-5.752,8.116-7.275c3.353-1.522,7.151-2.058,11.399-1.609C220.796,37.687,224.947,39.45,227.887,42.408z"/>
	</g>
	<g>
		<path fill="#FDDFEB" d="M263.503,87.737l-6.647-18.78c-2.434-6.971-4.473-13.316-6.119-19.036l-0.124-0.013
			c-0.39,6.839-0.896,13.229-1.524,19.167l-1.791,16.95l-8.723-0.922l4.653-44.043l12.929,1.366l6.646,18.779
			c2.434,6.972,4.473,13.318,6.121,19.038l0.124,0.012c0.39-6.84,0.896-13.229,1.525-19.167l1.79-16.949l8.722,0.922l-4.654,44.043
			L263.503,87.737z"/>
	</g>
	<g>
		<path fill="#FDDFEB" d="M34.124,149.896l-2.808,11.021l-9.562,0.592l12.597-45.156l12.292-0.762l18.074,43.257l-9.561,0.592
			l-4.083-10.592L34.124,149.896z M46.993,138.317c-2.43-6.331-4.461-11.979-6.099-16.947l-0.124,0.008
			c-1.173,5.89-2.473,11.744-3.896,17.566l-0.75,2.977l11.981-0.742L46.993,138.317z"/>
	</g>
	<g>
		<path fill="#FDDFEB" d="M75.627,121.647l0.747,12.045l18.812-1.165l0.484,7.822l-18.812,1.166l1.023,16.515l-9.126,0.566
			l-2.739-44.207l29.49-1.827l0.485,7.823L75.627,121.647z"/>
	</g>
	<g>
		<path fill="#FDDFEB" d="M111.884,119.401l0.746,12.045l18.811-1.166l0.485,7.823l-18.811,1.166l1.022,16.515l-9.127,0.565
			l-2.739-44.206l29.491-1.827l0.485,7.823L111.884,119.401z"/>
	</g>
	<g>
		<path fill="#FDDFEB" d="M145.506,142.995l-2.81,11.02l-9.561,0.593l12.597-45.155l12.293-0.763l18.075,43.256l-9.563,0.593
			l-4.082-10.593L145.506,142.995z M158.374,131.415c-2.429-6.33-4.461-11.979-6.098-16.947l-0.125,0.008
			c-1.173,5.891-2.472,11.746-3.899,17.566l-0.747,2.978l11.982-0.743L158.374,131.415z"/>
	</g>
	<g>
		<path fill="#FDDFEB" d="M180.136,151.695l-2.739-44.206l9.127-0.564l2.739,44.205L180.136,151.695z"/>
	</g>
	<g>
		<path fill="#FDDFEB" d="M225.34,107.76c2.782,1.988,4.3,4.99,4.548,9.004c0.167,2.691-0.416,5.031-1.748,7.025
			c-1.331,1.994-3.215,3.42-5.653,4.277l0.009,0.123c1.606,0.482,2.902,1.285,3.887,2.408s2.081,3.039,3.286,5.747l5.167,11.96
			l-9.935,0.615l-4.189-10.272c-0.979-2.351-2.042-3.957-3.195-4.821c-1.154-0.861-2.81-1.229-4.962-1.096l-5.027,0.312l1.048,16.89
			l-9.128,0.565l-2.738-44.207l16.266-1.008C218.435,104.946,222.559,105.771,225.34,107.76z M207.076,125.781l6.456-0.399
			c5.09-0.314,7.501-2.646,7.23-6.991c-0.254-4.101-3.093-5.979-8.514-5.646l-5.959,0.369L207.076,125.781z"/>
	</g>
	<g>
		<path fill="#FDDFEB" d="M264.328,104.815c2.986,2.286,4.63,5.811,4.925,10.571l-9.252,0.573c-0.145-2.318-0.915-4.068-2.319-5.248
			c-1.403-1.182-3.346-1.694-5.829-1.541c-2.028,0.125-3.635,0.672-4.82,1.64c-1.187,0.968-1.734,2.176-1.646,3.622
			c0.069,1.117,0.436,2.01,1.099,2.674c0.666,0.667,1.678,1.217,3.032,1.65c1.355,0.438,3.316,0.888,5.88,1.351
			c3.488,0.655,6.317,1.364,8.483,2.124c2.164,0.759,3.977,1.986,5.432,3.684c1.453,1.696,2.276,4.057,2.464,7.075
			c0.173,2.774-0.401,5.263-1.72,7.462c-1.316,2.2-3.244,3.961-5.78,5.28c-2.533,1.319-5.501,2.087-8.895,2.297
			c-5.587,0.347-10.047-0.728-13.381-3.222c-3.333-2.494-5.153-6.227-5.461-11.191l9.438-0.585c0.166,2.69,1.017,4.675,2.551,5.951
			c1.53,1.272,3.705,1.825,6.521,1.651c2.317-0.146,4.139-0.766,5.462-1.865c1.322-1.102,1.932-2.52,1.824-4.258
			c-0.077-1.241-0.448-2.205-1.113-2.893c-0.666-0.685-1.593-1.199-2.776-1.541c-1.186-0.343-3.059-0.767-5.624-1.272
			c-3.656-0.685-6.569-1.4-8.732-2.14c-2.165-0.738-3.997-1.943-5.492-3.617c-1.497-1.672-2.335-4.02-2.521-7.041
			c-0.159-2.566,0.383-4.887,1.626-6.955c1.24-2.072,3.069-3.731,5.486-4.983c2.414-1.251,5.214-1.975,8.403-2.172
			C257.092,101.554,261.339,102.527,264.328,104.815z"/>
	</g>
</g>
<g>
	<g>
		<path fill="#FDDFEB" d="M90.044,7.47v2.124h-0.623V4.638h1.876c0.956,0,1.473,0.552,1.473,1.416S92.253,7.47,91.297,7.47H90.044z
			 M92.125,6.054c0-0.545-0.297-0.821-0.843-0.821h-1.238v1.643h1.238C91.828,6.875,92.125,6.599,92.125,6.054z"/>
		<path fill="#FDDFEB" d="M90.169,9.719h-0.873V4.513h2.001c1,0,1.598,0.576,1.598,1.541s-0.597,1.541-1.598,1.541h-1.128V9.719z
			 M89.546,9.469h0.373V7.345h1.378c0.856,0,1.348-0.471,1.348-1.291s-0.491-1.291-1.348-1.291h-1.751V9.469z M91.282,7h-1.363
			V5.108h1.363c0.624,0,0.968,0.336,0.968,0.946S91.906,7,91.282,7z M90.169,6.75h1.113C91.765,6.75,92,6.523,92,6.054
			s-0.235-0.696-0.718-0.696h-1.113V6.75z"/>
	</g>
	<g>
		<path fill="#FDDFEB" d="M96.476,7.159c-0.05-0.411-0.263-0.651-0.688-0.651c-0.623,0-1.21,0.588-1.21,1.798v1.289h-0.595V6.026
			h0.595v0.658c0.275-0.432,0.722-0.715,1.316-0.715c0.708,0,1.133,0.425,1.176,1.189H96.476z"/>
		<path fill="#FDDFEB" d="M94.703,9.719h-0.845V5.901h0.845v0.426c0.309-0.313,0.721-0.482,1.191-0.482
			c0.78,0,1.254,0.477,1.301,1.308l0.007,0.132h-0.838l-0.013-0.11c-0.045-0.37-0.224-0.542-0.563-0.542
			c-0.54,0-1.085,0.518-1.085,1.673V9.719z M94.109,9.469h0.345V8.306c0-1.329,0.67-1.923,1.335-1.923
			c0.435,0,0.707,0.225,0.794,0.651h0.352c-0.076-0.615-0.433-0.939-1.039-0.939c-0.654,0-1.02,0.357-1.211,0.657l-0.23,0.361V6.151
			h-0.345V9.469z"/>
	</g>
	<g>
		<path fill="#FDDFEB" d="M98.418,6.026h1.686V9.07h1.316v0.524h-3.144V9.07h1.232V6.55h-1.091V6.026z M99.764,4.582
			c0.275,0,0.488,0.22,0.488,0.496c0,0.269-0.213,0.481-0.488,0.481c-0.27,0-0.489-0.212-0.489-0.481
			C99.275,4.801,99.494,4.582,99.764,4.582z"/>
		<path fill="#FDDFEB" d="M101.545,9.719h-3.394V8.945h1.232V6.675h-1.091V5.901h1.936v3.044h1.316V9.719z M98.402,9.469h2.894
			V9.195h-1.316V6.151h-1.436v0.274h1.091v2.771h-1.232V9.469z M99.764,5.684c-0.339,0-0.614-0.272-0.614-0.606
			c0-0.342,0.275-0.621,0.614-0.621c0.344,0,0.613,0.272,0.613,0.621C100.377,5.417,100.108,5.684,99.764,5.684z M99.764,4.707
			c-0.201,0-0.364,0.166-0.364,0.371c0,0.197,0.164,0.356,0.364,0.356c0.204,0,0.363-0.157,0.363-0.356
			C100.127,4.869,99.968,4.707,99.764,4.707z"/>
	</g>
	<g>
		<path fill="#FDDFEB" d="M105.593,9.594h-0.595V7.237c0-0.496-0.233-0.729-0.658-0.729c-0.56,0-1.048,0.609-1.048,1.649v1.438
			h-0.595V6.026h0.595v0.658c0.255-0.41,0.701-0.715,1.211-0.715c0.743,0,1.09,0.453,1.09,1.14V9.594z"/>
		<path fill="#FDDFEB" d="M105.718,9.719h-0.845V7.237c0-0.413-0.169-0.604-0.533-0.604c-0.458,0-0.923,0.523-0.923,1.524v1.562
			h-0.845V5.901h0.845v0.422c0.294-0.302,0.687-0.479,1.086-0.479c0.772,0,1.215,0.461,1.215,1.265V9.719z M105.123,9.469h0.345
			v-2.36c0-0.463-0.167-1.015-0.965-1.015c-0.43,0-0.854,0.251-1.105,0.656l-0.231,0.372V6.151h-0.345v3.318h0.345V8.157
			c0-1.219,0.608-1.774,1.173-1.774c0.505,0,0.783,0.303,0.783,0.854V9.469z"/>
	</g>
	<g>
		<path fill="#FDDFEB" d="M106.757,6.026h0.949V4.957l0.595-0.375v1.444h1.741v0.538h-1.741v1.827c0,0.496,0.22,0.722,0.616,0.722
			c0.312,0,0.566-0.099,0.878-0.425l0.219,0.503c-0.325,0.325-0.651,0.46-1.097,0.46c-0.779,0-1.211-0.411-1.211-1.239V6.564h-0.949
			V6.026z"/>
		<path fill="#FDDFEB" d="M108.917,9.776c-0.861,0-1.336-0.484-1.336-1.364V6.689h-0.949V5.901h0.949V4.888l0.845-0.533v1.546h1.741
			v0.788h-1.741v1.702c0,0.529,0.263,0.597,0.491,0.597c0.251,0,0.481-0.066,0.788-0.386l0.13-0.136l0.328,0.753l-0.06,0.06
			C109.754,9.627,109.4,9.776,108.917,9.776z M106.882,6.439h0.949v1.973c0,0.739,0.365,1.114,1.086,1.114
			c0.387,0,0.667-0.106,0.947-0.365l-0.112-0.258c-0.264,0.236-0.516,0.334-0.835,0.334c-0.277,0-0.741-0.11-0.741-0.847V6.439
			h1.741V6.151h-1.741V4.808l-0.345,0.217v1.125h-0.949V6.439z"/>
	</g>
	<g>
		<path fill="#FDDFEB" d="M111.15,6.026h0.949V4.957l0.595-0.375v1.444h1.741v0.538h-1.741v1.827c0,0.496,0.22,0.722,0.616,0.722
			c0.312,0,0.566-0.099,0.878-0.425l0.22,0.503c-0.326,0.325-0.652,0.46-1.098,0.46c-0.779,0-1.211-0.411-1.211-1.239V6.564h-0.949
			V6.026z"/>
		<path fill="#FDDFEB" d="M113.31,9.776c-0.861,0-1.336-0.484-1.336-1.364V6.689h-0.949V5.901h0.949V4.888l0.845-0.533v1.546h1.741
			v0.788h-1.741v1.702c0,0.529,0.263,0.597,0.491,0.597c0.251,0,0.481-0.066,0.788-0.386l0.13-0.136l0.329,0.753l-0.061,0.06
			C114.147,9.627,113.792,9.776,113.31,9.776z M111.275,6.439h0.949v1.973c0,0.739,0.365,1.114,1.086,1.114
			c0.387,0,0.667-0.106,0.948-0.365l-0.113-0.258c-0.264,0.236-0.516,0.334-0.835,0.334c-0.277,0-0.741-0.11-0.741-0.847V6.439
			h1.741V6.151h-1.741V4.808l-0.345,0.217v1.125h-0.949V6.439z"/>
	</g>
	<g>
		<path fill="#FDDFEB" d="M119.012,7.938h-2.79c0.036,0.708,0.468,1.175,1.098,1.175c0.538,0,0.906-0.262,1.147-0.708l0.474,0.248
			c-0.389,0.75-0.955,0.998-1.621,0.998c-1.041,0-1.706-0.8-1.706-1.841c0-1.005,0.638-1.841,1.706-1.841
			c1.104,0,1.692,0.786,1.692,1.721V7.938z M116.265,7.399h2.117c-0.106-0.566-0.481-0.892-1.062-0.892
			C116.746,6.507,116.385,6.861,116.265,7.399z"/>
		<path fill="#FDDFEB" d="M117.32,9.776c-1.078,0-1.831-0.809-1.831-1.966s0.753-1.966,1.831-1.966c1.255,0,1.817,0.927,1.817,1.846
			v0.373h-2.778c0.075,0.566,0.442,0.925,0.961,0.925c0.464,0,0.804-0.21,1.038-0.643l0.059-0.108l0.693,0.363l-0.058,0.111
			C118.68,9.427,118.114,9.776,117.32,9.776z M117.32,6.094c-0.931,0-1.581,0.706-1.581,1.716s0.65,1.716,1.581,1.716
			c0.66,0,1.124-0.262,1.45-0.821l-0.255-0.134c-0.277,0.443-0.678,0.667-1.195,0.667c-0.692,0-1.183-0.52-1.223-1.294l-0.006-0.131
			h2.796V7.69C118.887,6.954,118.476,6.094,117.32,6.094z M118.533,7.524h-2.424l0.034-0.152c0.141-0.629,0.569-0.99,1.177-0.99
			c0.635,0,1.066,0.362,1.186,0.994L118.533,7.524z M116.429,7.274h1.794c-0.128-0.421-0.438-0.642-0.904-0.642
			C116.883,6.632,116.572,6.859,116.429,7.274z"/>
	</g>
	<g>
		<path fill="#FDDFEB" d="M121.599,5.969c0.496,0,0.893,0.241,1.091,0.51V4.582h0.595v5.013h-0.595V9.12
			c-0.198,0.276-0.603,0.531-1.091,0.531c-1.048,0-1.635-0.75-1.635-1.841S120.551,5.969,121.599,5.969z M121.656,9.113
			c0.68,0,1.084-0.538,1.084-1.303s-0.404-1.303-1.084-1.303s-1.083,0.538-1.083,1.303S120.976,9.113,121.656,9.113z"/>
		<path fill="#FDDFEB" d="M121.599,9.776c-1.085,0-1.76-0.753-1.76-1.966s0.674-1.966,1.76-1.966c0.408,0,0.738,0.146,0.966,0.329
			V4.457h0.845v5.263h-0.845V9.431C122.336,9.618,122.004,9.776,121.599,9.776z M121.599,6.094c-0.945,0-1.51,0.642-1.51,1.716
			s0.564,1.716,1.51,1.716c0.477,0,0.831-0.258,0.989-0.479l0.227-0.316v0.738h0.345V4.707h-0.345v2.153l-0.226-0.306
			C122.433,6.341,122.08,6.094,121.599,6.094z M121.656,9.238c-0.734,0-1.208-0.561-1.208-1.428s0.474-1.428,1.208-1.428
			c0.723,0,1.209,0.574,1.209,1.428S122.379,9.238,121.656,9.238z M121.656,6.632c-0.591,0-0.958,0.451-0.958,1.178
			s0.367,1.178,0.958,1.178c0.591,0,0.959-0.451,0.959-1.178S122.247,6.632,121.656,6.632z"/>
	</g>
	<g>
		<path fill="#FDDFEB" d="M132.416,9.594h-0.595V7.06c0-0.389-0.113-0.545-0.39-0.545c-0.34,0-0.63,0.404-0.63,1.402v1.678h-0.595
			V7.06c0-0.389-0.113-0.545-0.39-0.545c-0.34,0-0.63,0.404-0.63,1.402v1.678h-0.595V6.026h0.595v0.453
			c0.185-0.297,0.468-0.51,0.835-0.51c0.404,0,0.638,0.227,0.736,0.581c0.185-0.34,0.503-0.581,0.879-0.581
			c0.438,0,0.778,0.283,0.778,0.963V9.594z"/>
		<path fill="#FDDFEB" d="M132.541,9.719h-0.845V7.06c0-0.39-0.115-0.42-0.265-0.42c-0.312,0-0.505,0.489-0.505,1.277v1.803h-0.845
			V7.06c0-0.39-0.115-0.42-0.265-0.42c-0.312,0-0.505,0.489-0.505,1.277v1.803h-0.845V5.901h0.845v0.229
			c0.2-0.186,0.444-0.285,0.71-0.285c0.346,0,0.61,0.153,0.764,0.438c0.221-0.277,0.526-0.438,0.852-0.438
			c0.565,0,0.903,0.407,0.903,1.088V9.719z M131.947,9.469h0.345V6.932c0-0.541-0.232-0.838-0.653-0.838
			c-0.306,0-0.594,0.192-0.769,0.515l-0.147,0.271l-0.083-0.297c-0.091-0.329-0.293-0.489-0.616-0.489
			c-0.371,0-0.601,0.245-0.729,0.451l-0.231,0.373V6.151h-0.345v3.318h0.345V7.917c0-1.378,0.528-1.527,0.755-1.527
			c0.461,0,0.515,0.383,0.515,0.67v2.41h0.345V7.917c0-1.378,0.528-1.527,0.755-1.527c0.461,0,0.515,0.383,0.515,0.67V9.469z"/>
	</g>
	<g>
		<path fill="#FDDFEB" d="M136.363,9.594h-0.481l-0.085-0.503c-0.227,0.326-0.729,0.56-1.26,0.56c-0.595,0-1.104-0.354-1.104-1.083
			c0-0.793,0.637-1.168,1.614-1.168h0.722V7.244c0-0.552-0.39-0.736-0.821-0.736c-0.418,0-0.729,0.262-0.842,0.609l-0.524-0.142
			c0.163-0.623,0.715-1.005,1.366-1.005c0.836,0,1.416,0.39,1.416,1.374V9.594z M134.628,9.113c0.46,0,1.14-0.283,1.14-1.09V7.909
			h-0.778c-0.609,0-0.949,0.255-0.949,0.659C134.04,8.908,134.275,9.113,134.628,9.113z"/>
		<path fill="#FDDFEB" d="M134.536,9.776c-0.612,0-1.229-0.374-1.229-1.208c0-0.822,0.634-1.293,1.739-1.293h0.597V7.244
			c0-0.406-0.234-0.611-0.696-0.611c-0.341,0-0.618,0.2-0.723,0.522l-0.037,0.113l-0.759-0.205l0.031-0.12
			c0.175-0.667,0.759-1.099,1.487-1.099c0.994,0,1.541,0.532,1.541,1.499v2.376h-0.712l-0.06-0.354
			C135.427,9.617,134.986,9.776,134.536,9.776z M135.046,7.524c-0.556,0-1.489,0.136-1.489,1.043c0,0.707,0.506,0.958,0.979,0.958
			c0.475,0,0.95-0.208,1.157-0.506l0.175-0.252l0.118,0.701h0.251V7.343c0-0.829-0.435-1.249-1.291-1.249
			c-0.567,0-1.028,0.308-1.208,0.793l0.291,0.079c0.164-0.358,0.512-0.584,0.917-0.584c0.593,0,0.946,0.322,0.946,0.861v0.281
			H135.046z M134.628,9.238c-0.426,0-0.713-0.269-0.713-0.67c0-0.483,0.412-0.784,1.074-0.784h0.903v0.238
			C135.893,8.914,135.136,9.238,134.628,9.238z M134.99,8.034c-0.248,0-0.824,0.052-0.824,0.534c0,0.263,0.173,0.42,0.463,0.42
			c0.349,0,1.008-0.2,1.015-0.954H134.99z"/>
	</g>
	<g>
		<path fill="#FDDFEB" d="M137.505,6.026h0.948V4.957l0.595-0.375v1.444h1.742v0.538h-1.742v1.827c0,0.496,0.22,0.722,0.616,0.722
			c0.312,0,0.566-0.099,0.878-0.425l0.219,0.503c-0.325,0.325-0.65,0.46-1.097,0.46c-0.779,0-1.211-0.411-1.211-1.239V6.564h-0.948
			V6.026z"/>
		<path fill="#FDDFEB" d="M139.664,9.776c-0.861,0-1.336-0.484-1.336-1.364V6.689h-0.948V5.901h0.948V4.888l0.845-0.533v1.546h1.742
			v0.788h-1.742v1.702c0,0.529,0.263,0.597,0.491,0.597c0.251,0,0.481-0.066,0.788-0.386l0.13-0.136l0.327,0.753l-0.06,0.06
			C140.501,9.627,140.147,9.776,139.664,9.776z M137.63,6.439h0.948v1.973c0,0.739,0.365,1.114,1.086,1.114
			c0.388,0,0.668-0.106,0.947-0.365l-0.112-0.258c-0.264,0.236-0.516,0.334-0.835,0.334c-0.276,0-0.741-0.11-0.741-0.847V6.439
			h1.742V6.151h-1.742V4.808l-0.345,0.217v1.125h-0.948V6.439z"/>
	</g>
	<g>
		<path fill="#FDDFEB" d="M141.898,6.026h0.948V4.957l0.595-0.375v1.444h1.742v0.538h-1.742v1.827c0,0.496,0.22,0.722,0.616,0.722
			c0.312,0,0.566-0.099,0.878-0.425l0.219,0.503c-0.325,0.325-0.65,0.46-1.097,0.46c-0.779,0-1.211-0.411-1.211-1.239V6.564h-0.948
			V6.026z"/>
		<path fill="#FDDFEB" d="M144.057,9.776c-0.861,0-1.336-0.484-1.336-1.364V6.689h-0.948V5.901h0.948V4.888l0.845-0.533v1.546h1.742
			v0.788h-1.742v1.702c0,0.529,0.263,0.597,0.491,0.597c0.251,0,0.481-0.066,0.788-0.386l0.13-0.136l0.327,0.753l-0.06,0.06
			C144.894,9.627,144.539,9.776,144.057,9.776z M142.023,6.439h0.948v1.973c0,0.739,0.365,1.114,1.086,1.114
			c0.388,0,0.668-0.106,0.947-0.365l-0.112-0.258c-0.264,0.236-0.516,0.334-0.835,0.334c-0.276,0-0.741-0.11-0.741-0.847V6.439
			h1.742V6.151h-1.742V4.808l-0.345,0.217v1.125h-0.948V6.439z"/>
	</g>
	<g>
		<path fill="#FDDFEB" d="M149.759,7.938h-2.789c0.035,0.708,0.467,1.175,1.097,1.175c0.538,0,0.906-0.262,1.147-0.708l0.475,0.248
			c-0.39,0.75-0.956,0.998-1.622,0.998c-1.04,0-1.706-0.8-1.706-1.841c0-1.005,0.637-1.841,1.706-1.841
			c1.104,0,1.692,0.786,1.692,1.721V7.938z M147.012,7.399h2.117c-0.106-0.566-0.481-0.892-1.062-0.892
			C147.493,6.507,147.132,6.861,147.012,7.399z"/>
		<path fill="#FDDFEB" d="M148.067,9.776c-1.078,0-1.831-0.809-1.831-1.966s0.753-1.966,1.831-1.966
			c1.256,0,1.817,0.927,1.817,1.846v0.373h-2.777c0.074,0.566,0.44,0.925,0.96,0.925c0.465,0,0.804-0.21,1.037-0.643l0.059-0.108
			l0.694,0.363L149.8,8.71C149.427,9.427,148.861,9.776,148.067,9.776z M148.067,6.094c-0.931,0-1.581,0.706-1.581,1.716
			s0.65,1.716,1.581,1.716c0.659,0,1.124-0.262,1.451-0.821l-0.256-0.134c-0.276,0.443-0.679,0.667-1.195,0.667
			c-0.692,0-1.183-0.52-1.222-1.294l-0.007-0.131h2.796V7.69C149.634,6.954,149.224,6.094,148.067,6.094z M149.28,7.524h-2.424
			l0.034-0.152c0.141-0.629,0.569-0.99,1.177-0.99c0.635,0,1.066,0.362,1.186,0.994L149.28,7.524z M147.177,7.274h1.793
			c-0.128-0.421-0.438-0.642-0.903-0.642C147.63,6.632,147.319,6.859,147.177,7.274z"/>
	</g>
	<g>
		<path fill="#FDDFEB" d="M153.578,7.159c-0.05-0.411-0.263-0.651-0.687-0.651c-0.623,0-1.211,0.588-1.211,1.798v1.289h-0.595V6.026
			h0.595v0.658c0.275-0.432,0.722-0.715,1.316-0.715c0.708,0,1.133,0.425,1.176,1.189H153.578z"/>
		<path fill="#FDDFEB" d="M151.806,9.719h-0.845V5.901h0.845v0.426c0.31-0.313,0.722-0.482,1.191-0.482
			c0.78,0,1.254,0.477,1.301,1.308l0.007,0.132h-0.837l-0.014-0.11c-0.045-0.37-0.224-0.542-0.562-0.542
			c-0.541,0-1.086,0.518-1.086,1.673V9.719z M151.211,9.469h0.345V8.306c0-1.329,0.671-1.923,1.336-1.923
			c0.434,0,0.706,0.225,0.793,0.651h0.352c-0.076-0.615-0.433-0.939-1.039-0.939c-0.654,0-1.02,0.357-1.211,0.657l-0.23,0.361V6.151
			h-0.345V9.469z"/>
	</g>
	<g>
		<path fill="#FDDFEB" d="M162.364,7.159c-0.05-0.411-0.263-0.651-0.687-0.651c-0.623,0-1.211,0.588-1.211,1.798v1.289h-0.595V6.026
			h0.595v0.658c0.275-0.432,0.722-0.715,1.316-0.715c0.708,0,1.133,0.425,1.176,1.189H162.364z"/>
		<path fill="#FDDFEB" d="M160.591,9.719h-0.845V5.901h0.845v0.426c0.31-0.313,0.722-0.482,1.191-0.482
			c0.78,0,1.254,0.477,1.301,1.308l0.007,0.132h-0.837l-0.014-0.11c-0.045-0.37-0.224-0.542-0.562-0.542
			c-0.541,0-1.086,0.518-1.086,1.673V9.719z M159.996,9.469h0.345V8.306c0-1.329,0.671-1.923,1.336-1.923
			c0.434,0,0.706,0.225,0.793,0.651h0.352c-0.076-0.615-0.433-0.939-1.039-0.939c-0.654,0-1.02,0.357-1.211,0.657l-0.23,0.361V6.151
			h-0.345V9.469z"/>
	</g>
	<g>
		<path fill="#FDDFEB" d="M167.329,7.938h-2.789c0.035,0.708,0.467,1.175,1.097,1.175c0.538,0,0.906-0.262,1.147-0.708l0.475,0.248
			c-0.39,0.75-0.956,0.998-1.622,0.998c-1.04,0-1.706-0.8-1.706-1.841c0-1.005,0.637-1.841,1.706-1.841
			c1.104,0,1.692,0.786,1.692,1.721V7.938z M164.582,7.399h2.117c-0.106-0.566-0.481-0.892-1.062-0.892
			C165.064,6.507,164.702,6.861,164.582,7.399z"/>
		<path fill="#FDDFEB" d="M165.637,9.776c-1.078,0-1.831-0.809-1.831-1.966s0.753-1.966,1.831-1.966
			c1.256,0,1.817,0.927,1.817,1.846v0.373h-2.777c0.074,0.566,0.44,0.925,0.96,0.925c0.465,0,0.804-0.21,1.037-0.643l0.059-0.108
			l0.694,0.363L167.37,8.71C166.997,9.427,166.431,9.776,165.637,9.776z M165.637,6.094c-0.931,0-1.581,0.706-1.581,1.716
			s0.65,1.716,1.581,1.716c0.659,0,1.124-0.262,1.451-0.821l-0.256-0.134c-0.276,0.443-0.679,0.667-1.195,0.667
			c-0.692,0-1.183-0.52-1.222-1.294l-0.007-0.131h2.796V7.69C167.204,6.954,166.794,6.094,165.637,6.094z M166.85,7.524h-2.424
			l0.034-0.152c0.141-0.629,0.569-0.99,1.177-0.99c0.635,0,1.066,0.362,1.186,0.994L166.85,7.524z M164.747,7.274h1.793
			c-0.128-0.421-0.438-0.642-0.903-0.642C165.2,6.632,164.889,6.859,164.747,7.274z"/>
	</g>
	<g>
		<path fill="#FDDFEB" d="M168.224,5.176V4.638h1.579v3.611c0,0.587,0.263,0.864,0.751,0.864c0.425,0,0.736-0.262,0.828-0.864
			l0.538,0.106c-0.128,0.864-0.638,1.296-1.366,1.296c-0.821,0-1.346-0.503-1.346-1.402V5.176H168.224z"/>
		<path fill="#FDDFEB" d="M170.554,9.776c-0.907,0-1.471-0.585-1.471-1.527V5.301h-0.984V4.513h1.829v3.736
			c0,0.662,0.357,0.739,0.626,0.739c0.391,0,0.628-0.255,0.704-0.758l0.021-0.129l0.782,0.154l-0.017,0.118
			C171.912,9.265,171.368,9.776,170.554,9.776z M168.349,5.051h0.984v3.198c0,0.812,0.445,1.277,1.221,1.277
			c0.662,0,1.082-0.37,1.223-1.072l-0.295-0.058c-0.159,0.729-0.644,0.842-0.928,0.842c-0.399,0-0.876-0.171-0.876-0.989V4.763
			h-1.329V5.051z"/>
	</g>
	<g>
		<path fill="#FDDFEB" d="M175.895,9.594h-0.481l-0.085-0.503c-0.227,0.326-0.729,0.56-1.26,0.56c-0.595,0-1.104-0.354-1.104-1.083
			c0-0.793,0.637-1.168,1.614-1.168h0.722V7.244c0-0.552-0.389-0.736-0.821-0.736c-0.417,0-0.729,0.262-0.843,0.609l-0.523-0.142
			c0.163-0.623,0.715-1.005,1.366-1.005c0.836,0,1.416,0.39,1.416,1.374V9.594z M174.16,9.113c0.46,0,1.14-0.283,1.14-1.09V7.909
			h-0.778c-0.609,0-0.949,0.255-0.949,0.659C173.573,8.908,173.806,9.113,174.16,9.113z"/>
		<path fill="#FDDFEB" d="M174.069,9.776c-0.612,0-1.229-0.374-1.229-1.208c0-0.822,0.634-1.293,1.739-1.293h0.597V7.244
			c0-0.406-0.234-0.611-0.696-0.611c-0.336,0-0.62,0.205-0.724,0.522l-0.037,0.113l-0.758-0.205l0.031-0.12
			c0.175-0.667,0.759-1.099,1.487-1.099c0.994,0,1.541,0.532,1.541,1.499v2.376h-0.712l-0.06-0.354
			C174.959,9.617,174.518,9.776,174.069,9.776z M174.578,7.524c-0.557,0-1.489,0.136-1.489,1.043c0,0.707,0.506,0.958,0.979,0.958
			c0.475,0,0.95-0.208,1.157-0.506l0.175-0.252l0.118,0.701h0.251V7.343c0-0.829-0.435-1.249-1.291-1.249
			c-0.566,0-1.028,0.308-1.208,0.793l0.29,0.079c0.163-0.358,0.512-0.584,0.918-0.584c0.602,0,0.946,0.314,0.946,0.861v0.281
			H174.578z M174.16,9.238c-0.427,0-0.713-0.269-0.713-0.67c0-0.483,0.411-0.784,1.074-0.784h0.903v0.238
			C175.425,8.914,174.669,9.238,174.16,9.238z M174.522,8.034c-0.248,0-0.824,0.052-0.824,0.534c0,0.263,0.173,0.42,0.463,0.42
			c0.35,0,1.008-0.2,1.015-0.954H174.522z"/>
	</g>
	<g>
		<path fill="#FDDFEB" d="M177.038,6.026h0.948V4.957l0.595-0.375v1.444h1.742v0.538h-1.742v1.827c0,0.496,0.22,0.722,0.616,0.722
			c0.312,0,0.566-0.099,0.878-0.425l0.219,0.503c-0.325,0.325-0.65,0.46-1.097,0.46c-0.779,0-1.211-0.411-1.211-1.239V6.564h-0.948
			V6.026z"/>
		<path fill="#FDDFEB" d="M179.198,9.776c-0.861,0-1.336-0.484-1.336-1.364V6.689h-0.948V5.901h0.948V4.888l0.845-0.533v1.546h1.742
			v0.788h-1.742v1.702c0,0.529,0.263,0.597,0.491,0.597c0.251,0,0.481-0.066,0.788-0.386l0.13-0.136l0.327,0.753l-0.06,0.06
			C180.034,9.627,179.68,9.776,179.198,9.776z M177.163,6.439h0.948v1.973c0,0.739,0.365,1.114,1.086,1.114
			c0.388,0,0.668-0.106,0.947-0.365l-0.112-0.258c-0.264,0.236-0.516,0.334-0.835,0.334c-0.276,0-0.741-0.11-0.741-0.847V6.439
			h1.742V6.151h-1.742V4.808l-0.345,0.217v1.125h-0.948V6.439z"/>
	</g>
	<g>
		<path fill="#FDDFEB" d="M184.9,7.938h-2.789c0.035,0.708,0.467,1.175,1.097,1.175c0.538,0,0.906-0.262,1.147-0.708l0.475,0.248
			c-0.39,0.75-0.956,0.998-1.622,0.998c-1.04,0-1.706-0.8-1.706-1.841c0-1.005,0.637-1.841,1.706-1.841
			c1.104,0,1.692,0.786,1.692,1.721V7.938z M182.153,7.399h2.117c-0.106-0.566-0.481-0.892-1.062-0.892
			C182.634,6.507,182.273,6.861,182.153,7.399z"/>
		<path fill="#FDDFEB" d="M183.207,9.776c-1.078,0-1.831-0.809-1.831-1.966s0.753-1.966,1.831-1.966
			c1.256,0,1.817,0.927,1.817,1.846v0.373h-2.777c0.074,0.566,0.44,0.925,0.96,0.925c0.465,0,0.804-0.21,1.037-0.643l0.059-0.108
			l0.694,0.363l-0.057,0.111C184.568,9.427,184.001,9.776,183.207,9.776z M183.207,6.094c-0.931,0-1.581,0.706-1.581,1.716
			s0.65,1.716,1.581,1.716c0.659,0,1.124-0.262,1.451-0.821l-0.256-0.134c-0.276,0.443-0.679,0.667-1.195,0.667
			c-0.692,0-1.183-0.52-1.222-1.294l-0.007-0.131h2.796V7.69C184.775,6.954,184.365,6.094,183.207,6.094z M184.42,7.524h-2.424
			l0.034-0.152c0.141-0.629,0.569-0.99,1.177-0.99c0.635,0,1.066,0.362,1.186,0.994L184.42,7.524z M182.318,7.274h1.793
			c-0.128-0.421-0.438-0.642-0.903-0.642C182.771,6.632,182.459,6.859,182.318,7.274z"/>
	</g>
	<g>
		<path fill="#FDDFEB" d="M187.487,5.969c0.496,0,0.893,0.241,1.091,0.51V4.582h0.595v5.013h-0.595V9.12
			c-0.198,0.276-0.602,0.531-1.091,0.531c-1.048,0-1.636-0.75-1.636-1.841S186.439,5.969,187.487,5.969z M187.543,9.113
			c0.68,0,1.083-0.538,1.083-1.303s-0.403-1.303-1.083-1.303s-1.083,0.538-1.083,1.303S186.864,9.113,187.543,9.113z"/>
		<path fill="#FDDFEB" d="M187.487,9.776c-1.086,0-1.761-0.753-1.761-1.966s0.675-1.966,1.761-1.966
			c0.408,0,0.738,0.146,0.966,0.329V4.457h0.845v5.263h-0.845V9.431C188.224,9.618,187.891,9.776,187.487,9.776z M187.487,6.094
			c-0.932,0-1.511,0.657-1.511,1.716s0.579,1.716,1.511,1.716c0.477,0,0.831-0.258,0.989-0.479l0.227-0.316v0.738h0.345V4.707
			h-0.345v2.153l-0.226-0.306C188.321,6.341,187.968,6.094,187.487,6.094z M187.543,9.238c-0.733,0-1.208-0.561-1.208-1.428
			s0.475-1.428,1.208-1.428s1.208,0.561,1.208,1.428S188.277,9.238,187.543,9.238z M187.543,6.632c-0.591,0-0.958,0.451-0.958,1.178
			s0.367,1.178,0.958,1.178s0.958-0.451,0.958-1.178S188.134,6.632,187.543,6.632z"/>
	</g>
	<g>
		<path fill="#FDDFEB" d="M194.609,6.026h0.948V4.957l0.595-0.375v1.444h1.742v0.538h-1.742v1.827c0,0.496,0.22,0.722,0.616,0.722
			c0.312,0,0.566-0.099,0.878-0.425l0.219,0.503c-0.325,0.325-0.65,0.46-1.097,0.46c-0.779,0-1.211-0.411-1.211-1.239V6.564h-0.948
			V6.026z"/>
		<path fill="#FDDFEB" d="M196.768,9.776c-0.861,0-1.336-0.484-1.336-1.364V6.689h-0.948V5.901h0.948V4.888l0.845-0.533v1.546h1.742
			v0.788h-1.742v1.702c0,0.529,0.263,0.597,0.491,0.597c0.251,0,0.481-0.066,0.788-0.386l0.13-0.136l0.327,0.753l-0.06,0.06
			C197.605,9.627,197.25,9.776,196.768,9.776z M194.734,6.439h0.948v1.973c0,0.739,0.365,1.114,1.086,1.114
			c0.388,0,0.668-0.106,0.947-0.365l-0.112-0.258c-0.264,0.236-0.516,0.334-0.835,0.334c-0.276,0-0.741-0.11-0.741-0.847V6.439
			h1.742V6.151h-1.742V4.808l-0.345,0.217v1.125h-0.948V6.439z"/>
	</g>
	<g>
		<path fill="#FDDFEB" d="M200.728,5.969c1.091,0,1.756,0.856,1.756,1.841s-0.665,1.841-1.756,1.841
			c-1.09,0-1.756-0.856-1.756-1.841S199.638,5.969,200.728,5.969z M200.728,9.113c0.729,0,1.147-0.616,1.147-1.303
			s-0.418-1.303-1.147-1.303c-0.729,0-1.146,0.616-1.146,1.303S199.999,9.113,200.728,9.113z"/>
		<path fill="#FDDFEB" d="M200.728,9.776c-1.234,0-1.881-0.989-1.881-1.966s0.646-1.966,1.881-1.966s1.881,0.989,1.881,1.966
			S201.962,9.776,200.728,9.776z M200.728,6.094c-1.07,0-1.631,0.863-1.631,1.716s0.561,1.716,1.631,1.716s1.631-0.863,1.631-1.716
			S201.798,6.094,200.728,6.094z M200.728,9.238c-0.835,0-1.271-0.718-1.271-1.428s0.437-1.428,1.271-1.428S202,7.101,202,7.81
			S201.563,9.238,200.728,9.238z M200.728,6.632c-0.702,0-1.021,0.61-1.021,1.178s0.319,1.178,1.021,1.178s1.022-0.61,1.022-1.178
			S201.43,6.632,200.728,6.632z"/>
	</g>
</g>
</svg>
