<?xml version="1.0" encoding="utf-8"?>
<!-- Generator: Adobe Illustrator 16.0.0, SVG Export Plug-In . SVG Version: 6.00 Build 0)  -->
<!DOCTYPE svg PUBLIC "-//W3C//DTD SVG 1.1//EN" "http://www.w3.org/Graphics/SVG/1.1/DTD/svg11.dtd">
<svg version="1.1" id="Layer_1" xmlns="http://www.w3.org/2000/svg" xmlns:xlink="http://www.w3.org/1999/xlink" x="0px" y="0px"
	 width="339.237px" height="215.094px" viewBox="0.214 14.234 339.237 215.094"
	 enable-background="new 0.214 14.234 339.237 215.094" xml:space="preserve">
<g>
	<path fill="#FDDFEB" d="M48.349,71.545l-5.312-22.7c-1.986-8.424-3.65-16.607-4.991-24.55h-0.16
		c-1.342,7.942-3.006,16.126-4.991,24.55l-5.312,22.7H12.208L0.214,14.234h11.591l4.105,20.848
		c1.717,8.693,3.111,16.958,4.186,24.792h0.161c1.449-8.102,3.192-16.367,5.232-24.792l4.991-20.848h14.972l4.991,20.848
		c2.038,8.425,3.783,16.69,5.231,24.792h0.161c1.073-7.834,2.468-16.099,4.186-24.792l4.105-20.848h11.591L63.724,71.545H48.349z"/>
	<path fill="#FDDFEB" d="M104.291,63.295c1.449-1.046,2.307-2.428,2.576-4.146h11.511c-0.537,2.523-1.678,4.83-3.421,6.922
		c-1.744,2.093-3.998,3.743-6.762,4.951c-2.764,1.207-5.89,1.811-9.377,1.811c-4.239,0-7.888-0.925-10.947-2.776
		c-3.059-1.852-5.393-4.44-7.003-7.768c-1.61-3.327-2.415-7.164-2.415-11.511c0-4.078,0.805-7.727,2.415-10.947
		s3.944-5.768,7.003-7.647c3.059-1.878,6.681-2.817,10.867-2.817c4.668,0,8.665,1.221,11.993,3.662
		c3.327,2.443,5.635,5.755,6.922,9.941c0.858,2.737,1.288,6.226,1.288,10.464h-29.38c0.161,3.972,1.087,6.87,2.777,8.694
		c1.69,1.825,3.85,2.736,6.479,2.736C101.018,64.864,102.842,64.341,104.291,63.295z M92.821,39.59
		c-1.583,1.502-2.589,3.756-3.019,6.761h17.87c-0.322-2.951-1.302-5.192-2.938-6.721c-1.637-1.529-3.636-2.294-5.996-2.294
		C96.375,37.336,94.403,38.087,92.821,39.59z"/>
	<path fill="#FDDFEB" d="M175.205,71.545v-5.393h-0.161c-1.234,2.04-2.898,3.622-4.99,4.749c-2.093,1.127-4.348,1.69-6.763,1.69
		c-3.38,0-6.358-0.886-8.934-2.656c-2.576-1.771-4.562-4.278-5.957-7.526c-1.396-3.247-2.093-7.016-2.093-11.31
		c0-4.292,0.685-8.061,2.053-11.309c1.369-3.246,3.327-5.755,5.876-7.526c2.548-1.771,5.514-2.657,8.895-2.657
		c2.361,0,4.574,0.523,6.642,1.57c2.065,1.046,3.714,2.508,4.95,4.386h0.161V14.234h11.269v57.312H175.205z M160.475,41.723
		c-1.61,2.334-2.415,5.461-2.415,9.377c0,3.918,0.805,7.044,2.415,9.378c1.609,2.334,3.756,3.501,6.439,3.501
		c2.576,0,4.641-1.139,6.198-3.421c1.556-2.28,2.335-5.433,2.335-9.458c0-4.024-0.779-7.176-2.335-9.458
		c-1.558-2.28-3.622-3.421-6.198-3.421C164.23,38.221,162.084,39.388,160.475,41.723z"/>
	<path fill="#FDDFEB" d="M228.048,32.023c3.141,1.771,5.567,4.294,7.285,7.567c1.717,3.273,2.576,7.11,2.576,11.51
		c0,4.401-0.859,8.238-2.576,11.511c-1.718,3.274-4.145,5.796-7.285,7.566c-3.139,1.771-6.828,2.656-11.066,2.656
		c-4.239,0-7.931-0.885-11.069-2.656c-3.138-1.771-5.566-4.292-7.283-7.566c-1.719-3.272-2.576-7.109-2.576-11.511
		c0-4.399,0.857-8.236,2.576-11.51c1.717-3.273,4.146-5.796,7.283-7.567c3.139-1.771,6.83-2.656,11.069-2.656
		C221.22,29.367,224.909,30.252,228.048,32.023z M210.34,41.602c-1.638,2.362-2.455,5.527-2.455,9.498
		c0,3.972,0.817,7.138,2.455,9.499c1.637,2.362,3.849,3.542,6.642,3.542c2.789,0,5.003-1.18,6.64-3.542
		c1.637-2.361,2.455-5.526,2.455-9.499c0-3.971-0.818-7.136-2.455-9.498c-1.637-2.36-3.851-3.542-6.64-3.542
		C214.188,38.06,211.977,39.241,210.34,41.602z"/>
	<path fill="#FDDFEB" d="M281.535,33.996c2.685,2.871,4.025,7.017,4.025,12.436v25.114h-11.269V47.558
		c0-3.004-0.632-5.259-1.892-6.761c-1.262-1.501-3.018-2.254-5.272-2.254c-2.414,0-4.361,0.953-5.836,2.857
		c-1.476,1.905-2.214,4.656-2.214,8.25v21.895h-11.27V30.655h10.545v5.151h0.161c1.396-1.877,3.112-3.367,5.151-4.467
		s4.32-1.65,6.843-1.65C275.177,29.689,278.853,31.125,281.535,33.996z"/>
	<path fill="#FDDFEB" d="M300.21,37.417h-5.715l3.784-11.752h-3.542v-11.43h10.544v11.43L300.21,37.417z"/>
	<path fill="#FDDFEB" d="M338.605,62.691v8.613c-1.718,0.536-3.702,0.805-5.956,0.805c-4.723,0-8.157-1.033-10.304-3.099
		c-2.146-2.065-3.22-5.46-3.22-10.182V39.026h-6.6v-8.372h6.6V20.029h11.27v10.625h7.808v8.372h-7.808v17.789
		c0,2.253,0.402,3.863,1.207,4.83c0.805,0.965,2.174,1.448,4.105,1.448C336.834,63.093,337.801,62.96,338.605,62.691z"/>
	<path fill="#FDDFEB" d="M111.697,112.242c2.683,2.872,4.025,7.017,4.025,12.436v25.115h-11.27v-23.988
		c0-3.004-0.631-5.258-1.891-6.761c-1.262-1.501-3.019-2.254-5.273-2.254c-2.414,0-4.36,0.953-5.835,2.858
		c-1.477,1.905-2.214,4.656-2.214,8.25v21.895H77.97v-40.892h10.544v5.152h0.161c1.395-1.878,3.112-3.367,5.152-4.467
		c2.039-1.1,4.319-1.65,6.842-1.65C105.338,107.936,109.013,109.372,111.697,112.242z"/>
	<path fill="#FDDFEB" d="M151.057,141.542c1.449-1.046,2.307-2.428,2.576-4.146h11.51c-0.537,2.523-1.677,4.829-3.42,6.923
		c-1.744,2.093-3.998,3.742-6.761,4.949c-2.765,1.208-5.89,1.812-9.378,1.812c-4.24,0-7.888-0.925-10.947-2.776
		c-3.059-1.852-5.393-4.44-7.003-7.768c-1.609-3.327-2.415-7.164-2.415-11.511c0-4.077,0.805-7.727,2.415-10.947
		c1.61-3.219,3.944-5.768,7.003-7.646c3.059-1.877,6.681-2.817,10.867-2.817c4.668,0,8.666,1.221,11.993,3.663
		c3.328,2.443,5.635,5.755,6.922,9.941c0.857,2.737,1.287,6.226,1.287,10.464h-29.379c0.161,3.972,1.087,6.87,2.777,8.693
		c1.69,1.826,3.85,2.737,6.479,2.737C147.784,143.111,149.608,142.588,151.057,141.542z M139.587,117.836
		c-1.584,1.503-2.59,3.757-3.019,6.761h17.87c-0.322-2.95-1.302-5.192-2.938-6.721c-1.637-1.529-3.637-2.294-5.997-2.294
		C143.142,115.583,141.169,116.335,139.587,117.836z"/>
	<path fill="#FDDFEB" d="M199.595,141.542c1.448-1.046,2.306-2.428,2.575-4.146h11.511c-0.537,2.523-1.677,4.829-3.421,6.923
		c-1.745,2.093-3.999,3.742-6.761,4.949c-2.765,1.208-5.892,1.812-9.379,1.812c-4.239,0-7.888-0.925-10.947-2.776
		c-3.058-1.852-5.392-4.44-7.003-7.768c-1.609-3.327-2.414-7.164-2.414-11.511c0-4.077,0.805-7.727,2.414-10.947
		c1.611-3.219,3.945-5.768,7.003-7.646c3.06-1.877,6.681-2.817,10.866-2.817c4.669,0,8.667,1.221,11.994,3.663
		c3.328,2.443,5.635,5.755,6.923,9.941c0.857,2.737,1.287,6.226,1.287,10.464h-29.378c0.159,3.972,1.086,6.87,2.775,8.693
		c1.691,1.826,3.852,2.737,6.479,2.737C196.32,143.111,198.145,142.588,199.595,141.542z M188.124,117.836
		c-1.584,1.503-2.589,3.757-3.02,6.761h17.87c-0.321-2.95-1.302-5.192-2.938-6.721c-1.636-1.529-3.636-2.294-5.997-2.294
		C191.679,115.583,189.705,116.335,188.124,117.836z"/>
	<path fill="#FDDFEB" d="M251.189,149.793v-5.394h-0.16c-1.235,2.04-2.899,3.622-4.991,4.749c-2.093,1.127-4.347,1.69-6.763,1.69
		c-3.38,0-6.358-0.886-8.934-2.656c-2.576-1.771-4.562-4.278-5.957-7.526c-1.396-3.247-2.092-7.016-2.092-11.31
		c0-4.292,0.684-8.062,2.052-11.309c1.369-3.247,3.326-5.755,5.876-7.526c2.548-1.771,5.514-2.656,8.895-2.656
		c2.361,0,4.574,0.523,6.642,1.57c2.065,1.046,3.714,2.509,4.95,4.386h0.161V92.481h11.269v57.312H251.189z M236.459,119.97
		c-1.609,2.334-2.415,5.461-2.415,9.377c0,3.918,0.806,7.044,2.415,9.378s3.755,3.501,6.439,3.501c2.576,0,4.641-1.139,6.198-3.421
		c1.556-2.28,2.335-5.433,2.335-9.458c0-4.024-0.779-7.176-2.335-9.458c-1.558-2.28-3.622-3.421-6.198-3.421
		C240.214,116.468,238.068,117.635,236.459,119.97z"/>
	<path fill="#FDDFEB" d="M14.018,180.87v15.616h24.39v10.143h-24.39v21.411H2.186v-57.312H40.42v10.142H14.018z"/>
	<path fill="#FDDFEB" d="M75.113,186.988v9.739c-1.449-0.267-2.63-0.401-3.542-0.401c-3.435,0-6.065,1.06-7.889,3.179
		c-1.825,2.12-2.736,5.192-2.736,9.217v19.318H49.677v-40.892h10.384v5.797h0.161c1.34-2.201,2.938-3.824,4.789-4.87
		c1.851-1.047,3.984-1.569,6.399-1.569C72.75,186.506,73.986,186.666,75.113,186.988z"/>
	<path fill="#FDDFEB" d="M105.057,219.791c1.45-1.048,2.307-2.43,2.576-4.147h11.51c-0.537,2.524-1.678,4.83-3.421,6.923
		c-1.744,2.094-3.998,3.744-6.761,4.951c-2.765,1.206-5.89,1.811-9.377,1.811c-4.24,0-7.888-0.926-10.947-2.777
		c-3.059-1.851-5.393-4.439-7.002-7.768c-1.61-3.327-2.415-7.163-2.415-11.512c0-4.076,0.805-7.727,2.415-10.945
		c1.609-3.221,3.944-5.769,7.002-7.647c3.059-1.877,6.681-2.817,10.867-2.817c4.668,0,8.666,1.222,11.994,3.663
		c3.327,2.441,5.634,5.755,6.922,9.94c0.857,2.736,1.288,6.226,1.288,10.464h-29.38c0.161,3.973,1.087,6.87,2.777,8.692
		c1.691,1.826,3.85,2.738,6.48,2.738C101.783,221.359,103.608,220.836,105.057,219.791z M93.586,196.084
		c-1.583,1.503-2.589,3.758-3.019,6.762h17.87c-0.322-2.95-1.301-5.192-2.938-6.721c-1.637-1.53-3.636-2.295-5.997-2.295
		C97.141,193.83,95.168,194.582,93.586,196.084z"/>
	<path fill="#FDDFEB" d="M153.593,219.791c1.45-1.048,2.308-2.43,2.576-4.147h11.512c-0.538,2.524-1.679,4.83-3.422,6.923
		c-1.745,2.094-3.998,3.744-6.762,4.951c-2.764,1.206-5.89,1.811-9.377,1.811c-4.239,0-7.888-0.926-10.947-2.777
		c-3.059-1.851-5.393-4.439-7.002-7.768c-1.61-3.327-2.415-7.163-2.415-11.512c0-4.076,0.805-7.727,2.415-10.945
		c1.61-3.221,3.944-5.769,7.002-7.647c3.06-1.877,6.681-2.817,10.867-2.817c4.668,0,8.665,1.222,11.994,3.663
		c3.326,2.441,5.633,5.755,6.921,9.94c0.858,2.736,1.289,6.226,1.289,10.464h-29.381c0.161,3.973,1.086,6.87,2.776,8.692
		c1.691,1.826,3.851,2.738,6.48,2.738C150.319,221.359,152.145,220.836,153.593,219.791z M142.123,196.084
		c-1.583,1.503-2.589,3.758-3.019,6.762h17.869c-0.321-2.95-1.301-5.192-2.938-6.721c-1.638-1.53-3.636-2.295-5.997-2.295
		C145.677,193.83,143.705,194.582,142.123,196.084z"/>
	<path fill="#FDDFEB" d="M205.188,228.04v-5.394h-0.16c-1.235,2.041-2.898,3.622-4.991,4.749c-2.092,1.128-4.347,1.69-6.762,1.69
		c-3.38,0-6.358-0.885-8.935-2.656c-2.574-1.77-4.562-4.278-5.956-7.526c-1.396-3.246-2.093-7.015-2.093-11.308
		c0-4.294,0.684-8.062,2.052-11.31c1.37-3.246,3.328-5.756,5.877-7.526c2.547-1.771,5.514-2.657,8.895-2.657
		c2.36,0,4.574,0.524,6.642,1.57c2.065,1.045,3.714,2.509,4.949,4.386h0.161v-21.33h11.27v57.312H205.188z M190.459,198.217
		c-1.61,2.334-2.416,5.461-2.416,9.379c0,3.917,0.806,7.043,2.416,9.377c1.609,2.334,3.755,3.501,6.439,3.501
		c2.576,0,4.641-1.14,6.199-3.422c1.554-2.279,2.334-5.432,2.334-9.456c0-4.026-0.78-7.178-2.334-9.459
		c-1.559-2.28-3.623-3.422-6.199-3.422C194.214,194.715,192.068,195.883,190.459,198.217z"/>
	<path fill="#FDDFEB" d="M258.033,188.518c3.139,1.771,5.567,4.294,7.284,7.566c1.718,3.274,2.576,7.111,2.576,11.512
		c0,4.398-0.858,8.236-2.576,11.509c-1.717,3.275-4.146,5.796-7.284,7.567c-3.139,1.771-6.829,2.656-11.067,2.656
		c-4.24,0-7.929-0.886-11.068-2.656c-3.14-1.771-5.567-4.292-7.284-7.567c-1.718-3.272-2.576-7.11-2.576-11.509
		c0-4.4,0.858-8.237,2.576-11.512c1.717-3.272,4.145-5.795,7.284-7.566c3.14-1.771,6.828-2.656,11.068-2.656
		C251.204,185.861,254.895,186.747,258.033,188.518z M240.324,198.098c-1.638,2.36-2.454,5.525-2.454,9.498
		c0,3.972,0.816,7.137,2.454,9.497c1.638,2.362,3.851,3.543,6.642,3.543c2.789,0,5.003-1.181,6.641-3.543
		c1.635-2.36,2.454-5.525,2.454-9.497c0-3.973-0.819-7.138-2.454-9.498c-1.638-2.361-3.852-3.543-6.641-3.543
		C244.175,194.555,241.962,195.736,240.324,198.098z"/>
	<path fill="#FDDFEB" d="M335.628,190.45c2.548,2.845,3.823,7.003,3.823,12.477v25.113h-11.269v-23.987
		c0-3.004-0.564-5.259-1.691-6.762c-1.126-1.501-2.708-2.254-4.748-2.254c-2.415,0-4.268,1.034-5.554,3.1
		c-1.289,2.067-1.932,5.03-1.932,8.895v21.009h-11.269v-24.712c0-2.628-0.552-4.668-1.651-6.118c-1.1-1.447-2.696-2.173-4.79-2.173
		c-2.413,0-4.265,1.034-5.553,3.1c-1.289,2.067-1.934,5.03-1.934,8.895v21.009h-11.269v-40.892h10.625v4.67h0.161
		c1.503-1.931,3.167-3.354,4.99-4.266c1.825-0.912,3.945-1.369,6.359-1.369c2.844,0,5.299,0.592,7.366,1.771
		c2.064,1.182,3.661,2.927,4.788,5.231c1.61-2.305,3.435-4.05,5.475-5.231c2.038-1.179,4.561-1.771,7.565-1.771
		C329.577,186.184,333.078,187.605,335.628,190.45z"/>
</g>
</svg>
