<?xml version="1.0" encoding="utf-8"?>
<!-- Generator: Adobe Illustrator 16.0.0, SVG Export Plug-In . SVG Version: 6.00 Build 0)  -->
<!DOCTYPE svg PUBLIC "-//W3C//DTD SVG 1.1//EN" "http://www.w3.org/Graphics/SVG/1.1/DTD/svg11.dtd">
<svg version="1.1" id="Layer_1" xmlns="http://www.w3.org/2000/svg" xmlns:xlink="http://www.w3.org/1999/xlink" x="0px" y="0px"
	 width="251.208px" height="146.056px" viewBox="298.919 -5.411 251.208 146.056"
	 enable-background="new 298.919 -5.411 251.208 146.056" xml:space="preserve">
<g>
	<path fill="#FDDFEB" d="M298.919,66.258V14.254h32.348v8.289H307.72v14.596h21.125v8.142H307.72v20.978H298.919z"/>
	<path fill="#FDDFEB" d="M372.34,48.361c0,11.002-7.848,18.997-18.557,18.997c-10.636,0-18.484-7.995-18.484-18.997
		c0-10.929,7.849-18.924,18.484-18.924C364.492,29.437,372.34,37.432,372.34,48.361z M363.758,48.361
		c0-7.408-4.694-11.223-9.975-11.223c-5.208,0-9.976,3.814-9.976,11.223s4.768,11.369,9.976,11.369
		C359.063,59.73,363.758,55.843,363.758,48.361z"/>
	<path fill="#FDDFEB" d="M402.924,38.972c-0.953-0.147-1.906-0.22-2.787-0.22c-6.602,0-9.608,3.814-9.608,10.489v17.017h-8.509
		V30.537h8.289v5.722c1.687-3.888,5.647-6.162,10.342-6.162c1.027,0,1.907,0.147,2.273,0.22V38.972z"/>
	<path fill="#FDDFEB" d="M442.75,56.063c-1.907,6.234-7.555,11.295-16.137,11.295c-9.682,0-18.264-7.042-18.264-19.144
		c0-11.295,8.362-18.777,17.384-18.777c11.002,0,17.457,7.262,17.457,18.558c0,1.394-0.146,2.567-0.22,2.714h-26.112
		c0.22,5.428,4.474,9.315,9.755,9.315c5.135,0,7.775-2.714,8.949-6.234L442.75,56.063z M434.608,44.473
		c-0.146-4.181-2.934-7.922-8.802-7.922c-5.354,0-8.435,4.108-8.729,7.922H434.608z"/>
	<path fill="#FDDFEB" d="M456.977,12.42c3.081,0,5.575,2.494,5.575,5.575s-2.494,5.501-5.575,5.501c-3.007,0-5.501-2.42-5.501-5.501
		S453.97,12.42,456.977,12.42z M452.797,66.258V30.537h8.436v35.721H452.797z"/>
	<path fill="#FDDFEB" d="M478.981,66.185c0.587,4.401,4.034,7.702,8.948,7.702c6.748,0,10.123-3.448,10.123-10.709v-3.741
		c-1.541,2.787-5.135,5.208-10.343,5.208c-9.535,0-16.504-7.335-16.504-17.384c0-9.535,6.675-17.384,16.504-17.384
		c5.574,0,9.022,2.274,10.562,5.208v-4.548h8.215v32.347c0,9.535-4.914,18.411-18.337,18.411c-9.462,0-16.063-5.869-17.018-13.057
		L478.981,66.185z M498.272,47.26c0-6.088-3.888-10.049-9.169-10.049c-5.428,0-9.315,3.961-9.315,10.049
		c0,6.235,3.741,10.123,9.315,10.123C494.531,57.383,498.272,53.422,498.272,47.26z"/>
	<path fill="#FDDFEB" d="M526.875,66.258h-8.509V30.537h8.289v4.768c2.347-4.108,6.601-5.795,10.562-5.795
		c8.729,0,12.91,6.308,12.91,14.157v22.591h-8.509V45.134c0-4.401-1.98-7.922-7.335-7.922c-4.841,0-7.408,3.741-7.408,8.436V66.258z
		"/>
	<path fill="#FDDFEB" d="M346.376,126.489h-22.005l-4.841,13.057h-9.315l20.244-52.006h10.195l20.245,52.006h-9.609L346.376,126.489
		z M327.452,118.346h15.843l-7.921-21.27L327.452,118.346z"/>
	<path fill="#FDDFEB" d="M402.632,99.129v4.695h8.288v7.408h-8.288v28.312h-8.582v-28.312h-14.89v28.312h-8.582v-28.312h-6.234
		v-7.408h6.234v-4.916c0-7.994,5.135-12.836,12.47-12.836c2.127,0,3.888,0.441,4.474,0.734v7.262
		c-0.513-0.146-1.467-0.367-3.08-0.367c-2.2,0-5.281,1.027-5.281,5.428v4.695h14.89v-4.916c0-7.994,5.135-12.836,12.47-12.836
		c2.127,0,3.888,0.441,4.474,0.734v7.262c-0.513-0.146-1.467-0.367-3.08-0.367C405.713,93.701,402.632,94.729,402.632,99.129z"/>
	<path fill="#FDDFEB" d="M427.788,119.08l9.169-1.395c2.054-0.293,2.641-1.32,2.641-2.566c0-3.008-2.054-5.428-6.748-5.428
		c-4.475,0-6.969,2.861-7.335,6.455l-7.775-1.762c0.66-6.16,6.234-11.662,15.036-11.662c11.003,0,15.184,6.234,15.184,13.35v17.75
		c0,3.229,0.367,5.355,0.44,5.723h-7.922c-0.073-0.221-0.367-1.688-0.367-4.549c-1.687,2.715-5.207,5.648-11.002,5.648
		c-7.481,0-12.103-5.135-12.103-10.781C417.006,123.481,421.7,119.961,427.788,119.08z M439.597,124.729v-1.613l-9.315,1.393
		c-2.641,0.439-4.768,1.906-4.768,4.842c0,2.42,1.833,4.621,5.207,4.621C435.489,133.971,439.597,131.696,439.597,124.729z"/>
	<path fill="#FDDFEB" d="M463.873,85.707c3.081,0,5.575,2.492,5.575,5.574c0,3.08-2.494,5.5-5.575,5.5
		c-3.007,0-5.501-2.42-5.501-5.5C458.372,88.199,460.866,85.707,463.873,85.707z M459.692,139.545v-35.721h8.436v35.721H459.692z"/>
	<path fill="#FDDFEB" d="M501.5,112.258c-0.953-0.146-1.906-0.219-2.787-0.219c-6.602,0-9.608,3.814-9.608,10.488v17.018h-8.509
		v-35.721h8.289v5.721c1.687-3.889,5.647-6.162,10.342-6.162c1.027,0,1.907,0.146,2.273,0.221V112.258z"/>
	<path fill="#FDDFEB" d="M514.407,127.809c0.293,3.227,2.714,6.088,7.261,6.088c3.521,0,5.354-1.906,5.354-4.107
		c0-1.906-1.32-3.375-4.181-3.961l-5.281-1.174c-6.308-1.393-9.608-5.5-9.608-10.416c0-6.234,5.721-11.516,13.129-11.516
		c9.976,0,13.203,6.455,13.79,9.977l-7.188,2.053c-0.293-2.053-1.833-5.354-6.602-5.354c-3.007,0-5.134,1.906-5.134,4.107
		c0,1.906,1.394,3.301,3.594,3.74l5.428,1.1c6.748,1.469,10.27,5.576,10.27,10.857c0,5.428-4.401,11.441-13.497,11.441
		c-10.342,0-14.303-6.748-14.742-10.781L514.407,127.809z"/>
</g>
<g>
	<path fill="#FDDFEB" d="M368.774-3.13c0-1.424,1.066-2.281,2.201-2.281c1.109,0,1.769,0.654,1.966,1.418l-0.696,0.234
		c-0.129-0.53-0.536-0.956-1.27-0.956c-0.722,0-1.442,0.524-1.442,1.584c0,1.023,0.702,1.565,1.448,1.565
		c0.733,0,1.152-0.468,1.301-0.961l0.678,0.222c-0.197,0.739-0.862,1.448-1.979,1.448C369.803-0.856,368.774-1.706,368.774-3.13z"/>
	<path fill="#FDDFEB" d="M376.483-5.411c1.146,0,2.225,0.845,2.225,2.275c0,1.437-1.078,2.281-2.225,2.281s-2.22-0.844-2.22-2.281
		C374.263-4.567,375.337-5.411,376.483-5.411z M376.483-1.558c0.739,0,1.467-0.524,1.467-1.578s-0.728-1.578-1.467-1.578
		c-0.734,0-1.461,0.524-1.461,1.578S375.749-1.558,376.483-1.558z"/>
	<path fill="#FDDFEB" d="M383.254-0.948l-2.157-3.311v3.311h-0.739v-4.371h0.942l1.985,3.101v-3.101h0.739v4.371H383.254z"/>
	<path fill="#FDDFEB" d="M388.725-5.319h0.783l-1.652,4.371h-0.752l-1.628-4.371h0.802l1.221,3.403L388.725-5.319z"/>
	<path fill="#FDDFEB" d="M390.96-0.948v-4.371h2.699v0.69h-1.96v1.159h1.775v0.672h-1.775v1.159h1.96v0.69H390.96z"/>
	<path fill="#FDDFEB" d="M396.701-2.674h-0.543v1.726h-0.745v-4.371h1.677c0.844,0,1.368,0.585,1.368,1.325
		c0,0.623-0.376,1.098-0.986,1.245l0.986,1.8h-0.839L396.701-2.674z M396.954-3.327c0.456,0,0.752-0.265,0.752-0.666
		c0-0.407-0.296-0.672-0.752-0.672h-0.796v1.338H396.954z"/>
	<path fill="#FDDFEB" d="M402.319-4.086c-0.043-0.271-0.271-0.672-0.856-0.672c-0.444,0-0.752,0.296-0.752,0.628
		c0,0.278,0.173,0.487,0.512,0.561l0.629,0.129c0.771,0.154,1.184,0.642,1.184,1.258c0,0.678-0.549,1.325-1.548,1.325
		c-1.109,0-1.621-0.715-1.688-1.344l0.69-0.197c0.043,0.456,0.369,0.875,0.998,0.875c0.524,0,0.796-0.265,0.796-0.604
		c0-0.284-0.21-0.512-0.586-0.592l-0.616-0.13c-0.666-0.135-1.11-0.573-1.11-1.227c0-0.733,0.672-1.338,1.486-1.338
		c1.029,0,1.43,0.629,1.528,1.116L402.319-4.086z"/>
	<path fill="#FDDFEB" d="M407.185-2.045h-1.85l-0.406,1.097h-0.783l1.701-4.371h0.857l1.701,4.371h-0.808L407.185-2.045z
		 M405.595-2.73h1.331l-0.666-1.788L405.595-2.73z"/>
	<path fill="#FDDFEB" d="M411.17-4.622v3.674h-0.739v-3.674h-1.418v-0.696h3.582v0.696H411.17z"/>
	<path fill="#FDDFEB" d="M414.064-0.948v-4.371h0.752v4.371H414.064z"/>
	<path fill="#FDDFEB" d="M418.682-5.411c1.146,0,2.225,0.845,2.225,2.275c0,1.437-1.078,2.281-2.225,2.281s-2.22-0.844-2.22-2.281
		C416.463-4.567,417.536-5.411,418.682-5.411z M418.682-1.558c0.739,0,1.467-0.524,1.467-1.578s-0.728-1.578-1.467-1.578
		c-0.734,0-1.461,0.524-1.461,1.578S417.948-1.558,418.682-1.558z"/>
	<path fill="#FDDFEB" d="M425.454-0.948l-2.157-3.311v3.311h-0.739v-4.371h0.942l1.985,3.101v-3.101h0.74v4.371H425.454z"/>
	<path fill="#FDDFEB" d="M430.344-4.086c-0.043-0.271-0.271-0.672-0.856-0.672c-0.444,0-0.752,0.296-0.752,0.628
		c0,0.278,0.173,0.487,0.512,0.561l0.629,0.129c0.771,0.154,1.184,0.642,1.184,1.258c0,0.678-0.549,1.325-1.548,1.325
		c-1.109,0-1.621-0.715-1.688-1.344l0.69-0.197c0.043,0.456,0.369,0.875,0.998,0.875c0.524,0,0.796-0.265,0.796-0.604
		c0-0.284-0.21-0.512-0.586-0.592l-0.616-0.13c-0.666-0.135-1.11-0.573-1.11-1.227c0-0.733,0.672-1.338,1.486-1.338
		c1.029,0,1.43,0.629,1.528,1.116L430.344-4.086z"/>
	<path fill="#FDDFEB" d="M436.378-2.674h-0.543v1.726h-0.745v-4.371h1.677c0.844,0,1.368,0.585,1.368,1.325
		c0,0.623-0.376,1.098-0.986,1.245l0.986,1.8h-0.839L436.378-2.674z M436.631-3.327c0.456,0,0.752-0.265,0.752-0.666
		c0-0.407-0.296-0.672-0.752-0.672h-0.796v1.338H436.631z"/>
	<path fill="#FDDFEB" d="M439.79-0.948v-4.371h2.699v0.69h-1.96v1.159h1.775v0.672h-1.775v1.159h1.96v0.69H439.79z"/>
	<path fill="#FDDFEB" d="M444.243-0.948v-4.371h0.739v3.668h2.004v0.703H444.243z"/>
	<path fill="#FDDFEB" d="M451.185-2.045h-1.85l-0.406,1.097h-0.783l1.701-4.371h0.857l1.701,4.371h-0.808L451.185-2.045z
		 M449.595-2.73h1.331l-0.666-1.788L449.595-2.73z"/>
	<path fill="#FDDFEB" d="M455.17-4.622v3.674h-0.739v-3.674h-1.418v-0.696h3.582v0.696H455.17z"/>
	<path fill="#FDDFEB" d="M458.064-0.948v-4.371h2.699v0.69h-1.96v1.159h1.775v0.672h-1.775v1.159h1.96v0.69H458.064z"/>
	<path fill="#FDDFEB" d="M462.517-0.948v-4.371h1.547c1.189,0,2.127,0.789,2.127,2.194c0,1.399-0.949,2.176-2.133,2.176H462.517z
		 M464.033-1.626c0.759,0,1.388-0.487,1.388-1.498c0-1.023-0.623-1.516-1.381-1.516h-0.783v3.014H464.033z"/>
	<path fill="#FDDFEB" d="M471.939-4.622v3.674H471.2v-3.674h-1.418v-0.696h3.582v0.696H471.939z"/>
	<path fill="#FDDFEB" d="M476.652-5.411c1.146,0,2.225,0.845,2.225,2.275c0,1.437-1.078,2.281-2.225,2.281
		c-1.147,0-2.22-0.844-2.22-2.281C474.432-4.567,475.505-5.411,476.652-5.411z M476.652-1.558c0.739,0,1.467-0.524,1.467-1.578
		s-0.728-1.578-1.467-1.578c-0.734,0-1.461,0.524-1.461,1.578S475.918-1.558,476.652-1.558z"/>
</g>
</svg>
