<?xml version="1.0" encoding="utf-8"?>
<!-- Generator: Adobe Illustrator 16.0.0, SVG Export Plug-In . SVG Version: 6.00 Build 0)  -->
<!DOCTYPE svg PUBLIC "-//W3C//DTD SVG 1.1//EN" "http://www.w3.org/Graphics/SVG/1.1/DTD/svg11.dtd">
<svg version="1.1" id="Layer_1" xmlns="http://www.w3.org/2000/svg" xmlns:xlink="http://www.w3.org/1999/xlink" x="0px" y="0px"
	 width="270.524px" height="163.338px" viewBox="-0.001 -1.829 270.524 163.338"
	 enable-background="new -0.001 -1.829 270.524 163.338" xml:space="preserve">
<g>
	<g>
		<path fill="#FDDFEB" d="M12.925,25.719l-1.271,12l18.744,1.979l-0.823,7.794L10.831,45.51L9.093,61.966l-9.094-0.961l4.653-44.043
			l29.384,3.105l-0.823,7.794L12.925,25.719z"/>
	</g>
	<g>
		<path fill="#FDDFEB" d="M69.788,25.659c2.938,2.188,5.062,5.092,6.366,8.711c1.308,3.62,1.709,7.802,1.208,12.544
			c-0.501,4.743-1.77,8.748-3.803,12.014c-2.034,3.269-4.718,5.663-8.047,7.188c-3.331,1.524-7.143,2.061-11.431,1.607
			c-4.29-0.453-7.9-1.774-10.841-3.96c-2.938-2.188-5.062-5.091-6.366-8.712c-1.308-3.619-1.71-7.801-1.208-12.544
			c0.502-4.741,1.771-8.747,3.807-12.014c2.031-3.267,4.715-5.663,8.046-7.188c3.33-1.524,7.141-2.061,11.43-1.606
			C63.236,22.153,66.85,23.473,69.788,25.659z M49.295,32.846c-2.321,2.443-3.729,5.996-4.225,10.655
			c-0.492,4.661,0.143,8.429,1.902,11.305c1.759,2.876,4.414,4.5,7.96,4.875s6.479-0.66,8.803-3.104
			c2.322-2.444,3.729-5.996,4.224-10.657c0.492-4.66-0.143-8.428-1.899-11.303c-1.762-2.876-4.414-4.501-7.96-4.876
			S51.616,30.402,49.295,32.846z"/>
	</g>
	<g>
		<path fill="#FDDFEB" d="M115.042,31.881c2.411,2.425,3.408,5.637,2.984,9.637c-0.282,2.682-1.248,4.894-2.892,6.637
			c-1.646,1.745-3.739,2.837-6.289,3.277l-0.016,0.123c1.508,0.743,2.649,1.75,3.437,3.021c0.781,1.271,1.543,3.343,2.282,6.215
			l3.104,12.65l-9.896-1.046l-2.421-10.827c-0.571-2.479-1.354-4.24-2.352-5.283c-0.994-1.044-2.563-1.679-4.709-1.906l-5.01-0.528
			L91.49,70.676l-9.095-0.961l4.652-44.043l16.208,1.713C108.7,27.959,112.629,29.458,115.042,31.881z M94.032,46.612l6.434,0.68
			c5.071,0.536,7.84-1.36,8.298-5.69c0.432-4.083-2.058-6.41-7.457-6.98l-5.938-0.628L94.032,46.612z"/>
	</g>
	<g>
		<path fill="#FDDFEB" d="M136.518,38.78l-1.054,9.959l19.919,2.104l-0.815,7.732l-19.919-2.105l-1.137,10.765l21.896,2.313
			l-0.824,7.794l-30.989-3.274l4.652-44.043l30.438,3.216l-0.824,7.794L136.518,38.78z"/>
	</g>
	<g>
		<path fill="#FDDFEB" d="M162.75,78.206l4.653-44.042l9.095,0.961l-4.651,44.042L162.75,78.206z"/>
	</g>
	<g>
		<path fill="#FDDFEB" d="M217.324,42.408c2.938,2.959,4.394,6.751,4.362,11.376l-9.772-1.033c-0.184-2.229-0.935-3.986-2.257-5.273
			c-1.323-1.287-3.202-2.06-5.635-2.316c-3.549-0.375-6.496,0.681-8.843,3.163c-2.351,2.483-3.771,6.076-4.269,10.777
			c-0.511,4.824,0.101,8.727,1.827,11.703c1.729,2.977,4.348,4.648,7.854,5.021c3.177,0.336,5.701-0.304,7.58-1.919
			c1.886-1.615,3.021-4.111,3.424-7.488l-10.456-1.104l0.783-7.423l18.932,2l-2.559,24.188l-7.67-0.812l0.503-4.765l-0.124-0.014
			c-1.469,1.638-3.354,2.835-5.665,3.591c-2.312,0.758-4.909,0.981-7.798,0.678c-3.753-0.396-6.915-1.656-9.48-3.783
			c-2.569-2.127-4.426-4.972-5.57-8.533c-1.146-3.562-1.473-7.671-0.979-12.332c0.501-4.742,1.78-8.776,3.844-12.104
			c2.062-3.327,4.767-5.752,8.116-7.274c3.354-1.522,7.149-2.059,11.397-1.609C210.233,37.687,214.385,39.45,217.324,42.408z"/>
	</g>
	<g>
		<path fill="#FDDFEB" d="M252.94,87.737l-6.646-18.78c-2.436-6.971-4.475-13.315-6.119-19.036l-0.124-0.013
			c-0.391,6.839-0.896,13.229-1.523,19.167l-1.791,16.949l-8.723-0.922l4.651-44.042l12.931,1.365l6.646,18.779
			c2.436,6.972,4.475,13.318,6.121,19.038l0.124,0.012c0.392-6.839,0.896-13.229,1.524-19.167l1.79-16.948l8.723,0.922
			l-4.653,44.043L252.94,87.737z"/>
	</g>
	<g>
		<path fill="#FDDFEB" d="M23.562,149.896l-2.809,11.021l-9.562,0.592l12.598-45.153l12.292-0.765l18.073,43.259l-9.561,0.592
			l-4.083-10.592L23.562,149.896z M36.431,138.317c-2.432-6.332-4.461-11.979-6.101-16.947l-0.124,0.008
			c-1.173,5.892-2.474,11.744-3.896,17.566l-0.75,2.977l11.979-0.739L36.431,138.317z"/>
	</g>
	<g>
		<path fill="#FDDFEB" d="M65.065,121.647l0.747,12.045l18.812-1.166l0.483,7.822l-18.812,1.166l1.021,16.516l-9.126,0.566
			l-2.738-44.207l29.489-1.828l0.484,7.822L65.065,121.647z"/>
	</g>
	<g>
		<path fill="#FDDFEB" d="M101.321,119.401l0.746,12.045l18.812-1.166l0.483,7.822l-18.812,1.166l1.021,16.516l-9.128,0.564
			l-2.738-44.205l29.491-1.828l0.484,7.824L101.321,119.401z"/>
	</g>
	<g>
		<path fill="#FDDFEB" d="M134.943,142.995l-2.811,11.021l-9.562,0.592l12.599-45.153l12.293-0.765l18.074,43.257l-9.562,0.594
			l-4.082-10.594L134.943,142.995z M147.812,131.415c-2.43-6.33-4.461-11.979-6.099-16.947l-0.125,0.011
			c-1.174,5.892-2.473,11.746-3.898,17.563l-0.747,2.979l11.981-0.742L147.812,131.415z"/>
	</g>
	<g>
		<path fill="#FDDFEB" d="M169.573,151.694l-2.739-44.205l9.128-0.564l2.738,44.205L169.573,151.694z"/>
	</g>
	<g>
		<path fill="#FDDFEB" d="M214.777,107.76c2.782,1.988,4.301,4.99,4.549,9.006c0.167,2.689-0.416,5.029-1.748,7.023
			c-1.331,1.994-3.216,3.42-5.652,4.276l0.01,0.123c1.604,0.479,2.9,1.285,3.887,2.408c0.985,1.12,2.081,3.036,3.286,5.745
			l5.167,11.96l-9.936,0.614l-4.188-10.271c-0.979-2.353-2.042-3.957-3.194-4.819c-1.152-0.861-2.811-1.229-4.962-1.097
			l-5.026,0.312l1.049,16.893l-9.128,0.562l-2.738-44.207l16.267-1.008C207.872,104.946,211.996,105.771,214.777,107.76z
			 M196.514,125.782l6.456-0.4c5.09-0.312,7.501-2.646,7.229-6.989c-0.255-4.103-3.094-5.979-8.515-5.646l-5.959,0.369
			L196.514,125.782z"/>
	</g>
	<g>
		<path fill="#FDDFEB" d="M253.766,104.815c2.984,2.285,4.63,5.811,4.925,10.568l-9.252,0.574c-0.146-2.316-0.915-4.066-2.318-5.248
			c-1.401-1.183-3.347-1.693-5.829-1.541c-2.026,0.125-3.636,0.672-4.818,1.641c-1.188,0.969-1.734,2.176-1.646,3.623
			c0.068,1.115,0.438,2.01,1.101,2.674c0.666,0.666,1.678,1.217,3.03,1.648c1.354,0.438,3.315,0.889,5.881,1.352
			c3.486,0.656,6.315,1.365,8.481,2.125c2.164,0.76,3.979,1.984,5.433,3.684c1.453,1.695,2.275,4.06,2.466,7.076
			c0.173,2.773-0.401,5.262-1.722,7.461c-1.314,2.199-3.244,3.961-5.778,5.279c-2.533,1.318-5.502,2.088-8.896,2.297
			c-5.587,0.348-10.047-0.729-13.381-3.221c-3.333-2.494-5.152-6.229-5.461-11.191l9.438-0.584c0.166,2.689,1.019,4.674,2.553,5.949
			c1.528,1.271,3.704,1.826,6.521,1.65c2.317-0.146,4.141-0.766,5.462-1.863c1.322-1.104,1.935-2.521,1.824-4.26
			c-0.077-1.24-0.447-2.203-1.112-2.893c-0.666-0.687-1.594-1.199-2.774-1.541c-1.188-0.345-3.061-0.769-5.624-1.271
			c-3.656-0.686-6.569-1.4-8.732-2.141c-2.165-0.738-3.997-1.941-5.491-3.617c-1.497-1.672-2.335-4.021-2.521-7.041
			c-0.159-2.564,0.383-4.887,1.626-6.955c1.24-2.07,3.069-3.73,5.486-4.982c2.413-1.25,5.214-1.977,8.4-2.172
			C246.529,101.554,250.776,102.526,253.766,104.815z"/>
	</g>
</g>
<g>
	<path fill="#FDDFEB" d="M59.338,8.286l0.54-0.048c0.216-0.016,0.356-0.06,0.42-0.132c0.072-0.072,0.108-0.224,0.108-0.456v-6.96
		c0-0.232-0.036-0.384-0.108-0.456c-0.064-0.072-0.204-0.116-0.42-0.132l-0.54-0.048v-0.432h3.96c2.688,0,4.032,0.816,4.032,2.448
		c0,1.712-1.344,2.568-4.032,2.568h-0.672v-0.54h0.588c0.704,0,1.216-0.16,1.536-0.48c0.304-0.312,0.456-0.804,0.456-1.476
		c0-1.328-0.664-1.992-1.992-1.992h-0.888v7.5c0,0.224,0.036,0.372,0.108,0.444c0.064,0.064,0.204,0.104,0.42,0.12l0.96,0.048v0.456
		h-4.476V8.286z"/>
	<path fill="#FDDFEB" d="M68.014,8.335l0.324-0.024c0.216-0.016,0.348-0.048,0.396-0.096c0.056-0.048,0.084-0.176,0.084-0.384V4.434
		l-0.912-0.864V3.498l2.688-1.128v2.076c0.304-1.264,1-1.896,2.088-1.896h0.12v1.788l-0.636-0.084
		c-1.048-0.144-1.572,0.092-1.572,0.708V7.83c0,0.2,0.04,0.328,0.12,0.384c0.056,0.032,0.2,0.056,0.432,0.072l0.612,0.036v0.396
		h-3.744V8.335z"/>
	<path fill="#FDDFEB" d="M73.655,8.335l0.324-0.024c0.216-0.016,0.348-0.048,0.396-0.096c0.056-0.048,0.084-0.176,0.084-0.384V4.434
		l-0.912-0.864V3.498l2.688-1.128v5.46c0,0.208,0.028,0.336,0.084,0.384c0.048,0.048,0.18,0.08,0.396,0.096l0.324,0.024v0.384
		h-3.384V8.335z M74.554-0.581c0.224-0.224,0.484-0.336,0.78-0.336s0.56,0.112,0.792,0.336c0.224,0.224,0.336,0.484,0.336,0.78
		s-0.112,0.56-0.336,0.792c-0.224,0.224-0.488,0.336-0.792,0.336c-0.296,0-0.556-0.112-0.78-0.336
		c-0.224-0.232-0.336-0.496-0.336-0.792S74.33-0.358,74.554-0.581z"/>
	<path fill="#FDDFEB" d="M77.89,8.335l0.324-0.024c0.216-0.016,0.348-0.048,0.396-0.096c0.056-0.048,0.084-0.176,0.084-0.384V4.434
		l-0.912-0.864V3.498L80.47,2.37v1.536c0.288-0.96,0.896-1.44,1.824-1.44c1.136,0,1.704,0.748,1.704,2.244v3.12
		c0,0.208,0.028,0.336,0.084,0.384c0.048,0.048,0.18,0.08,0.396,0.096l0.324,0.024v0.384H81.55V8.335l0.228-0.024
		c0.216-0.024,0.344-0.056,0.384-0.096c0.04-0.048,0.06-0.176,0.06-0.384V5.047c0-1.016-0.272-1.524-0.816-1.524
		c-0.624,0-0.936,0.512-0.936,1.536V7.83c0,0.208,0.02,0.336,0.06,0.384c0.04,0.04,0.168,0.072,0.384,0.096l0.228,0.024v0.384H77.89
		V8.335z"/>
	<path fill="#FDDFEB" d="M86.842,8.527c-0.296-0.232-0.444-0.644-0.444-1.236V3.618h-1.212V3.547l2.904-2.4h0.084v1.548h2.4
		l-0.576,0.924h-1.824v3.264c0,0.768,0.28,1.152,0.84,1.152c0.304,0,0.628-0.116,0.972-0.348l0.192,0.312
		c-0.656,0.536-1.384,0.804-2.184,0.804C87.458,8.802,87.074,8.711,86.842,8.527z"/>
	<path fill="#FDDFEB" d="M91.714,7.963c-0.56-0.584-0.84-1.332-0.84-2.244c0-0.952,0.328-1.744,0.984-2.376
		c0.608-0.584,1.324-0.876,2.148-0.876c1.632,0,2.608,0.82,2.928,2.46h-4.26c0.008,0.808,0.208,1.472,0.6,1.992
		c0.408,0.536,0.948,0.804,1.62,0.804c0.432,0,0.82-0.12,1.164-0.36c0.384-0.264,0.632-0.636,0.744-1.116h0.348
		c-0.272,1.752-1.308,2.628-3.108,2.628C93.073,8.874,92.298,8.571,91.714,7.963z M92.698,4.423h2.268
		c-0.032-1.032-0.376-1.548-1.032-1.548C93.221,2.874,92.81,3.39,92.698,4.423z"/>
	<path fill="#FDDFEB" d="M98.818,8.047c-0.496-0.592-0.744-1.388-0.744-2.388c0-0.936,0.268-1.708,0.804-2.316
		c0.528-0.584,1.18-0.876,1.956-0.876c0.544,0,0.996,0.192,1.356,0.576V0.859l-1.128-0.768V0.018l2.904-0.924v8.832h0.876V8.31
		l-2.652,0.54v-0.72c-0.44,0.496-0.98,0.744-1.62,0.744C99.865,8.874,99.281,8.598,98.818,8.047z M100.473,7.386
		c0.264,0.44,0.604,0.66,1.02,0.66c0.272,0,0.504-0.08,0.696-0.24V3.379c-0.176-0.152-0.396-0.228-0.66-0.228
		c-0.432,0-0.784,0.22-1.056,0.66c-0.28,0.456-0.42,1.068-0.42,1.836C100.053,6.35,100.194,6.93,100.473,7.386z"/>
	<path fill="#FDDFEB" d="M111.729,8.719h-3.252V8.335l0.324-0.024c0.216-0.016,0.348-0.048,0.396-0.096
		c0.056-0.048,0.084-0.176,0.084-0.384V4.434l-0.912-0.864V3.498l2.688-1.128v1.536c0.288-0.96,0.896-1.44,1.824-1.44
		c0.928,0,1.476,0.492,1.644,1.476c0.304-0.984,0.932-1.476,1.884-1.476c1.136,0,1.704,0.748,1.704,2.244v3.12
		c0,0.208,0.028,0.336,0.084,0.384c0.048,0.048,0.18,0.08,0.396,0.096l0.324,0.024v0.384h-3.252V8.335l0.228-0.024
		c0.216-0.024,0.344-0.056,0.384-0.096c0.04-0.048,0.06-0.176,0.06-0.384V5.047c0-1.016-0.272-1.524-0.816-1.524
		c-0.624,0-0.936,0.512-0.936,1.536V7.83c0,0.208,0.02,0.336,0.06,0.384c0.04,0.04,0.168,0.072,0.384,0.096l0.228,0.024v0.384h-3.12
		V8.335l0.228-0.024c0.216-0.024,0.344-0.056,0.384-0.096c0.04-0.048,0.06-0.176,0.06-0.384V5.047c0-1.016-0.272-1.524-0.816-1.524
		c-0.624,0-0.936,0.512-0.936,1.536V7.83c0,0.208,0.02,0.336,0.06,0.384c0.04,0.04,0.168,0.072,0.384,0.096l0.228,0.024V8.719z"/>
	<path fill="#FDDFEB" d="M120.261,8.37c-0.368-0.32-0.552-0.708-0.552-1.164c0-0.496,0.26-0.904,0.78-1.224
		c0.224-0.136,0.724-0.348,1.5-0.636c0.576-0.208,0.964-0.436,1.164-0.684c0.144-0.184,0.216-0.448,0.216-0.792
		c0-0.288-0.084-0.524-0.252-0.708c-0.184-0.192-0.424-0.288-0.72-0.288c-0.448,0-0.76,0.16-0.936,0.48
		c-0.184,0.312-0.208,0.736-0.072,1.272c-0.288,0.064-0.556,0.096-0.804,0.096c-0.296,0-0.528-0.072-0.696-0.216
		c-0.144-0.128-0.216-0.276-0.216-0.444c0-0.416,0.508-0.82,1.524-1.212c0.72-0.271,1.376-0.408,1.968-0.408
		c1.272,0,1.892,0.568,1.86,1.704l-0.096,3.78h0.936V8.31l-2.328,0.54l-0.24-1.068c-0.288,0.728-0.832,1.092-1.632,1.092
		C121.105,8.874,120.637,8.706,120.261,8.37z M122.997,7.843c0.168-0.232,0.256-0.568,0.264-1.008l0.012-1.836
		c-0.144,0.12-0.36,0.269-0.648,0.444c-0.624,0.384-0.936,0.888-0.936,1.512c0,0.304,0.068,0.572,0.204,0.804
		c0.152,0.256,0.348,0.384,0.588,0.384C122.689,8.142,122.861,8.043,122.997,7.843z"/>
	<path fill="#FDDFEB" d="M127.809,8.527c-0.296-0.232-0.444-0.644-0.444-1.236V3.618h-1.212V3.547l2.904-2.4h0.084v1.548h2.4
		l-0.576,0.924h-1.824v3.264c0,0.768,0.28,1.152,0.84,1.152c0.304,0,0.628-0.116,0.972-0.348l0.192,0.312
		c-0.656,0.536-1.384,0.804-2.184,0.804C128.425,8.802,128.041,8.711,127.809,8.527z"/>
	<path fill="#FDDFEB" d="M133.197,8.527c-0.296-0.232-0.444-0.644-0.444-1.236V3.618h-1.212V3.547l2.905-2.4h0.084v1.548h2.398
		l-0.574,0.924h-1.824v3.264c0,0.768,0.279,1.152,0.84,1.152c0.303,0,0.626-0.116,0.97-0.348l0.193,0.312
		c-0.656,0.536-1.384,0.804-2.184,0.804C133.813,8.802,133.429,8.711,133.197,8.527z"/>
	<path fill="#FDDFEB" d="M138.068,7.963c-0.559-0.584-0.84-1.332-0.84-2.244c0-0.952,0.328-1.744,0.984-2.376
		c0.607-0.584,1.324-0.876,2.148-0.876c1.631,0,2.607,0.82,2.928,2.46h-4.26c0.008,0.808,0.207,1.472,0.6,1.992
		c0.408,0.536,0.947,0.804,1.619,0.804c0.434,0,0.82-0.12,1.164-0.36c0.385-0.264,0.633-0.636,0.744-1.116h0.35
		c-0.273,1.752-1.309,2.628-3.109,2.628C139.429,8.874,138.652,8.571,138.068,7.963z M139.052,4.423h2.268
		c-0.031-1.032-0.375-1.548-1.031-1.548C139.576,2.874,139.164,3.39,139.052,4.423z"/>
	<path fill="#FDDFEB" d="M144.392,8.335l0.324-0.024c0.217-0.016,0.348-0.048,0.396-0.096c0.055-0.048,0.084-0.176,0.084-0.384
		V4.434l-0.912-0.864V3.498l2.688-1.128v2.076c0.305-1.264,1-1.896,2.088-1.896h0.121v1.788l-0.637-0.084
		c-1.049-0.144-1.572,0.092-1.572,0.708V7.83c0,0.2,0.039,0.328,0.119,0.384c0.057,0.032,0.201,0.056,0.434,0.072l0.611,0.036v0.396
		h-3.744V8.335z"/>
	<path fill="#FDDFEB" d="M152.59,8.335l0.322-0.024c0.217-0.016,0.35-0.048,0.396-0.096c0.057-0.048,0.084-0.176,0.084-0.384V4.434
		l-0.912-0.864V3.498l2.689-1.128v2.076c0.303-1.264,0.998-1.896,2.088-1.896h0.119v1.788l-0.637-0.084
		c-1.047-0.144-1.57,0.092-1.57,0.708V7.83c0,0.2,0.039,0.328,0.119,0.384c0.057,0.032,0.199,0.056,0.432,0.072l0.611,0.036v0.396
		h-3.742V8.335z"/>
	<path fill="#FDDFEB" d="M158.937,7.963c-0.561-0.584-0.84-1.332-0.84-2.244c0-0.952,0.328-1.744,0.984-2.376
		c0.607-0.584,1.322-0.876,2.146-0.876c1.633,0,2.609,0.82,2.928,2.46h-4.26c0.008,0.808,0.209,1.472,0.602,1.992
		c0.406,0.536,0.947,0.804,1.619,0.804c0.432,0,0.82-0.12,1.164-0.36c0.385-0.264,0.631-0.636,0.744-1.116h0.348
		c-0.271,1.752-1.309,2.628-3.107,2.628C160.297,8.874,159.521,8.571,158.937,7.963z M159.922,4.423h2.268
		c-0.033-1.032-0.377-1.548-1.033-1.548C160.445,2.874,160.033,3.39,159.922,4.423z"/>
	<path fill="#FDDFEB" d="M165.152,8.335l0.324-0.024c0.217-0.016,0.348-0.048,0.396-0.096c0.057-0.048,0.084-0.176,0.084-0.384
		V0.859l-0.912-0.768V0.018l2.688-0.924V7.83c0,0.208,0.029,0.336,0.084,0.384c0.049,0.048,0.18,0.08,0.396,0.096l0.324,0.024v0.384
		h-3.385V8.335z"/>
	<path fill="#FDDFEB" d="M169.953,8.37c-0.369-0.32-0.553-0.708-0.553-1.164c0-0.496,0.26-0.904,0.781-1.224
		c0.223-0.136,0.723-0.348,1.5-0.636c0.574-0.208,0.963-0.436,1.164-0.684c0.143-0.184,0.215-0.448,0.215-0.792
		c0-0.288-0.084-0.524-0.252-0.708c-0.184-0.192-0.424-0.288-0.721-0.288c-0.447,0-0.76,0.16-0.936,0.48
		c-0.184,0.312-0.207,0.736-0.072,1.272c-0.287,0.064-0.555,0.096-0.803,0.096c-0.297,0-0.529-0.072-0.697-0.216
		c-0.143-0.128-0.215-0.276-0.215-0.444c0-0.416,0.508-0.82,1.523-1.212c0.721-0.271,1.377-0.408,1.969-0.408
		c1.271,0,1.891,0.568,1.859,1.704l-0.096,3.78h0.936V8.31l-2.328,0.54l-0.24-1.068c-0.287,0.728-0.832,1.092-1.631,1.092
		C170.797,8.874,170.328,8.706,169.953,8.37z M172.689,7.843c0.168-0.232,0.256-0.568,0.264-1.008l0.012-1.836
		c-0.145,0.12-0.359,0.269-0.648,0.444c-0.623,0.384-0.936,0.888-0.936,1.512c0,0.304,0.068,0.572,0.203,0.804
		c0.152,0.256,0.35,0.384,0.588,0.384C172.381,8.142,172.552,8.043,172.689,7.843z"/>
	<path fill="#FDDFEB" d="M177.5,8.527c-0.295-0.232-0.443-0.644-0.443-1.236V3.618h-1.213V3.547l2.904-2.4h0.084v1.548h2.4
		l-0.576,0.924h-1.824v3.264c0,0.768,0.281,1.152,0.84,1.152c0.305,0,0.629-0.116,0.973-0.348l0.191,0.312
		c-0.656,0.536-1.383,0.804-2.184,0.804C178.117,8.802,177.732,8.711,177.5,8.527z"/>
	<path fill="#FDDFEB" d="M182.373,7.963c-0.561-0.584-0.84-1.332-0.84-2.244c0-0.952,0.328-1.744,0.984-2.376
		c0.607-0.584,1.322-0.876,2.146-0.876c1.633,0,2.609,0.82,2.928,2.46h-4.26c0.008,0.808,0.209,1.472,0.602,1.992
		c0.406,0.536,0.947,0.804,1.619,0.804c0.432,0,0.82-0.12,1.164-0.36c0.385-0.264,0.631-0.636,0.744-1.116h0.348
		c-0.271,1.752-1.309,2.628-3.107,2.628C183.732,8.874,182.957,8.571,182.373,7.963z M183.357,4.423h2.268
		c-0.033-1.032-0.377-1.548-1.033-1.548C183.881,2.874,183.469,3.39,183.357,4.423z"/>
	<path fill="#FDDFEB" d="M189.476,8.047c-0.496-0.592-0.744-1.388-0.744-2.388c0-0.936,0.268-1.708,0.805-2.316
		c0.527-0.584,1.18-0.876,1.955-0.876c0.545,0,0.996,0.192,1.355,0.576V0.859l-1.127-0.768V0.018l2.904-0.924v8.832h0.875V8.31
		l-2.652,0.54v-0.72c-0.439,0.496-0.979,0.744-1.619,0.744C190.523,8.874,189.939,8.598,189.476,8.047z M191.133,7.386
		c0.264,0.44,0.604,0.66,1.02,0.66c0.271,0,0.504-0.08,0.695-0.24V3.379c-0.176-0.152-0.395-0.228-0.66-0.228
		c-0.432,0-0.783,0.22-1.055,0.66c-0.281,0.456-0.42,1.068-0.42,1.836C190.713,6.35,190.851,6.93,191.133,7.386z"/>
	<path fill="#FDDFEB" d="M200.396,8.527c-0.297-0.232-0.445-0.644-0.445-1.236V3.618h-1.211V3.547l2.904-2.4h0.084v1.548h2.398
		l-0.574,0.924h-1.824v3.264c0,0.768,0.279,1.152,0.84,1.152c0.303,0,0.627-0.116,0.971-0.348l0.193,0.312
		c-0.656,0.536-1.385,0.804-2.184,0.804C201.011,8.802,200.627,8.711,200.396,8.527z"/>
	<path fill="#FDDFEB" d="M205.328,7.95c-0.607-0.6-0.912-1.34-0.912-2.22c0-0.952,0.328-1.736,0.984-2.352
		c0.631-0.608,1.424-0.912,2.375-0.912c0.977,0,1.777,0.308,2.4,0.924c0.607,0.6,0.912,1.34,0.912,2.22
		c0,0.952-0.324,1.736-0.973,2.352c-0.639,0.608-1.436,0.912-2.387,0.912C206.752,8.874,205.953,8.567,205.328,7.95z M209.084,5.658
		c0-1.816-0.443-2.724-1.332-2.724c-0.904,0-1.355,0.908-1.355,2.724c0,1.816,0.451,2.724,1.355,2.724
		C208.64,8.383,209.084,7.475,209.084,5.658z"/>
</g>
</svg>
