<?xml version="1.0" encoding="utf-8"?>
<!-- Generator: Adobe Illustrator 16.0.0, SVG Export Plug-In . SVG Version: 6.00 Build 0)  -->
<!DOCTYPE svg PUBLIC "-//W3C//DTD SVG 1.1//EN" "http://www.w3.org/Graphics/SVG/1.1/DTD/svg11.dtd">
<svg version="1.1" id="Layer_1" xmlns="http://www.w3.org/2000/svg" xmlns:xlink="http://www.w3.org/1999/xlink" x="0px" y="0px"
	 width="323.902px" height="281px" viewBox="0 0 323.902 281" enable-background="new 0 0 323.902 281" xml:space="preserve">
<g>
	<path fill="#FDDFEB" d="M79.787,12.267v57.05H65.474v-57.05H43.666V0h57.928v12.267H79.787z"/>
	<path fill="#FDDFEB" d="M113.078,11.682V0h13.631v11.682H113.078z M113.078,69.316V19.86h13.631v49.456H113.078z"/>
	<path fill="#FDDFEB" d="M213.792,23.852c3.082,3.44,4.622,8.47,4.622,15.091v30.374h-13.629V40.305c0-3.634-0.682-6.36-2.044-8.178
		c-1.363-1.816-3.276-2.725-5.745-2.725c-2.919,0-5.157,1.25-6.714,3.747c-1.562,2.5-2.339,6.084-2.339,10.757v25.411h-13.631
		V39.428c0-3.179-0.664-5.645-1.996-7.397c-1.332-1.752-3.26-2.628-5.791-2.628c-2.92,0-5.157,1.25-6.719,3.747
		c-1.557,2.5-2.333,6.084-2.333,10.757v25.411h-13.631V19.86h12.852v5.647h0.192c1.818-2.338,3.831-4.057,6.038-5.16
		c2.206-1.104,4.77-1.656,7.689-1.656c3.441,0,6.408,0.715,8.908,2.141c2.498,1.428,4.429,3.539,5.791,6.328
		c1.949-2.789,4.155-4.9,6.619-6.328c2.469-1.426,5.52-2.141,9.155-2.141C206.473,18.692,210.707,20.413,213.792,23.852z"/>
	<path fill="#FDDFEB" d="M263.098,59.337c1.756-1.266,2.793-2.935,3.118-5.013h13.921c-0.65,3.051-2.027,5.842-4.136,8.373
		c-2.11,2.531-4.837,4.526-8.181,5.987c-3.344,1.46-7.122,2.189-11.342,2.189c-5.125,0-9.539-1.119-13.238-3.357
		c-3.7-2.241-6.524-5.37-8.471-9.395c-1.947-4.025-2.924-8.666-2.924-13.922c0-4.933,0.977-9.347,2.924-13.241
		c1.945-3.895,4.771-6.977,8.471-9.248c3.699-2.272,8.08-3.409,13.144-3.409c5.646,0,10.478,1.477,14.503,4.431
		c4.024,2.953,6.817,6.96,8.374,12.023c1.038,3.31,1.558,7.53,1.558,12.657h-35.533c0.193,4.803,1.314,8.309,3.359,10.513
		c2.043,2.208,4.652,3.31,7.834,3.31C259.141,61.235,261.348,60.603,263.098,59.337z M249.227,30.667
		c-1.914,1.816-3.129,4.543-3.648,8.176h21.607c-0.387-3.567-1.571-6.278-3.552-8.128c-1.978-1.851-4.397-2.775-7.25-2.775
		C253.525,27.939,251.139,28.851,249.227,30.667z"/>
	<path fill="#FDDFEB" d="M65.862,108.225V96.543h13.631v11.682H65.862z M65.862,165.859v-49.457h13.631v49.457H65.862z"/>
	<path fill="#FDDFEB" d="M130.31,119.128c3.637,2.857,5.451,7.01,5.451,12.461h-13.045c0-4.801-2.595-7.203-7.788-7.203
		c-2.14,0-3.795,0.405-4.964,1.218c-1.168,0.812-1.755,1.931-1.755,3.357c0,1.169,0.356,2.094,1.074,2.775
		c0.712,0.682,1.751,1.251,3.114,1.703c1.362,0.456,3.505,1.072,6.425,1.851c4.155,1.105,7.432,2.144,9.833,3.115
		c2.4,0.975,4.464,2.531,6.184,4.672c1.719,2.146,2.578,5.098,2.578,8.86c0,4.674-1.961,8.422-5.891,11.244
		c-3.925,2.824-9.23,4.234-15.917,4.234c-7.008,0-12.458-1.477-16.356-4.43c-3.895-2.952-5.839-7.35-5.839-13.19h13.825
		c0,2.468,0.745,4.381,2.238,5.744c1.494,1.362,3.632,2.044,6.425,2.044c2.337,0,4.12-0.422,5.356-1.268
		c1.231-0.84,1.85-2.008,1.85-3.502c0-1.363-0.392-2.451-1.168-3.264c-0.78-0.81-1.866-1.46-3.265-1.947
		c-1.395-0.486-3.716-1.149-6.96-1.994c-3.895-1.036-6.929-1.995-9.104-2.873c-2.175-0.875-4.057-2.319-5.645-4.333
		c-1.592-2.01-2.385-4.801-2.385-8.372c0-2.92,0.86-5.532,2.579-7.837c1.719-2.301,4.12-4.104,7.206-5.404
		c3.082-1.296,6.635-1.946,10.66-1.946C121.58,114.845,126.673,116.275,130.31,119.128z"/>
	<path fill="#FDDFEB" d="M192.326,120.444c3.244,3.472,4.867,8.485,4.867,15.042v30.374h-13.631v-29.011
		c0-3.635-0.765-6.36-2.289-8.178c-1.524-1.816-3.648-2.726-6.375-2.726c-2.922,0-5.275,1.153-7.06,3.456
		c-1.784,2.303-2.677,5.631-2.677,9.979v26.479H151.53v-49.456h12.756v6.232h0.194c1.688-2.272,3.763-4.072,6.23-5.404
		c2.464-1.331,5.227-1.997,8.275-1.997C184.632,115.234,189.078,116.972,192.326,120.444z"/>
	<path fill="#FDDFEB" d="M216.857,124.582h-6.912l4.574-14.215h-4.281V96.543h12.75v13.823L216.857,124.582z"/>
	<path fill="#FDDFEB" d="M265.243,155.15v10.418c-2.08,0.647-4.481,0.973-7.207,0.973c-5.712,0-9.863-1.247-12.458-3.747
		c-2.6-2.497-3.895-6.604-3.895-12.315V126.53h-7.985v-10.126h7.985v-12.85h13.627v12.85h9.444v10.126h-9.444v21.513
		c0,2.727,0.486,4.674,1.463,5.842c0.975,1.17,2.625,1.754,4.963,1.754C263.098,155.639,264.268,155.477,265.243,155.15z"/>
	<path fill="#FDDFEB" d="M66.108,262.404v-34.465c0-8.693,0.194-17.359,0.582-25.991h-0.194c-2.144,8.176-4.611,16.68-7.4,25.505
		l-11.001,34.951H31.739l-11-34.951c-2.789-8.825-5.257-17.329-7.4-25.505h-0.194c0.392,8.632,0.586,17.298,0.586,25.991v34.465H0
		v-69.315h22.976l10.031,31.833c2.726,8.7,4.995,17.2,6.813,25.508h0.194c1.818-8.308,4.088-16.808,6.817-25.508l10.026-31.833
		h22.976v69.315H66.108z"/>
	<path fill="#FDDFEB" d="M133.816,214.604c3.795,2.143,6.73,5.192,8.811,9.151c2.075,3.959,3.114,8.601,3.114,13.92
		c0,5.324-1.039,9.966-3.114,13.923c-2.08,3.959-5.016,7.01-8.811,9.15c-3.799,2.145-8.26,3.213-13.386,3.213
		c-5.13,0-9.59-1.068-13.389-3.213c-3.795-2.141-6.731-5.191-8.81-9.15c-2.076-3.957-3.114-8.599-3.114-13.923
		c0-5.319,1.038-9.961,3.114-13.92c2.079-3.959,5.015-7.01,8.81-9.151c3.799-2.144,8.259-3.213,13.389-3.213
		C125.556,211.391,130.017,212.46,133.816,214.604z M112.397,226.188c-1.981,2.857-2.967,6.688-2.967,11.487
		c0,4.806,0.986,8.636,2.967,11.488c1.98,2.858,4.658,4.284,8.033,4.284c3.372,0,6.049-1.426,8.03-4.284
		c1.98-2.854,2.971-6.683,2.971-11.488c0-4.801-0.991-8.63-2.971-11.487c-1.981-2.854-4.659-4.281-8.03-4.281
		C117.055,221.906,114.377,223.333,112.397,226.188z"/>
	<path fill="#FDDFEB" d="M200.454,216.989c3.245,3.473,4.87,8.485,4.87,15.042v30.373h-13.633v-29.012
		c0-3.635-0.76-6.359-2.284-8.179c-1.525-1.815-3.653-2.726-6.38-2.726c-2.918,0-5.271,1.152-7.059,3.457
		c-1.783,2.304-2.674,5.631-2.674,9.979v26.479h-13.632v-49.454h12.752v6.23h0.198c1.684-2.271,3.764-4.071,6.228-5.403
		c2.468-1.332,5.226-1.996,8.275-1.996C192.766,211.781,197.209,213.518,200.454,216.989z"/>
	<path fill="#FDDFEB" d="M250.006,252.426c1.756-1.266,2.793-2.936,3.117-5.013h13.921c-0.649,3.05-2.026,5.84-4.136,8.371
		c-2.111,2.53-4.838,4.526-8.182,5.987c-3.343,1.461-7.121,2.188-11.34,2.188c-5.127,0-9.539-1.119-13.24-3.356
		c-3.699-2.239-6.523-5.369-8.469-9.396c-1.949-4.024-2.924-8.666-2.924-13.922c0-4.933,0.975-9.349,2.924-13.241
		c1.944-3.895,4.77-6.977,8.469-9.247c3.701-2.272,8.082-3.409,13.145-3.409c5.646,0,10.479,1.479,14.503,4.432
		s6.817,6.96,8.374,12.021c1.038,3.311,1.557,7.531,1.557,12.656h-35.531c0.191,4.804,1.313,8.311,3.357,10.516
		c2.045,2.207,4.655,3.31,7.836,3.31C246.048,254.324,248.255,253.691,250.006,252.426z M236.133,223.755
		c-1.912,1.815-3.129,4.544-3.646,8.177h21.609c-0.39-3.566-1.574-6.279-3.556-8.13c-1.978-1.85-4.396-2.774-7.249-2.774
		C240.432,221.027,238.047,221.939,236.133,223.755z"/>
	<path fill="#FDDFEB" d="M300.585,273.648c-2.044,2.629-4.496,4.512-7.353,5.646c-2.855,1.137-6.395,1.704-10.612,1.704
		c-2.531,0-4.899-0.259-7.106-0.778v-10.902c1.432,0.519,3.182,0.776,5.258,0.776c2.729,0,4.92-0.729,6.57-2.188
		c1.656-1.461,2.484-3.395,2.484-5.792c0-0.909-0.146-1.946-0.439-3.116c-0.289-1.169-0.924-3.115-1.897-5.841l-14.019-40.208
		h14.604l5.062,16.551c2.076,6.943,3.896,13.857,5.451,20.734h0.193c1.945-7.98,3.861-14.895,5.744-20.734l5.355-16.551h14.02
		l-17.72,49.747C304.495,267.37,302.629,271.02,300.585,273.648z"/>
</g>
</svg>
