<?xml version="1.0" encoding="utf-8"?>
<!-- Generator: Adobe Illustrator 16.0.0, SVG Export Plug-In . SVG Version: 6.00 Build 0)  -->
<!DOCTYPE svg PUBLIC "-//W3C//DTD SVG 1.1//EN" "http://www.w3.org/Graphics/SVG/1.1/DTD/svg11.dtd">
<svg version="1.1" id="Layer_1" xmlns="http://www.w3.org/2000/svg" xmlns:xlink="http://www.w3.org/1999/xlink" x="0px" y="0px"
	 width="1000px" height="1000px" viewBox="0 0 1000 1000" enable-background="new 0 0 1000 1000" xml:space="preserve">
<g>
	<g>
		<polygon points="516.433,165.212 507.812,136.146 498.125,136.146 489.312,165.235 483.318,135.379 471.783,135.379 
			482.334,187.69 493.589,187.69 502.823,157.174 512.061,187.69 523.324,187.69 533.725,135.379 522.546,135.379 		"/>
		<polygon points="301.463,242.195 289.511,209.742 274.922,209.742 274.922,262.054 286.535,262.054 286.535,233.145 
			296.819,261.356 305.466,261.356 315.827,233.427 315.827,262.054 327.439,262.054 327.439,209.742 313.479,209.742 		"/>
	</g>
	<g>
		<path d="M702.605,209.742l-18.366,52.312h12.146l3.209-9.477h17.569l3.204,9.477h12.498l-18.373-52.312H702.605z M703.36,241.59
			l5.019-14.848l5.015,14.848H703.36z"/>
		<rect x="827.158" y="351.916" width="12.033" height="52.311"/>
		<polygon points="829.006,533.822 829.006,545.085 843.636,545.085 843.636,586.134 855.532,586.134 855.532,545.085 
			870.162,545.085 870.162,533.822 		"/>
	</g>
	<g>
		<rect x="766.033" y="702.543" width="12.033" height="52.311"/>
		<polygon points="609.267,841.279 590.405,811.398 578.607,811.398 578.607,863.711 590.362,863.711 590.362,833.348 
			609.5,863.711 621.023,863.711 621.023,811.398 609.267,811.398 		"/>
		<path d="M398.584,821.48c3.072,0,5.352,0.841,6.761,2.477c0.935,1.124,1.719,2.178,1.828,3.702l0.097,1.349h12.097l-0.1-1.547
			c-0.269-4.185-1.884-7.745-4.94-10.887c-3.787-3.86-9.496-6.078-15.67-6.078c-5.963,0-11.843,2.317-15.73,6.208
			c-5.675,5.677-6.836,12.453-6.836,20.888c0,6.913,0.811,14.826,6.809,21.068c3.808,4.009,8.84,5.961,15.38,5.961l0.394-0.003
			c4.863-0.055,8.999-1.995,11.562-4.405l0.67,3.498h8.437V833.77h-23.392v10.362h11.744c-0.139,2.797-0.77,5.055-2.769,7.158
			c-1.515,1.579-3.705,2.41-6.341,2.41c-2.704,0-5.434-1.051-6.965-2.688c-2.354-2.446-3.498-6.839-3.498-13.42
			c0-4.139,0.355-10.012,3.444-13.227C393.174,822.641,395.994,821.48,398.584,821.48z"/>
		<path d="M264.092,719.325c0-8.355-5.751-16.785-18.594-16.785h-22.29v52.312h11.964v-18.676h8.541l8.223,18.676h12.946
			l-9.374-20.909C260.841,731.328,264.092,725.859,264.092,719.325z M235.102,713.319h10.396c4.604,0,6.7,3.112,6.7,6.006
			c0,4.845-3.569,5.862-6.562,5.862h-10.534V713.319z"/>
	</g>
	<g>
		<path d="M151.776,532.909c-5.963,0-11.374,2.133-15.242,6.006c-5.558,5.555-6.696,12.45-6.696,21.094
			c0,8.848,1.119,15.45,6.696,21.027c3.868,3.868,9.281,5.996,15.242,5.996c5.96,0,11.374-2.128,15.242-5.996
			c5.577-5.577,6.696-12.18,6.696-21.027c0-8.644-1.138-15.539-6.696-21.094C163.15,535.042,157.736,532.909,151.776,532.909z
			 M158.52,573.161c-1.619,1.737-4.204,2.816-6.743,2.816s-5.124-1.079-6.759-2.832c-3.148-3.273-3.148-9.448-3.148-13.137
			c0-4.807,0.244-10.188,3.164-13.229c1.619-1.735,4.204-2.814,6.743-2.814s5.124,1.079,6.758,2.833
			c2.905,3.021,3.149,8.403,3.149,13.21C161.684,563.697,161.684,569.872,158.52,573.161z"/>
		<path d="M192.578,357.01c-3.868-3.869-9.279-6.001-15.241-6.001s-11.375,2.132-15.243,6.001
			c-5.557,5.558-6.696,12.453-6.696,21.098c0,8.844,1.119,15.447,6.696,21.025c3.87,3.869,9.281,5.999,15.243,5.999
			s11.373-2.13,15.241-5.999c5.578-5.578,6.698-12.182,6.698-21.025C199.276,369.463,198.137,362.567,192.578,357.01z
			 M184.08,391.262c-1.619,1.736-4.203,2.815-6.743,2.815s-5.125-1.079-6.758-2.832c-3.15-3.276-3.15-9.45-3.15-13.138
			c0-4.807,0.244-10.188,3.165-13.227c1.618-1.737,4.203-2.814,6.743-2.814s5.124,1.077,6.759,2.83
			c2.905,3.023,3.148,8.404,3.148,13.211C187.244,381.795,187.244,387.969,184.08,391.262z"/>
	</g>
	<g>
		<polygon points="480.262,556.828 473.947,547.614 754.045,355.456 760.361,364.662 		"/>
	</g>
	<g>
		<polygon points="524.412,559.383 516.399,566.133 375,358.833 383.008,352.079 		"/>
	</g>
</g>
</svg>
