<?xml version="1.0" encoding="utf-8"?>
<!-- Generator: Adobe Illustrator 16.0.0, SVG Export Plug-In . SVG Version: 6.00 Build 0)  -->
<!DOCTYPE svg PUBLIC "-//W3C//DTD SVG 1.1//EN" "http://www.w3.org/Graphics/SVG/1.1/DTD/svg11.dtd">
<svg version="1.1"
	 id="Layer_1" xmlns:dc="http://purl.org/dc/elements/1.1/" xmlns:cc="http://creativecommons.org/ns#" xmlns:rdf="http://www.w3.org/1999/02/22-rdf-syntax-ns#" xmlns:svg="http://www.w3.org/2000/svg" xmlns:inkscape="http://www.inkscape.org/namespaces/inkscape" xmlns:sodipodi="http://sodipodi.sourceforge.net/DTD/sodipodi-0.dtd"
	 xmlns="http://www.w3.org/2000/svg" xmlns:xlink="http://www.w3.org/1999/xlink" x="0px" y="0px" width="667.644px"
	 height="628.149px" viewBox="0 0 667.644 628.149" enable-background="new 0 0 667.644 628.149" xml:space="preserve">
<polygon fill="#FFFFFF" points="618.988,185.908 623.655,149.242 468.988,167.575 "/>
<path fill="#FFFFFF" d="M314.321,99.357l-99.333-87.449l-19.106,32.667C195.882,44.575,260.321,106.807,314.321,99.357z"/>
<g>
	<polygon fill="#FFFFFF" points="384.996,172.991 653.664,189.657 513.369,617.659 241.663,594.991 	"/>
</g>
<g>
	<polygon fill="none" points="262.294,581.069 500.523,602.778 637.703,198.753 397.63,182.477 	"/>
	<g>
		<polygon fill="none" points="262.294,581.069 500.523,602.778 637.703,198.753 397.63,182.477 		"/>
		<polygon fill="none" points="215.895,21.818 210.94,36.411 305.645,99.357 		"/>
		<polygon fill="#FFFFFF" points="-880.495,187.047 -1034.953,197.336 -885.198,207.569 		"/>
	</g>
</g>
<path d="M658.875,176.251c-1.141-0.445-2.342-0.717-3.562-0.806l-27.331-1.867l7.425-21.863c0.854-2.52,0.4-5.301-1.211-7.418
	c-1.611-2.119-4.17-3.297-6.826-3.141l-233.225,13.516L217.369,1.947c-2.013-1.741-4.761-2.364-7.329-1.667
	c-2.569,0.698-4.622,2.628-5.477,5.148l-7.409,21.82l-22.65-15.055c-0.811-0.529-1.682-0.96-2.594-1.285
	c-0.12-0.045-0.242-0.088-0.363-0.129c-6.402-2.171-13.353,1.259-15.523,7.661L10.601,446.731
	c-1.794,5.346,0.296,11.227,5.062,14.24l223.532,141.135c2.042,1.404,4.464,2.156,6.942,2.156l261.745,23.836
	c5.615,0.512,10.854-2.883,12.686-8.215L665.99,191.591C668.095,185.4,664.964,178.644,658.875,176.251z M611.468,172.449
	l-113.596-7.762l118.562-6.872L611.468,172.449z M210.94,36.411l4.955-14.593l89.75,77.54L210.94,36.411z M500.523,602.778
	l-238.229-21.709L397.63,182.477l240.072,16.276L500.523,602.778z"/>
<g enable-background="new    ">
	<path fill="#FFFFFF" d="M154.251,439.107c5.203,0.9,9.826,3.256,13.864,7.062c4.039,3.808,7.279,8.926,9.722,15.354
		c2.444,6.43,3.421,12.408,2.93,17.936c-0.49,5.528-2.382,10.358-5.673,14.488c-3.292,4.131-7.846,7.301-13.659,9.511
		c-5.814,2.21-11.324,2.864-16.527,1.963c-5.205-0.9-9.826-3.255-13.864-7.062c-4.038-3.807-7.279-8.924-9.723-15.354
		c-2.443-6.428-3.42-12.407-2.93-17.936c0.49-5.526,2.38-10.357,5.674-14.487c3.291-4.13,7.844-7.301,13.658-9.51
		C143.537,438.861,149.046,438.207,154.251,439.107z M132.56,461.698c-1.396,4.657-0.895,10.145,1.507,16.461
		c2.401,6.318,5.67,10.753,9.808,13.307s8.608,2.917,13.417,1.09c4.808-1.827,7.91-5.07,9.307-9.727
		c1.396-4.658,0.895-10.144-1.506-16.462c-2.401-6.316-5.671-10.753-9.809-13.306c-4.137-2.555-8.61-2.917-13.417-1.09
		C137.058,453.798,133.957,457.041,132.56,461.698z"/>
	<path fill="#FFFFFF" d="M218.253,435.558c3.932,1.928,6.971,5.715,9.117,11.361l9.943,26.161l-11.739,4.462l-9.497-24.987
		c-1.189-3.13-2.74-5.229-4.647-6.295c-1.909-1.064-4.037-1.152-6.385-0.26c-2.516,0.956-4.165,2.719-4.948,5.286
		c-0.783,2.569-0.462,5.728,0.961,9.472l8.669,22.808l-11.739,4.462l-16.19-42.597l10.984-4.175l2.04,5.366l0.168-0.063
		c0.71-2.508,1.908-4.74,3.597-6.694c1.689-1.952,3.847-3.429,6.475-4.428C209.923,433.588,214.321,433.629,218.253,435.558z"/>
	<path fill="#FFFFFF" d="M269.179,451.132c1.095-1.664,1.442-3.441,1.042-5.338l11.991-4.558c0.439,2.841,0.165,5.694-0.823,8.565
		c-0.988,2.871-2.683,5.482-5.083,7.834c-2.401,2.353-5.418,4.219-9.052,5.6c-4.417,1.679-8.584,2.159-12.503,1.442
		c-3.92-0.718-7.376-2.491-10.371-5.32c-2.994-2.827-5.352-6.506-7.073-11.034c-1.615-4.247-2.221-8.368-1.819-12.36
		c0.402-3.991,1.825-7.569,4.268-10.738c2.442-3.167,5.844-5.58,10.204-7.237c4.863-1.849,9.511-2.159,13.943-0.934
		c4.434,1.229,8.148,3.765,11.148,7.615c1.977,2.512,3.806,5.976,5.484,10.391l-30.605,11.632c1.74,4.075,3.852,6.728,6.334,7.957
		c2.483,1.231,5.094,1.327,7.833,0.285C266.391,454.064,268.084,452.796,269.179,451.132z M247.845,430.98
		c-1.055,2.192-1.21,4.938-0.467,8.239l18.615-7.076c-1.504-2.946-3.412-4.894-5.722-5.838c-2.312-0.945-4.696-0.95-7.155-0.016
		C250.655,427.225,248.899,428.789,247.845,430.98z"/>
</g>
<g enable-background="new    ">
	<path fill="#FFFFFF" d="M173.841,159.242l16.191-20.312c5.999-7.551,12.011-14.653,18.034-21.308l-0.111-0.141
		c-7.874,4.307-16.182,8.499-24.921,12.575l-23.523,11.018l-10.609-13.45l41.861-50.041l7.998,10.141l-15.405,17.978
		c-6.421,7.5-12.688,14.424-18.801,20.77l0.111,0.142c8.088-4.325,16.521-8.503,25.299-12.531l21.682-10.021l10.332,13.098
		l-14.794,18.753c-5.963,7.598-11.99,14.826-18.078,21.686l0.111,0.141c7.594-4.468,15.786-8.951,24.577-13.446l21.071-10.796
		l7.999,10.141l-58.414,29.056L173.841,159.242z"/>
	<path fill="#FFFFFF" d="M218.552,201.08c1.916,0.546,3.715,0.343,5.404-0.607l7.943,10.07c-2.578,1.271-5.383,1.864-8.417,1.783
		c-3.035-0.081-6.033-0.915-8.996-2.499c-2.963-1.584-5.648-3.902-8.056-6.953c-2.926-3.709-4.633-7.54-5.125-11.493
		c-0.491-3.953,0.163-7.781,1.963-11.486c1.799-3.704,4.6-7.057,8.403-10.057c3.567-2.813,7.316-4.627,11.244-5.44
		c3.928-0.814,7.768-0.53,11.522,0.849c3.753,1.38,7.075,3.9,9.963,7.562c3.222,4.085,4.912,8.425,5.073,13.021
		c0.159,4.595-1.146,8.9-3.919,12.916c-1.802,2.639-4.557,5.423-8.265,8.348l-20.275-25.702c-3.364,2.881-5.26,5.69-5.689,8.428
		c-0.43,2.739,0.263,5.257,2.077,7.558C214.919,199.298,216.637,200.534,218.552,201.08z M231.375,174.687
		c-2.408-0.349-5.074,0.327-7.998,2.025l12.332,15.633c2.358-2.318,3.644-4.722,3.853-7.209c0.208-2.487-0.502-4.765-2.132-6.83
		C235.799,176.24,233.78,175.035,231.375,174.687z"/>
	<path fill="#FFFFFF" d="M250.935,242.132c1.916,0.547,3.716,0.344,5.404-0.606l7.943,10.07c-2.578,1.271-5.383,1.863-8.417,1.782
		c-3.035-0.081-6.034-0.914-8.996-2.498c-2.964-1.584-5.649-3.902-8.056-6.954c-2.925-3.709-4.634-7.539-5.125-11.492
		c-0.491-3.954,0.163-7.781,1.963-11.487c1.799-3.704,4.601-7.056,8.403-10.056c3.567-2.813,7.315-4.628,11.243-5.441
		c3.928-0.813,7.768-0.53,11.522,0.85c3.753,1.38,7.075,3.9,9.963,7.562c3.222,4.084,4.912,8.424,5.073,13.02
		c0.159,4.596-1.146,8.901-3.919,12.916c-1.802,2.64-4.558,5.423-8.265,8.348l-20.274-25.702c-3.364,2.882-5.261,5.691-5.689,8.428
		c-0.43,2.739,0.262,5.258,2.077,7.558C247.303,240.352,249.02,241.586,250.935,242.132z M263.758,215.74
		c-2.408-0.349-5.074,0.327-7.998,2.025l12.332,15.633c2.358-2.318,3.644-4.722,3.853-7.209c0.208-2.487-0.502-4.764-2.132-6.829
		C268.182,217.293,266.163,216.087,263.758,215.74z"/>
	<path fill="#FFFFFF" d="M276.879,289.866l7.317-25.19l-0.111-0.142l-16.759,13.22l-7.777-9.858l50.138-39.549l7.776,9.858
		l-28.801,22.719l0.111,0.142l23.545,0.16l8.776,11.126l-27.198-0.593l-7.407,30.289L276.879,289.866z"/>
</g>
<g enable-background="new    ">
	<path d="M380.732,522.112c-0.052,4.779-2.685,9.719-7.898,14.822c-1.625,1.59-3.18,2.777-4.669,3.564l-7.843-8.014
		c1.364-0.914,2.471-1.791,3.326-2.629c1.624-1.588,2.678-3.1,3.157-4.533c0.482-1.432,0.351-3.018-0.393-4.76
		c-0.742-1.742-2.264-3.789-4.564-6.139l-28.486-29.107l9.424-9.223l30.432,31.092C378.279,512.36,380.784,517.334,380.732,522.112z
		"/>
	<path d="M389.316,458.293c3.881-1.037,7.78-0.92,11.699,0.348c3.919,1.27,7.596,3.656,11.024,7.16
		c3.43,3.504,5.737,7.23,6.922,11.176c1.184,3.945,1.216,7.848,0.096,11.703c-1.12,3.859-3.368,7.439-6.744,10.744
		c-3.377,3.305-7.005,5.475-10.886,6.512s-7.78,0.922-11.7-0.348c-3.92-1.268-7.594-3.654-11.024-7.16
		c-3.429-3.504-5.737-7.229-6.921-11.176c-1.184-3.943-1.216-7.846-0.096-11.703c1.119-3.859,3.367-7.439,6.744-10.744
		C381.805,461.5,385.435,459.331,389.316,458.293z M382.678,479.727c0.537,3.156,2.354,6.316,5.448,9.479
		c3.097,3.164,6.216,5.047,9.359,5.65c3.146,0.605,5.827-0.18,8.05-2.355c2.222-2.174,3.066-4.84,2.528-7.998
		c-0.536-3.154-2.353-6.314-5.448-9.479c-3.095-3.162-6.215-5.045-9.359-5.65c-3.144-0.604-5.828,0.182-8.05,2.355
		C382.984,473.905,382.142,476.571,382.678,479.727z"/>
	<path d="M434.861,470.137c-4.374-0.193-8.674-2.449-12.899-6.766l-19.576-20.004l8.975-8.785l18.698,19.105
		c2.343,2.395,4.602,3.697,6.777,3.912s4.161-0.559,5.956-2.316c1.923-1.883,2.729-4.156,2.42-6.824
		c-0.309-2.666-1.864-5.434-4.668-8.297l-17.066-17.438l8.975-8.785l31.875,32.568l-8.397,8.221l-4.017-4.104l-0.129,0.125
		c0.354,2.584,0.147,5.109-0.62,7.572c-0.768,2.467-2.155,4.684-4.163,6.648C443.282,468.61,439.236,470.334,434.861,470.137z"/>
	<path d="M461.304,385.453l7.591,7.756c-1.362,0.917-2.408,1.729-3.134,2.44c-2.736,2.678-4.004,5.572-3.805,8.682
		c0.199,3.111,1.867,6.27,5.005,9.475l15.06,15.387l-8.976,8.783l-31.875-32.568l8.27-8.094l4.518,4.617l0.129-0.127
		c-0.646-2.797-0.641-5.334,0.019-7.611c0.658-2.276,1.949-4.356,3.872-6.238C459.045,386.909,460.155,386.075,461.304,385.453z"/>
	<path d="M495.766,357.182c4.375,0.195,8.676,2.451,12.899,6.767l19.577,20.003l-8.975,8.785l-18.699-19.105
		c-2.342-2.393-4.602-3.695-6.776-3.91c-2.176-0.213-4.161,0.557-5.956,2.314c-1.924,1.883-2.73,4.158-2.421,6.824
		c0.31,2.67,1.867,5.435,4.669,8.298l17.066,17.437l-8.975,8.785l-31.875-32.568l8.398-8.22l4.016,4.104l0.128-0.126
		c-0.354-2.582-0.146-5.106,0.62-7.572c0.768-2.466,2.154-4.682,4.163-6.648C487.345,358.709,491.392,356.988,495.766,357.182z"/>
	<path d="M530.138,322.663c4.463-0.141,8.786,1.925,12.969,6.197l11.546,11.797c3.598,3.676,6.803,6.354,9.619,8.033l-8.078,7.905
		c-1.513-0.946-3.084-2.254-4.715-3.92l-0.129,0.126c0.953,5.763-0.901,10.922-5.559,15.48c-3.377,3.305-6.979,5.01-10.808,5.117
		c-3.828,0.107-7.144-1.271-9.946-4.135c-2.719-2.777-3.943-5.973-3.671-9.586c0.271-3.611,2.317-8,6.136-13.16
		c2.317-3.104,4.739-6.061,7.264-8.867l-1.129-1.153c-1.924-1.965-3.817-2.958-5.678-2.979c-1.86-0.019-3.624,0.787-5.29,2.418
		c-1.667,1.631-2.532,3.336-2.593,5.11c-0.062,1.776,0.617,3.474,2.038,5.097l-8.719,8.533c-3.051-3.457-4.403-7.404-4.06-11.843
		c0.344-4.437,2.737-8.83,7.183-13.181C521.135,325.135,525.675,322.806,530.138,322.663z M534.25,350.206
		c-1.546,2.184-2.391,4.015-2.533,5.492c-0.143,1.479,0.413,2.858,1.669,4.141c1.213,1.24,2.603,1.826,4.167,1.758
		c1.566-0.067,3.118-0.854,4.657-2.359c0.982-0.963,1.775-2.053,2.382-3.273c0.604-1.221,0.914-2.422,0.927-3.606
		c0.015-1.437-0.298-2.741-0.942-3.911c-0.642-1.17-1.737-2.545-3.285-4.127l-1.192-1.218
		C537.703,345.782,535.753,348.151,534.25,350.206z"/>
	<path d="M571.708,341.411l-44.676-45.646l8.976-8.784l44.675,45.647L571.708,341.411z"/>
</g>
<g enable-background="new    ">
	<path fill="#FFFFFF" d="M210.365,310.323c-1.939,16.748-9.531,30.347-22.778,40.796c-13.248,10.45-28.241,14.668-44.979,12.651
		c-16.782-1.981-30.399-9.597-40.848-22.844c-10.415-13.204-14.599-28.154-12.549-44.849c2.006-16.661,9.632-30.216,22.88-40.666
		c13.247-10.449,28.206-14.711,44.876-12.781c16.67,1.928,30.214,9.494,40.629,22.698
		C208.046,278.576,212.303,293.575,210.365,310.323z M167.49,322.159c-5.56,4.386-11.407,5.703-17.542,3.955
		c-6.136-1.749-11.55-5.599-16.244-11.549c-3.289-4.17-5.443-8.776-6.463-13.82c-1.631-7.873,0.703-14.293,7.001-19.261
		l-6.771-6.709c-7.385,5.825-11.26,13.216-11.627,22.173c-0.37,8.957,2.583,17.41,8.852,25.357
		c6.714,8.513,14.635,13.328,23.76,14.444s17.27-1.151,24.437-6.805L167.49,322.159z M147.158,284.19
		c1.78,2.257,3.992,3.544,6.634,3.855c2.641,0.311,5.07-0.406,7.286-2.154c2.258-1.78,3.543-3.993,3.855-6.634
		c0.311-2.642-0.424-5.094-2.205-7.351c-1.747-2.215-3.934-3.468-6.558-3.758c-2.625-0.29-5.066,0.456-7.324,2.236
		c-2.215,1.748-3.488,3.932-3.816,6.552C144.701,279.557,145.411,281.975,147.158,284.19z M167.715,310.25
		c1.78,2.258,3.993,3.545,6.635,3.856c2.64,0.311,5.07-0.406,7.285-2.154c2.258-1.78,3.543-3.993,3.855-6.634
		c0.312-2.642-0.424-5.094-2.205-7.352c-1.748-2.215-3.934-3.467-6.558-3.757c-2.625-0.29-5.066,0.456-7.324,2.236
		c-2.215,1.748-3.488,3.932-3.816,6.552C165.258,305.618,165.967,308.035,167.715,310.25z"/>
</g>
<g id="fwugIa_1_">
	
		<image overflow="visible" width="1600" height="1250" id="fwugIa" xlink:href="AD6DBF9F81F58CA3.jpg"  transform="matrix(0.75 0 0 0.75 -1448.7241 -127.3394)">
	</image>
</g>
</svg>
