<?xml version="1.0" encoding="utf-8"?>
<!-- Generator: Adobe Illustrator 16.0.0, SVG Export Plug-In . SVG Version: 6.00 Build 0)  -->
<!DOCTYPE svg PUBLIC "-//W3C//DTD SVG 1.1//EN" "http://www.w3.org/Graphics/SVG/1.1/DTD/svg11.dtd">
<svg version="1.1"
	 id="Layer_1" xmlns:dc="http://purl.org/dc/elements/1.1/" xmlns:cc="http://creativecommons.org/ns#" xmlns:rdf="http://www.w3.org/1999/02/22-rdf-syntax-ns#" xmlns:svg="http://www.w3.org/2000/svg" xmlns:inkscape="http://www.inkscape.org/namespaces/inkscape" xmlns:sodipodi="http://sodipodi.sourceforge.net/DTD/sodipodi-0.dtd"
	 xmlns="http://www.w3.org/2000/svg" xmlns:xlink="http://www.w3.org/1999/xlink" x="0px" y="0px" width="667.644px"
	 height="628.149px" viewBox="0 0 667.644 628.149" enable-background="new 0 0 667.644 628.149" xml:space="preserve">
<path fill="none" stroke="#020202" stroke-width="5" stroke-miterlimit="10" d="M213.785,405.24"/>
<rect x="12.907" y="60.327" transform="matrix(0.9506 -0.3104 0.3104 0.9506 -28.3402 60.2152)" fill="#F2D4D6" stroke="#000000" stroke-width="5" stroke-miterlimit="10" width="324.194" height="117.631"/>
<g>
	<path d="M111.346,181.305L94.581,153.45C88.34,143.117,82.629,132.968,77.452,123l-0.214,0.069
		c1.618,11.115,2.911,22.69,3.882,34.721l2.662,32.402l-20.406,6.578l-40.443-70.937l15.384-4.96l14.37,25.914
		c5.999,10.805,11.386,21.177,16.165,31.116l0.213-0.068c-1.544-11.375-2.766-23.091-3.664-35.146l-2.297-29.806l19.873-6.407
		l15.544,25.535c6.312,10.311,12.164,20.535,17.553,30.668l0.214-0.068c-1.927-10.858-3.614-22.425-5.054-34.698l-3.471-29.427
		l15.384-4.96l8.605,81.202L111.346,181.305z"/>
	<path d="M179.931,147.104c1.476-2.009,2.022-4.21,1.646-6.605l15.278-4.926c0.365,3.578-0.162,7.129-1.578,10.652
		c-1.421,3.524-3.706,6.679-6.858,9.463c-3.151,2.786-7.042,4.925-11.671,6.417c-5.626,1.814-10.866,2.147-15.718,0.999
		c-4.853-1.148-9.058-3.585-12.619-7.313c-3.559-3.728-6.271-8.476-8.131-14.245c-1.745-5.413-2.238-10.601-1.479-15.563
		c0.76-4.963,2.767-9.343,6.023-13.147c3.256-3.801,7.663-6.598,13.217-8.39c6.198-1.997,12.025-2.087,17.487-0.271
		c5.46,1.818,9.94,5.229,13.441,10.232c2.31,3.266,4.374,7.712,6.19,13.338l-38.998,12.573c1.911,5.203,4.379,8.653,7.405,10.35
		c3.025,1.698,6.281,1.984,9.772,0.859C176.258,150.588,178.456,149.113,179.931,147.104z M154.562,120.548
		c-1.457,2.673-1.831,6.095-1.112,10.267l23.717-7.646c-1.69-3.779-3.95-6.335-6.775-7.665c-2.829-1.329-5.809-1.488-8.942-0.478
		C158.317,116.035,156.021,117.878,154.562,120.548z"/>
	<path d="M242.218,127.023c1.476-2.009,2.023-4.209,1.645-6.604l15.278-4.926c0.367,3.58-0.159,7.129-1.578,10.652
		c-1.419,3.524-3.706,6.679-6.858,9.464c-3.15,2.786-7.043,4.924-11.672,6.416c-5.626,1.814-10.864,2.147-15.716,0.999
		c-4.853-1.149-9.06-3.585-12.619-7.313c-3.56-3.727-6.271-8.476-8.13-14.245c-1.745-5.413-2.239-10.601-1.479-15.563
		c0.757-4.962,2.766-9.344,6.021-13.146c3.257-3.801,7.662-6.598,13.218-8.389c6.197-1.998,12.023-2.088,17.486-0.272
		c5.461,1.819,9.942,5.229,13.442,10.232c2.31,3.265,4.374,7.713,6.188,13.338l-38.998,12.573c1.914,5.204,4.383,8.653,7.405,10.351
		c3.025,1.7,6.281,1.985,9.771,0.86C238.543,130.507,240.743,129.033,242.218,127.023z M216.851,100.467
		c-1.459,2.672-1.831,6.095-1.114,10.266l23.717-7.646c-1.688-3.779-3.946-6.334-6.775-7.664c-2.827-1.33-5.809-1.489-8.941-0.479
		C220.603,95.955,218.308,97.797,216.851,100.467z"/>
	<path d="M309.532,117.41l-26.361-19.573l-0.214,0.07l8.197,25.428l-14.956,4.821l-24.524-76.069l14.957-4.821l14.089,43.697
		l0.213-0.069l10.46-27.549l16.881-5.444l-12.561,31.648l32.303,21.903L309.532,117.41z"/>
</g>
<ellipse transform="matrix(0.9833 0.1822 -0.1822 0.9833 55.4868 -98.1346)" fill="#EE968A" stroke="#020202" stroke-width="5" stroke-miterlimit="10" cx="561.755" cy="252.871" rx="101.394" ry="68.749"/>
<g>
	<path d="M530.749,213.419c4.03,3.325,6.849,7.612,8.453,12.861c1.606,5.251,1.885,11.237,0.834,17.958
		c-1.049,6.722-3.138,12.339-6.27,16.848c-3.128,4.511-7.122,7.735-11.973,9.671c-4.855,1.938-10.319,2.431-16.398,1.481
		c-6.081-0.948-11.135-3.087-15.165-6.409c-4.03-3.325-6.848-7.61-8.454-12.862c-1.604-5.249-1.882-11.236-0.833-17.957
		s3.14-12.338,6.269-16.849c3.13-4.512,7.122-7.736,11.976-9.671c4.85-1.937,10.316-2.431,16.396-1.481
		C521.661,207.959,526.715,210.096,530.749,213.419z M501.04,222.208c-3.479,3.317-5.737,8.279-6.77,14.883
		c-1.032,6.607-0.395,12.019,1.908,16.241c2.306,4.223,5.969,6.725,10.999,7.51c5.025,0.785,9.28-0.483,12.761-3.799
		c3.482-3.319,5.739-8.278,6.77-14.884c1.033-6.604,0.396-12.019-1.908-16.241c-2.305-4.221-5.97-6.724-10.995-7.509
		C508.776,217.622,504.522,218.89,501.04,222.208z"/>
	<path d="M587.488,241.726c2.435,3.583,3.189,8.326,2.268,14.229l-4.271,27.354l-12.272-1.917l4.079-26.128
		c0.512-3.271,0.207-5.834-0.91-7.686c-1.117-1.85-2.904-2.969-5.358-3.352c-2.633-0.411-4.913,0.296-6.843,2.119
		c-1.932,1.827-3.204,4.696-3.816,8.613l-3.723,23.846l-12.275-1.917l6.955-44.539l11.486,1.794l-0.876,5.612l0.176,0.027
		c1.838-1.809,3.961-3.139,6.371-3.989c2.408-0.851,4.984-1.064,7.73-0.634C581.294,235.954,585.053,238.143,587.488,241.726z"/>
	<path d="M623.622,280.061c1.757-0.895,2.925-2.253,3.513-4.078l12.536,1.958c-1.015,2.656-2.649,4.976-4.903,6.959
		c-2.256,1.983-4.991,3.396-8.207,4.242c-3.218,0.844-6.724,0.97-10.522,0.377c-4.617-0.722-8.435-2.352-11.45-4.888
		c-3.017-2.537-5.119-5.752-6.307-9.651c-1.188-3.897-1.413-8.215-0.672-12.948c0.693-4.44,2.189-8.28,4.492-11.512
		c2.3-3.234,5.276-5.611,8.928-7.139c3.651-1.526,7.756-1.933,12.314-1.221c5.086,0.793,9.232,2.804,12.44,6.029
		c3.209,3.227,5.158,7.228,5.851,12.003c0.467,3.131,0.343,7.003-0.378,11.62l-32.001-4.999c-0.501,4.355,0.015,7.668,1.546,9.941
		c1.53,2.275,3.728,3.635,6.593,4.084C619.79,281.212,621.867,280.954,623.622,280.061z M615.161,252.29
		c-1.98,1.368-3.459,3.65-4.437,6.851l19.464,3.039c0.15-3.269-0.536-5.875-2.058-7.821c-1.523-1.943-3.57-3.116-6.142-3.518
		C619.415,250.438,617.139,250.923,615.161,252.29z"/>
</g>
<rect x="119.023" y="437.233" transform="matrix(0.9693 0.246 -0.246 0.9693 132.6302 -69.5531)" fill="#0077CA" stroke="#020202" stroke-width="5" stroke-miterlimit="10" width="451.326" height="117.628"/>
<g enable-background="new    ">
	<path d="M176.513,482.357c-5.156,3.031-12.15,3.4-20.988,1.109c-2.753-0.715-5.03-1.614-6.836-2.702l3.522-13.582
		c1.86,0.871,3.515,1.491,4.966,1.868c2.751,0.713,5.052,0.866,6.898,0.454c1.847-0.407,3.461-1.573,4.848-3.495
		c1.388-1.922,2.599-4.873,3.631-8.857l12.794-49.333l15.971,4.141l-13.664,52.701C185.38,473.427,181.667,479.327,176.513,482.357z
		"/>
	<path d="M250.456,450.331c3.619,3.49,6.013,7.743,7.185,12.764s0.989,10.503-0.551,16.44c-1.541,5.939-4.044,10.82-7.507,14.638
		c-3.463,3.817-7.625,6.373-12.481,7.663c-4.86,1.292-10.149,1.196-15.872-0.287c-5.723-1.485-10.392-3.972-14.011-7.462
		c-3.618-3.488-6.014-7.742-7.186-12.764c-1.173-5.021-0.988-10.499,0.553-16.44c1.541-5.938,4.041-10.818,7.507-14.636
		c3.462-3.817,7.623-6.373,12.48-7.664c4.86-1.293,10.149-1.196,15.872,0.288C242.167,444.353,246.837,446.841,250.456,450.331z
		 M223.197,457.063c-3.036,2.613-5.25,6.603-6.64,11.961c-1.391,5.363-1.393,9.923-0.01,13.683c1.383,3.761,3.957,6.128,7.725,7.104
		c3.765,0.978,7.167,0.16,10.206-2.456c3.034-2.612,5.248-6.601,6.639-11.963c1.39-5.359,1.392-9.92,0.01-13.681
		c-1.385-3.76-3.96-6.129-7.725-7.105C229.634,453.628,226.232,454.449,223.197,457.063z"/>
	<path d="M267.183,506.794c-2.617-4.813-2.978-10.878-1.082-18.195l8.793-33.903l15.213,3.943l-8.397,32.382
		c-1.053,4.058-0.989,7.319,0.185,9.79c1.175,2.472,3.287,4.1,6.33,4.888c3.261,0.845,6.218,0.241,8.877-1.814
		c2.658-2.054,4.62-5.508,5.877-10.363l7.665-29.555l15.212,3.943l-14.314,55.201l-14.235-3.689l1.804-6.956l-0.217-0.057
		c-2.541,2.047-5.381,3.457-8.517,4.227c-3.139,0.771-6.411,0.716-9.814-0.167C274.26,514.833,269.798,511.611,267.183,506.794z"/>
	<path d="M375.027,480.43l-3.41,13.146c-1.861-0.868-3.408-1.463-4.639-1.781c-4.638-1.204-8.56-0.692-11.764,1.53
		c-3.205,2.223-5.513,6.052-6.92,11.484l-6.764,26.08l-15.212-3.946l14.315-55.201l14.017,3.635l-2.03,7.824l0.22,0.056
		c2.58-2.498,5.303-4.131,8.169-4.896c2.865-0.766,5.928-0.727,9.188,0.119C372.007,478.951,373.617,479.601,375.027,480.43z"/>
	<path d="M427.587,499.103c2.616,4.815,2.978,10.882,1.08,18.195l-8.791,33.903l-15.213-3.942l8.397-32.384
		c1.05-4.055,0.986-7.318-0.188-9.788c-1.178-2.47-3.285-4.1-6.328-4.888c-3.26-0.846-6.22-0.241-8.878,1.813
		c-2.661,2.057-4.618,5.512-5.877,10.364l-7.664,29.554l-15.213-3.942l14.315-55.2l14.234,3.689l-1.804,6.955l0.218,0.057
		c2.539-2.048,5.378-3.457,8.516-4.228c3.139-0.77,6.409-0.715,9.814,0.168C420.509,491.064,424.969,494.29,427.587,499.103z"/>
	<path d="M486.787,513.641c3.034,4.693,3.614,10.661,1.736,17.903l-5.186,19.996c-1.615,6.229-2.416,11.395-2.395,15.498
		l-13.692-3.552c0.038-2.232,0.425-4.762,1.157-7.586l-0.22-0.056c-5.56,4.745-12.288,6.09-20.182,4.043
		c-5.724-1.484-9.877-4.243-12.465-8.278c-2.589-4.033-3.252-8.477-1.994-13.33c1.221-4.709,3.854-8.085,7.902-10.127
		c4.045-2.042,10.071-2.684,18.068-1.924c4.823,0.479,9.557,1.162,14.194,2.056l0.508-1.955c0.862-3.331,0.704-6.002-0.474-8.01
		c-1.184-2.007-3.186-3.377-6.01-4.108c-2.825-0.733-5.212-0.559-7.152,0.523c-1.943,1.082-3.323,2.904-4.146,5.476l-14.778-3.831
		c1.734-5.503,5.091-9.503,10.071-12.002c4.977-2.498,11.232-2.77,18.767-0.815C478.322,505.589,483.751,508.952,486.787,513.641z
		 M459.925,535.842c-3.339-0.246-5.849,0.031-7.523,0.833c-1.677,0.802-2.796,2.289-3.359,4.463
		c-0.546,2.102-0.276,3.969,0.808,5.602c1.083,1.636,2.929,2.79,5.536,3.468c1.667,0.432,3.348,0.576,5.048,0.437
		c1.698-0.14,3.187-0.584,4.464-1.335c1.549-0.914,2.745-2.09,3.583-3.537c0.839-1.443,1.604-3.506,2.3-6.188l0.536-2.064
		C466.895,536.684,463.096,536.125,459.925,535.842z"/>
	<path d="M493.547,570.305l20.062-77.367l15.213,3.946l-20.062,77.366L493.547,570.305z"/>
</g>
<g id="r8Fss1_1_">
	
		<image overflow="visible" width="1600" height="1250" id="r8Fss1" xlink:href="AD6DBF9F81F58CA0.jpg"  transform="matrix(0.75 0 0 0.75 258.8921 -956.8135)">
	</image>
</g>
</svg>
