<?xml version="1.0" encoding="utf-8"?>
<!-- Generator: Adobe Illustrator 16.0.0, SVG Export Plug-In . SVG Version: 6.00 Build 0)  -->
<!DOCTYPE svg PUBLIC "-//W3C//DTD SVG 1.1//EN" "http://www.w3.org/Graphics/SVG/1.1/DTD/svg11.dtd">
<svg version="1.1"
	 id="Layer_1" xmlns:dc="http://purl.org/dc/elements/1.1/" xmlns:cc="http://creativecommons.org/ns#" xmlns:rdf="http://www.w3.org/1999/02/22-rdf-syntax-ns#" xmlns:svg="http://www.w3.org/2000/svg" xmlns:inkscape="http://www.inkscape.org/namespaces/inkscape" xmlns:sodipodi="http://sodipodi.sourceforge.net/DTD/sodipodi-0.dtd"
	 xmlns="http://www.w3.org/2000/svg" xmlns:xlink="http://www.w3.org/1999/xlink" x="0px" y="0px" width="667.644px"
	 height="628.149px" viewBox="0 0 667.644 628.149" enable-background="new 0 0 667.644 628.149" xml:space="preserve">
<polygon fill="#FDDFEB" points="357.655,150.575 626.322,167.241 486.027,595.242 214.322,572.575 "/>
<path d="M631.535,153.835c-1.141-0.445-2.342-0.717-3.562-0.806l-262.141-17.912L147.163-10.223
	c-0.811-0.529-1.682-0.96-2.594-1.285c-0.12-0.045-0.242-0.088-0.363-0.129c-6.402-2.171-13.353,1.259-15.523,7.661L-16.74,424.315
	c-1.794,5.346,0.296,11.227,5.062,14.24L211.854,579.69c2.042,1.404,4.464,2.156,6.942,2.156l261.745,23.836
	c5.615,0.512,10.854-2.883,12.686-8.215l145.422-428.292C640.755,162.984,637.625,156.228,631.535,153.835z M473.181,580.362
	l-238.228-21.709l135.337-398.592l240.072,16.276L473.181,580.362z"/>
<g>
	<path d="M358.798,146.484L188.554-0.598l-10.489,30.892l-15.15-5.145l14.307-42.137c0.855-2.52,2.908-4.45,5.477-5.148
		c2.568-0.697,5.316-0.074,7.329,1.667l179.231,154.846L358.798,146.484z"/>
</g>
<g>
	<path d="M364.492,148.417l-0.926-15.973l236.461-13.704c2.656-0.156,5.215,1.022,6.826,3.141c1.613,2.117,2.066,4.898,1.211,7.418
		l-14.309,42.137l-15.148-5.144l10.488-30.892L364.492,148.417z"/>
</g>
<text transform="matrix(0.9348 -0.3553 0.3553 0.9348 102.2236 491.6177)" fill="#FDDFEB" font-family="'NeueHaasUnicaPro-Bold'" font-size="89.7003">One</text>
<text transform="matrix(0.6193 0.7851 -0.7851 0.6193 112.7832 94.0806)" fill="#FDDFEB" font-family="'NeueHaasUnicaPro-Bold'" font-size="89.6925">Week</text>
<text transform="matrix(0.7147 -0.6995 0.6995 0.7147 339.9233 519.0864)" font-family="'NeueHaasUnicaPro-Bold'" font-size="89.7006">Journal</text>
<text transform="matrix(0.6193 0.7851 -0.7851 0.6193 35.8369 269.4653)" fill="#FDDFEB" font-family="'Helvetica'" font-size="169.9516">☻</text>
</svg>
