<?xml version="1.0" encoding="utf-8"?>
<!-- Generator: Adobe Illustrator 16.0.0, SVG Export Plug-In . SVG Version: 6.00 Build 0)  -->
<!DOCTYPE svg PUBLIC "-//W3C//DTD SVG 1.1//EN" "http://www.w3.org/Graphics/SVG/1.1/DTD/svg11.dtd">
<svg version="1.1"
	 id="Layer_1" xmlns:dc="http://purl.org/dc/elements/1.1/" xmlns:cc="http://creativecommons.org/ns#" xmlns:rdf="http://www.w3.org/1999/02/22-rdf-syntax-ns#" xmlns:svg="http://www.w3.org/2000/svg" xmlns:inkscape="http://www.inkscape.org/namespaces/inkscape" xmlns:sodipodi="http://sodipodi.sourceforge.net/DTD/sodipodi-0.dtd"
	 xmlns="http://www.w3.org/2000/svg" xmlns:xlink="http://www.w3.org/1999/xlink" x="0px" y="0px" width="667.644px"
	 height="628.149px" viewBox="-28.34 -22.416 667.644 628.149" enable-background="new -28.34 -22.416 667.644 628.149"
	 xml:space="preserve">
<g>
	<path d="M358.799,146.484L188.554-0.598l-10.489,30.892l-15.15-5.145l14.307-42.137c0.855-2.52,2.908-4.45,5.477-5.148
		c2.568-0.697,5.316-0.074,7.329,1.667l179.232,154.846L358.799,146.484z"/>
</g>
<g>
	<path d="M364.491,148.417l-0.926-15.973l236.461-13.704c2.658-0.156,5.216,1.022,6.828,3.141c1.612,2.117,2.065,4.898,1.21,7.418
		l-14.308,42.137l-15.15-5.144l10.489-30.892L364.491,148.417z"/>
</g>
<text transform="matrix(0.7147 -0.6995 0.6995 0.7147 339.9219 519.085)" font-family="'NeueHaasUnicaPro-Bold'" font-size="89.6963">Journal</text>
<g>
	<polygon fill="none" points="234.953,558.652 473.182,580.361 610.363,176.337 370.29,160.061 	"/>
	<path d="M126.46,265.625c2.641,0.312,5.071-0.405,7.286-2.153c2.258-1.781,3.543-3.994,3.856-6.636
		c0.311-2.642-0.423-5.092-2.205-7.35c-1.748-2.216-3.935-3.469-6.559-3.759c-2.625-0.291-5.067,0.455-7.325,2.236
		c-2.215,1.748-3.489,3.933-3.816,6.553c-0.33,2.619,0.38,5.037,2.128,7.253C121.606,264.027,123.817,265.312,126.46,265.625z"/>
	<path d="M147.019,291.688c2.641,0.312,5.07-0.406,7.286-2.154c2.258-1.781,3.543-3.993,3.856-6.635
		c0.311-2.642-0.424-5.093-2.205-7.351c-1.748-2.215-3.935-3.468-6.558-3.758c-2.625-0.291-5.067,0.455-7.325,2.236
		c-2.215,1.748-3.489,3.933-3.816,6.553c-0.33,2.619,0.38,5.037,2.127,7.252C142.165,290.089,144.377,291.375,147.019,291.688z"/>
	<path d="M204.043,152.271c-2.408-0.348-5.074,0.327-7.999,2.025l12.333,15.634c2.358-2.318,3.644-4.722,3.853-7.208
		c0.207-2.488-0.503-4.765-2.132-6.83C208.467,153.825,206.449,152.618,204.043,152.271z"/>
	<path d="M244.616,203.777c0.207-2.488-0.503-4.765-2.132-6.83c-1.631-2.066-3.648-3.272-6.056-3.62
		c-2.408-0.348-5.074,0.327-7.998,2.025l12.333,15.634C243.122,208.667,244.407,206.264,244.616,203.777z"/>
	<path d="M145.563,307.528l-5.404-7.787c-5.561,4.386-11.408,5.704-17.543,3.956c-6.136-1.749-11.551-5.599-16.245-11.549
		c-3.29-4.17-5.445-8.778-6.464-13.822c-1.631-7.874,0.703-14.295,7.001-19.264l-6.772-6.709
		c-7.385,5.826-11.26,13.218-11.628,22.176c-0.369,8.958,2.583,17.41,8.854,25.359c6.715,8.514,14.636,13.328,23.761,14.445
		C130.249,315.45,138.396,313.183,145.563,307.528z"/>
	<path d="M631.535,153.835c-1.141-0.445-2.342-0.717-3.563-0.806l-262.14-17.912L147.163-10.223
		c-0.811-0.529-1.682-0.96-2.594-1.285c-0.12-0.045-0.242-0.088-0.363-0.129c-6.402-2.171-13.353,1.259-15.523,7.661L-16.74,424.315
		c-1.794,5.346,0.296,11.227,5.062,14.241L211.854,579.69c2.042,1.404,4.464,2.157,6.942,2.156l261.745,23.836
		c5.615,0.511,10.854-2.882,12.686-8.215l145.421-428.291C640.756,162.984,637.624,156.228,631.535,153.835z M290.139,215.792
		l-28.804,22.721l0.111,0.141l23.547,0.161l8.777,11.127l-27.2-0.593l-7.408,30.292l-9.61-12.183l7.317-25.194l-0.111-0.141
		l-16.761,13.222l-7.777-9.859l50.142-39.554L290.139,215.792z M239.491,183.885c3.755,1.38,7.075,3.901,9.965,7.562
		c3.222,4.084,4.912,8.424,5.073,13.021c0.159,4.596-1.146,8.901-3.92,12.917c-1.802,2.639-4.559,5.423-8.266,8.348l-20.276-25.704
		c-3.365,2.882-5.261,5.692-5.69,8.429c-0.429,2.738,0.263,5.257,2.077,7.558c1.519,1.925,3.236,3.161,5.152,3.706
		c1.916,0.545,3.715,0.343,5.404-0.607l7.944,10.071c-2.579,1.271-5.384,1.865-8.418,1.784c-3.035-0.082-6.034-0.915-8.997-2.499
		c-2.965-1.585-5.65-3.902-8.058-6.954c-2.926-3.709-4.633-7.541-5.125-11.494c-0.491-3.954,0.163-7.782,1.963-11.488
		c1.8-3.704,4.601-7.057,8.403-10.057c3.567-2.814,7.317-4.629,11.245-5.443C231.896,182.222,235.736,182.505,239.491,183.885z
		 M222.143,163.412c0.159,4.596-1.146,8.901-3.92,12.918c-1.802,2.639-4.559,5.423-8.266,8.348l-20.276-25.704
		c-3.364,2.882-5.261,5.692-5.69,8.43c-0.429,2.738,0.263,5.257,2.078,7.558c1.518,1.924,3.235,3.16,5.151,3.705
		c1.916,0.546,3.715,0.343,5.404-0.607l7.944,10.07c-2.579,1.271-5.384,1.865-8.418,1.784c-3.035-0.082-6.033-0.915-8.997-2.499
		c-2.965-1.585-5.65-3.902-8.057-6.954c-2.927-3.709-4.634-7.541-5.126-11.495c-0.49-3.954,0.163-7.782,1.963-11.487
		c1.8-3.705,4.602-7.057,8.404-10.057c3.566-2.814,7.316-4.629,11.244-5.443c3.928-0.813,7.768-0.529,11.522,0.85
		c3.755,1.38,7.076,3.901,9.965,7.563C220.291,154.476,221.981,158.816,222.143,163.412z M163.425,55.159l7.999,10.141
		l-15.406,17.98c-6.421,7.502-12.688,14.425-18.803,20.772l0.111,0.141c8.089-4.324,16.522-8.503,25.303-12.533l21.684-10.022
		l10.332,13.099l-14.795,18.755c-5.965,7.599-11.991,14.829-18.08,21.688l0.111,0.141c7.596-4.469,15.788-8.952,24.58-13.449
		l21.072-10.796l7.999,10.141l-58.419,29.061l-10.61-13.451l16.193-20.313c5.999-7.552,12.011-14.655,18.034-21.31l-0.111-0.141
		c-7.874,4.308-16.183,8.499-24.923,12.577l-23.525,11.018l-10.61-13.451L163.425,55.159z M74.424,318.513
		c-10.417-13.205-14.601-28.157-12.55-44.853c2.005-16.663,9.633-30.219,22.882-40.671c13.248-10.45,28.207-14.712,44.88-12.783
		c16.671,1.929,30.215,9.495,40.632,22.7c10.45,13.248,14.708,28.248,12.77,44.997s-9.532,30.35-22.779,40.8
		c-13.249,10.451-28.243,14.669-44.983,12.654C98.492,339.375,84.874,331.76,74.424,318.513z M153.423,457.044
		c-0.49,5.527-2.382,10.355-5.673,14.485c-3.292,4.131-7.845,7.301-13.658,9.51c-5.814,2.21-11.323,2.864-16.526,1.963
		c-5.205-0.901-9.825-3.255-13.862-7.061c-4.038-3.807-7.278-8.925-9.722-15.354c-2.443-6.428-3.419-12.405-2.93-17.934
		c0.49-5.526,2.38-10.356,5.673-14.487c3.292-4.129,7.844-7.299,13.658-9.509c5.812-2.209,11.321-2.863,16.526-1.964
		c5.204,0.902,9.826,3.257,13.863,7.062c4.038,3.808,7.278,8.925,9.721,15.353C152.936,445.538,153.913,451.517,153.423,457.044z
		 M198.225,455.128l-9.497-24.986c-1.189-3.13-2.739-5.227-4.647-6.293c-1.909-1.064-4.036-1.152-6.384-0.26
		c-2.515,0.956-4.165,2.719-4.947,5.286c-0.784,2.569-0.463,5.726,0.96,9.471l8.668,22.806l-11.738,4.461l-16.188-42.593
		l10.983-4.174l2.04,5.365l0.168-0.064c0.709-2.508,1.908-4.738,3.597-6.692c1.688-1.952,3.846-3.428,6.474-4.427
		c4.863-1.849,9.259-1.808,13.191,0.119c3.932,1.929,6.97,5.716,9.116,11.36l9.942,26.16L198.225,455.128z M227.399,442.265
		c-3.919-0.719-7.375-2.489-10.37-5.319c-2.994-2.827-5.351-6.506-7.072-11.033c-1.614-4.248-2.221-8.368-1.819-12.359
		c0.403-3.99,1.825-7.569,4.268-10.737c2.442-3.167,5.843-5.579,10.203-7.236c4.863-1.849,9.51-2.158,13.943-0.934
		c4.432,1.227,8.147,3.765,11.147,7.614c1.976,2.511,3.806,5.976,5.484,10.39l-30.604,11.632c1.74,4.073,3.852,6.727,6.334,7.956
		c2.483,1.231,5.093,1.327,7.833,0.285c2.291-0.87,3.985-2.138,5.08-3.803c1.095-1.663,1.442-3.44,1.042-5.337l11.99-4.557
		c0.439,2.841,0.165,5.694-0.823,8.564c-0.988,2.87-2.683,5.482-5.083,7.834c-2.401,2.352-5.418,4.219-9.051,5.599
		C235.485,442.502,231.318,442.981,227.399,442.265z M473.182,580.361l-238.229-21.709L370.29,160.061l240.073,16.276
		L473.182,580.361z"/>
	<path d="M232.919,403.896c-2.311-0.944-4.695-0.951-7.154-0.017c-2.46,0.936-4.217,2.499-5.271,4.69
		c-1.054,2.192-1.21,4.938-0.468,8.237l18.614-7.074C237.137,406.786,235.229,404.841,232.919,403.896z"/>
	<path d="M127.942,430.649c-4.137-2.556-8.61-2.919-13.417-1.092c-4.808,1.827-7.909,5.069-9.305,9.728
		c-1.397,4.656-0.895,10.143,1.506,16.459c2.401,6.317,5.669,10.751,9.807,13.305c4.137,2.554,8.608,2.917,13.417,1.09
		c4.807-1.827,7.908-5.069,9.305-9.726c1.397-4.657,0.895-10.143-1.506-16.46C135.348,437.637,132.079,433.202,127.942,430.649z"/>
	<path fill="#FFFFFF" d="M140.771,423.757c-4.037-3.806-8.659-6.16-13.863-7.062c-5.205-0.899-10.713-0.245-16.526,1.964
		c-5.814,2.21-10.367,5.38-13.658,9.509c-3.292,4.131-5.183,8.961-5.673,14.487c-0.49,5.528,0.487,11.506,2.93,17.934
		c2.443,6.429,5.684,11.547,9.722,15.354c4.038,3.806,8.658,6.159,13.862,7.061c5.204,0.901,10.712,0.247,16.526-1.963
		c5.812-2.209,10.365-5.379,13.658-9.51c3.292-4.13,5.184-8.958,5.673-14.485c0.49-5.527-0.487-11.506-2.93-17.935
		C148.05,432.682,144.81,427.564,140.771,423.757z M139.254,460.413c-1.397,4.656-4.499,7.898-9.305,9.726
		c-4.808,1.827-9.28,1.464-13.417-1.09c-4.137-2.554-7.406-6.987-9.807-13.305c-2.4-6.316-2.903-11.803-1.506-16.459
		c1.396-4.658,4.497-7.9,9.305-9.728c4.807-1.827,9.279-1.464,13.417,1.092c4.137,2.553,7.406,6.987,9.807,13.304
		C140.149,450.271,140.651,455.756,139.254,460.413z"/>
	<path fill="#FFFFFF" d="M190.905,413.146c-3.932-1.927-8.329-1.968-13.191-0.119c-2.628,0.999-4.785,2.475-6.474,4.427
		c-1.689,1.954-2.888,4.185-3.597,6.692l-0.168,0.064l-2.04-5.365l-10.983,4.174l16.188,42.593l11.738-4.461l-8.668-22.806
		c-1.423-3.745-1.744-6.901-0.96-9.471c0.783-2.567,2.432-4.33,4.947-5.286c2.348-0.893,4.475-0.805,6.384,0.26
		c1.908,1.066,3.458,3.163,4.647,6.293l9.497,24.986l11.738-4.461l-9.942-26.16C197.875,418.862,194.836,415.075,190.905,413.146z"
		/>
	<path fill="#FFFFFF" d="M248.953,435.225c2.4-2.352,4.095-4.964,5.083-7.834c0.987-2.87,1.262-5.724,0.823-8.564l-11.99,4.557
		c0.4,1.896,0.053,3.674-1.042,5.337c-1.095,1.665-2.789,2.933-5.08,3.803c-2.74,1.042-5.35,0.946-7.833-0.285
		c-2.482-1.229-4.594-3.883-6.334-7.956l30.604-11.632c-1.678-4.414-3.508-7.879-5.484-10.39c-3-3.85-6.715-6.388-11.147-7.614
		c-4.433-1.225-9.08-0.915-13.943,0.934c-4.36,1.657-7.761,4.069-10.203,7.236c-2.443,3.168-3.865,6.747-4.268,10.737
		c-0.402,3.991,0.205,8.111,1.819,12.359c1.721,4.527,4.078,8.206,7.072,11.033c2.995,2.83,6.451,4.601,10.37,5.319
		c3.919,0.717,8.086,0.237,12.502-1.441C243.534,439.443,246.551,437.576,248.953,435.225z M220.494,408.569
		c1.053-2.191,2.81-3.755,5.271-4.69c2.459-0.935,4.843-0.928,7.154,0.017c2.31,0.945,4.218,2.891,5.721,5.837l-18.614,7.074
		C219.284,413.508,219.44,410.762,220.494,408.569z"/>
	<path fill="#FFFFFF" d="M155.696,107.638c8.74-4.078,17.049-8.27,24.923-12.577l0.111,0.141
		c-6.023,6.654-12.035,13.757-18.034,21.31l-16.193,20.313l10.61,13.451l58.419-29.061l-7.999-10.141l-21.072,10.796
		c-8.792,4.497-16.984,8.98-24.58,13.449l-0.111-0.141c6.089-6.859,12.115-14.089,18.08-21.688l14.795-18.755l-10.332-13.099
		L162.629,91.66c-8.78,4.03-17.214,8.209-25.303,12.533l-0.111-0.141c6.114-6.347,12.382-13.27,18.803-20.772l15.406-17.98
		l-7.999-10.141l-41.864,50.046l10.61,13.451L155.696,107.638z"/>
	<path fill="#FFFFFF" d="M207.104,142.829c-3.755-1.379-7.595-1.663-11.522-0.85c-3.928,0.813-7.678,2.628-11.244,5.443
		c-3.803,3-6.604,6.352-8.404,10.057c-1.8,3.705-2.453,7.534-1.963,11.487c0.492,3.954,2.199,7.785,5.126,11.495
		c2.406,3.051,5.092,5.369,8.057,6.954c2.964,1.584,5.962,2.417,8.997,2.499c3.034,0.081,5.839-0.513,8.418-1.784l-7.944-10.07
		c-1.689,0.95-3.488,1.153-5.404,0.607c-1.916-0.545-3.634-1.781-5.151-3.705c-1.815-2.301-2.507-4.819-2.078-7.558
		c0.43-2.738,2.326-5.548,5.69-8.43l20.276,25.704c3.707-2.925,6.464-5.709,8.266-8.348c2.774-4.017,4.079-8.322,3.92-12.918
		c-0.161-4.596-1.852-8.936-5.073-13.02C214.181,146.729,210.859,144.208,207.104,142.829z M212.229,162.721
		c-0.209,2.486-1.494,4.89-3.853,7.208l-12.333-15.634c2.925-1.698,5.591-2.374,7.999-2.025c2.406,0.348,4.424,1.554,6.055,3.621
		C211.727,157.957,212.437,160.233,212.229,162.721z"/>
	<path fill="#FFFFFF" d="M208.32,198.534c-1.8,3.706-2.454,7.534-1.963,11.488c0.492,3.954,2.199,7.785,5.125,11.494
		c2.407,3.052,5.093,5.369,8.058,6.954c2.963,1.584,5.962,2.417,8.997,2.499c3.034,0.081,5.839-0.513,8.418-1.784l-7.944-10.071
		c-1.689,0.951-3.488,1.153-5.404,0.607c-1.916-0.545-3.634-1.781-5.152-3.706c-1.814-2.301-2.506-4.819-2.077-7.558
		c0.43-2.737,2.325-5.547,5.69-8.429l20.276,25.704c3.707-2.925,6.464-5.709,8.266-8.348c2.774-4.016,4.079-8.321,3.92-12.917
		c-0.161-4.596-1.852-8.936-5.073-13.021c-2.89-3.662-6.21-6.183-9.965-7.562c-3.755-1.379-7.595-1.663-11.522-0.85
		c-3.928,0.814-7.678,2.628-11.245,5.443C212.921,191.478,210.12,194.83,208.32,198.534z M236.429,193.327
		c2.407,0.348,4.425,1.554,6.056,3.62c1.629,2.065,2.339,4.342,2.132,6.83c-0.209,2.487-1.494,4.89-3.853,7.209l-12.333-15.634
		C231.354,193.654,234.021,192.979,236.429,193.327z"/>
	<polygon fill="#FFFFFF" points="239.997,255.346 256.758,242.124 256.869,242.265 249.552,267.458 259.162,279.641 266.57,249.349 
		293.771,249.942 284.993,238.815 261.446,238.654 261.335,238.513 290.139,215.792 282.361,205.933 232.22,245.486 	"/>
	<path fill="#FFFFFF" d="M160.258,328.703c13.248-10.45,20.841-24.051,22.779-40.8s-2.319-31.749-12.77-44.997
		c-10.417-13.205-23.961-20.771-40.632-22.7c-16.673-1.929-31.632,2.333-44.88,12.783c-13.249,10.452-20.876,24.008-22.882,40.671
		c-2.051,16.695,2.133,31.647,12.55,44.853c10.45,13.247,24.068,20.862,40.851,22.845
		C132.015,343.372,147.009,339.154,160.258,328.703z M138.256,280.579c0.328-2.62,1.601-4.805,3.816-6.553
		c2.258-1.781,4.7-2.527,7.325-2.236c2.624,0.29,4.811,1.543,6.558,3.758c1.781,2.258,2.516,4.709,2.205,7.351
		c-0.312,2.642-1.598,4.854-3.856,6.635c-2.215,1.748-4.645,2.467-7.286,2.154c-2.642-0.312-4.854-1.599-6.636-3.856
		C138.636,285.616,137.926,283.198,138.256,280.579z M117.697,254.517c0.328-2.62,1.602-4.805,3.816-6.553
		c2.258-1.781,4.7-2.527,7.325-2.236c2.624,0.29,4.811,1.543,6.559,3.759c1.781,2.258,2.515,4.708,2.205,7.35
		c-0.312,2.642-1.598,4.854-3.856,6.636c-2.215,1.748-4.645,2.466-7.286,2.153c-2.643-0.312-4.854-1.598-6.635-3.855
		C118.077,259.554,117.367,257.136,117.697,254.517z M97.362,299.889c-6.271-7.949-9.223-16.401-8.854-25.359
		c0.368-8.958,4.243-16.35,11.628-22.176l6.772,6.709c-6.298,4.969-8.633,11.39-7.001,19.264c1.02,5.044,3.175,9.652,6.464,13.822
		c4.694,5.95,10.109,9.8,16.245,11.549c6.135,1.748,11.982,0.43,17.543-3.956l5.404,7.787c-7.167,5.654-15.314,7.922-24.439,6.806
		C111.999,313.217,104.078,308.402,97.362,299.889z"/>
</g>
</svg>
