<?xml version="1.0" encoding="utf-8"?>
<!-- Generator: Adobe Illustrator 16.0.0, SVG Export Plug-In . SVG Version: 6.00 Build 0)  -->
<!DOCTYPE svg PUBLIC "-//W3C//DTD SVG 1.1//EN" "http://www.w3.org/Graphics/SVG/1.1/DTD/svg11.dtd">
<svg version="1.1"
	 id="Layer_1" xmlns:dc="http://purl.org/dc/elements/1.1/" xmlns:cc="http://creativecommons.org/ns#" xmlns:rdf="http://www.w3.org/1999/02/22-rdf-syntax-ns#" xmlns:svg="http://www.w3.org/2000/svg" xmlns:inkscape="http://www.inkscape.org/namespaces/inkscape" xmlns:sodipodi="http://sodipodi.sourceforge.net/DTD/sodipodi-0.dtd"
	 xmlns="http://www.w3.org/2000/svg" xmlns:xlink="http://www.w3.org/1999/xlink" x="0px" y="0px" width="667.644px"
	 height="628.149px" viewBox="-28.34 -22.416 667.644 628.149" enable-background="new -28.34 -22.416 667.644 628.149"
	 xml:space="preserve">
<path d="M631.535,153.835c-1.141-0.445-2.342-0.717-3.563-0.806l-262.14-17.912L147.163-10.223c-0.811-0.529-1.682-0.96-2.594-1.285
	c-0.12-0.045-0.242-0.088-0.363-0.129c-6.402-2.171-13.353,1.259-15.523,7.661L-16.74,424.315
	c-1.794,5.346,0.296,11.227,5.062,14.241L211.854,579.69c2.042,1.404,4.464,2.157,6.942,2.156l261.745,23.836
	c5.615,0.511,10.854-2.882,12.686-8.215l145.421-428.291C640.756,162.984,637.624,156.228,631.535,153.835z M473.182,580.361
	l-238.229-21.709L370.29,160.061l240.073,16.276L473.182,580.361z"/>
<g>
	<path d="M358.799,146.484L188.554-0.598l-10.489,30.892l-15.15-5.145l14.307-42.137c0.855-2.52,2.908-4.45,5.477-5.148
		c2.568-0.697,5.316-0.074,7.329,1.667l179.232,154.846L358.799,146.484z"/>
</g>
<g>
	<path d="M364.491,148.417l-0.926-15.973l236.461-13.704c2.658-0.156,5.216,1.022,6.828,3.141c1.612,2.117,2.065,4.898,1.21,7.418
		l-14.308,42.137l-15.15-5.144l10.489-30.892L364.491,148.417z"/>
</g>
<text transform="matrix(0.9348 -0.3553 0.3553 0.9348 102.2241 491.6162)" fill="#FFFFFF" font-family="'NeueHaasUnicaPro-Bold'" font-size="89.6963">One</text>
<text transform="matrix(0.6193 0.7851 -0.7851 0.6193 112.7832 94.0786)" fill="#FFFFFF" font-family="'NeueHaasUnicaPro-Bold'" font-size="89.6963">Week</text>
<text transform="matrix(0.7147 -0.6995 0.6995 0.7147 339.9219 519.085)" font-family="'NeueHaasUnicaPro-Bold'" font-size="89.6963">Journal</text>
<text transform="matrix(0.6193 0.7851 -0.7851 0.6193 35.8379 269.4639)" fill="#FFFFFF" font-family="'Helvetica'" font-size="169.9589">☻</text>
</svg>
