<?xml version="1.0" encoding="utf-8"?>
<!-- Generator: Adobe Illustrator 16.0.0, SVG Export Plug-In . SVG Version: 6.00 Build 0)  -->
<!DOCTYPE svg PUBLIC "-//W3C//DTD SVG 1.1//EN" "http://www.w3.org/Graphics/SVG/1.1/DTD/svg11.dtd">
<svg version="1.1"
	 id="Layer_1" xmlns:dc="http://purl.org/dc/elements/1.1/" xmlns:cc="http://creativecommons.org/ns#" xmlns:rdf="http://www.w3.org/1999/02/22-rdf-syntax-ns#" xmlns:svg="http://www.w3.org/2000/svg" xmlns:inkscape="http://www.inkscape.org/namespaces/inkscape" xmlns:sodipodi="http://sodipodi.sourceforge.net/DTD/sodipodi-0.dtd"
	 xmlns="http://www.w3.org/2000/svg" xmlns:xlink="http://www.w3.org/1999/xlink" x="0px" y="0px" width="667.644px"
	 height="628.149px" viewBox="0 0 667.644 628.149" enable-background="new 0 0 667.644 628.149" xml:space="preserve">
<path fill="none" stroke="#020202" stroke-width="5" stroke-miterlimit="10" d="M226.822,500.575"/>
<g>
	<path fill="#020202" d="M210.365,310.323c-1.939,16.748-9.531,30.347-22.778,40.796c-13.248,10.45-28.241,14.668-44.979,12.651
		c-16.782-1.981-30.399-9.597-40.848-22.844c-10.415-13.204-14.599-28.154-12.549-44.849c2.006-16.661,9.632-30.216,22.88-40.666
		c13.247-10.449,28.206-14.711,44.876-12.781c16.67,1.928,30.214,9.494,40.629,22.698
		C208.046,278.576,212.303,293.575,210.365,310.323z M167.49,322.159c-5.56,4.386-11.407,5.703-17.542,3.955
		c-6.136-1.749-11.55-5.599-16.244-11.549c-3.289-4.17-5.443-8.776-6.463-13.82c-1.631-7.873,0.703-14.293,7.001-19.261
		l-6.771-6.709c-7.385,5.825-11.26,13.216-11.627,22.173c-0.37,8.957,2.583,17.41,8.852,25.357
		c6.714,8.513,14.635,13.328,23.76,14.444s17.27-1.151,24.437-6.805L167.49,322.159z M147.158,284.19
		c1.78,2.257,3.992,3.544,6.634,3.855c2.641,0.311,5.07-0.406,7.286-2.154c2.258-1.78,3.543-3.993,3.855-6.634
		c0.311-2.642-0.424-5.094-2.205-7.351c-1.747-2.215-3.934-3.468-6.558-3.758c-2.625-0.29-5.066,0.456-7.324,2.236
		c-2.215,1.748-3.488,3.932-3.816,6.552C144.701,279.557,145.411,281.975,147.158,284.19z M167.715,310.25
		c1.78,2.258,3.993,3.545,6.635,3.856c2.64,0.311,5.07-0.406,7.285-2.154c2.258-1.78,3.543-3.993,3.855-6.634
		c0.312-2.642-0.424-5.094-2.205-7.352c-1.748-2.215-3.934-3.467-6.558-3.757c-2.625-0.29-5.066,0.456-7.324,2.236
		c-2.215,1.748-3.488,3.932-3.816,6.552C165.258,305.618,165.967,308.035,167.715,310.25z"/>
</g>
<rect x="108.603" y="142.617" transform="matrix(0.6223 0.7828 -0.7828 0.6223 238.3757 -114.7907)" fill="none" stroke="#020202" stroke-width="5" stroke-miterlimit="10" width="259.07" height="94"/>
<g>
	<path d="M173.847,159.25l16.194-20.315c6.001-7.552,12.013-14.656,18.037-21.311l-0.111-0.142
		c-7.875,4.308-16.185,8.5-24.926,12.578l-23.528,11.019l-10.61-13.452l41.868-50.05l8,10.142l-15.407,17.98
		c-6.422,7.503-12.69,14.427-18.804,20.774l0.11,0.141c8.09-4.324,16.524-8.503,25.304-12.533l21.686-10.022l10.334,13.101
		l-14.797,18.755c-5.964,7.6-11.993,14.83-18.082,21.689l0.111,0.141c7.596-4.468,15.79-8.952,24.582-13.449l21.075-10.796l8,10.142
		l-58.424,29.062L173.847,159.25z"/>
	<path d="M218.566,201.095c1.916,0.546,3.717,0.343,5.406-0.607l7.944,10.072c-2.578,1.271-5.384,1.865-8.418,1.785
		c-3.035-0.083-6.035-0.916-8.999-2.501c-2.964-1.585-5.65-3.903-8.057-6.955c-2.926-3.709-4.635-7.541-5.126-11.495
		s0.163-7.782,1.963-11.488c1.8-3.704,4.602-7.058,8.405-10.058c3.568-2.814,7.317-4.629,11.245-5.442
		c3.929-0.813,7.769-0.53,11.524,0.849c3.754,1.381,7.077,3.902,9.965,7.564c3.222,4.085,4.913,8.425,5.073,13.021
		c0.159,4.597-1.147,8.902-3.92,12.918c-1.803,2.64-4.558,5.425-8.267,8.351l-20.279-25.708c-3.364,2.882-5.261,5.691-5.69,8.43
		c-0.43,2.739,0.263,5.258,2.078,7.559C214.934,199.314,216.651,200.55,218.566,201.095z M231.392,174.698
		c-2.408-0.348-5.075,0.326-8,2.026l12.333,15.635c2.36-2.318,3.645-4.723,3.854-7.21c0.208-2.488-0.502-4.765-2.132-6.83
		C235.817,176.252,233.797,175.045,231.392,174.698z"/>
	<path d="M250.955,242.155c1.916,0.546,3.716,0.344,5.405-0.606l7.944,10.071c-2.578,1.271-5.384,1.866-8.417,1.785
		c-3.036-0.082-6.035-0.916-8.999-2.501c-2.964-1.584-5.65-3.903-8.057-6.955c-2.926-3.709-4.634-7.54-5.125-11.494
		c-0.491-3.954,0.163-7.783,1.963-11.488c1.8-3.704,4.602-7.058,8.405-10.058c3.568-2.814,7.317-4.629,11.246-5.442
		c3.928-0.814,7.769-0.53,11.523,0.849c3.754,1.381,7.077,3.901,9.965,7.563c3.223,4.085,4.913,8.425,5.074,13.021
		c0.159,4.598-1.147,8.903-3.92,12.919c-1.802,2.64-4.558,5.424-8.267,8.35l-20.279-25.708c-3.364,2.883-5.261,5.692-5.69,8.43
		c-0.43,2.74,0.263,5.258,2.078,7.559C247.322,240.374,249.04,241.611,250.955,242.155z M263.78,215.758
		c-2.408-0.349-5.075,0.326-8,2.025l12.333,15.635c2.359-2.318,3.645-4.722,3.854-7.209c0.208-2.489-0.503-4.766-2.132-6.831
		C268.206,217.312,266.186,216.106,263.78,215.758z"/>
	<path d="M276.904,289.897l7.317-25.196l-0.111-0.141l-16.763,13.223l-7.777-9.86l50.146-39.556l7.777,9.86l-28.806,22.723
		l0.111,0.141l23.549,0.162l8.778,11.127l-27.203-0.593l-7.409,30.295L276.904,289.897z"/>
</g>
<ellipse transform="matrix(0.9444 -0.3287 0.3287 0.9444 -139.4216 91.592)" fill="none" stroke="#020202" stroke-width="5" stroke-miterlimit="10" cx="201.234" cy="458.229" rx="102.5" ry="69.5"/>
<g>
	<path d="M154.251,439.106c5.203,0.901,9.826,3.256,13.864,7.062c4.039,3.808,7.28,8.926,9.723,15.354
		c2.443,6.43,3.42,12.408,2.929,17.936c-0.489,5.528-2.381,10.358-5.673,14.488c-3.292,4.131-7.846,7.301-13.659,9.51
		c-5.815,2.211-11.324,2.865-16.528,1.964c-5.205-0.901-9.826-3.255-13.864-7.062c-4.038-3.807-7.279-8.924-9.723-15.354
		c-2.443-6.428-3.42-12.407-2.93-17.936c0.49-5.527,2.381-10.358,5.674-14.488c3.291-4.13,7.844-7.3,13.659-9.51
		C143.537,438.861,149.046,438.206,154.251,439.106z M132.56,461.698c-1.396,4.656-0.895,10.145,1.507,16.461
		c2.401,6.318,5.67,10.752,9.808,13.307c4.138,2.554,8.609,2.917,13.418,1.089c4.807-1.827,7.909-5.069,9.306-9.727
		c1.397-4.658,0.896-10.143-1.506-16.461c-2.4-6.316-5.67-10.753-9.808-13.307s-8.61-2.917-13.418-1.09
		C137.058,453.798,133.958,457.041,132.56,461.698z"/>
	<path d="M218.253,435.557c3.932,1.929,6.971,5.716,9.117,11.361l9.944,26.162l-11.739,4.462l-9.498-24.988
		c-1.189-3.13-2.739-5.229-4.647-6.295c-1.909-1.064-4.038-1.152-6.385-0.261c-2.516,0.956-4.165,2.72-4.947,5.287
		c-0.784,2.57-0.463,5.729,0.96,9.473l8.668,22.808l-11.739,4.462l-16.19-42.598l10.984-4.175l2.04,5.367l0.168-0.064
		c0.71-2.508,1.909-4.739,3.598-6.693c1.689-1.952,3.846-3.429,6.474-4.428C209.924,433.588,214.322,433.629,218.253,435.557z"/>
	<path d="M269.18,451.132c1.095-1.665,1.441-3.442,1.042-5.339l11.991-4.557c0.439,2.84,0.164,5.694-0.823,8.565
		c-0.988,2.871-2.683,5.482-5.083,7.834c-2.402,2.353-5.419,4.219-9.052,5.6c-4.417,1.679-8.584,2.158-12.503,1.442
		c-3.919-0.718-7.376-2.491-10.37-5.32c-2.995-2.827-5.353-6.506-7.073-11.034c-1.614-4.247-2.222-8.369-1.819-12.36
		c0.402-3.991,1.825-7.569,4.267-10.738c2.443-3.168,5.844-5.581,10.204-7.238c4.864-1.849,9.512-2.159,13.944-0.933
		s8.148,3.765,11.147,7.613c1.978,2.514,3.807,5.977,5.485,10.392l-30.606,11.633c1.74,4.075,3.852,6.727,6.335,7.957
		c2.483,1.231,5.095,1.326,7.834,0.285C266.392,454.063,268.085,452.795,269.18,451.132z M247.845,430.979
		c-1.054,2.193-1.21,4.938-0.467,8.238l18.615-7.075c-1.504-2.946-3.412-4.893-5.723-5.839c-2.311-0.944-4.696-0.949-7.155-0.015
		C250.655,427.223,248.899,428.789,247.845,430.979z"/>
</g>
<rect x="279.145" y="365.66" transform="matrix(0.7111 -0.7031 0.7031 0.7111 -157.3925 442.3114)" fill="none" stroke="#020202" stroke-width="5" stroke-miterlimit="10" width="360.663" height="94"/>
<g enable-background="new    ">
	<path d="M380.732,522.112c-0.052,4.779-2.685,9.719-7.898,14.822c-1.625,1.59-3.18,2.777-4.669,3.564l-7.843-8.014
		c1.364-0.914,2.471-1.791,3.326-2.629c1.624-1.588,2.678-3.1,3.157-4.533c0.482-1.432,0.351-3.018-0.393-4.76
		c-0.742-1.742-2.264-3.789-4.564-6.139l-28.486-29.107l9.424-9.223l30.432,31.092C378.279,512.36,380.784,517.334,380.732,522.112z
		"/>
	<path d="M389.316,458.293c3.881-1.037,7.78-0.92,11.699,0.348c3.919,1.27,7.596,3.656,11.024,7.16
		c3.43,3.504,5.737,7.23,6.922,11.176c1.184,3.945,1.216,7.848,0.096,11.703c-1.12,3.859-3.368,7.439-6.744,10.744
		c-3.377,3.305-7.005,5.475-10.886,6.512s-7.78,0.922-11.7-0.348c-3.92-1.268-7.594-3.654-11.024-7.16
		c-3.429-3.504-5.737-7.229-6.921-11.176c-1.184-3.943-1.216-7.846-0.096-11.703c1.119-3.859,3.367-7.439,6.744-10.744
		C381.805,461.5,385.435,459.331,389.316,458.293z M382.678,479.727c0.537,3.156,2.354,6.316,5.448,9.479
		c3.097,3.164,6.216,5.047,9.359,5.65c3.146,0.605,5.827-0.18,8.05-2.355c2.222-2.174,3.066-4.84,2.528-7.998
		c-0.536-3.154-2.353-6.314-5.448-9.479c-3.095-3.162-6.215-5.045-9.359-5.65c-3.144-0.604-5.828,0.182-8.05,2.355
		C382.984,473.905,382.142,476.571,382.678,479.727z"/>
	<path d="M434.861,470.137c-4.374-0.193-8.674-2.449-12.899-6.766l-19.576-20.004l8.975-8.785l18.698,19.105
		c2.343,2.395,4.602,3.697,6.777,3.912s4.161-0.559,5.956-2.316c1.923-1.883,2.729-4.156,2.42-6.824
		c-0.309-2.666-1.864-5.434-4.668-8.297l-17.066-17.438l8.975-8.785l31.875,32.568l-8.397,8.221l-4.017-4.104l-0.129,0.125
		c0.354,2.584,0.147,5.109-0.62,7.572c-0.768,2.467-2.155,4.684-4.163,6.648C443.282,468.61,439.236,470.334,434.861,470.137z"/>
	<path d="M461.304,385.453l7.591,7.756c-1.362,0.917-2.408,1.729-3.134,2.44c-2.736,2.678-4.004,5.572-3.805,8.682
		c0.199,3.111,1.867,6.27,5.005,9.475l15.06,15.387l-8.976,8.783l-31.875-32.568l8.27-8.094l4.518,4.617l0.129-0.127
		c-0.646-2.797-0.641-5.334,0.019-7.611c0.658-2.276,1.949-4.356,3.872-6.238C459.045,386.909,460.155,386.075,461.304,385.453z"/>
	<path d="M495.766,357.182c4.375,0.195,8.676,2.451,12.899,6.767l19.577,20.003l-8.975,8.785l-18.699-19.105
		c-2.342-2.393-4.602-3.695-6.776-3.91c-2.176-0.213-4.161,0.557-5.956,2.314c-1.924,1.883-2.73,4.158-2.421,6.824
		c0.31,2.67,1.867,5.435,4.669,8.298l17.066,17.437l-8.975,8.785l-31.875-32.568l8.398-8.22l4.016,4.104l0.128-0.126
		c-0.354-2.582-0.146-5.106,0.62-7.572c0.768-2.466,2.154-4.682,4.163-6.648C487.345,358.709,491.392,356.988,495.766,357.182z"/>
	<path d="M530.138,322.663c4.463-0.141,8.786,1.925,12.969,6.197l11.546,11.797c3.598,3.676,6.803,6.354,9.619,8.033l-8.078,7.905
		c-1.513-0.946-3.084-2.254-4.715-3.92l-0.129,0.126c0.953,5.763-0.901,10.922-5.559,15.48c-3.377,3.305-6.979,5.01-10.808,5.117
		c-3.828,0.107-7.144-1.271-9.946-4.135c-2.719-2.777-3.943-5.973-3.671-9.586c0.271-3.611,2.317-8,6.136-13.16
		c2.317-3.104,4.739-6.061,7.264-8.867l-1.129-1.153c-1.924-1.965-3.817-2.958-5.678-2.979c-1.86-0.019-3.624,0.787-5.29,2.418
		c-1.667,1.631-2.532,3.336-2.593,5.11c-0.062,1.776,0.617,3.474,2.038,5.097l-8.719,8.533c-3.051-3.457-4.403-7.404-4.06-11.843
		c0.344-4.437,2.737-8.83,7.183-13.181C521.135,325.135,525.675,322.806,530.138,322.663z M534.25,350.206
		c-1.546,2.184-2.391,4.015-2.533,5.492c-0.143,1.479,0.413,2.858,1.669,4.141c1.213,1.24,2.603,1.826,4.167,1.758
		c1.566-0.067,3.118-0.854,4.657-2.359c0.982-0.963,1.775-2.053,2.382-3.273c0.604-1.221,0.914-2.422,0.927-3.606
		c0.015-1.437-0.298-2.741-0.942-3.911c-0.642-1.17-1.737-2.545-3.285-4.127l-1.192-1.218
		C537.703,345.782,535.753,348.151,534.25,350.206z"/>
	<path d="M571.708,341.411l-44.676-45.646l8.976-8.784l44.675,45.647L571.708,341.411z"/>
</g>
</svg>
