<?xml version="1.0" encoding="utf-8"?>
<!-- Generator: Adobe Illustrator 16.0.0, SVG Export Plug-In . SVG Version: 6.00 Build 0)  -->
<!DOCTYPE svg PUBLIC "-//W3C//DTD SVG 1.1//EN" "http://www.w3.org/Graphics/SVG/1.1/DTD/svg11.dtd">
<svg version="1.1"
	 id="Layer_1" xmlns:dc="http://purl.org/dc/elements/1.1/" xmlns:cc="http://creativecommons.org/ns#" xmlns:rdf="http://www.w3.org/1999/02/22-rdf-syntax-ns#" xmlns:svg="http://www.w3.org/2000/svg" xmlns:inkscape="http://www.inkscape.org/namespaces/inkscape" xmlns:sodipodi="http://sodipodi.sourceforge.net/DTD/sodipodi-0.dtd"
	 xmlns="http://www.w3.org/2000/svg" xmlns:xlink="http://www.w3.org/1999/xlink" x="0px" y="0px" width="667.644px"
	 height="628.149px" viewBox="0 0 667.644 628.149" enable-background="new 0 0 667.644 628.149" xml:space="preserve">
<polygon fill="#FFFFFF" points="618.322,184.575 625.656,152.575 401.656,167.497 "/>
<path fill="#FFFFFF" d="M391.639,167.497L212.322,10.127l-16.667,34.447c0,0,138.354,139.85,196.177,126.258"/>
<polygon fill="#FFFFFF" points="384.996,172.991 653.663,189.657 513.368,617.658 241.663,594.991 "/>
<path d="M658.875,176.251c-1.141-0.445-2.342-0.717-3.562-0.806l-262.141-17.912L174.504,12.193
	c-0.811-0.529-1.682-0.96-2.594-1.285c-0.12-0.045-0.242-0.088-0.363-0.129c-6.402-2.171-13.353,1.259-15.523,7.661L10.601,446.731
	c-1.794,5.346,0.296,11.227,5.062,14.24l223.532,141.135c2.042,1.404,4.464,2.156,6.942,2.156l261.745,23.836
	c5.615,0.512,10.854-2.883,12.686-8.215l145.422-428.292C668.096,185.4,664.965,178.644,658.875,176.251z M500.522,602.778
	l-238.228-21.709l135.337-398.592l240.072,16.276L500.522,602.778z"/>
<g>
	<path d="M386.139,168.9L215.895,21.818L205.406,52.71l-15.15-5.145l14.307-42.137c0.855-2.52,2.908-4.45,5.477-5.148
		c2.568-0.697,5.316-0.074,7.329,1.667L396.6,156.793L386.139,168.9z"/>
</g>
<g>
	<path d="M391.833,170.833l-0.926-15.973l236.461-13.704c2.656-0.156,5.215,1.022,6.826,3.141c1.613,2.117,2.066,4.898,1.211,7.418
		l-14.309,42.137l-15.148-5.144l10.488-30.892L391.833,170.833z"/>
</g>
<text transform="matrix(0.9348 -0.3553 0.3553 0.9348 129.5645 514.0337)" fill="#FFFFFF" font-family="'NeueHaasUnicaPro-Bold'" font-size="89.7003">One</text>
<text transform="matrix(0.6193 0.7851 -0.7851 0.6193 140.124 116.4966)" fill="#FFFFFF" font-family="'NeueHaasUnicaPro-Bold'" font-size="89.6925">Week</text>
<text transform="matrix(0.7147 -0.6995 0.6995 0.7147 367.2642 541.5024)" font-family="'NeueHaasUnicaPro-Bold'" font-size="89.7006">Journal</text>
<text transform="matrix(0.6193 0.7851 -0.7851 0.6193 63.1777 291.8813)" fill="#FFFFFF" font-family="'Helvetica'" font-size="169.9516">☻</text>
</svg>
